G04 #@! TF.FileFunction,Copper,L2,Bot,Signal*
%FSLAX46Y46*%
G04 Gerber Fmt 4.6, Leading zero omitted, Abs format (unit mm)*
G04 Created by KiCad (PCBNEW 4.0.6) date 09/14/17 17:21:39*
%MOMM*%
%LPD*%
G01*
G04 APERTURE LIST*
%ADD10C,0.100000*%
%ADD11C,1.524000*%
%ADD12O,1.727200X1.727200*%
%ADD13R,1.727200X1.727200*%
%ADD14C,2.200000*%
%ADD15C,2.000000*%
%ADD16C,1.143000*%
%ADD17C,0.600000*%
%ADD18C,0.250000*%
%ADD19C,0.254000*%
G04 APERTURE END LIST*
D10*
D11*
X124371100Y-106273600D03*
X124371100Y-103733600D03*
X126911100Y-106273600D03*
X126911100Y-103733600D03*
X129451100Y-106273600D03*
X129451100Y-103733600D03*
X131991100Y-106273600D03*
X131991100Y-103733600D03*
X134531100Y-106273600D03*
X134531100Y-103733600D03*
X137071100Y-106273600D03*
X137071100Y-103733600D03*
X139611100Y-106273600D03*
X139611100Y-103733600D03*
X142151100Y-106273600D03*
X142151100Y-103733600D03*
X144691100Y-106273600D03*
X144691100Y-103733600D03*
X147231100Y-106273600D03*
X147231100Y-103733600D03*
X149771100Y-106273600D03*
X149771100Y-103733600D03*
X152311100Y-106273600D03*
X152311100Y-103733600D03*
X154851100Y-106273600D03*
X154851100Y-103733600D03*
X157391100Y-106273600D03*
X157391100Y-103733600D03*
X159931100Y-106273600D03*
X159931100Y-103733600D03*
X162471100Y-106273600D03*
X162471100Y-103733600D03*
X165011100Y-106273600D03*
X165011100Y-103733600D03*
X167551100Y-106273600D03*
X167551100Y-103733600D03*
X170091100Y-106273600D03*
X170091100Y-103733600D03*
X172631100Y-106273600D03*
X172631100Y-103733600D03*
D12*
X143476000Y-114856000D03*
X140936000Y-114856000D03*
X143476000Y-117396000D03*
X140936000Y-117396000D03*
X143476000Y-119936000D03*
X140936000Y-119936000D03*
D13*
X143476000Y-122476000D03*
D12*
X140936000Y-122476000D03*
D14*
X126960000Y-129540000D03*
X126960000Y-124460000D03*
X132040000Y-124460000D03*
X132040000Y-129540000D03*
D15*
X129500000Y-127000000D03*
D16*
X123400000Y-125100000D03*
D17*
X155400000Y-108700000D03*
X154400000Y-129100000D03*
X163600000Y-128600000D03*
X169100000Y-129300000D03*
X133604000Y-117348000D03*
X140900000Y-126000000D03*
X126000000Y-108600000D03*
X133400000Y-108500000D03*
X131500000Y-115300000D03*
X126800000Y-116100000D03*
X134400000Y-129400000D03*
X145700000Y-113000000D03*
X170600000Y-127300000D03*
X163600000Y-127300000D03*
X156700000Y-127300000D03*
X146000000Y-127500000D03*
X146000000Y-124500000D03*
X146400000Y-117400000D03*
X144000000Y-127500000D03*
X147400000Y-117400000D03*
X144000000Y-124500000D03*
X148500000Y-107600000D03*
X142000000Y-127500000D03*
X143000000Y-124500000D03*
X148400000Y-117400000D03*
X148000000Y-127500000D03*
X149500000Y-117400000D03*
X148000000Y-124500000D03*
X147350000Y-121150000D03*
D18*
X154400000Y-109700000D02*
X155400000Y-108700000D01*
X154400000Y-129100000D02*
X154400000Y-109700000D01*
X156200000Y-128600000D02*
X155400000Y-127800000D01*
X158700000Y-107500000D02*
X158700000Y-105000000D01*
X155400000Y-110800000D02*
X158700000Y-107500000D01*
X155400000Y-127800000D02*
X155400000Y-110800000D01*
X142151100Y-103733600D02*
X142151100Y-103348900D01*
X142151100Y-103348900D02*
X143500000Y-102000000D01*
X158700000Y-102900000D02*
X158700000Y-105000000D01*
X157800000Y-102000000D02*
X158700000Y-102900000D01*
X143500000Y-102000000D02*
X157800000Y-102000000D01*
X156200000Y-128600000D02*
X163600000Y-128600000D01*
X155400000Y-128800000D02*
X154900000Y-128300000D01*
X156100000Y-109400000D02*
X156100000Y-106900000D01*
X154900000Y-110600000D02*
X156100000Y-109400000D01*
X154900000Y-128300000D02*
X154900000Y-110600000D01*
X156100000Y-106500000D02*
X156100000Y-106300000D01*
X156100000Y-106900000D02*
X156100000Y-106500000D01*
X155400000Y-128800000D02*
X155900000Y-129300000D01*
X157200000Y-129300000D02*
X155900000Y-129300000D01*
X157200000Y-129300000D02*
X169100000Y-129300000D01*
X144691100Y-103733600D02*
X144691100Y-103708900D01*
X144691100Y-103708900D02*
X145900000Y-102500000D01*
X156100000Y-103000000D02*
X156100000Y-106300000D01*
X155600000Y-102500000D02*
X156100000Y-103000000D01*
X145900000Y-102500000D02*
X155600000Y-102500000D01*
X143476000Y-122476000D02*
X143424000Y-122476000D01*
X143424000Y-122476000D02*
X140900000Y-125000000D01*
X140900000Y-125000000D02*
X140900000Y-126000000D01*
X132500000Y-108500000D02*
X133400000Y-108500000D01*
X147231100Y-103733600D02*
X147231100Y-103868900D01*
X147231100Y-103868900D02*
X146000000Y-105100000D01*
X146000000Y-105100000D02*
X146000000Y-111300000D01*
X146000000Y-111300000D02*
X145700000Y-111600000D01*
X145700000Y-111600000D02*
X145700000Y-113000000D01*
X153700000Y-112900000D02*
X153700000Y-113900000D01*
X153700000Y-113900000D02*
X153100000Y-114500000D01*
X153700000Y-112400000D02*
X153700000Y-112900000D01*
X154851100Y-107448900D02*
X153700000Y-108600000D01*
X153700000Y-108600000D02*
X153700000Y-112400000D01*
X154851100Y-107448900D02*
X154851100Y-106273600D01*
X142151100Y-106273600D02*
X142151100Y-113640900D01*
X142151100Y-113640900D02*
X140936000Y-114856000D01*
X163600000Y-127300000D02*
X170600000Y-127300000D01*
X156700000Y-127300000D02*
X163600000Y-127300000D01*
X146000000Y-124500000D02*
X146000000Y-127500000D01*
X147231100Y-106273600D02*
X147231100Y-111468900D01*
X146400000Y-112300000D02*
X146400000Y-114000000D01*
X147231100Y-111468900D02*
X146400000Y-112300000D01*
X140936000Y-117396000D02*
X141004000Y-117396000D01*
X141004000Y-117396000D02*
X142300000Y-116100000D01*
X142300000Y-116100000D02*
X146400000Y-116100000D01*
X146400000Y-117400000D02*
X146400000Y-116100000D01*
X146400000Y-116100000D02*
X146400000Y-114000000D01*
X144000000Y-124500000D02*
X144000000Y-127500000D01*
X149771100Y-106273600D02*
X149771100Y-107628900D01*
X146900000Y-112600000D02*
X146900000Y-114000000D01*
X147800000Y-111700000D02*
X146900000Y-112600000D01*
X147800000Y-109600000D02*
X147800000Y-111700000D01*
X149771100Y-107628900D02*
X147800000Y-109600000D01*
X147400000Y-116849998D02*
X146900000Y-116349998D01*
X146900000Y-116349998D02*
X146900000Y-114000000D01*
X147400000Y-117400000D02*
X147400000Y-116849998D01*
X149771100Y-103733600D02*
X149716400Y-103733600D01*
X149716400Y-103733600D02*
X148500000Y-104950000D01*
X148500000Y-104950000D02*
X148500000Y-107600000D01*
X143000000Y-126300000D02*
X143000000Y-126500000D01*
X143000000Y-126500000D02*
X142000000Y-127500000D01*
X152311100Y-106273600D02*
X152126400Y-106273600D01*
X152126400Y-106273600D02*
X148400000Y-110000000D01*
X147400000Y-113000000D02*
X147400000Y-114700000D01*
X148400000Y-112000000D02*
X147400000Y-113000000D01*
X148400000Y-110000000D02*
X148400000Y-112000000D01*
X148400000Y-117400000D02*
X148400000Y-117900000D01*
X144180000Y-118100000D02*
X143476000Y-117396000D01*
X148200000Y-118100000D02*
X144180000Y-118100000D01*
X148400000Y-117900000D02*
X148200000Y-118100000D01*
X148400000Y-117400000D02*
X148400000Y-117000000D01*
X147400000Y-116000000D02*
X147400000Y-114700000D01*
X148400000Y-117000000D02*
X147400000Y-116000000D01*
X143000000Y-126300000D02*
X143000000Y-125600000D01*
X143000000Y-124500000D02*
X143000000Y-125600000D01*
X153600000Y-106300000D02*
X153600000Y-106700000D01*
X148000000Y-113200000D02*
X148000000Y-114800000D01*
X149000000Y-112200000D02*
X148000000Y-113200000D01*
X149000000Y-111300000D02*
X149000000Y-112200000D01*
X153600000Y-106700000D02*
X149000000Y-111300000D01*
X148000000Y-124500000D02*
X148000000Y-127500000D01*
X149500000Y-117400000D02*
X149500000Y-117200000D01*
X149500000Y-117200000D02*
X148000000Y-115700000D01*
X148000000Y-115700000D02*
X148000000Y-114800000D01*
X153600000Y-105022500D02*
X152311100Y-103733600D01*
X153600000Y-106300000D02*
X153600000Y-105022500D01*
X140936000Y-119936000D02*
X142150000Y-121150000D01*
X144500000Y-121150000D02*
X147350000Y-121150000D01*
X142150000Y-121150000D02*
X144500000Y-121150000D01*
D19*
G36*
X142088653Y-102336545D02*
X141874439Y-102336358D01*
X141360797Y-102548590D01*
X140967471Y-102941230D01*
X140887705Y-103133327D01*
X140833497Y-103002457D01*
X140591313Y-102932992D01*
X139790705Y-103733600D01*
X140591313Y-104534208D01*
X140833497Y-104464743D01*
X140883609Y-104324282D01*
X140966090Y-104523903D01*
X141358730Y-104917229D01*
X141566612Y-105003549D01*
X141360797Y-105088590D01*
X140967471Y-105481230D01*
X140881151Y-105689112D01*
X140796110Y-105483297D01*
X140403470Y-105089971D01*
X140211373Y-105010205D01*
X140342243Y-104955997D01*
X140411708Y-104713813D01*
X139611100Y-103913205D01*
X138810492Y-104713813D01*
X138879957Y-104955997D01*
X139020418Y-105006109D01*
X138820797Y-105088590D01*
X138427471Y-105481230D01*
X138341151Y-105689112D01*
X138256110Y-105483297D01*
X137863470Y-105089971D01*
X137655588Y-105003651D01*
X137861403Y-104918610D01*
X138254729Y-104525970D01*
X138334495Y-104333873D01*
X138388703Y-104464743D01*
X138630887Y-104534208D01*
X139431495Y-103733600D01*
X138630887Y-102932992D01*
X138388703Y-103002457D01*
X138338591Y-103142918D01*
X138256110Y-102943297D01*
X138066532Y-102753387D01*
X138810492Y-102753387D01*
X139611100Y-103553995D01*
X140411708Y-102753387D01*
X140342243Y-102511203D01*
X139818798Y-102324456D01*
X139263732Y-102352238D01*
X138879957Y-102511203D01*
X138810492Y-102753387D01*
X138066532Y-102753387D01*
X137863470Y-102549971D01*
X137350200Y-102336843D01*
X136794439Y-102336358D01*
X136280797Y-102548590D01*
X135887471Y-102941230D01*
X135801151Y-103149112D01*
X135716110Y-102943297D01*
X135323470Y-102549971D01*
X134810200Y-102336843D01*
X134254439Y-102336358D01*
X133740797Y-102548590D01*
X133347471Y-102941230D01*
X133261151Y-103149112D01*
X133176110Y-102943297D01*
X132783470Y-102549971D01*
X132270200Y-102336843D01*
X131714439Y-102336358D01*
X131200797Y-102548590D01*
X130807471Y-102941230D01*
X130727705Y-103133327D01*
X130673497Y-103002457D01*
X130431313Y-102932992D01*
X129630705Y-103733600D01*
X130431313Y-104534208D01*
X130673497Y-104464743D01*
X130723609Y-104324282D01*
X130806090Y-104523903D01*
X131198730Y-104917229D01*
X131406612Y-105003549D01*
X131200797Y-105088590D01*
X130807471Y-105481230D01*
X130721151Y-105689112D01*
X130636110Y-105483297D01*
X130243470Y-105089971D01*
X130051373Y-105010205D01*
X130182243Y-104955997D01*
X130251708Y-104713813D01*
X129451100Y-103913205D01*
X128650492Y-104713813D01*
X128719957Y-104955997D01*
X128860418Y-105006109D01*
X128660797Y-105088590D01*
X128267471Y-105481230D01*
X128181151Y-105689112D01*
X128096110Y-105483297D01*
X127703470Y-105089971D01*
X127495588Y-105003651D01*
X127701403Y-104918610D01*
X128094729Y-104525970D01*
X128174495Y-104333873D01*
X128228703Y-104464743D01*
X128470887Y-104534208D01*
X129271495Y-103733600D01*
X128470887Y-102932992D01*
X128228703Y-103002457D01*
X128178591Y-103142918D01*
X128096110Y-102943297D01*
X127906532Y-102753387D01*
X128650492Y-102753387D01*
X129451100Y-103553995D01*
X130251708Y-102753387D01*
X130182243Y-102511203D01*
X129658798Y-102324456D01*
X129103732Y-102352238D01*
X128719957Y-102511203D01*
X128650492Y-102753387D01*
X127906532Y-102753387D01*
X127703470Y-102549971D01*
X127190200Y-102336843D01*
X126634439Y-102336358D01*
X126120797Y-102548590D01*
X125727471Y-102941230D01*
X125641151Y-103149112D01*
X125556110Y-102943297D01*
X125163470Y-102549971D01*
X124650200Y-102336843D01*
X124094439Y-102336358D01*
X123580797Y-102548590D01*
X123187471Y-102941230D01*
X122974343Y-103454500D01*
X122973858Y-104010261D01*
X123186090Y-104523903D01*
X123578730Y-104917229D01*
X123786612Y-105003549D01*
X123580797Y-105088590D01*
X123187471Y-105481230D01*
X122974343Y-105994500D01*
X122973858Y-106550261D01*
X123186090Y-107063903D01*
X123578730Y-107457229D01*
X124092000Y-107670357D01*
X124647761Y-107670842D01*
X125161403Y-107458610D01*
X125554729Y-107065970D01*
X125641049Y-106858088D01*
X125726090Y-107063903D01*
X126118730Y-107457229D01*
X126632000Y-107670357D01*
X127187761Y-107670842D01*
X127701403Y-107458610D01*
X128094729Y-107065970D01*
X128181049Y-106858088D01*
X128266090Y-107063903D01*
X128658730Y-107457229D01*
X129172000Y-107670357D01*
X129727761Y-107670842D01*
X130241403Y-107458610D01*
X130634729Y-107065970D01*
X130721049Y-106858088D01*
X130806090Y-107063903D01*
X131198730Y-107457229D01*
X131712000Y-107670357D01*
X132267761Y-107670842D01*
X132781403Y-107458610D01*
X132986557Y-107253813D01*
X133730492Y-107253813D01*
X133799957Y-107495997D01*
X134323402Y-107682744D01*
X134878468Y-107654962D01*
X135262243Y-107495997D01*
X135331708Y-107253813D01*
X134531100Y-106453205D01*
X133730492Y-107253813D01*
X132986557Y-107253813D01*
X133174729Y-107065970D01*
X133254495Y-106873873D01*
X133308703Y-107004743D01*
X133550887Y-107074208D01*
X134351495Y-106273600D01*
X133550887Y-105472992D01*
X133308703Y-105542457D01*
X133258591Y-105682918D01*
X133176110Y-105483297D01*
X132783470Y-105089971D01*
X132575588Y-105003651D01*
X132781403Y-104918610D01*
X133174729Y-104525970D01*
X133261049Y-104318088D01*
X133346090Y-104523903D01*
X133738730Y-104917229D01*
X133930827Y-104996995D01*
X133799957Y-105051203D01*
X133730492Y-105293387D01*
X134531100Y-106093995D01*
X135331708Y-105293387D01*
X135262243Y-105051203D01*
X135121782Y-105001091D01*
X135321403Y-104918610D01*
X135714729Y-104525970D01*
X135801049Y-104318088D01*
X135886090Y-104523903D01*
X136278730Y-104917229D01*
X136486612Y-105003549D01*
X136280797Y-105088590D01*
X135887471Y-105481230D01*
X135807705Y-105673327D01*
X135753497Y-105542457D01*
X135511313Y-105472992D01*
X134710705Y-106273600D01*
X135511313Y-107074208D01*
X135753497Y-107004743D01*
X135803609Y-106864282D01*
X135886090Y-107063903D01*
X136278730Y-107457229D01*
X136792000Y-107670357D01*
X137347761Y-107670842D01*
X137861403Y-107458610D01*
X138254729Y-107065970D01*
X138341049Y-106858088D01*
X138426090Y-107063903D01*
X138818730Y-107457229D01*
X139332000Y-107670357D01*
X139887761Y-107670842D01*
X140401403Y-107458610D01*
X140794729Y-107065970D01*
X140881049Y-106858088D01*
X140966090Y-107063903D01*
X141358730Y-107457229D01*
X141391100Y-107470670D01*
X141391100Y-113326098D01*
X141313973Y-113403225D01*
X140936000Y-113328041D01*
X140362511Y-113442115D01*
X139876330Y-113766971D01*
X139551474Y-114253152D01*
X139437400Y-114826641D01*
X139437400Y-114885359D01*
X139551474Y-115458848D01*
X139876330Y-115945029D01*
X140147172Y-116126000D01*
X139876330Y-116306971D01*
X139551474Y-116793152D01*
X139437400Y-117366641D01*
X139437400Y-117425359D01*
X139551474Y-117998848D01*
X139876330Y-118485029D01*
X140147172Y-118666000D01*
X139876330Y-118846971D01*
X139551474Y-119333152D01*
X139437400Y-119906641D01*
X139437400Y-119965359D01*
X139551474Y-120538848D01*
X139876330Y-121025029D01*
X140147172Y-121206000D01*
X139876330Y-121386971D01*
X139551474Y-121873152D01*
X139437400Y-122446641D01*
X139437400Y-122505359D01*
X139551474Y-123078848D01*
X139876330Y-123565029D01*
X140362511Y-123889885D01*
X140936000Y-124003959D01*
X141509489Y-123889885D01*
X141995670Y-123565029D01*
X142009737Y-123543977D01*
X142074073Y-123699298D01*
X142252701Y-123877927D01*
X142285927Y-123891690D01*
X142207808Y-123969673D01*
X142065162Y-124313201D01*
X142064838Y-124685167D01*
X142206883Y-125028943D01*
X142240000Y-125062118D01*
X142240000Y-126185198D01*
X141860320Y-126564878D01*
X141814833Y-126564838D01*
X141471057Y-126706883D01*
X141207808Y-126969673D01*
X141065162Y-127313201D01*
X141064838Y-127685167D01*
X141206883Y-128028943D01*
X141469673Y-128292192D01*
X141813201Y-128434838D01*
X142185167Y-128435162D01*
X142528943Y-128293117D01*
X142792192Y-128030327D01*
X142934838Y-127686799D01*
X142934879Y-127639923D01*
X143064991Y-127509811D01*
X143064838Y-127685167D01*
X143206883Y-128028943D01*
X143469673Y-128292192D01*
X143813201Y-128434838D01*
X144185167Y-128435162D01*
X144528943Y-128293117D01*
X144792192Y-128030327D01*
X144934838Y-127686799D01*
X144935162Y-127314833D01*
X144793117Y-126971057D01*
X144760000Y-126937882D01*
X144760000Y-125062463D01*
X144792192Y-125030327D01*
X144934838Y-124686799D01*
X144934839Y-124685167D01*
X145064838Y-124685167D01*
X145206883Y-125028943D01*
X145240000Y-125062118D01*
X145240000Y-126937537D01*
X145207808Y-126969673D01*
X145065162Y-127313201D01*
X145064838Y-127685167D01*
X145206883Y-128028943D01*
X145469673Y-128292192D01*
X145813201Y-128434838D01*
X146185167Y-128435162D01*
X146528943Y-128293117D01*
X146792192Y-128030327D01*
X146934838Y-127686799D01*
X146935162Y-127314833D01*
X146793117Y-126971057D01*
X146760000Y-126937882D01*
X146760000Y-125062463D01*
X146792192Y-125030327D01*
X146934838Y-124686799D01*
X146934839Y-124685167D01*
X147064838Y-124685167D01*
X147206883Y-125028943D01*
X147240000Y-125062118D01*
X147240000Y-126937537D01*
X147207808Y-126969673D01*
X147065162Y-127313201D01*
X147064838Y-127685167D01*
X147206883Y-128028943D01*
X147469673Y-128292192D01*
X147813201Y-128434838D01*
X148185167Y-128435162D01*
X148528943Y-128293117D01*
X148792192Y-128030327D01*
X148934838Y-127686799D01*
X148935162Y-127314833D01*
X148793117Y-126971057D01*
X148760000Y-126937882D01*
X148760000Y-125062463D01*
X148792192Y-125030327D01*
X148934838Y-124686799D01*
X148935162Y-124314833D01*
X148793117Y-123971057D01*
X148530327Y-123707808D01*
X148186799Y-123565162D01*
X147814833Y-123564838D01*
X147471057Y-123706883D01*
X147207808Y-123969673D01*
X147065162Y-124313201D01*
X147064838Y-124685167D01*
X146934839Y-124685167D01*
X146935162Y-124314833D01*
X146793117Y-123971057D01*
X146530327Y-123707808D01*
X146186799Y-123565162D01*
X145814833Y-123564838D01*
X145471057Y-123706883D01*
X145207808Y-123969673D01*
X145065162Y-124313201D01*
X145064838Y-124685167D01*
X144934839Y-124685167D01*
X144935162Y-124314833D01*
X144793117Y-123971057D01*
X144699725Y-123877501D01*
X144877927Y-123699298D01*
X144974600Y-123465909D01*
X144974600Y-122761750D01*
X144815850Y-122603000D01*
X143603000Y-122603000D01*
X143603000Y-122623000D01*
X143349000Y-122623000D01*
X143349000Y-122603000D01*
X143329000Y-122603000D01*
X143329000Y-122349000D01*
X143349000Y-122349000D01*
X143349000Y-122329000D01*
X143603000Y-122329000D01*
X143603000Y-122349000D01*
X144815850Y-122349000D01*
X144974600Y-122190250D01*
X144974600Y-121910000D01*
X146787537Y-121910000D01*
X146819673Y-121942192D01*
X147163201Y-122084838D01*
X147535167Y-122085162D01*
X147878943Y-121943117D01*
X148142192Y-121680327D01*
X148284838Y-121336799D01*
X148285162Y-120964833D01*
X148143117Y-120621057D01*
X147880327Y-120357808D01*
X147536799Y-120215162D01*
X147164833Y-120214838D01*
X146821057Y-120356883D01*
X146787882Y-120390000D01*
X144890134Y-120390000D01*
X144974600Y-119965359D01*
X144974600Y-119906641D01*
X144860526Y-119333152D01*
X144544376Y-118860000D01*
X148200000Y-118860000D01*
X148490839Y-118802148D01*
X148737401Y-118637401D01*
X148937401Y-118437401D01*
X149072668Y-118234959D01*
X149313201Y-118334838D01*
X149685167Y-118335162D01*
X150028943Y-118193117D01*
X150292192Y-117930327D01*
X150434838Y-117586799D01*
X150435162Y-117214833D01*
X150293117Y-116871057D01*
X150030327Y-116607808D01*
X149948726Y-116573924D01*
X148760000Y-115385198D01*
X148760000Y-113514802D01*
X149537401Y-112737401D01*
X149702148Y-112490839D01*
X149760000Y-112200000D01*
X149760000Y-111614802D01*
X154066205Y-107308597D01*
X154119957Y-107495997D01*
X154643402Y-107682744D01*
X155198468Y-107654962D01*
X155340000Y-107596337D01*
X155340000Y-107764947D01*
X155214833Y-107764838D01*
X154871057Y-107906883D01*
X154607808Y-108169673D01*
X154465162Y-108513201D01*
X154465121Y-108560077D01*
X153862599Y-109162599D01*
X153697852Y-109409161D01*
X153640000Y-109700000D01*
X153640000Y-128537537D01*
X153607808Y-128569673D01*
X153465162Y-128913201D01*
X153464838Y-129285167D01*
X153606883Y-129628943D01*
X153869673Y-129892192D01*
X154213201Y-130034838D01*
X154585167Y-130035162D01*
X154928943Y-129893117D01*
X155173843Y-129648645D01*
X155362599Y-129837401D01*
X155609161Y-130002148D01*
X155900000Y-130060000D01*
X168537537Y-130060000D01*
X168569673Y-130092192D01*
X168913201Y-130234838D01*
X169285167Y-130235162D01*
X169628943Y-130093117D01*
X169892192Y-129830327D01*
X170034838Y-129486799D01*
X170035162Y-129114833D01*
X169893117Y-128771057D01*
X169630327Y-128507808D01*
X169286799Y-128365162D01*
X168914833Y-128364838D01*
X168571057Y-128506883D01*
X168537882Y-128540000D01*
X164535053Y-128540000D01*
X164535162Y-128414833D01*
X164393117Y-128071057D01*
X164382079Y-128060000D01*
X170037537Y-128060000D01*
X170069673Y-128092192D01*
X170413201Y-128234838D01*
X170785167Y-128235162D01*
X171128943Y-128093117D01*
X171392192Y-127830327D01*
X171534838Y-127486799D01*
X171535162Y-127114833D01*
X171393117Y-126771057D01*
X171130327Y-126507808D01*
X170786799Y-126365162D01*
X170414833Y-126364838D01*
X170071057Y-126506883D01*
X170037882Y-126540000D01*
X164162463Y-126540000D01*
X164130327Y-126507808D01*
X163786799Y-126365162D01*
X163414833Y-126364838D01*
X163071057Y-126506883D01*
X163037882Y-126540000D01*
X157262463Y-126540000D01*
X157230327Y-126507808D01*
X156886799Y-126365162D01*
X156514833Y-126364838D01*
X156171057Y-126506883D01*
X156160000Y-126517921D01*
X156160000Y-111114802D01*
X159237401Y-108037401D01*
X159402148Y-107790839D01*
X159443347Y-107583717D01*
X159652000Y-107670357D01*
X160207761Y-107670842D01*
X160721403Y-107458610D01*
X161114729Y-107065970D01*
X161201049Y-106858088D01*
X161286090Y-107063903D01*
X161678730Y-107457229D01*
X162192000Y-107670357D01*
X162747761Y-107670842D01*
X163261403Y-107458610D01*
X163654729Y-107065970D01*
X163741049Y-106858088D01*
X163826090Y-107063903D01*
X164218730Y-107457229D01*
X164732000Y-107670357D01*
X165287761Y-107670842D01*
X165801403Y-107458610D01*
X166194729Y-107065970D01*
X166281049Y-106858088D01*
X166366090Y-107063903D01*
X166758730Y-107457229D01*
X167272000Y-107670357D01*
X167827761Y-107670842D01*
X168341403Y-107458610D01*
X168734729Y-107065970D01*
X168821049Y-106858088D01*
X168906090Y-107063903D01*
X169298730Y-107457229D01*
X169812000Y-107670357D01*
X170367761Y-107670842D01*
X170881403Y-107458610D01*
X171086557Y-107253813D01*
X171830492Y-107253813D01*
X171899957Y-107495997D01*
X172423402Y-107682744D01*
X172978468Y-107654962D01*
X173362243Y-107495997D01*
X173431708Y-107253813D01*
X172631100Y-106453205D01*
X171830492Y-107253813D01*
X171086557Y-107253813D01*
X171274729Y-107065970D01*
X171354495Y-106873873D01*
X171408703Y-107004743D01*
X171650887Y-107074208D01*
X172451495Y-106273600D01*
X172810705Y-106273600D01*
X173611313Y-107074208D01*
X173853497Y-107004743D01*
X174040244Y-106481298D01*
X174012462Y-105926232D01*
X173853497Y-105542457D01*
X173611313Y-105472992D01*
X172810705Y-106273600D01*
X172451495Y-106273600D01*
X171650887Y-105472992D01*
X171408703Y-105542457D01*
X171358591Y-105682918D01*
X171276110Y-105483297D01*
X170883470Y-105089971D01*
X170675588Y-105003651D01*
X170881403Y-104918610D01*
X171274729Y-104525970D01*
X171361049Y-104318088D01*
X171446090Y-104523903D01*
X171838730Y-104917229D01*
X172030827Y-104996995D01*
X171899957Y-105051203D01*
X171830492Y-105293387D01*
X172631100Y-106093995D01*
X173431708Y-105293387D01*
X173362243Y-105051203D01*
X173221782Y-105001091D01*
X173421403Y-104918610D01*
X173814729Y-104525970D01*
X174027857Y-104012700D01*
X174028342Y-103456939D01*
X173816110Y-102943297D01*
X173423470Y-102549971D01*
X172910200Y-102336843D01*
X172354439Y-102336358D01*
X171840797Y-102548590D01*
X171447471Y-102941230D01*
X171361151Y-103149112D01*
X171276110Y-102943297D01*
X170883470Y-102549971D01*
X170370200Y-102336843D01*
X169814439Y-102336358D01*
X169300797Y-102548590D01*
X168907471Y-102941230D01*
X168821151Y-103149112D01*
X168736110Y-102943297D01*
X168343470Y-102549971D01*
X167830200Y-102336843D01*
X167274439Y-102336358D01*
X166760797Y-102548590D01*
X166367471Y-102941230D01*
X166287705Y-103133327D01*
X166233497Y-103002457D01*
X165991313Y-102932992D01*
X165190705Y-103733600D01*
X165991313Y-104534208D01*
X166233497Y-104464743D01*
X166283609Y-104324282D01*
X166366090Y-104523903D01*
X166758730Y-104917229D01*
X166966612Y-105003549D01*
X166760797Y-105088590D01*
X166367471Y-105481230D01*
X166281151Y-105689112D01*
X166196110Y-105483297D01*
X165803470Y-105089971D01*
X165611373Y-105010205D01*
X165742243Y-104955997D01*
X165811708Y-104713813D01*
X165011100Y-103913205D01*
X164210492Y-104713813D01*
X164279957Y-104955997D01*
X164420418Y-105006109D01*
X164220797Y-105088590D01*
X163827471Y-105481230D01*
X163741151Y-105689112D01*
X163656110Y-105483297D01*
X163263470Y-105089971D01*
X163055588Y-105003651D01*
X163261403Y-104918610D01*
X163654729Y-104525970D01*
X163734495Y-104333873D01*
X163788703Y-104464743D01*
X164030887Y-104534208D01*
X164831495Y-103733600D01*
X164030887Y-102932992D01*
X163788703Y-103002457D01*
X163738591Y-103142918D01*
X163656110Y-102943297D01*
X163466532Y-102753387D01*
X164210492Y-102753387D01*
X165011100Y-103553995D01*
X165811708Y-102753387D01*
X165742243Y-102511203D01*
X165218798Y-102324456D01*
X164663732Y-102352238D01*
X164279957Y-102511203D01*
X164210492Y-102753387D01*
X163466532Y-102753387D01*
X163263470Y-102549971D01*
X162750200Y-102336843D01*
X162194439Y-102336358D01*
X161680797Y-102548590D01*
X161287471Y-102941230D01*
X161207705Y-103133327D01*
X161153497Y-103002457D01*
X160911313Y-102932992D01*
X160110705Y-103733600D01*
X160911313Y-104534208D01*
X161153497Y-104464743D01*
X161203609Y-104324282D01*
X161286090Y-104523903D01*
X161678730Y-104917229D01*
X161886612Y-105003549D01*
X161680797Y-105088590D01*
X161287471Y-105481230D01*
X161201151Y-105689112D01*
X161116110Y-105483297D01*
X160723470Y-105089971D01*
X160531373Y-105010205D01*
X160662243Y-104955997D01*
X160731708Y-104713813D01*
X159931100Y-103913205D01*
X159916958Y-103927348D01*
X159737353Y-103747743D01*
X159751495Y-103733600D01*
X159737353Y-103719458D01*
X159916958Y-103539853D01*
X159931100Y-103553995D01*
X160731708Y-102753387D01*
X160662243Y-102511203D01*
X160138798Y-102324456D01*
X159583732Y-102352238D01*
X159307054Y-102466842D01*
X159237401Y-102362599D01*
X159084802Y-102210000D01*
X175824857Y-102210000D01*
X175678368Y-102270528D01*
X174771214Y-103176100D01*
X174279660Y-104359893D01*
X174278542Y-105641684D01*
X174768028Y-106826332D01*
X175673600Y-107733486D01*
X176857393Y-108225040D01*
X178139184Y-108226158D01*
X179323832Y-107736672D01*
X180230986Y-106831100D01*
X180290000Y-106688979D01*
X180290000Y-126315982D01*
X180234172Y-126180868D01*
X179328600Y-125273714D01*
X178144807Y-124782160D01*
X176863016Y-124781042D01*
X175678368Y-125270528D01*
X174771214Y-126176100D01*
X174279660Y-127359893D01*
X174278542Y-128641684D01*
X174768028Y-129826332D01*
X175673600Y-130733486D01*
X175809701Y-130790000D01*
X133075209Y-130790000D01*
X133085263Y-130764868D01*
X132040000Y-129719605D01*
X130994737Y-130764868D01*
X131004791Y-130790000D01*
X127995209Y-130790000D01*
X128005263Y-130764868D01*
X126960000Y-129719605D01*
X125914737Y-130764868D01*
X125924791Y-130790000D01*
X121194768Y-130790000D01*
X121323832Y-130736672D01*
X122230986Y-129831100D01*
X122471618Y-129251593D01*
X125214677Y-129251593D01*
X125237164Y-129941453D01*
X125457901Y-130474359D01*
X125735132Y-130585263D01*
X126780395Y-129540000D01*
X127139605Y-129540000D01*
X128184868Y-130585263D01*
X128462099Y-130474359D01*
X128705323Y-129828407D01*
X128686521Y-129251593D01*
X130294677Y-129251593D01*
X130317164Y-129941453D01*
X130537901Y-130474359D01*
X130815132Y-130585263D01*
X131860395Y-129540000D01*
X132219605Y-129540000D01*
X133264868Y-130585263D01*
X133542099Y-130474359D01*
X133785323Y-129828407D01*
X133762836Y-129138547D01*
X133542099Y-128605641D01*
X133264868Y-128494737D01*
X132219605Y-129540000D01*
X131860395Y-129540000D01*
X130815132Y-128494737D01*
X130537901Y-128605641D01*
X130294677Y-129251593D01*
X128686521Y-129251593D01*
X128682836Y-129138547D01*
X128462099Y-128605641D01*
X128184868Y-128494737D01*
X127139605Y-129540000D01*
X126780395Y-129540000D01*
X125735132Y-128494737D01*
X125457901Y-128605641D01*
X125214677Y-129251593D01*
X122471618Y-129251593D01*
X122722540Y-128647307D01*
X122722829Y-128315132D01*
X125914737Y-128315132D01*
X126960000Y-129360395D01*
X128005263Y-128315132D01*
X127894359Y-128037901D01*
X127248407Y-127794677D01*
X126558547Y-127817164D01*
X126025641Y-128037901D01*
X125914737Y-128315132D01*
X122722829Y-128315132D01*
X122723658Y-127365516D01*
X122706420Y-127323795D01*
X127864716Y-127323795D01*
X128113106Y-127924943D01*
X128572637Y-128385278D01*
X129173352Y-128634716D01*
X129823795Y-128635284D01*
X130424943Y-128386894D01*
X130496830Y-128315132D01*
X130994737Y-128315132D01*
X132040000Y-129360395D01*
X133085263Y-128315132D01*
X132974359Y-128037901D01*
X132328407Y-127794677D01*
X131638547Y-127817164D01*
X131105641Y-128037901D01*
X130994737Y-128315132D01*
X130496830Y-128315132D01*
X130885278Y-127927363D01*
X131134716Y-127326648D01*
X131135284Y-126676205D01*
X130886894Y-126075057D01*
X130497387Y-125684868D01*
X130994737Y-125684868D01*
X131105641Y-125962099D01*
X131751593Y-126205323D01*
X132441453Y-126182836D01*
X132974359Y-125962099D01*
X133085263Y-125684868D01*
X132040000Y-124639605D01*
X130994737Y-125684868D01*
X130497387Y-125684868D01*
X130427363Y-125614722D01*
X129826648Y-125365284D01*
X129176205Y-125364716D01*
X128575057Y-125613106D01*
X128114722Y-126072637D01*
X127865284Y-126673352D01*
X127864716Y-127323795D01*
X122706420Y-127323795D01*
X122234172Y-126180868D01*
X121328600Y-125273714D01*
X120144807Y-124782160D01*
X118863016Y-124781042D01*
X117678368Y-125270528D01*
X116771214Y-126176100D01*
X116710000Y-126323520D01*
X116710000Y-124710000D01*
X122255563Y-124710000D01*
X122193710Y-124858959D01*
X122193291Y-125338935D01*
X122376582Y-125782535D01*
X122715680Y-126122225D01*
X123158959Y-126306290D01*
X123638935Y-126306709D01*
X124082535Y-126123418D01*
X124422225Y-125784320D01*
X124463520Y-125684868D01*
X125914737Y-125684868D01*
X126025641Y-125962099D01*
X126671593Y-126205323D01*
X127361453Y-126182836D01*
X127894359Y-125962099D01*
X128005263Y-125684868D01*
X126960000Y-124639605D01*
X125914737Y-125684868D01*
X124463520Y-125684868D01*
X124606290Y-125341041D01*
X124606709Y-124861065D01*
X124540927Y-124701859D01*
X124568584Y-124696358D01*
X124638513Y-124696358D01*
X124829856Y-124658298D01*
X125085796Y-124552284D01*
X125085797Y-124552283D01*
X125085800Y-124552282D01*
X125224074Y-124459889D01*
X125237164Y-124861453D01*
X125457901Y-125394359D01*
X125735132Y-125505263D01*
X126780395Y-124460000D01*
X127139605Y-124460000D01*
X128184868Y-125505263D01*
X128462099Y-125394359D01*
X128705323Y-124748407D01*
X128686521Y-124171593D01*
X130294677Y-124171593D01*
X130317164Y-124861453D01*
X130537901Y-125394359D01*
X130815132Y-125505263D01*
X131860395Y-124460000D01*
X132219605Y-124460000D01*
X133264868Y-125505263D01*
X133542099Y-125394359D01*
X133785323Y-124748407D01*
X133762836Y-124058547D01*
X133542099Y-123525641D01*
X133264868Y-123414737D01*
X132219605Y-124460000D01*
X131860395Y-124460000D01*
X130815132Y-123414737D01*
X130537901Y-123525641D01*
X130294677Y-124171593D01*
X128686521Y-124171593D01*
X128682836Y-124058547D01*
X128462099Y-123525641D01*
X128184868Y-123414737D01*
X127139605Y-124460000D01*
X126780395Y-124460000D01*
X125735132Y-123414737D01*
X125710000Y-123424791D01*
X125710000Y-123235132D01*
X125914737Y-123235132D01*
X126960000Y-124280395D01*
X128005263Y-123235132D01*
X130994737Y-123235132D01*
X132040000Y-124280395D01*
X133085263Y-123235132D01*
X132974359Y-122957901D01*
X132328407Y-122714677D01*
X131638547Y-122737164D01*
X131105641Y-122957901D01*
X130994737Y-123235132D01*
X128005263Y-123235132D01*
X127894359Y-122957901D01*
X127248407Y-122714677D01*
X126558547Y-122737164D01*
X126025641Y-122957901D01*
X125914737Y-123235132D01*
X125710000Y-123235132D01*
X125710000Y-109500000D01*
X125696358Y-109431416D01*
X125696358Y-109361487D01*
X125658298Y-109170145D01*
X125552284Y-108914204D01*
X125552283Y-108914203D01*
X125552282Y-108914200D01*
X125443895Y-108751989D01*
X125297450Y-108605546D01*
X125248010Y-108556105D01*
X125085800Y-108447718D01*
X125085797Y-108447717D01*
X125085796Y-108447716D01*
X124829856Y-108341702D01*
X124638513Y-108303642D01*
X124568584Y-108303642D01*
X124500000Y-108290000D01*
X116710000Y-108290000D01*
X116710000Y-106685893D01*
X116768028Y-106826332D01*
X117673600Y-107733486D01*
X118857393Y-108225040D01*
X120139184Y-108226158D01*
X121323832Y-107736672D01*
X122230986Y-106831100D01*
X122722540Y-105647307D01*
X122723658Y-104365516D01*
X122234172Y-103180868D01*
X121328600Y-102273714D01*
X121175160Y-102210000D01*
X142215198Y-102210000D01*
X142088653Y-102336545D01*
X142088653Y-102336545D01*
G37*
X142088653Y-102336545D02*
X141874439Y-102336358D01*
X141360797Y-102548590D01*
X140967471Y-102941230D01*
X140887705Y-103133327D01*
X140833497Y-103002457D01*
X140591313Y-102932992D01*
X139790705Y-103733600D01*
X140591313Y-104534208D01*
X140833497Y-104464743D01*
X140883609Y-104324282D01*
X140966090Y-104523903D01*
X141358730Y-104917229D01*
X141566612Y-105003549D01*
X141360797Y-105088590D01*
X140967471Y-105481230D01*
X140881151Y-105689112D01*
X140796110Y-105483297D01*
X140403470Y-105089971D01*
X140211373Y-105010205D01*
X140342243Y-104955997D01*
X140411708Y-104713813D01*
X139611100Y-103913205D01*
X138810492Y-104713813D01*
X138879957Y-104955997D01*
X139020418Y-105006109D01*
X138820797Y-105088590D01*
X138427471Y-105481230D01*
X138341151Y-105689112D01*
X138256110Y-105483297D01*
X137863470Y-105089971D01*
X137655588Y-105003651D01*
X137861403Y-104918610D01*
X138254729Y-104525970D01*
X138334495Y-104333873D01*
X138388703Y-104464743D01*
X138630887Y-104534208D01*
X139431495Y-103733600D01*
X138630887Y-102932992D01*
X138388703Y-103002457D01*
X138338591Y-103142918D01*
X138256110Y-102943297D01*
X138066532Y-102753387D01*
X138810492Y-102753387D01*
X139611100Y-103553995D01*
X140411708Y-102753387D01*
X140342243Y-102511203D01*
X139818798Y-102324456D01*
X139263732Y-102352238D01*
X138879957Y-102511203D01*
X138810492Y-102753387D01*
X138066532Y-102753387D01*
X137863470Y-102549971D01*
X137350200Y-102336843D01*
X136794439Y-102336358D01*
X136280797Y-102548590D01*
X135887471Y-102941230D01*
X135801151Y-103149112D01*
X135716110Y-102943297D01*
X135323470Y-102549971D01*
X134810200Y-102336843D01*
X134254439Y-102336358D01*
X133740797Y-102548590D01*
X133347471Y-102941230D01*
X133261151Y-103149112D01*
X133176110Y-102943297D01*
X132783470Y-102549971D01*
X132270200Y-102336843D01*
X131714439Y-102336358D01*
X131200797Y-102548590D01*
X130807471Y-102941230D01*
X130727705Y-103133327D01*
X130673497Y-103002457D01*
X130431313Y-102932992D01*
X129630705Y-103733600D01*
X130431313Y-104534208D01*
X130673497Y-104464743D01*
X130723609Y-104324282D01*
X130806090Y-104523903D01*
X131198730Y-104917229D01*
X131406612Y-105003549D01*
X131200797Y-105088590D01*
X130807471Y-105481230D01*
X130721151Y-105689112D01*
X130636110Y-105483297D01*
X130243470Y-105089971D01*
X130051373Y-105010205D01*
X130182243Y-104955997D01*
X130251708Y-104713813D01*
X129451100Y-103913205D01*
X128650492Y-104713813D01*
X128719957Y-104955997D01*
X128860418Y-105006109D01*
X128660797Y-105088590D01*
X128267471Y-105481230D01*
X128181151Y-105689112D01*
X128096110Y-105483297D01*
X127703470Y-105089971D01*
X127495588Y-105003651D01*
X127701403Y-104918610D01*
X128094729Y-104525970D01*
X128174495Y-104333873D01*
X128228703Y-104464743D01*
X128470887Y-104534208D01*
X129271495Y-103733600D01*
X128470887Y-102932992D01*
X128228703Y-103002457D01*
X128178591Y-103142918D01*
X128096110Y-102943297D01*
X127906532Y-102753387D01*
X128650492Y-102753387D01*
X129451100Y-103553995D01*
X130251708Y-102753387D01*
X130182243Y-102511203D01*
X129658798Y-102324456D01*
X129103732Y-102352238D01*
X128719957Y-102511203D01*
X128650492Y-102753387D01*
X127906532Y-102753387D01*
X127703470Y-102549971D01*
X127190200Y-102336843D01*
X126634439Y-102336358D01*
X126120797Y-102548590D01*
X125727471Y-102941230D01*
X125641151Y-103149112D01*
X125556110Y-102943297D01*
X125163470Y-102549971D01*
X124650200Y-102336843D01*
X124094439Y-102336358D01*
X123580797Y-102548590D01*
X123187471Y-102941230D01*
X122974343Y-103454500D01*
X122973858Y-104010261D01*
X123186090Y-104523903D01*
X123578730Y-104917229D01*
X123786612Y-105003549D01*
X123580797Y-105088590D01*
X123187471Y-105481230D01*
X122974343Y-105994500D01*
X122973858Y-106550261D01*
X123186090Y-107063903D01*
X123578730Y-107457229D01*
X124092000Y-107670357D01*
X124647761Y-107670842D01*
X125161403Y-107458610D01*
X125554729Y-107065970D01*
X125641049Y-106858088D01*
X125726090Y-107063903D01*
X126118730Y-107457229D01*
X126632000Y-107670357D01*
X127187761Y-107670842D01*
X127701403Y-107458610D01*
X128094729Y-107065970D01*
X128181049Y-106858088D01*
X128266090Y-107063903D01*
X128658730Y-107457229D01*
X129172000Y-107670357D01*
X129727761Y-107670842D01*
X130241403Y-107458610D01*
X130634729Y-107065970D01*
X130721049Y-106858088D01*
X130806090Y-107063903D01*
X131198730Y-107457229D01*
X131712000Y-107670357D01*
X132267761Y-107670842D01*
X132781403Y-107458610D01*
X132986557Y-107253813D01*
X133730492Y-107253813D01*
X133799957Y-107495997D01*
X134323402Y-107682744D01*
X134878468Y-107654962D01*
X135262243Y-107495997D01*
X135331708Y-107253813D01*
X134531100Y-106453205D01*
X133730492Y-107253813D01*
X132986557Y-107253813D01*
X133174729Y-107065970D01*
X133254495Y-106873873D01*
X133308703Y-107004743D01*
X133550887Y-107074208D01*
X134351495Y-106273600D01*
X133550887Y-105472992D01*
X133308703Y-105542457D01*
X133258591Y-105682918D01*
X133176110Y-105483297D01*
X132783470Y-105089971D01*
X132575588Y-105003651D01*
X132781403Y-104918610D01*
X133174729Y-104525970D01*
X133261049Y-104318088D01*
X133346090Y-104523903D01*
X133738730Y-104917229D01*
X133930827Y-104996995D01*
X133799957Y-105051203D01*
X133730492Y-105293387D01*
X134531100Y-106093995D01*
X135331708Y-105293387D01*
X135262243Y-105051203D01*
X135121782Y-105001091D01*
X135321403Y-104918610D01*
X135714729Y-104525970D01*
X135801049Y-104318088D01*
X135886090Y-104523903D01*
X136278730Y-104917229D01*
X136486612Y-105003549D01*
X136280797Y-105088590D01*
X135887471Y-105481230D01*
X135807705Y-105673327D01*
X135753497Y-105542457D01*
X135511313Y-105472992D01*
X134710705Y-106273600D01*
X135511313Y-107074208D01*
X135753497Y-107004743D01*
X135803609Y-106864282D01*
X135886090Y-107063903D01*
X136278730Y-107457229D01*
X136792000Y-107670357D01*
X137347761Y-107670842D01*
X137861403Y-107458610D01*
X138254729Y-107065970D01*
X138341049Y-106858088D01*
X138426090Y-107063903D01*
X138818730Y-107457229D01*
X139332000Y-107670357D01*
X139887761Y-107670842D01*
X140401403Y-107458610D01*
X140794729Y-107065970D01*
X140881049Y-106858088D01*
X140966090Y-107063903D01*
X141358730Y-107457229D01*
X141391100Y-107470670D01*
X141391100Y-113326098D01*
X141313973Y-113403225D01*
X140936000Y-113328041D01*
X140362511Y-113442115D01*
X139876330Y-113766971D01*
X139551474Y-114253152D01*
X139437400Y-114826641D01*
X139437400Y-114885359D01*
X139551474Y-115458848D01*
X139876330Y-115945029D01*
X140147172Y-116126000D01*
X139876330Y-116306971D01*
X139551474Y-116793152D01*
X139437400Y-117366641D01*
X139437400Y-117425359D01*
X139551474Y-117998848D01*
X139876330Y-118485029D01*
X140147172Y-118666000D01*
X139876330Y-118846971D01*
X139551474Y-119333152D01*
X139437400Y-119906641D01*
X139437400Y-119965359D01*
X139551474Y-120538848D01*
X139876330Y-121025029D01*
X140147172Y-121206000D01*
X139876330Y-121386971D01*
X139551474Y-121873152D01*
X139437400Y-122446641D01*
X139437400Y-122505359D01*
X139551474Y-123078848D01*
X139876330Y-123565029D01*
X140362511Y-123889885D01*
X140936000Y-124003959D01*
X141509489Y-123889885D01*
X141995670Y-123565029D01*
X142009737Y-123543977D01*
X142074073Y-123699298D01*
X142252701Y-123877927D01*
X142285927Y-123891690D01*
X142207808Y-123969673D01*
X142065162Y-124313201D01*
X142064838Y-124685167D01*
X142206883Y-125028943D01*
X142240000Y-125062118D01*
X142240000Y-126185198D01*
X141860320Y-126564878D01*
X141814833Y-126564838D01*
X141471057Y-126706883D01*
X141207808Y-126969673D01*
X141065162Y-127313201D01*
X141064838Y-127685167D01*
X141206883Y-128028943D01*
X141469673Y-128292192D01*
X141813201Y-128434838D01*
X142185167Y-128435162D01*
X142528943Y-128293117D01*
X142792192Y-128030327D01*
X142934838Y-127686799D01*
X142934879Y-127639923D01*
X143064991Y-127509811D01*
X143064838Y-127685167D01*
X143206883Y-128028943D01*
X143469673Y-128292192D01*
X143813201Y-128434838D01*
X144185167Y-128435162D01*
X144528943Y-128293117D01*
X144792192Y-128030327D01*
X144934838Y-127686799D01*
X144935162Y-127314833D01*
X144793117Y-126971057D01*
X144760000Y-126937882D01*
X144760000Y-125062463D01*
X144792192Y-125030327D01*
X144934838Y-124686799D01*
X144934839Y-124685167D01*
X145064838Y-124685167D01*
X145206883Y-125028943D01*
X145240000Y-125062118D01*
X145240000Y-126937537D01*
X145207808Y-126969673D01*
X145065162Y-127313201D01*
X145064838Y-127685167D01*
X145206883Y-128028943D01*
X145469673Y-128292192D01*
X145813201Y-128434838D01*
X146185167Y-128435162D01*
X146528943Y-128293117D01*
X146792192Y-128030327D01*
X146934838Y-127686799D01*
X146935162Y-127314833D01*
X146793117Y-126971057D01*
X146760000Y-126937882D01*
X146760000Y-125062463D01*
X146792192Y-125030327D01*
X146934838Y-124686799D01*
X146934839Y-124685167D01*
X147064838Y-124685167D01*
X147206883Y-125028943D01*
X147240000Y-125062118D01*
X147240000Y-126937537D01*
X147207808Y-126969673D01*
X147065162Y-127313201D01*
X147064838Y-127685167D01*
X147206883Y-128028943D01*
X147469673Y-128292192D01*
X147813201Y-128434838D01*
X148185167Y-128435162D01*
X148528943Y-128293117D01*
X148792192Y-128030327D01*
X148934838Y-127686799D01*
X148935162Y-127314833D01*
X148793117Y-126971057D01*
X148760000Y-126937882D01*
X148760000Y-125062463D01*
X148792192Y-125030327D01*
X148934838Y-124686799D01*
X148935162Y-124314833D01*
X148793117Y-123971057D01*
X148530327Y-123707808D01*
X148186799Y-123565162D01*
X147814833Y-123564838D01*
X147471057Y-123706883D01*
X147207808Y-123969673D01*
X147065162Y-124313201D01*
X147064838Y-124685167D01*
X146934839Y-124685167D01*
X146935162Y-124314833D01*
X146793117Y-123971057D01*
X146530327Y-123707808D01*
X146186799Y-123565162D01*
X145814833Y-123564838D01*
X145471057Y-123706883D01*
X145207808Y-123969673D01*
X145065162Y-124313201D01*
X145064838Y-124685167D01*
X144934839Y-124685167D01*
X144935162Y-124314833D01*
X144793117Y-123971057D01*
X144699725Y-123877501D01*
X144877927Y-123699298D01*
X144974600Y-123465909D01*
X144974600Y-122761750D01*
X144815850Y-122603000D01*
X143603000Y-122603000D01*
X143603000Y-122623000D01*
X143349000Y-122623000D01*
X143349000Y-122603000D01*
X143329000Y-122603000D01*
X143329000Y-122349000D01*
X143349000Y-122349000D01*
X143349000Y-122329000D01*
X143603000Y-122329000D01*
X143603000Y-122349000D01*
X144815850Y-122349000D01*
X144974600Y-122190250D01*
X144974600Y-121910000D01*
X146787537Y-121910000D01*
X146819673Y-121942192D01*
X147163201Y-122084838D01*
X147535167Y-122085162D01*
X147878943Y-121943117D01*
X148142192Y-121680327D01*
X148284838Y-121336799D01*
X148285162Y-120964833D01*
X148143117Y-120621057D01*
X147880327Y-120357808D01*
X147536799Y-120215162D01*
X147164833Y-120214838D01*
X146821057Y-120356883D01*
X146787882Y-120390000D01*
X144890134Y-120390000D01*
X144974600Y-119965359D01*
X144974600Y-119906641D01*
X144860526Y-119333152D01*
X144544376Y-118860000D01*
X148200000Y-118860000D01*
X148490839Y-118802148D01*
X148737401Y-118637401D01*
X148937401Y-118437401D01*
X149072668Y-118234959D01*
X149313201Y-118334838D01*
X149685167Y-118335162D01*
X150028943Y-118193117D01*
X150292192Y-117930327D01*
X150434838Y-117586799D01*
X150435162Y-117214833D01*
X150293117Y-116871057D01*
X150030327Y-116607808D01*
X149948726Y-116573924D01*
X148760000Y-115385198D01*
X148760000Y-113514802D01*
X149537401Y-112737401D01*
X149702148Y-112490839D01*
X149760000Y-112200000D01*
X149760000Y-111614802D01*
X154066205Y-107308597D01*
X154119957Y-107495997D01*
X154643402Y-107682744D01*
X155198468Y-107654962D01*
X155340000Y-107596337D01*
X155340000Y-107764947D01*
X155214833Y-107764838D01*
X154871057Y-107906883D01*
X154607808Y-108169673D01*
X154465162Y-108513201D01*
X154465121Y-108560077D01*
X153862599Y-109162599D01*
X153697852Y-109409161D01*
X153640000Y-109700000D01*
X153640000Y-128537537D01*
X153607808Y-128569673D01*
X153465162Y-128913201D01*
X153464838Y-129285167D01*
X153606883Y-129628943D01*
X153869673Y-129892192D01*
X154213201Y-130034838D01*
X154585167Y-130035162D01*
X154928943Y-129893117D01*
X155173843Y-129648645D01*
X155362599Y-129837401D01*
X155609161Y-130002148D01*
X155900000Y-130060000D01*
X168537537Y-130060000D01*
X168569673Y-130092192D01*
X168913201Y-130234838D01*
X169285167Y-130235162D01*
X169628943Y-130093117D01*
X169892192Y-129830327D01*
X170034838Y-129486799D01*
X170035162Y-129114833D01*
X169893117Y-128771057D01*
X169630327Y-128507808D01*
X169286799Y-128365162D01*
X168914833Y-128364838D01*
X168571057Y-128506883D01*
X168537882Y-128540000D01*
X164535053Y-128540000D01*
X164535162Y-128414833D01*
X164393117Y-128071057D01*
X164382079Y-128060000D01*
X170037537Y-128060000D01*
X170069673Y-128092192D01*
X170413201Y-128234838D01*
X170785167Y-128235162D01*
X171128943Y-128093117D01*
X171392192Y-127830327D01*
X171534838Y-127486799D01*
X171535162Y-127114833D01*
X171393117Y-126771057D01*
X171130327Y-126507808D01*
X170786799Y-126365162D01*
X170414833Y-126364838D01*
X170071057Y-126506883D01*
X170037882Y-126540000D01*
X164162463Y-126540000D01*
X164130327Y-126507808D01*
X163786799Y-126365162D01*
X163414833Y-126364838D01*
X163071057Y-126506883D01*
X163037882Y-126540000D01*
X157262463Y-126540000D01*
X157230327Y-126507808D01*
X156886799Y-126365162D01*
X156514833Y-126364838D01*
X156171057Y-126506883D01*
X156160000Y-126517921D01*
X156160000Y-111114802D01*
X159237401Y-108037401D01*
X159402148Y-107790839D01*
X159443347Y-107583717D01*
X159652000Y-107670357D01*
X160207761Y-107670842D01*
X160721403Y-107458610D01*
X161114729Y-107065970D01*
X161201049Y-106858088D01*
X161286090Y-107063903D01*
X161678730Y-107457229D01*
X162192000Y-107670357D01*
X162747761Y-107670842D01*
X163261403Y-107458610D01*
X163654729Y-107065970D01*
X163741049Y-106858088D01*
X163826090Y-107063903D01*
X164218730Y-107457229D01*
X164732000Y-107670357D01*
X165287761Y-107670842D01*
X165801403Y-107458610D01*
X166194729Y-107065970D01*
X166281049Y-106858088D01*
X166366090Y-107063903D01*
X166758730Y-107457229D01*
X167272000Y-107670357D01*
X167827761Y-107670842D01*
X168341403Y-107458610D01*
X168734729Y-107065970D01*
X168821049Y-106858088D01*
X168906090Y-107063903D01*
X169298730Y-107457229D01*
X169812000Y-107670357D01*
X170367761Y-107670842D01*
X170881403Y-107458610D01*
X171086557Y-107253813D01*
X171830492Y-107253813D01*
X171899957Y-107495997D01*
X172423402Y-107682744D01*
X172978468Y-107654962D01*
X173362243Y-107495997D01*
X173431708Y-107253813D01*
X172631100Y-106453205D01*
X171830492Y-107253813D01*
X171086557Y-107253813D01*
X171274729Y-107065970D01*
X171354495Y-106873873D01*
X171408703Y-107004743D01*
X171650887Y-107074208D01*
X172451495Y-106273600D01*
X172810705Y-106273600D01*
X173611313Y-107074208D01*
X173853497Y-107004743D01*
X174040244Y-106481298D01*
X174012462Y-105926232D01*
X173853497Y-105542457D01*
X173611313Y-105472992D01*
X172810705Y-106273600D01*
X172451495Y-106273600D01*
X171650887Y-105472992D01*
X171408703Y-105542457D01*
X171358591Y-105682918D01*
X171276110Y-105483297D01*
X170883470Y-105089971D01*
X170675588Y-105003651D01*
X170881403Y-104918610D01*
X171274729Y-104525970D01*
X171361049Y-104318088D01*
X171446090Y-104523903D01*
X171838730Y-104917229D01*
X172030827Y-104996995D01*
X171899957Y-105051203D01*
X171830492Y-105293387D01*
X172631100Y-106093995D01*
X173431708Y-105293387D01*
X173362243Y-105051203D01*
X173221782Y-105001091D01*
X173421403Y-104918610D01*
X173814729Y-104525970D01*
X174027857Y-104012700D01*
X174028342Y-103456939D01*
X173816110Y-102943297D01*
X173423470Y-102549971D01*
X172910200Y-102336843D01*
X172354439Y-102336358D01*
X171840797Y-102548590D01*
X171447471Y-102941230D01*
X171361151Y-103149112D01*
X171276110Y-102943297D01*
X170883470Y-102549971D01*
X170370200Y-102336843D01*
X169814439Y-102336358D01*
X169300797Y-102548590D01*
X168907471Y-102941230D01*
X168821151Y-103149112D01*
X168736110Y-102943297D01*
X168343470Y-102549971D01*
X167830200Y-102336843D01*
X167274439Y-102336358D01*
X166760797Y-102548590D01*
X166367471Y-102941230D01*
X166287705Y-103133327D01*
X166233497Y-103002457D01*
X165991313Y-102932992D01*
X165190705Y-103733600D01*
X165991313Y-104534208D01*
X166233497Y-104464743D01*
X166283609Y-104324282D01*
X166366090Y-104523903D01*
X166758730Y-104917229D01*
X166966612Y-105003549D01*
X166760797Y-105088590D01*
X166367471Y-105481230D01*
X166281151Y-105689112D01*
X166196110Y-105483297D01*
X165803470Y-105089971D01*
X165611373Y-105010205D01*
X165742243Y-104955997D01*
X165811708Y-104713813D01*
X165011100Y-103913205D01*
X164210492Y-104713813D01*
X164279957Y-104955997D01*
X164420418Y-105006109D01*
X164220797Y-105088590D01*
X163827471Y-105481230D01*
X163741151Y-105689112D01*
X163656110Y-105483297D01*
X163263470Y-105089971D01*
X163055588Y-105003651D01*
X163261403Y-104918610D01*
X163654729Y-104525970D01*
X163734495Y-104333873D01*
X163788703Y-104464743D01*
X164030887Y-104534208D01*
X164831495Y-103733600D01*
X164030887Y-102932992D01*
X163788703Y-103002457D01*
X163738591Y-103142918D01*
X163656110Y-102943297D01*
X163466532Y-102753387D01*
X164210492Y-102753387D01*
X165011100Y-103553995D01*
X165811708Y-102753387D01*
X165742243Y-102511203D01*
X165218798Y-102324456D01*
X164663732Y-102352238D01*
X164279957Y-102511203D01*
X164210492Y-102753387D01*
X163466532Y-102753387D01*
X163263470Y-102549971D01*
X162750200Y-102336843D01*
X162194439Y-102336358D01*
X161680797Y-102548590D01*
X161287471Y-102941230D01*
X161207705Y-103133327D01*
X161153497Y-103002457D01*
X160911313Y-102932992D01*
X160110705Y-103733600D01*
X160911313Y-104534208D01*
X161153497Y-104464743D01*
X161203609Y-104324282D01*
X161286090Y-104523903D01*
X161678730Y-104917229D01*
X161886612Y-105003549D01*
X161680797Y-105088590D01*
X161287471Y-105481230D01*
X161201151Y-105689112D01*
X161116110Y-105483297D01*
X160723470Y-105089971D01*
X160531373Y-105010205D01*
X160662243Y-104955997D01*
X160731708Y-104713813D01*
X159931100Y-103913205D01*
X159916958Y-103927348D01*
X159737353Y-103747743D01*
X159751495Y-103733600D01*
X159737353Y-103719458D01*
X159916958Y-103539853D01*
X159931100Y-103553995D01*
X160731708Y-102753387D01*
X160662243Y-102511203D01*
X160138798Y-102324456D01*
X159583732Y-102352238D01*
X159307054Y-102466842D01*
X159237401Y-102362599D01*
X159084802Y-102210000D01*
X175824857Y-102210000D01*
X175678368Y-102270528D01*
X174771214Y-103176100D01*
X174279660Y-104359893D01*
X174278542Y-105641684D01*
X174768028Y-106826332D01*
X175673600Y-107733486D01*
X176857393Y-108225040D01*
X178139184Y-108226158D01*
X179323832Y-107736672D01*
X180230986Y-106831100D01*
X180290000Y-106688979D01*
X180290000Y-126315982D01*
X180234172Y-126180868D01*
X179328600Y-125273714D01*
X178144807Y-124782160D01*
X176863016Y-124781042D01*
X175678368Y-125270528D01*
X174771214Y-126176100D01*
X174279660Y-127359893D01*
X174278542Y-128641684D01*
X174768028Y-129826332D01*
X175673600Y-130733486D01*
X175809701Y-130790000D01*
X133075209Y-130790000D01*
X133085263Y-130764868D01*
X132040000Y-129719605D01*
X130994737Y-130764868D01*
X131004791Y-130790000D01*
X127995209Y-130790000D01*
X128005263Y-130764868D01*
X126960000Y-129719605D01*
X125914737Y-130764868D01*
X125924791Y-130790000D01*
X121194768Y-130790000D01*
X121323832Y-130736672D01*
X122230986Y-129831100D01*
X122471618Y-129251593D01*
X125214677Y-129251593D01*
X125237164Y-129941453D01*
X125457901Y-130474359D01*
X125735132Y-130585263D01*
X126780395Y-129540000D01*
X127139605Y-129540000D01*
X128184868Y-130585263D01*
X128462099Y-130474359D01*
X128705323Y-129828407D01*
X128686521Y-129251593D01*
X130294677Y-129251593D01*
X130317164Y-129941453D01*
X130537901Y-130474359D01*
X130815132Y-130585263D01*
X131860395Y-129540000D01*
X132219605Y-129540000D01*
X133264868Y-130585263D01*
X133542099Y-130474359D01*
X133785323Y-129828407D01*
X133762836Y-129138547D01*
X133542099Y-128605641D01*
X133264868Y-128494737D01*
X132219605Y-129540000D01*
X131860395Y-129540000D01*
X130815132Y-128494737D01*
X130537901Y-128605641D01*
X130294677Y-129251593D01*
X128686521Y-129251593D01*
X128682836Y-129138547D01*
X128462099Y-128605641D01*
X128184868Y-128494737D01*
X127139605Y-129540000D01*
X126780395Y-129540000D01*
X125735132Y-128494737D01*
X125457901Y-128605641D01*
X125214677Y-129251593D01*
X122471618Y-129251593D01*
X122722540Y-128647307D01*
X122722829Y-128315132D01*
X125914737Y-128315132D01*
X126960000Y-129360395D01*
X128005263Y-128315132D01*
X127894359Y-128037901D01*
X127248407Y-127794677D01*
X126558547Y-127817164D01*
X126025641Y-128037901D01*
X125914737Y-128315132D01*
X122722829Y-128315132D01*
X122723658Y-127365516D01*
X122706420Y-127323795D01*
X127864716Y-127323795D01*
X128113106Y-127924943D01*
X128572637Y-128385278D01*
X129173352Y-128634716D01*
X129823795Y-128635284D01*
X130424943Y-128386894D01*
X130496830Y-128315132D01*
X130994737Y-128315132D01*
X132040000Y-129360395D01*
X133085263Y-128315132D01*
X132974359Y-128037901D01*
X132328407Y-127794677D01*
X131638547Y-127817164D01*
X131105641Y-128037901D01*
X130994737Y-128315132D01*
X130496830Y-128315132D01*
X130885278Y-127927363D01*
X131134716Y-127326648D01*
X131135284Y-126676205D01*
X130886894Y-126075057D01*
X130497387Y-125684868D01*
X130994737Y-125684868D01*
X131105641Y-125962099D01*
X131751593Y-126205323D01*
X132441453Y-126182836D01*
X132974359Y-125962099D01*
X133085263Y-125684868D01*
X132040000Y-124639605D01*
X130994737Y-125684868D01*
X130497387Y-125684868D01*
X130427363Y-125614722D01*
X129826648Y-125365284D01*
X129176205Y-125364716D01*
X128575057Y-125613106D01*
X128114722Y-126072637D01*
X127865284Y-126673352D01*
X127864716Y-127323795D01*
X122706420Y-127323795D01*
X122234172Y-126180868D01*
X121328600Y-125273714D01*
X120144807Y-124782160D01*
X118863016Y-124781042D01*
X117678368Y-125270528D01*
X116771214Y-126176100D01*
X116710000Y-126323520D01*
X116710000Y-124710000D01*
X122255563Y-124710000D01*
X122193710Y-124858959D01*
X122193291Y-125338935D01*
X122376582Y-125782535D01*
X122715680Y-126122225D01*
X123158959Y-126306290D01*
X123638935Y-126306709D01*
X124082535Y-126123418D01*
X124422225Y-125784320D01*
X124463520Y-125684868D01*
X125914737Y-125684868D01*
X126025641Y-125962099D01*
X126671593Y-126205323D01*
X127361453Y-126182836D01*
X127894359Y-125962099D01*
X128005263Y-125684868D01*
X126960000Y-124639605D01*
X125914737Y-125684868D01*
X124463520Y-125684868D01*
X124606290Y-125341041D01*
X124606709Y-124861065D01*
X124540927Y-124701859D01*
X124568584Y-124696358D01*
X124638513Y-124696358D01*
X124829856Y-124658298D01*
X125085796Y-124552284D01*
X125085797Y-124552283D01*
X125085800Y-124552282D01*
X125224074Y-124459889D01*
X125237164Y-124861453D01*
X125457901Y-125394359D01*
X125735132Y-125505263D01*
X126780395Y-124460000D01*
X127139605Y-124460000D01*
X128184868Y-125505263D01*
X128462099Y-125394359D01*
X128705323Y-124748407D01*
X128686521Y-124171593D01*
X130294677Y-124171593D01*
X130317164Y-124861453D01*
X130537901Y-125394359D01*
X130815132Y-125505263D01*
X131860395Y-124460000D01*
X132219605Y-124460000D01*
X133264868Y-125505263D01*
X133542099Y-125394359D01*
X133785323Y-124748407D01*
X133762836Y-124058547D01*
X133542099Y-123525641D01*
X133264868Y-123414737D01*
X132219605Y-124460000D01*
X131860395Y-124460000D01*
X130815132Y-123414737D01*
X130537901Y-123525641D01*
X130294677Y-124171593D01*
X128686521Y-124171593D01*
X128682836Y-124058547D01*
X128462099Y-123525641D01*
X128184868Y-123414737D01*
X127139605Y-124460000D01*
X126780395Y-124460000D01*
X125735132Y-123414737D01*
X125710000Y-123424791D01*
X125710000Y-123235132D01*
X125914737Y-123235132D01*
X126960000Y-124280395D01*
X128005263Y-123235132D01*
X130994737Y-123235132D01*
X132040000Y-124280395D01*
X133085263Y-123235132D01*
X132974359Y-122957901D01*
X132328407Y-122714677D01*
X131638547Y-122737164D01*
X131105641Y-122957901D01*
X130994737Y-123235132D01*
X128005263Y-123235132D01*
X127894359Y-122957901D01*
X127248407Y-122714677D01*
X126558547Y-122737164D01*
X126025641Y-122957901D01*
X125914737Y-123235132D01*
X125710000Y-123235132D01*
X125710000Y-109500000D01*
X125696358Y-109431416D01*
X125696358Y-109361487D01*
X125658298Y-109170145D01*
X125552284Y-108914204D01*
X125552283Y-108914203D01*
X125552282Y-108914200D01*
X125443895Y-108751989D01*
X125297450Y-108605546D01*
X125248010Y-108556105D01*
X125085800Y-108447718D01*
X125085797Y-108447717D01*
X125085796Y-108447716D01*
X124829856Y-108341702D01*
X124638513Y-108303642D01*
X124568584Y-108303642D01*
X124500000Y-108290000D01*
X116710000Y-108290000D01*
X116710000Y-106685893D01*
X116768028Y-106826332D01*
X117673600Y-107733486D01*
X118857393Y-108225040D01*
X120139184Y-108226158D01*
X121323832Y-107736672D01*
X122230986Y-106831100D01*
X122722540Y-105647307D01*
X122723658Y-104365516D01*
X122234172Y-103180868D01*
X121328600Y-102273714D01*
X121175160Y-102210000D01*
X142215198Y-102210000D01*
X142088653Y-102336545D01*
G36*
X146046090Y-107063903D02*
X146438730Y-107457229D01*
X146471100Y-107470670D01*
X146471100Y-111154098D01*
X145862599Y-111762599D01*
X145697852Y-112009161D01*
X145640000Y-112300000D01*
X145640000Y-115340000D01*
X144884166Y-115340000D01*
X144974600Y-114885359D01*
X144974600Y-114826641D01*
X144860526Y-114253152D01*
X144535670Y-113766971D01*
X144049489Y-113442115D01*
X143476000Y-113328041D01*
X142911100Y-113440407D01*
X142911100Y-107471131D01*
X142941403Y-107458610D01*
X143334729Y-107065970D01*
X143421049Y-106858088D01*
X143506090Y-107063903D01*
X143898730Y-107457229D01*
X144412000Y-107670357D01*
X144967761Y-107670842D01*
X145481403Y-107458610D01*
X145874729Y-107065970D01*
X145961049Y-106858088D01*
X146046090Y-107063903D01*
X146046090Y-107063903D01*
G37*
X146046090Y-107063903D02*
X146438730Y-107457229D01*
X146471100Y-107470670D01*
X146471100Y-111154098D01*
X145862599Y-111762599D01*
X145697852Y-112009161D01*
X145640000Y-112300000D01*
X145640000Y-115340000D01*
X144884166Y-115340000D01*
X144974600Y-114885359D01*
X144974600Y-114826641D01*
X144860526Y-114253152D01*
X144535670Y-113766971D01*
X144049489Y-113442115D01*
X143476000Y-113328041D01*
X142911100Y-113440407D01*
X142911100Y-107471131D01*
X142941403Y-107458610D01*
X143334729Y-107065970D01*
X143421049Y-106858088D01*
X143506090Y-107063903D01*
X143898730Y-107457229D01*
X144412000Y-107670357D01*
X144967761Y-107670842D01*
X145481403Y-107458610D01*
X145874729Y-107065970D01*
X145961049Y-106858088D01*
X146046090Y-107063903D01*
G36*
X155044848Y-106259458D02*
X155030705Y-106273600D01*
X155044848Y-106287743D01*
X154865243Y-106467348D01*
X154851100Y-106453205D01*
X154836958Y-106467348D01*
X154657353Y-106287743D01*
X154671495Y-106273600D01*
X154657353Y-106259458D01*
X154836958Y-106079853D01*
X154851100Y-106093995D01*
X154865243Y-106079853D01*
X155044848Y-106259458D01*
X155044848Y-106259458D01*
G37*
X155044848Y-106259458D02*
X155030705Y-106273600D01*
X155044848Y-106287743D01*
X154865243Y-106467348D01*
X154851100Y-106453205D01*
X154836958Y-106467348D01*
X154657353Y-106287743D01*
X154671495Y-106273600D01*
X154657353Y-106259458D01*
X154836958Y-106079853D01*
X154851100Y-106093995D01*
X154865243Y-106079853D01*
X155044848Y-106259458D01*
G36*
X147424848Y-103719458D02*
X147410705Y-103733600D01*
X147424848Y-103747743D01*
X147245243Y-103927348D01*
X147231100Y-103913205D01*
X146430492Y-104713813D01*
X146499957Y-104955997D01*
X146640418Y-105006109D01*
X146440797Y-105088590D01*
X146047471Y-105481230D01*
X145961151Y-105689112D01*
X145876110Y-105483297D01*
X145483470Y-105089971D01*
X145275588Y-105003651D01*
X145481403Y-104918610D01*
X145874729Y-104525970D01*
X145954495Y-104333873D01*
X146008703Y-104464743D01*
X146250887Y-104534208D01*
X147051495Y-103733600D01*
X147037353Y-103719458D01*
X147216958Y-103539853D01*
X147231100Y-103553995D01*
X147245243Y-103539853D01*
X147424848Y-103719458D01*
X147424848Y-103719458D01*
G37*
X147424848Y-103719458D02*
X147410705Y-103733600D01*
X147424848Y-103747743D01*
X147245243Y-103927348D01*
X147231100Y-103913205D01*
X146430492Y-104713813D01*
X146499957Y-104955997D01*
X146640418Y-105006109D01*
X146440797Y-105088590D01*
X146047471Y-105481230D01*
X145961151Y-105689112D01*
X145876110Y-105483297D01*
X145483470Y-105089971D01*
X145275588Y-105003651D01*
X145481403Y-104918610D01*
X145874729Y-104525970D01*
X145954495Y-104333873D01*
X146008703Y-104464743D01*
X146250887Y-104534208D01*
X147051495Y-103733600D01*
X147037353Y-103719458D01*
X147216958Y-103539853D01*
X147231100Y-103553995D01*
X147245243Y-103539853D01*
X147424848Y-103719458D01*
M02*
