M48
;DRILL file {KiCad 4.0.6} date 08/30/17 10:54:25
;FORMAT={3:3/ absolute / metric / suppress leading zeros}
FMAT,2
METRIC,TZ
T1C0.400
T2C0.635
T3C0.900
T4C1.016
T5C1.500
T6C1.700
T7C2.750
%
G90
G05
M71
T1
X117000Y-108250
X117000Y-124750
X118000Y-108250
X118000Y-124750
X119000Y-108500
X119000Y-124500
X120000Y-108500
X120000Y-124500
X121000Y-108250
X121000Y-124750
X122000Y-108250
X122000Y-124750
X123000Y-108250
X124000Y-108250
X125000Y-108250
X125250Y-124500
X125750Y-109000
X125750Y-110000
X125750Y-111000
X125750Y-112000
X125750Y-113000
X125750Y-114000
X125750Y-115000
X125750Y-116000
X125750Y-117000
X125750Y-118000
X125750Y-119000
X125750Y-120000
X125750Y-121000
X125750Y-122000
X125750Y-123000
X128750Y-124250
X129500Y-124250
X130250Y-124250
X134500Y-124750
X134620Y-127635
X134620Y-128905
X134620Y-130175
X135750Y-124750
X137000Y-124750
X138250Y-125250
X139000Y-126250
X142000Y-127500
X142800Y-112000
X143000Y-124500
X144000Y-124500
X144000Y-127500
X145700Y-113000
X146000Y-124500
X146000Y-127500
X146400Y-117400
X147350Y-121150
X147400Y-117400
X148000Y-124500
X148000Y-127500
X148400Y-117400
X148500Y-107600
X149500Y-117400
X154400Y-129100
X155400Y-108700
X156700Y-127300
X163600Y-127300
X163600Y-128600
X169100Y-129300
X170600Y-127300
T2
X123400Y-125100
T3
X124371Y-103734
X124371Y-106274
X126911Y-103734
X126911Y-106274
X129451Y-103734
X129451Y-106274
X131991Y-103734
X131991Y-106274
X134531Y-103734
X134531Y-106274
X137071Y-103734
X137071Y-106274
X139611Y-103734
X139611Y-106274
X142151Y-103734
X142151Y-106274
X144691Y-103734
X144691Y-106274
X147231Y-103734
X147231Y-106274
X149771Y-103734
X149771Y-106274
X152311Y-103734
X152311Y-106274
X154851Y-103734
X154851Y-106274
X157391Y-103734
X157391Y-106274
X159931Y-103734
X159931Y-106274
X162471Y-103734
X162471Y-106274
X165011Y-103734
X165011Y-106274
X167551Y-103734
X167551Y-106274
X170091Y-103734
X170091Y-106274
X172631Y-103734
X172631Y-106274
T4
X140936Y-114856
X140936Y-117396
X140936Y-119936
X140936Y-122476
X143476Y-114856
X143476Y-117396
X143476Y-119936
X143476Y-122476
T5
X129500Y-127000
T6
X126960Y-124460
X126960Y-129540
X132040Y-124460
X132040Y-129540
T7
X119501Y-105004
X119501Y-128004
X177501Y-105004
X177501Y-128004
T0
M30
