G04 #@! TF.FileFunction,Soldermask,Bot*
%FSLAX46Y46*%
G04 Gerber Fmt 4.6, Leading zero omitted, Abs format (unit mm)*
G04 Created by KiCad (PCBNEW 4.0.6) date 08/30/17 10:54:12*
%MOMM*%
%LPD*%
G01*
G04 APERTURE LIST*
%ADD10C,0.100000*%
%ADD11C,1.924000*%
%ADD12C,6.190000*%
%ADD13O,2.127200X2.127200*%
%ADD14R,2.127200X2.127200*%
%ADD15C,2.600000*%
%ADD16C,2.400000*%
%ADD17C,1.543000*%
G04 APERTURE END LIST*
D10*
D11*
X124371100Y-106273600D03*
X124371100Y-103733600D03*
X126911100Y-106273600D03*
X126911100Y-103733600D03*
X129451100Y-106273600D03*
X129451100Y-103733600D03*
X131991100Y-106273600D03*
X131991100Y-103733600D03*
X134531100Y-106273600D03*
X134531100Y-103733600D03*
X137071100Y-106273600D03*
X137071100Y-103733600D03*
X139611100Y-106273600D03*
X139611100Y-103733600D03*
X142151100Y-106273600D03*
X142151100Y-103733600D03*
X144691100Y-106273600D03*
X144691100Y-103733600D03*
X147231100Y-106273600D03*
X147231100Y-103733600D03*
X149771100Y-106273600D03*
X149771100Y-103733600D03*
X152311100Y-106273600D03*
X152311100Y-103733600D03*
X154851100Y-106273600D03*
X154851100Y-103733600D03*
X157391100Y-106273600D03*
X157391100Y-103733600D03*
X159931100Y-106273600D03*
X159931100Y-103733600D03*
X162471100Y-106273600D03*
X162471100Y-103733600D03*
X165011100Y-106273600D03*
X165011100Y-103733600D03*
X167551100Y-106273600D03*
X167551100Y-103733600D03*
X170091100Y-106273600D03*
X170091100Y-103733600D03*
X172631100Y-106273600D03*
X172631100Y-103733600D03*
D12*
X119501100Y-105003600D03*
X177501100Y-105003600D03*
X177501100Y-128003600D03*
X119501100Y-128003600D03*
D13*
X143476000Y-114856000D03*
X140936000Y-114856000D03*
X143476000Y-117396000D03*
X140936000Y-117396000D03*
X143476000Y-119936000D03*
X140936000Y-119936000D03*
D14*
X143476000Y-122476000D03*
D13*
X140936000Y-122476000D03*
D15*
X126960000Y-129540000D03*
X126960000Y-124460000D03*
X132040000Y-124460000D03*
X132040000Y-129540000D03*
D16*
X129500000Y-127000000D03*
D17*
X123400000Y-125100000D03*
M02*
