G04 #@! TF.FileFunction,Legend,Bot*
%FSLAX46Y46*%
G04 Gerber Fmt 4.6, Leading zero omitted, Abs format (unit mm)*
G04 Created by KiCad (PCBNEW 4.0.6) date 08/30/17 10:54:11*
%MOMM*%
%LPD*%
G01*
G04 APERTURE LIST*
%ADD10C,0.100000*%
%ADD11C,0.150000*%
%ADD12C,0.010000*%
G04 APERTURE END LIST*
D10*
D11*
X178271431Y-121127381D02*
X178271431Y-120127381D01*
X178033336Y-120127381D01*
X177890478Y-120175000D01*
X177795240Y-120270238D01*
X177747621Y-120365476D01*
X177700002Y-120555952D01*
X177700002Y-120698810D01*
X177747621Y-120889286D01*
X177795240Y-120984524D01*
X177890478Y-121079762D01*
X178033336Y-121127381D01*
X178271431Y-121127381D01*
X176890478Y-121079762D02*
X176985716Y-121127381D01*
X177176193Y-121127381D01*
X177271431Y-121079762D01*
X177319050Y-120984524D01*
X177319050Y-120603571D01*
X177271431Y-120508333D01*
X177176193Y-120460714D01*
X176985716Y-120460714D01*
X176890478Y-120508333D01*
X176842859Y-120603571D01*
X176842859Y-120698810D01*
X177319050Y-120794048D01*
X176461907Y-121079762D02*
X176366669Y-121127381D01*
X176176193Y-121127381D01*
X176080954Y-121079762D01*
X176033335Y-120984524D01*
X176033335Y-120936905D01*
X176080954Y-120841667D01*
X176176193Y-120794048D01*
X176319050Y-120794048D01*
X176414288Y-120746429D01*
X176461907Y-120651190D01*
X176461907Y-120603571D01*
X176414288Y-120508333D01*
X176319050Y-120460714D01*
X176176193Y-120460714D01*
X176080954Y-120508333D01*
X175604764Y-121127381D02*
X175604764Y-120460714D01*
X175604764Y-120127381D02*
X175652383Y-120175000D01*
X175604764Y-120222619D01*
X175557145Y-120175000D01*
X175604764Y-120127381D01*
X175604764Y-120222619D01*
X174700002Y-120460714D02*
X174700002Y-121270238D01*
X174747621Y-121365476D01*
X174795240Y-121413095D01*
X174890479Y-121460714D01*
X175033336Y-121460714D01*
X175128574Y-121413095D01*
X174700002Y-121079762D02*
X174795240Y-121127381D01*
X174985717Y-121127381D01*
X175080955Y-121079762D01*
X175128574Y-121032143D01*
X175176193Y-120936905D01*
X175176193Y-120651190D01*
X175128574Y-120555952D01*
X175080955Y-120508333D01*
X174985717Y-120460714D01*
X174795240Y-120460714D01*
X174700002Y-120508333D01*
X174223812Y-120460714D02*
X174223812Y-121127381D01*
X174223812Y-120555952D02*
X174176193Y-120508333D01*
X174080955Y-120460714D01*
X173938097Y-120460714D01*
X173842859Y-120508333D01*
X173795240Y-120603571D01*
X173795240Y-121127381D01*
X172938097Y-121079762D02*
X173033335Y-121127381D01*
X173223812Y-121127381D01*
X173319050Y-121079762D01*
X173366669Y-120984524D01*
X173366669Y-120603571D01*
X173319050Y-120508333D01*
X173223812Y-120460714D01*
X173033335Y-120460714D01*
X172938097Y-120508333D01*
X172890478Y-120603571D01*
X172890478Y-120698810D01*
X173366669Y-120794048D01*
X172033335Y-121127381D02*
X172033335Y-120127381D01*
X172033335Y-121079762D02*
X172128573Y-121127381D01*
X172319050Y-121127381D01*
X172414288Y-121079762D01*
X172461907Y-121032143D01*
X172509526Y-120936905D01*
X172509526Y-120651190D01*
X172461907Y-120555952D01*
X172414288Y-120508333D01*
X172319050Y-120460714D01*
X172128573Y-120460714D01*
X172033335Y-120508333D01*
X170795240Y-121127381D02*
X170795240Y-120127381D01*
X170795240Y-120508333D02*
X170700002Y-120460714D01*
X170509525Y-120460714D01*
X170414287Y-120508333D01*
X170366668Y-120555952D01*
X170319049Y-120651190D01*
X170319049Y-120936905D01*
X170366668Y-121032143D01*
X170414287Y-121079762D01*
X170509525Y-121127381D01*
X170700002Y-121127381D01*
X170795240Y-121079762D01*
X169985716Y-120460714D02*
X169747621Y-121127381D01*
X169509525Y-120460714D02*
X169747621Y-121127381D01*
X169842859Y-121365476D01*
X169890478Y-121413095D01*
X169985716Y-121460714D01*
X167890477Y-121127381D02*
X168366668Y-121127381D01*
X168366668Y-120127381D01*
X167128572Y-121127381D02*
X167128572Y-120603571D01*
X167176191Y-120508333D01*
X167271429Y-120460714D01*
X167461906Y-120460714D01*
X167557144Y-120508333D01*
X167128572Y-121079762D02*
X167223810Y-121127381D01*
X167461906Y-121127381D01*
X167557144Y-121079762D01*
X167604763Y-120984524D01*
X167604763Y-120889286D01*
X167557144Y-120794048D01*
X167461906Y-120746429D01*
X167223810Y-120746429D01*
X167128572Y-120698810D01*
X166223810Y-120460714D02*
X166223810Y-121127381D01*
X166652382Y-120460714D02*
X166652382Y-120984524D01*
X166604763Y-121079762D01*
X166509525Y-121127381D01*
X166366667Y-121127381D01*
X166271429Y-121079762D01*
X166223810Y-121032143D01*
X165747620Y-121127381D02*
X165747620Y-120460714D01*
X165747620Y-120651190D02*
X165700001Y-120555952D01*
X165652382Y-120508333D01*
X165557144Y-120460714D01*
X165461905Y-120460714D01*
X164747619Y-121079762D02*
X164842857Y-121127381D01*
X165033334Y-121127381D01*
X165128572Y-121079762D01*
X165176191Y-120984524D01*
X165176191Y-120603571D01*
X165128572Y-120508333D01*
X165033334Y-120460714D01*
X164842857Y-120460714D01*
X164747619Y-120508333D01*
X164700000Y-120603571D01*
X164700000Y-120698810D01*
X165176191Y-120794048D01*
X164271429Y-120460714D02*
X164271429Y-121127381D01*
X164271429Y-120555952D02*
X164223810Y-120508333D01*
X164128572Y-120460714D01*
X163985714Y-120460714D01*
X163890476Y-120508333D01*
X163842857Y-120603571D01*
X163842857Y-121127381D01*
X163509524Y-120460714D02*
X163128572Y-120460714D01*
X163366667Y-120127381D02*
X163366667Y-120984524D01*
X163319048Y-121079762D01*
X163223810Y-121127381D01*
X163128572Y-121127381D01*
X161557142Y-121127381D02*
X162033333Y-121127381D01*
X162033333Y-120127381D01*
X160842856Y-121079762D02*
X160938094Y-121127381D01*
X161128571Y-121127381D01*
X161223809Y-121079762D01*
X161271428Y-120984524D01*
X161271428Y-120603571D01*
X161223809Y-120508333D01*
X161128571Y-120460714D01*
X160938094Y-120460714D01*
X160842856Y-120508333D01*
X160795237Y-120603571D01*
X160795237Y-120698810D01*
X161271428Y-120794048D01*
X159080951Y-120175000D02*
X159176189Y-120127381D01*
X159319046Y-120127381D01*
X159461904Y-120175000D01*
X159557142Y-120270238D01*
X159604761Y-120365476D01*
X159652380Y-120555952D01*
X159652380Y-120698810D01*
X159604761Y-120889286D01*
X159557142Y-120984524D01*
X159461904Y-121079762D01*
X159319046Y-121127381D01*
X159223808Y-121127381D01*
X159080951Y-121079762D01*
X159033332Y-121032143D01*
X159033332Y-120698810D01*
X159223808Y-120698810D01*
X158461904Y-121127381D02*
X158557142Y-121079762D01*
X158604761Y-121032143D01*
X158652380Y-120936905D01*
X158652380Y-120651190D01*
X158604761Y-120555952D01*
X158557142Y-120508333D01*
X158461904Y-120460714D01*
X158319046Y-120460714D01*
X158223808Y-120508333D01*
X158176189Y-120555952D01*
X158128570Y-120651190D01*
X158128570Y-120936905D01*
X158176189Y-121032143D01*
X158223808Y-121079762D01*
X158319046Y-121127381D01*
X158461904Y-121127381D01*
X157842856Y-120460714D02*
X157461904Y-120460714D01*
X157699999Y-121127381D02*
X157699999Y-120270238D01*
X157652380Y-120175000D01*
X157557142Y-120127381D01*
X157461904Y-120127381D01*
X157271427Y-120460714D02*
X156890475Y-120460714D01*
X157128570Y-121127381D02*
X157128570Y-120270238D01*
X157080951Y-120175000D01*
X156985713Y-120127381D01*
X156890475Y-120127381D01*
X155509521Y-121508333D02*
X155557141Y-121460714D01*
X155652379Y-121317857D01*
X155699998Y-121222619D01*
X155747617Y-121079762D01*
X155795236Y-120841667D01*
X155795236Y-120651190D01*
X155747617Y-120413095D01*
X155699998Y-120270238D01*
X155652379Y-120175000D01*
X155557141Y-120032143D01*
X155509521Y-119984524D01*
X155176188Y-120222619D02*
X155128569Y-120175000D01*
X155033331Y-120127381D01*
X154795235Y-120127381D01*
X154699997Y-120175000D01*
X154652378Y-120222619D01*
X154604759Y-120317857D01*
X154604759Y-120413095D01*
X154652378Y-120555952D01*
X155223807Y-121127381D01*
X154604759Y-121127381D01*
X153985712Y-120127381D02*
X153890473Y-120127381D01*
X153795235Y-120175000D01*
X153747616Y-120222619D01*
X153699997Y-120317857D01*
X153652378Y-120508333D01*
X153652378Y-120746429D01*
X153699997Y-120936905D01*
X153747616Y-121032143D01*
X153795235Y-121079762D01*
X153890473Y-121127381D01*
X153985712Y-121127381D01*
X154080950Y-121079762D01*
X154128569Y-121032143D01*
X154176188Y-120936905D01*
X154223807Y-120746429D01*
X154223807Y-120508333D01*
X154176188Y-120317857D01*
X154128569Y-120222619D01*
X154080950Y-120175000D01*
X153985712Y-120127381D01*
X152699997Y-121127381D02*
X153271426Y-121127381D01*
X152985712Y-121127381D02*
X152985712Y-120127381D01*
X153080950Y-120270238D01*
X153176188Y-120365476D01*
X153271426Y-120413095D01*
X152366664Y-120127381D02*
X151699997Y-120127381D01*
X152128569Y-121127381D01*
X151414283Y-121508333D02*
X151366664Y-121460714D01*
X151271426Y-121317857D01*
X151223807Y-121222619D01*
X151176188Y-121079762D01*
X151128569Y-120841667D01*
X151128569Y-120651190D01*
X151176188Y-120413095D01*
X151223807Y-120270238D01*
X151271426Y-120175000D01*
X151366664Y-120032143D01*
X151414283Y-119984524D01*
X174676191Y-123158333D02*
X174723811Y-123110714D01*
X174819049Y-122967857D01*
X174866668Y-122872619D01*
X174914287Y-122729762D01*
X174961906Y-122491667D01*
X174961906Y-122301190D01*
X174914287Y-122063095D01*
X174866668Y-121920238D01*
X174819049Y-121825000D01*
X174723811Y-121682143D01*
X174676191Y-121634524D01*
X174295239Y-122777381D02*
X174295239Y-121777381D01*
X173866667Y-122777381D02*
X173866667Y-122253571D01*
X173914286Y-122158333D01*
X174009524Y-122110714D01*
X174152382Y-122110714D01*
X174247620Y-122158333D01*
X174295239Y-122205952D01*
X173533334Y-122110714D02*
X173152382Y-122110714D01*
X173390477Y-121777381D02*
X173390477Y-122634524D01*
X173342858Y-122729762D01*
X173247620Y-122777381D01*
X173152382Y-122777381D01*
X172961905Y-122110714D02*
X172580953Y-122110714D01*
X172819048Y-121777381D02*
X172819048Y-122634524D01*
X172771429Y-122729762D01*
X172676191Y-122777381D01*
X172580953Y-122777381D01*
X172247619Y-122110714D02*
X172247619Y-123110714D01*
X172247619Y-122158333D02*
X172152381Y-122110714D01*
X171961904Y-122110714D01*
X171866666Y-122158333D01*
X171819047Y-122205952D01*
X171771428Y-122301190D01*
X171771428Y-122586905D01*
X171819047Y-122682143D01*
X171866666Y-122729762D01*
X171961904Y-122777381D01*
X172152381Y-122777381D01*
X172247619Y-122729762D01*
X171342857Y-122682143D02*
X171295238Y-122729762D01*
X171342857Y-122777381D01*
X171390476Y-122729762D01*
X171342857Y-122682143D01*
X171342857Y-122777381D01*
X171342857Y-122158333D02*
X171295238Y-122205952D01*
X171342857Y-122253571D01*
X171390476Y-122205952D01*
X171342857Y-122158333D01*
X171342857Y-122253571D01*
X170152381Y-121729762D02*
X171009524Y-123015476D01*
X169104762Y-121729762D02*
X169961905Y-123015476D01*
X168342857Y-122110714D02*
X168342857Y-122920238D01*
X168390476Y-123015476D01*
X168438095Y-123063095D01*
X168533334Y-123110714D01*
X168676191Y-123110714D01*
X168771429Y-123063095D01*
X168342857Y-122729762D02*
X168438095Y-122777381D01*
X168628572Y-122777381D01*
X168723810Y-122729762D01*
X168771429Y-122682143D01*
X168819048Y-122586905D01*
X168819048Y-122301190D01*
X168771429Y-122205952D01*
X168723810Y-122158333D01*
X168628572Y-122110714D01*
X168438095Y-122110714D01*
X168342857Y-122158333D01*
X167866667Y-122777381D02*
X167866667Y-122110714D01*
X167866667Y-121777381D02*
X167914286Y-121825000D01*
X167866667Y-121872619D01*
X167819048Y-121825000D01*
X167866667Y-121777381D01*
X167866667Y-121872619D01*
X167533334Y-122110714D02*
X167152382Y-122110714D01*
X167390477Y-121777381D02*
X167390477Y-122634524D01*
X167342858Y-122729762D01*
X167247620Y-122777381D01*
X167152382Y-122777381D01*
X166819048Y-122777381D02*
X166819048Y-121777381D01*
X166390476Y-122777381D02*
X166390476Y-122253571D01*
X166438095Y-122158333D01*
X166533333Y-122110714D01*
X166676191Y-122110714D01*
X166771429Y-122158333D01*
X166819048Y-122205952D01*
X165485714Y-122110714D02*
X165485714Y-122777381D01*
X165914286Y-122110714D02*
X165914286Y-122634524D01*
X165866667Y-122729762D01*
X165771429Y-122777381D01*
X165628571Y-122777381D01*
X165533333Y-122729762D01*
X165485714Y-122682143D01*
X165009524Y-122777381D02*
X165009524Y-121777381D01*
X165009524Y-122158333D02*
X164914286Y-122110714D01*
X164723809Y-122110714D01*
X164628571Y-122158333D01*
X164580952Y-122205952D01*
X164533333Y-122301190D01*
X164533333Y-122586905D01*
X164580952Y-122682143D01*
X164628571Y-122729762D01*
X164723809Y-122777381D01*
X164914286Y-122777381D01*
X165009524Y-122729762D01*
X164104762Y-122682143D02*
X164057143Y-122729762D01*
X164104762Y-122777381D01*
X164152381Y-122729762D01*
X164104762Y-122682143D01*
X164104762Y-122777381D01*
X163200000Y-122729762D02*
X163295238Y-122777381D01*
X163485715Y-122777381D01*
X163580953Y-122729762D01*
X163628572Y-122682143D01*
X163676191Y-122586905D01*
X163676191Y-122301190D01*
X163628572Y-122205952D01*
X163580953Y-122158333D01*
X163485715Y-122110714D01*
X163295238Y-122110714D01*
X163200000Y-122158333D01*
X162628572Y-122777381D02*
X162723810Y-122729762D01*
X162771429Y-122682143D01*
X162819048Y-122586905D01*
X162819048Y-122301190D01*
X162771429Y-122205952D01*
X162723810Y-122158333D01*
X162628572Y-122110714D01*
X162485714Y-122110714D01*
X162390476Y-122158333D01*
X162342857Y-122205952D01*
X162295238Y-122301190D01*
X162295238Y-122586905D01*
X162342857Y-122682143D01*
X162390476Y-122729762D01*
X162485714Y-122777381D01*
X162628572Y-122777381D01*
X161866667Y-122777381D02*
X161866667Y-122110714D01*
X161866667Y-122205952D02*
X161819048Y-122158333D01*
X161723810Y-122110714D01*
X161580952Y-122110714D01*
X161485714Y-122158333D01*
X161438095Y-122253571D01*
X161438095Y-122777381D01*
X161438095Y-122253571D02*
X161390476Y-122158333D01*
X161295238Y-122110714D01*
X161152381Y-122110714D01*
X161057143Y-122158333D01*
X161009524Y-122253571D01*
X161009524Y-122777381D01*
X159819048Y-121729762D02*
X160676191Y-123015476D01*
X159342858Y-122777381D02*
X159438096Y-122729762D01*
X159485715Y-122634524D01*
X159485715Y-121777381D01*
X158819048Y-122777381D02*
X158914286Y-122729762D01*
X158961905Y-122634524D01*
X158961905Y-121777381D01*
X158057142Y-122729762D02*
X158152380Y-122777381D01*
X158342857Y-122777381D01*
X158438095Y-122729762D01*
X158485714Y-122634524D01*
X158485714Y-122253571D01*
X158438095Y-122158333D01*
X158342857Y-122110714D01*
X158152380Y-122110714D01*
X158057142Y-122158333D01*
X158009523Y-122253571D01*
X158009523Y-122348810D01*
X158485714Y-122444048D01*
X157152380Y-122110714D02*
X157152380Y-122920238D01*
X157199999Y-123015476D01*
X157247618Y-123063095D01*
X157342857Y-123110714D01*
X157485714Y-123110714D01*
X157580952Y-123063095D01*
X157152380Y-122729762D02*
X157247618Y-122777381D01*
X157438095Y-122777381D01*
X157533333Y-122729762D01*
X157580952Y-122682143D01*
X157628571Y-122586905D01*
X157628571Y-122301190D01*
X157580952Y-122205952D01*
X157533333Y-122158333D01*
X157438095Y-122110714D01*
X157247618Y-122110714D01*
X157152380Y-122158333D01*
X156533333Y-122777381D02*
X156628571Y-122729762D01*
X156676190Y-122682143D01*
X156723809Y-122586905D01*
X156723809Y-122301190D01*
X156676190Y-122205952D01*
X156628571Y-122158333D01*
X156533333Y-122110714D01*
X156390475Y-122110714D01*
X156295237Y-122158333D01*
X156247618Y-122205952D01*
X156199999Y-122301190D01*
X156199999Y-122586905D01*
X156247618Y-122682143D01*
X156295237Y-122729762D01*
X156390475Y-122777381D01*
X156533333Y-122777381D01*
X155914285Y-122110714D02*
X155533333Y-122110714D01*
X155771428Y-122777381D02*
X155771428Y-121920238D01*
X155723809Y-121825000D01*
X155628571Y-121777381D01*
X155533333Y-121777381D01*
X155342856Y-122110714D02*
X154961904Y-122110714D01*
X155199999Y-122777381D02*
X155199999Y-121920238D01*
X155152380Y-121825000D01*
X155057142Y-121777381D01*
X154961904Y-121777381D01*
X154723808Y-123158333D02*
X154676189Y-123110714D01*
X154580951Y-122967857D01*
X154533332Y-122872619D01*
X154485713Y-122729762D01*
X154438094Y-122491667D01*
X154438094Y-122301190D01*
X154485713Y-122063095D01*
X154533332Y-121920238D01*
X154580951Y-121825000D01*
X154676189Y-121682143D01*
X154723808Y-121634524D01*
D12*
G36*
X138521371Y-121769066D02*
X138481889Y-121769467D01*
X138366200Y-121772259D01*
X138269311Y-121780550D01*
X138187919Y-121795232D01*
X138118723Y-121817193D01*
X138058420Y-121847322D01*
X138003708Y-121886510D01*
X137984167Y-121903532D01*
X137951750Y-121943363D01*
X137922520Y-121997413D01*
X137899991Y-122057323D01*
X137887679Y-122114739D01*
X137886400Y-122135956D01*
X137894417Y-122194769D01*
X137915899Y-122259013D01*
X137946999Y-122319821D01*
X137983866Y-122368330D01*
X137989854Y-122374182D01*
X138040579Y-122415321D01*
X138096125Y-122447435D01*
X138159696Y-122471365D01*
X138234494Y-122487953D01*
X138323722Y-122498041D01*
X138430582Y-122502469D01*
X138479528Y-122502845D01*
X138541762Y-122502545D01*
X138585528Y-122501292D01*
X138614931Y-122498554D01*
X138634079Y-122493801D01*
X138647077Y-122486501D01*
X138654045Y-122480267D01*
X138660626Y-122472694D01*
X138665788Y-122462924D01*
X138669703Y-122448340D01*
X138672543Y-122426326D01*
X138674480Y-122394264D01*
X138675684Y-122349536D01*
X138676328Y-122289526D01*
X138676583Y-122211617D01*
X138676622Y-122135956D01*
X138676870Y-122035041D01*
X138676817Y-121954427D01*
X138675857Y-121915822D01*
X138529867Y-121915822D01*
X138529867Y-122356089D01*
X138436734Y-122356004D01*
X138380693Y-122354396D01*
X138321999Y-122350256D01*
X138273028Y-122344464D01*
X138271538Y-122344226D01*
X138192392Y-122325090D01*
X138131002Y-122295287D01*
X138084305Y-122252878D01*
X138054635Y-122206961D01*
X138036353Y-122156026D01*
X138037771Y-122108200D01*
X138058988Y-122056933D01*
X138100489Y-122003899D01*
X138157998Y-121964600D01*
X138232750Y-121938331D01*
X138282708Y-121929035D01*
X138339416Y-121922507D01*
X138399519Y-121917782D01*
X138450639Y-121915817D01*
X138453667Y-121915808D01*
X138529867Y-121915822D01*
X138675857Y-121915822D01*
X138675260Y-121891851D01*
X138670998Y-121845055D01*
X138662830Y-121811778D01*
X138649556Y-121789759D01*
X138629974Y-121776739D01*
X138602883Y-121770457D01*
X138567082Y-121768653D01*
X138521371Y-121769066D01*
X138521371Y-121769066D01*
G37*
X138521371Y-121769066D02*
X138481889Y-121769467D01*
X138366200Y-121772259D01*
X138269311Y-121780550D01*
X138187919Y-121795232D01*
X138118723Y-121817193D01*
X138058420Y-121847322D01*
X138003708Y-121886510D01*
X137984167Y-121903532D01*
X137951750Y-121943363D01*
X137922520Y-121997413D01*
X137899991Y-122057323D01*
X137887679Y-122114739D01*
X137886400Y-122135956D01*
X137894417Y-122194769D01*
X137915899Y-122259013D01*
X137946999Y-122319821D01*
X137983866Y-122368330D01*
X137989854Y-122374182D01*
X138040579Y-122415321D01*
X138096125Y-122447435D01*
X138159696Y-122471365D01*
X138234494Y-122487953D01*
X138323722Y-122498041D01*
X138430582Y-122502469D01*
X138479528Y-122502845D01*
X138541762Y-122502545D01*
X138585528Y-122501292D01*
X138614931Y-122498554D01*
X138634079Y-122493801D01*
X138647077Y-122486501D01*
X138654045Y-122480267D01*
X138660626Y-122472694D01*
X138665788Y-122462924D01*
X138669703Y-122448340D01*
X138672543Y-122426326D01*
X138674480Y-122394264D01*
X138675684Y-122349536D01*
X138676328Y-122289526D01*
X138676583Y-122211617D01*
X138676622Y-122135956D01*
X138676870Y-122035041D01*
X138676817Y-121954427D01*
X138675857Y-121915822D01*
X138529867Y-121915822D01*
X138529867Y-122356089D01*
X138436734Y-122356004D01*
X138380693Y-122354396D01*
X138321999Y-122350256D01*
X138273028Y-122344464D01*
X138271538Y-122344226D01*
X138192392Y-122325090D01*
X138131002Y-122295287D01*
X138084305Y-122252878D01*
X138054635Y-122206961D01*
X138036353Y-122156026D01*
X138037771Y-122108200D01*
X138058988Y-122056933D01*
X138100489Y-122003899D01*
X138157998Y-121964600D01*
X138232750Y-121938331D01*
X138282708Y-121929035D01*
X138339416Y-121922507D01*
X138399519Y-121917782D01*
X138450639Y-121915817D01*
X138453667Y-121915808D01*
X138529867Y-121915822D01*
X138675857Y-121915822D01*
X138675260Y-121891851D01*
X138670998Y-121845055D01*
X138662830Y-121811778D01*
X138649556Y-121789759D01*
X138629974Y-121776739D01*
X138602883Y-121770457D01*
X138567082Y-121768653D01*
X138521371Y-121769066D01*
G36*
X137112794Y-121769146D02*
X137043386Y-121769518D01*
X136990997Y-121770385D01*
X136952847Y-121771946D01*
X136926159Y-121774403D01*
X136908153Y-121777957D01*
X136896049Y-121782810D01*
X136887069Y-121789161D01*
X136883818Y-121792084D01*
X136864043Y-121823142D01*
X136860482Y-121858828D01*
X136873491Y-121890510D01*
X136879506Y-121896913D01*
X136889235Y-121903121D01*
X136904901Y-121907910D01*
X136929408Y-121911514D01*
X136965661Y-121914164D01*
X137016565Y-121916095D01*
X137085026Y-121917539D01*
X137147617Y-121918418D01*
X137395334Y-121921467D01*
X137398719Y-121986378D01*
X137402105Y-122051289D01*
X137233958Y-122051289D01*
X137160959Y-122051919D01*
X137107517Y-122054553D01*
X137070628Y-122060309D01*
X137047288Y-122070304D01*
X137034494Y-122085656D01*
X137029242Y-122107482D01*
X137028445Y-122127738D01*
X137030923Y-122152592D01*
X137040277Y-122170906D01*
X137059383Y-122183637D01*
X137091118Y-122191741D01*
X137138359Y-122196176D01*
X137203983Y-122197899D01*
X137239801Y-122198045D01*
X137400978Y-122198045D01*
X137400978Y-122356089D01*
X137152622Y-122356089D01*
X137071213Y-122356202D01*
X137009342Y-122356712D01*
X136963968Y-122357870D01*
X136932054Y-122359930D01*
X136910559Y-122363146D01*
X136896443Y-122367772D01*
X136886668Y-122374059D01*
X136881689Y-122378667D01*
X136864610Y-122405560D01*
X136859111Y-122429467D01*
X136866963Y-122458667D01*
X136881689Y-122480267D01*
X136889546Y-122487066D01*
X136899688Y-122492346D01*
X136914844Y-122496298D01*
X136937741Y-122499113D01*
X136971109Y-122500982D01*
X137017675Y-122502098D01*
X137080167Y-122502651D01*
X137161314Y-122502833D01*
X137203422Y-122502845D01*
X137293598Y-122502765D01*
X137363924Y-122502398D01*
X137417129Y-122501552D01*
X137455940Y-122500036D01*
X137483087Y-122497659D01*
X137501298Y-122494229D01*
X137513300Y-122489554D01*
X137521822Y-122483444D01*
X137525156Y-122480267D01*
X137531755Y-122472670D01*
X137536927Y-122462870D01*
X137540846Y-122448239D01*
X137543684Y-122426152D01*
X137545615Y-122393982D01*
X137546812Y-122349103D01*
X137547448Y-122288889D01*
X137547697Y-122210713D01*
X137547734Y-122137923D01*
X137547700Y-122044707D01*
X137547465Y-121971431D01*
X137546830Y-121915458D01*
X137545594Y-121874151D01*
X137543556Y-121844872D01*
X137540517Y-121824984D01*
X137536277Y-121811850D01*
X137530635Y-121802832D01*
X137523391Y-121795293D01*
X137521606Y-121793612D01*
X137512945Y-121786172D01*
X137502882Y-121780409D01*
X137488625Y-121776112D01*
X137467383Y-121773064D01*
X137436364Y-121771051D01*
X137392777Y-121769860D01*
X137333831Y-121769275D01*
X137256734Y-121769083D01*
X137202001Y-121769067D01*
X137112794Y-121769146D01*
X137112794Y-121769146D01*
G37*
X137112794Y-121769146D02*
X137043386Y-121769518D01*
X136990997Y-121770385D01*
X136952847Y-121771946D01*
X136926159Y-121774403D01*
X136908153Y-121777957D01*
X136896049Y-121782810D01*
X136887069Y-121789161D01*
X136883818Y-121792084D01*
X136864043Y-121823142D01*
X136860482Y-121858828D01*
X136873491Y-121890510D01*
X136879506Y-121896913D01*
X136889235Y-121903121D01*
X136904901Y-121907910D01*
X136929408Y-121911514D01*
X136965661Y-121914164D01*
X137016565Y-121916095D01*
X137085026Y-121917539D01*
X137147617Y-121918418D01*
X137395334Y-121921467D01*
X137398719Y-121986378D01*
X137402105Y-122051289D01*
X137233958Y-122051289D01*
X137160959Y-122051919D01*
X137107517Y-122054553D01*
X137070628Y-122060309D01*
X137047288Y-122070304D01*
X137034494Y-122085656D01*
X137029242Y-122107482D01*
X137028445Y-122127738D01*
X137030923Y-122152592D01*
X137040277Y-122170906D01*
X137059383Y-122183637D01*
X137091118Y-122191741D01*
X137138359Y-122196176D01*
X137203983Y-122197899D01*
X137239801Y-122198045D01*
X137400978Y-122198045D01*
X137400978Y-122356089D01*
X137152622Y-122356089D01*
X137071213Y-122356202D01*
X137009342Y-122356712D01*
X136963968Y-122357870D01*
X136932054Y-122359930D01*
X136910559Y-122363146D01*
X136896443Y-122367772D01*
X136886668Y-122374059D01*
X136881689Y-122378667D01*
X136864610Y-122405560D01*
X136859111Y-122429467D01*
X136866963Y-122458667D01*
X136881689Y-122480267D01*
X136889546Y-122487066D01*
X136899688Y-122492346D01*
X136914844Y-122496298D01*
X136937741Y-122499113D01*
X136971109Y-122500982D01*
X137017675Y-122502098D01*
X137080167Y-122502651D01*
X137161314Y-122502833D01*
X137203422Y-122502845D01*
X137293598Y-122502765D01*
X137363924Y-122502398D01*
X137417129Y-122501552D01*
X137455940Y-122500036D01*
X137483087Y-122497659D01*
X137501298Y-122494229D01*
X137513300Y-122489554D01*
X137521822Y-122483444D01*
X137525156Y-122480267D01*
X137531755Y-122472670D01*
X137536927Y-122462870D01*
X137540846Y-122448239D01*
X137543684Y-122426152D01*
X137545615Y-122393982D01*
X137546812Y-122349103D01*
X137547448Y-122288889D01*
X137547697Y-122210713D01*
X137547734Y-122137923D01*
X137547700Y-122044707D01*
X137547465Y-121971431D01*
X137546830Y-121915458D01*
X137545594Y-121874151D01*
X137543556Y-121844872D01*
X137540517Y-121824984D01*
X137536277Y-121811850D01*
X137530635Y-121802832D01*
X137523391Y-121795293D01*
X137521606Y-121793612D01*
X137512945Y-121786172D01*
X137502882Y-121780409D01*
X137488625Y-121776112D01*
X137467383Y-121773064D01*
X137436364Y-121771051D01*
X137392777Y-121769860D01*
X137333831Y-121769275D01*
X137256734Y-121769083D01*
X137202001Y-121769067D01*
X137112794Y-121769146D01*
G36*
X136091703Y-121770351D02*
X136016888Y-121775581D01*
X135947306Y-121783750D01*
X135887002Y-121794550D01*
X135840020Y-121807673D01*
X135810406Y-121822813D01*
X135805860Y-121827269D01*
X135790054Y-121861850D01*
X135794847Y-121897351D01*
X135819364Y-121927725D01*
X135820534Y-121928596D01*
X135834954Y-121937954D01*
X135850008Y-121942876D01*
X135871005Y-121943473D01*
X135903257Y-121939861D01*
X135952073Y-121932154D01*
X135956000Y-121931505D01*
X136028739Y-121922569D01*
X136107217Y-121918161D01*
X136185927Y-121918119D01*
X136259361Y-121922279D01*
X136322011Y-121930479D01*
X136368370Y-121942557D01*
X136371416Y-121943771D01*
X136405048Y-121962615D01*
X136416864Y-121981685D01*
X136407614Y-122000439D01*
X136378047Y-122018337D01*
X136328911Y-122034837D01*
X136260957Y-122049396D01*
X136215645Y-122056406D01*
X136121456Y-122069889D01*
X136046544Y-122082214D01*
X135987717Y-122094449D01*
X135941785Y-122107661D01*
X135905555Y-122122917D01*
X135875838Y-122141285D01*
X135849442Y-122163831D01*
X135828230Y-122185971D01*
X135803065Y-122216819D01*
X135790681Y-122243345D01*
X135786808Y-122276026D01*
X135786667Y-122287995D01*
X135789576Y-122327712D01*
X135801202Y-122357259D01*
X135821323Y-122383486D01*
X135862216Y-122423576D01*
X135907817Y-122454149D01*
X135961513Y-122476203D01*
X136026692Y-122490735D01*
X136106744Y-122498741D01*
X136205057Y-122501218D01*
X136221289Y-122501177D01*
X136286849Y-122499818D01*
X136351866Y-122496730D01*
X136409252Y-122492356D01*
X136451922Y-122487140D01*
X136455372Y-122486541D01*
X136497796Y-122476491D01*
X136533780Y-122463796D01*
X136554150Y-122452190D01*
X136573107Y-122421572D01*
X136574427Y-122385918D01*
X136558085Y-122354144D01*
X136554429Y-122350551D01*
X136539315Y-122339876D01*
X136520415Y-122335276D01*
X136491162Y-122336059D01*
X136455651Y-122340127D01*
X136415970Y-122343762D01*
X136360345Y-122346828D01*
X136295406Y-122349053D01*
X136227785Y-122350164D01*
X136210000Y-122350237D01*
X136142128Y-122349964D01*
X136092454Y-122348646D01*
X136056610Y-122345827D01*
X136030224Y-122341050D01*
X136008926Y-122333857D01*
X135996126Y-122327867D01*
X135968000Y-122311233D01*
X135950068Y-122296168D01*
X135947447Y-122291897D01*
X135952976Y-122274263D01*
X135979260Y-122257192D01*
X136024478Y-122241458D01*
X136086808Y-122227838D01*
X136105171Y-122224804D01*
X136201090Y-122209738D01*
X136277641Y-122197146D01*
X136337780Y-122186111D01*
X136384460Y-122175720D01*
X136420637Y-122165056D01*
X136449265Y-122153205D01*
X136473298Y-122139251D01*
X136495692Y-122122281D01*
X136519402Y-122101378D01*
X136527380Y-122094049D01*
X136555353Y-122066699D01*
X136570160Y-122045029D01*
X136575952Y-122020232D01*
X136576889Y-121988983D01*
X136566575Y-121927705D01*
X136535752Y-121875640D01*
X136484595Y-121832958D01*
X136413283Y-121799825D01*
X136362400Y-121784964D01*
X136307100Y-121775366D01*
X136240853Y-121769936D01*
X136167706Y-121768367D01*
X136091703Y-121770351D01*
X136091703Y-121770351D01*
G37*
X136091703Y-121770351D02*
X136016888Y-121775581D01*
X135947306Y-121783750D01*
X135887002Y-121794550D01*
X135840020Y-121807673D01*
X135810406Y-121822813D01*
X135805860Y-121827269D01*
X135790054Y-121861850D01*
X135794847Y-121897351D01*
X135819364Y-121927725D01*
X135820534Y-121928596D01*
X135834954Y-121937954D01*
X135850008Y-121942876D01*
X135871005Y-121943473D01*
X135903257Y-121939861D01*
X135952073Y-121932154D01*
X135956000Y-121931505D01*
X136028739Y-121922569D01*
X136107217Y-121918161D01*
X136185927Y-121918119D01*
X136259361Y-121922279D01*
X136322011Y-121930479D01*
X136368370Y-121942557D01*
X136371416Y-121943771D01*
X136405048Y-121962615D01*
X136416864Y-121981685D01*
X136407614Y-122000439D01*
X136378047Y-122018337D01*
X136328911Y-122034837D01*
X136260957Y-122049396D01*
X136215645Y-122056406D01*
X136121456Y-122069889D01*
X136046544Y-122082214D01*
X135987717Y-122094449D01*
X135941785Y-122107661D01*
X135905555Y-122122917D01*
X135875838Y-122141285D01*
X135849442Y-122163831D01*
X135828230Y-122185971D01*
X135803065Y-122216819D01*
X135790681Y-122243345D01*
X135786808Y-122276026D01*
X135786667Y-122287995D01*
X135789576Y-122327712D01*
X135801202Y-122357259D01*
X135821323Y-122383486D01*
X135862216Y-122423576D01*
X135907817Y-122454149D01*
X135961513Y-122476203D01*
X136026692Y-122490735D01*
X136106744Y-122498741D01*
X136205057Y-122501218D01*
X136221289Y-122501177D01*
X136286849Y-122499818D01*
X136351866Y-122496730D01*
X136409252Y-122492356D01*
X136451922Y-122487140D01*
X136455372Y-122486541D01*
X136497796Y-122476491D01*
X136533780Y-122463796D01*
X136554150Y-122452190D01*
X136573107Y-122421572D01*
X136574427Y-122385918D01*
X136558085Y-122354144D01*
X136554429Y-122350551D01*
X136539315Y-122339876D01*
X136520415Y-122335276D01*
X136491162Y-122336059D01*
X136455651Y-122340127D01*
X136415970Y-122343762D01*
X136360345Y-122346828D01*
X136295406Y-122349053D01*
X136227785Y-122350164D01*
X136210000Y-122350237D01*
X136142128Y-122349964D01*
X136092454Y-122348646D01*
X136056610Y-122345827D01*
X136030224Y-122341050D01*
X136008926Y-122333857D01*
X135996126Y-122327867D01*
X135968000Y-122311233D01*
X135950068Y-122296168D01*
X135947447Y-122291897D01*
X135952976Y-122274263D01*
X135979260Y-122257192D01*
X136024478Y-122241458D01*
X136086808Y-122227838D01*
X136105171Y-122224804D01*
X136201090Y-122209738D01*
X136277641Y-122197146D01*
X136337780Y-122186111D01*
X136384460Y-122175720D01*
X136420637Y-122165056D01*
X136449265Y-122153205D01*
X136473298Y-122139251D01*
X136495692Y-122122281D01*
X136519402Y-122101378D01*
X136527380Y-122094049D01*
X136555353Y-122066699D01*
X136570160Y-122045029D01*
X136575952Y-122020232D01*
X136576889Y-121988983D01*
X136566575Y-121927705D01*
X136535752Y-121875640D01*
X136484595Y-121832958D01*
X136413283Y-121799825D01*
X136362400Y-121784964D01*
X136307100Y-121775366D01*
X136240853Y-121769936D01*
X136167706Y-121768367D01*
X136091703Y-121770351D01*
G36*
X135323822Y-121791645D02*
X135317242Y-121799218D01*
X135312079Y-121808987D01*
X135308164Y-121823571D01*
X135305324Y-121845585D01*
X135303387Y-121877648D01*
X135302183Y-121922375D01*
X135301539Y-121982385D01*
X135301284Y-122060294D01*
X135301245Y-122135956D01*
X135301314Y-122229802D01*
X135301638Y-122303689D01*
X135302386Y-122360232D01*
X135303732Y-122402049D01*
X135305846Y-122431757D01*
X135308900Y-122451973D01*
X135313066Y-122465314D01*
X135318516Y-122474398D01*
X135323822Y-122480267D01*
X135356826Y-122499947D01*
X135391991Y-122498181D01*
X135423455Y-122476717D01*
X135430684Y-122468337D01*
X135436334Y-122458614D01*
X135440599Y-122444861D01*
X135443673Y-122424389D01*
X135445752Y-122394512D01*
X135447030Y-122352541D01*
X135447701Y-122295789D01*
X135447959Y-122221567D01*
X135448000Y-122137537D01*
X135448000Y-121824485D01*
X135420291Y-121796776D01*
X135386137Y-121773463D01*
X135353006Y-121772623D01*
X135323822Y-121791645D01*
X135323822Y-121791645D01*
G37*
X135323822Y-121791645D02*
X135317242Y-121799218D01*
X135312079Y-121808987D01*
X135308164Y-121823571D01*
X135305324Y-121845585D01*
X135303387Y-121877648D01*
X135302183Y-121922375D01*
X135301539Y-121982385D01*
X135301284Y-122060294D01*
X135301245Y-122135956D01*
X135301314Y-122229802D01*
X135301638Y-122303689D01*
X135302386Y-122360232D01*
X135303732Y-122402049D01*
X135305846Y-122431757D01*
X135308900Y-122451973D01*
X135313066Y-122465314D01*
X135318516Y-122474398D01*
X135323822Y-122480267D01*
X135356826Y-122499947D01*
X135391991Y-122498181D01*
X135423455Y-122476717D01*
X135430684Y-122468337D01*
X135436334Y-122458614D01*
X135440599Y-122444861D01*
X135443673Y-122424389D01*
X135445752Y-122394512D01*
X135447030Y-122352541D01*
X135447701Y-122295789D01*
X135447959Y-122221567D01*
X135448000Y-122137537D01*
X135448000Y-121824485D01*
X135420291Y-121796776D01*
X135386137Y-121773463D01*
X135353006Y-121772623D01*
X135323822Y-121791645D01*
G36*
X134350081Y-121774599D02*
X134281565Y-121786095D01*
X134228943Y-121803967D01*
X134194708Y-121827499D01*
X134185379Y-121840924D01*
X134175893Y-121872148D01*
X134182277Y-121900395D01*
X134202430Y-121927182D01*
X134233745Y-121939713D01*
X134279183Y-121938696D01*
X134314326Y-121931906D01*
X134392419Y-121918971D01*
X134472226Y-121917742D01*
X134561555Y-121928241D01*
X134586229Y-121932690D01*
X134669291Y-121956108D01*
X134734273Y-121990945D01*
X134780461Y-122036604D01*
X134807145Y-122092494D01*
X134812663Y-122121388D01*
X134809051Y-122180012D01*
X134785729Y-122231879D01*
X134744824Y-122275978D01*
X134688459Y-122311299D01*
X134618760Y-122336829D01*
X134537852Y-122351559D01*
X134447860Y-122354478D01*
X134350910Y-122344575D01*
X134345436Y-122343641D01*
X134306875Y-122336459D01*
X134285494Y-122329521D01*
X134276227Y-122319227D01*
X134274006Y-122301976D01*
X134273956Y-122292841D01*
X134273956Y-122254489D01*
X134342431Y-122254489D01*
X134402900Y-122250347D01*
X134444165Y-122237147D01*
X134468175Y-122213730D01*
X134476877Y-122178936D01*
X134476983Y-122174394D01*
X134471892Y-122144654D01*
X134454433Y-122123419D01*
X134421939Y-122109366D01*
X134371743Y-122101173D01*
X134323123Y-122098161D01*
X134252456Y-122096433D01*
X134201198Y-122099070D01*
X134166239Y-122108800D01*
X134144470Y-122128353D01*
X134132780Y-122160456D01*
X134128060Y-122207838D01*
X134127200Y-122270071D01*
X134128609Y-122339535D01*
X134132848Y-122386786D01*
X134139936Y-122412012D01*
X134141311Y-122413988D01*
X134180228Y-122445508D01*
X134237286Y-122470470D01*
X134308869Y-122488340D01*
X134391358Y-122498586D01*
X134481139Y-122500673D01*
X134574592Y-122494068D01*
X134629556Y-122485956D01*
X134715766Y-122461554D01*
X134795892Y-122421662D01*
X134862977Y-122369887D01*
X134873173Y-122359539D01*
X134906302Y-122316035D01*
X134936194Y-122262118D01*
X134959357Y-122205592D01*
X134972298Y-122154259D01*
X134973858Y-122134544D01*
X134967218Y-122093419D01*
X134949568Y-122042252D01*
X134924297Y-121988394D01*
X134894789Y-121939195D01*
X134868719Y-121906334D01*
X134807765Y-121857452D01*
X134728969Y-121818545D01*
X134635157Y-121790494D01*
X134529150Y-121774179D01*
X134432000Y-121770192D01*
X134350081Y-121774599D01*
X134350081Y-121774599D01*
G37*
X134350081Y-121774599D02*
X134281565Y-121786095D01*
X134228943Y-121803967D01*
X134194708Y-121827499D01*
X134185379Y-121840924D01*
X134175893Y-121872148D01*
X134182277Y-121900395D01*
X134202430Y-121927182D01*
X134233745Y-121939713D01*
X134279183Y-121938696D01*
X134314326Y-121931906D01*
X134392419Y-121918971D01*
X134472226Y-121917742D01*
X134561555Y-121928241D01*
X134586229Y-121932690D01*
X134669291Y-121956108D01*
X134734273Y-121990945D01*
X134780461Y-122036604D01*
X134807145Y-122092494D01*
X134812663Y-122121388D01*
X134809051Y-122180012D01*
X134785729Y-122231879D01*
X134744824Y-122275978D01*
X134688459Y-122311299D01*
X134618760Y-122336829D01*
X134537852Y-122351559D01*
X134447860Y-122354478D01*
X134350910Y-122344575D01*
X134345436Y-122343641D01*
X134306875Y-122336459D01*
X134285494Y-122329521D01*
X134276227Y-122319227D01*
X134274006Y-122301976D01*
X134273956Y-122292841D01*
X134273956Y-122254489D01*
X134342431Y-122254489D01*
X134402900Y-122250347D01*
X134444165Y-122237147D01*
X134468175Y-122213730D01*
X134476877Y-122178936D01*
X134476983Y-122174394D01*
X134471892Y-122144654D01*
X134454433Y-122123419D01*
X134421939Y-122109366D01*
X134371743Y-122101173D01*
X134323123Y-122098161D01*
X134252456Y-122096433D01*
X134201198Y-122099070D01*
X134166239Y-122108800D01*
X134144470Y-122128353D01*
X134132780Y-122160456D01*
X134128060Y-122207838D01*
X134127200Y-122270071D01*
X134128609Y-122339535D01*
X134132848Y-122386786D01*
X134139936Y-122412012D01*
X134141311Y-122413988D01*
X134180228Y-122445508D01*
X134237286Y-122470470D01*
X134308869Y-122488340D01*
X134391358Y-122498586D01*
X134481139Y-122500673D01*
X134574592Y-122494068D01*
X134629556Y-122485956D01*
X134715766Y-122461554D01*
X134795892Y-122421662D01*
X134862977Y-122369887D01*
X134873173Y-122359539D01*
X134906302Y-122316035D01*
X134936194Y-122262118D01*
X134959357Y-122205592D01*
X134972298Y-122154259D01*
X134973858Y-122134544D01*
X134967218Y-122093419D01*
X134949568Y-122042252D01*
X134924297Y-121988394D01*
X134894789Y-121939195D01*
X134868719Y-121906334D01*
X134807765Y-121857452D01*
X134728969Y-121818545D01*
X134635157Y-121790494D01*
X134529150Y-121774179D01*
X134432000Y-121770192D01*
X134350081Y-121774599D01*
G36*
X133700114Y-121773448D02*
X133676548Y-121787273D01*
X133645735Y-121809881D01*
X133606078Y-121842338D01*
X133555980Y-121885708D01*
X133493843Y-121941058D01*
X133418072Y-122009451D01*
X133331334Y-122088084D01*
X133150711Y-122251878D01*
X133145067Y-122032029D01*
X133143029Y-121956351D01*
X133141063Y-121899994D01*
X133138734Y-121859706D01*
X133135606Y-121832235D01*
X133131245Y-121814329D01*
X133125216Y-121802737D01*
X133117084Y-121794208D01*
X133112772Y-121790623D01*
X133078241Y-121771670D01*
X133045383Y-121774441D01*
X133019318Y-121790633D01*
X132992667Y-121812199D01*
X132989352Y-122127151D01*
X132988435Y-122219779D01*
X132987968Y-122292544D01*
X132988113Y-122348161D01*
X132989032Y-122389342D01*
X132990887Y-122418803D01*
X132993839Y-122439255D01*
X132998050Y-122453413D01*
X133003682Y-122463991D01*
X133009927Y-122472474D01*
X133023439Y-122488207D01*
X133036883Y-122498636D01*
X133052124Y-122502639D01*
X133071026Y-122499094D01*
X133095455Y-122486879D01*
X133127273Y-122464871D01*
X133168348Y-122431949D01*
X133220542Y-122386991D01*
X133285722Y-122328875D01*
X133359556Y-122262099D01*
X133624845Y-122021458D01*
X133630489Y-122240589D01*
X133632531Y-122316128D01*
X133634502Y-122372354D01*
X133636839Y-122412524D01*
X133639981Y-122439896D01*
X133644364Y-122457728D01*
X133650424Y-122469279D01*
X133658600Y-122477807D01*
X133662784Y-122481282D01*
X133699765Y-122500372D01*
X133734708Y-122497493D01*
X133765136Y-122473100D01*
X133772097Y-122463286D01*
X133777523Y-122451826D01*
X133781603Y-122435968D01*
X133784529Y-122412963D01*
X133786492Y-122380062D01*
X133787683Y-122334516D01*
X133788292Y-122273573D01*
X133788511Y-122194486D01*
X133788534Y-122135956D01*
X133788460Y-122044407D01*
X133788113Y-121972687D01*
X133787301Y-121918045D01*
X133785833Y-121877732D01*
X133783519Y-121848998D01*
X133780167Y-121829093D01*
X133775588Y-121815268D01*
X133769589Y-121804772D01*
X133765136Y-121798811D01*
X133753850Y-121784691D01*
X133743301Y-121774029D01*
X133731893Y-121767892D01*
X133718030Y-121767343D01*
X133700114Y-121773448D01*
X133700114Y-121773448D01*
G37*
X133700114Y-121773448D02*
X133676548Y-121787273D01*
X133645735Y-121809881D01*
X133606078Y-121842338D01*
X133555980Y-121885708D01*
X133493843Y-121941058D01*
X133418072Y-122009451D01*
X133331334Y-122088084D01*
X133150711Y-122251878D01*
X133145067Y-122032029D01*
X133143029Y-121956351D01*
X133141063Y-121899994D01*
X133138734Y-121859706D01*
X133135606Y-121832235D01*
X133131245Y-121814329D01*
X133125216Y-121802737D01*
X133117084Y-121794208D01*
X133112772Y-121790623D01*
X133078241Y-121771670D01*
X133045383Y-121774441D01*
X133019318Y-121790633D01*
X132992667Y-121812199D01*
X132989352Y-122127151D01*
X132988435Y-122219779D01*
X132987968Y-122292544D01*
X132988113Y-122348161D01*
X132989032Y-122389342D01*
X132990887Y-122418803D01*
X132993839Y-122439255D01*
X132998050Y-122453413D01*
X133003682Y-122463991D01*
X133009927Y-122472474D01*
X133023439Y-122488207D01*
X133036883Y-122498636D01*
X133052124Y-122502639D01*
X133071026Y-122499094D01*
X133095455Y-122486879D01*
X133127273Y-122464871D01*
X133168348Y-122431949D01*
X133220542Y-122386991D01*
X133285722Y-122328875D01*
X133359556Y-122262099D01*
X133624845Y-122021458D01*
X133630489Y-122240589D01*
X133632531Y-122316128D01*
X133634502Y-122372354D01*
X133636839Y-122412524D01*
X133639981Y-122439896D01*
X133644364Y-122457728D01*
X133650424Y-122469279D01*
X133658600Y-122477807D01*
X133662784Y-122481282D01*
X133699765Y-122500372D01*
X133734708Y-122497493D01*
X133765136Y-122473100D01*
X133772097Y-122463286D01*
X133777523Y-122451826D01*
X133781603Y-122435968D01*
X133784529Y-122412963D01*
X133786492Y-122380062D01*
X133787683Y-122334516D01*
X133788292Y-122273573D01*
X133788511Y-122194486D01*
X133788534Y-122135956D01*
X133788460Y-122044407D01*
X133788113Y-121972687D01*
X133787301Y-121918045D01*
X133785833Y-121877732D01*
X133783519Y-121848998D01*
X133780167Y-121829093D01*
X133775588Y-121815268D01*
X133769589Y-121804772D01*
X133765136Y-121798811D01*
X133753850Y-121784691D01*
X133743301Y-121774029D01*
X133731893Y-121767892D01*
X133718030Y-121767343D01*
X133700114Y-121773448D01*
G36*
X132169657Y-121769260D02*
X132093299Y-121770174D01*
X132034783Y-121772311D01*
X131991745Y-121776175D01*
X131961817Y-121782267D01*
X131942632Y-121791090D01*
X131931824Y-121803146D01*
X131927027Y-121818939D01*
X131925873Y-121838970D01*
X131925867Y-121841335D01*
X131926869Y-121863992D01*
X131931604Y-121881503D01*
X131942667Y-121894574D01*
X131962652Y-121903913D01*
X131994154Y-121910227D01*
X132039768Y-121914222D01*
X132102087Y-121916606D01*
X132183707Y-121918086D01*
X132208723Y-121918414D01*
X132450800Y-121921467D01*
X132454186Y-121986378D01*
X132457571Y-122051289D01*
X132289424Y-122051289D01*
X132223734Y-122051531D01*
X132176828Y-122052556D01*
X132144917Y-122054811D01*
X132124209Y-122058742D01*
X132110916Y-122064798D01*
X132101245Y-122073424D01*
X132101183Y-122073493D01*
X132083644Y-122107112D01*
X132084278Y-122143448D01*
X132102686Y-122174423D01*
X132106329Y-122177607D01*
X132119259Y-122185812D01*
X132136976Y-122191521D01*
X132163430Y-122195162D01*
X132202568Y-122197167D01*
X132258338Y-122197964D01*
X132294006Y-122198045D01*
X132456445Y-122198045D01*
X132456445Y-122356089D01*
X132209839Y-122356089D01*
X132128420Y-122356231D01*
X132066590Y-122356814D01*
X132021363Y-122358068D01*
X131989752Y-122360227D01*
X131968769Y-122363523D01*
X131955427Y-122368189D01*
X131946739Y-122374457D01*
X131944550Y-122376733D01*
X131928386Y-122408280D01*
X131927203Y-122444168D01*
X131940464Y-122475285D01*
X131950957Y-122485271D01*
X131961871Y-122490769D01*
X131978783Y-122495022D01*
X132004367Y-122498180D01*
X132041299Y-122500392D01*
X132092254Y-122501806D01*
X132159906Y-122502572D01*
X132246931Y-122502838D01*
X132266606Y-122502845D01*
X132355089Y-122502787D01*
X132423773Y-122502467D01*
X132475436Y-122501667D01*
X132512855Y-122500167D01*
X132538810Y-122497749D01*
X132556078Y-122494194D01*
X132567438Y-122489282D01*
X132575668Y-122482795D01*
X132580183Y-122478138D01*
X132586979Y-122469889D01*
X132592288Y-122459669D01*
X132596294Y-122444800D01*
X132599179Y-122422602D01*
X132601126Y-122390393D01*
X132602319Y-122345496D01*
X132602939Y-122285228D01*
X132603171Y-122206911D01*
X132603200Y-122140994D01*
X132603129Y-122048628D01*
X132602792Y-121976117D01*
X132602002Y-121920737D01*
X132600574Y-121879765D01*
X132598321Y-121850478D01*
X132595057Y-121830153D01*
X132590596Y-121816066D01*
X132584752Y-121805495D01*
X132579803Y-121798811D01*
X132556406Y-121769067D01*
X132266226Y-121769067D01*
X132169657Y-121769260D01*
X132169657Y-121769260D01*
G37*
X132169657Y-121769260D02*
X132093299Y-121770174D01*
X132034783Y-121772311D01*
X131991745Y-121776175D01*
X131961817Y-121782267D01*
X131942632Y-121791090D01*
X131931824Y-121803146D01*
X131927027Y-121818939D01*
X131925873Y-121838970D01*
X131925867Y-121841335D01*
X131926869Y-121863992D01*
X131931604Y-121881503D01*
X131942667Y-121894574D01*
X131962652Y-121903913D01*
X131994154Y-121910227D01*
X132039768Y-121914222D01*
X132102087Y-121916606D01*
X132183707Y-121918086D01*
X132208723Y-121918414D01*
X132450800Y-121921467D01*
X132454186Y-121986378D01*
X132457571Y-122051289D01*
X132289424Y-122051289D01*
X132223734Y-122051531D01*
X132176828Y-122052556D01*
X132144917Y-122054811D01*
X132124209Y-122058742D01*
X132110916Y-122064798D01*
X132101245Y-122073424D01*
X132101183Y-122073493D01*
X132083644Y-122107112D01*
X132084278Y-122143448D01*
X132102686Y-122174423D01*
X132106329Y-122177607D01*
X132119259Y-122185812D01*
X132136976Y-122191521D01*
X132163430Y-122195162D01*
X132202568Y-122197167D01*
X132258338Y-122197964D01*
X132294006Y-122198045D01*
X132456445Y-122198045D01*
X132456445Y-122356089D01*
X132209839Y-122356089D01*
X132128420Y-122356231D01*
X132066590Y-122356814D01*
X132021363Y-122358068D01*
X131989752Y-122360227D01*
X131968769Y-122363523D01*
X131955427Y-122368189D01*
X131946739Y-122374457D01*
X131944550Y-122376733D01*
X131928386Y-122408280D01*
X131927203Y-122444168D01*
X131940464Y-122475285D01*
X131950957Y-122485271D01*
X131961871Y-122490769D01*
X131978783Y-122495022D01*
X132004367Y-122498180D01*
X132041299Y-122500392D01*
X132092254Y-122501806D01*
X132159906Y-122502572D01*
X132246931Y-122502838D01*
X132266606Y-122502845D01*
X132355089Y-122502787D01*
X132423773Y-122502467D01*
X132475436Y-122501667D01*
X132512855Y-122500167D01*
X132538810Y-122497749D01*
X132556078Y-122494194D01*
X132567438Y-122489282D01*
X132575668Y-122482795D01*
X132580183Y-122478138D01*
X132586979Y-122469889D01*
X132592288Y-122459669D01*
X132596294Y-122444800D01*
X132599179Y-122422602D01*
X132601126Y-122390393D01*
X132602319Y-122345496D01*
X132602939Y-122285228D01*
X132603171Y-122206911D01*
X132603200Y-122140994D01*
X132603129Y-122048628D01*
X132602792Y-121976117D01*
X132602002Y-121920737D01*
X132600574Y-121879765D01*
X132598321Y-121850478D01*
X132595057Y-121830153D01*
X132590596Y-121816066D01*
X132584752Y-121805495D01*
X132579803Y-121798811D01*
X132556406Y-121769067D01*
X132266226Y-121769067D01*
X132169657Y-121769260D01*
G36*
X131381691Y-121769275D02*
X131252712Y-121773636D01*
X131143009Y-121786861D01*
X131050774Y-121809741D01*
X130974198Y-121843070D01*
X130911473Y-121887638D01*
X130860788Y-121944236D01*
X130820337Y-122013658D01*
X130819541Y-122015351D01*
X130795399Y-122077483D01*
X130786797Y-122132509D01*
X130793769Y-122187887D01*
X130816346Y-122251073D01*
X130820628Y-122260689D01*
X130849828Y-122316966D01*
X130882644Y-122360451D01*
X130924998Y-122397417D01*
X130982810Y-122434135D01*
X130986169Y-122436052D01*
X131036496Y-122460227D01*
X131093379Y-122478282D01*
X131160473Y-122490839D01*
X131241435Y-122498522D01*
X131339918Y-122501953D01*
X131374714Y-122502251D01*
X131540406Y-122502845D01*
X131563803Y-122473100D01*
X131570743Y-122463319D01*
X131576158Y-122451897D01*
X131580235Y-122436095D01*
X131583163Y-122413175D01*
X131585133Y-122380396D01*
X131585775Y-122356089D01*
X131429156Y-122356089D01*
X131335274Y-122356089D01*
X131280336Y-122354483D01*
X131223940Y-122350255D01*
X131177655Y-122344292D01*
X131174861Y-122343790D01*
X131092652Y-122321736D01*
X131028886Y-122288600D01*
X130981548Y-122242847D01*
X130948618Y-122182939D01*
X130942892Y-122167061D01*
X130937279Y-122142333D01*
X130939709Y-122117902D01*
X130951533Y-122085400D01*
X130958660Y-122069434D01*
X130982000Y-122027006D01*
X131010120Y-121997240D01*
X131041060Y-121976511D01*
X131103034Y-121949537D01*
X131182349Y-121929998D01*
X131274747Y-121918746D01*
X131341667Y-121916270D01*
X131429156Y-121915822D01*
X131429156Y-122356089D01*
X131585775Y-122356089D01*
X131586332Y-122335021D01*
X131586950Y-122274311D01*
X131587175Y-122195526D01*
X131587200Y-122133920D01*
X131587200Y-121824485D01*
X131559491Y-121796776D01*
X131547194Y-121785544D01*
X131533897Y-121777853D01*
X131515328Y-121773040D01*
X131487214Y-121770446D01*
X131445283Y-121769410D01*
X131385263Y-121769270D01*
X131381691Y-121769275D01*
X131381691Y-121769275D01*
G37*
X131381691Y-121769275D02*
X131252712Y-121773636D01*
X131143009Y-121786861D01*
X131050774Y-121809741D01*
X130974198Y-121843070D01*
X130911473Y-121887638D01*
X130860788Y-121944236D01*
X130820337Y-122013658D01*
X130819541Y-122015351D01*
X130795399Y-122077483D01*
X130786797Y-122132509D01*
X130793769Y-122187887D01*
X130816346Y-122251073D01*
X130820628Y-122260689D01*
X130849828Y-122316966D01*
X130882644Y-122360451D01*
X130924998Y-122397417D01*
X130982810Y-122434135D01*
X130986169Y-122436052D01*
X131036496Y-122460227D01*
X131093379Y-122478282D01*
X131160473Y-122490839D01*
X131241435Y-122498522D01*
X131339918Y-122501953D01*
X131374714Y-122502251D01*
X131540406Y-122502845D01*
X131563803Y-122473100D01*
X131570743Y-122463319D01*
X131576158Y-122451897D01*
X131580235Y-122436095D01*
X131583163Y-122413175D01*
X131585133Y-122380396D01*
X131585775Y-122356089D01*
X131429156Y-122356089D01*
X131335274Y-122356089D01*
X131280336Y-122354483D01*
X131223940Y-122350255D01*
X131177655Y-122344292D01*
X131174861Y-122343790D01*
X131092652Y-122321736D01*
X131028886Y-122288600D01*
X130981548Y-122242847D01*
X130948618Y-122182939D01*
X130942892Y-122167061D01*
X130937279Y-122142333D01*
X130939709Y-122117902D01*
X130951533Y-122085400D01*
X130958660Y-122069434D01*
X130982000Y-122027006D01*
X131010120Y-121997240D01*
X131041060Y-121976511D01*
X131103034Y-121949537D01*
X131182349Y-121929998D01*
X131274747Y-121918746D01*
X131341667Y-121916270D01*
X131429156Y-121915822D01*
X131429156Y-122356089D01*
X131585775Y-122356089D01*
X131586332Y-122335021D01*
X131586950Y-122274311D01*
X131587175Y-122195526D01*
X131587200Y-122133920D01*
X131587200Y-121824485D01*
X131559491Y-121796776D01*
X131547194Y-121785544D01*
X131533897Y-121777853D01*
X131515328Y-121773040D01*
X131487214Y-121770446D01*
X131445283Y-121769410D01*
X131385263Y-121769270D01*
X131381691Y-121769275D01*
G36*
X128655335Y-121771034D02*
X128635745Y-121778035D01*
X128634990Y-121778377D01*
X128608387Y-121798678D01*
X128593730Y-121819561D01*
X128590862Y-121829352D01*
X128591004Y-121842361D01*
X128595039Y-121860895D01*
X128603854Y-121887257D01*
X128618331Y-121923752D01*
X128639355Y-121972687D01*
X128667812Y-122036365D01*
X128704585Y-122117093D01*
X128724825Y-122161216D01*
X128761375Y-122239985D01*
X128795685Y-122312423D01*
X128826448Y-122375880D01*
X128852352Y-122427708D01*
X128872090Y-122465259D01*
X128884350Y-122485884D01*
X128886776Y-122488733D01*
X128917817Y-122501302D01*
X128952879Y-122499619D01*
X128981000Y-122484332D01*
X128982146Y-122483089D01*
X128993332Y-122466154D01*
X129012096Y-122433170D01*
X129036125Y-122388380D01*
X129063103Y-122336032D01*
X129072799Y-122316742D01*
X129145986Y-122170150D01*
X129225760Y-122329393D01*
X129254233Y-122384415D01*
X129280650Y-122432132D01*
X129302852Y-122468893D01*
X129318681Y-122491044D01*
X129324046Y-122495741D01*
X129365743Y-122502102D01*
X129400151Y-122488733D01*
X129410272Y-122474446D01*
X129427786Y-122442692D01*
X129451265Y-122396597D01*
X129479280Y-122339285D01*
X129510401Y-122273880D01*
X129543201Y-122203507D01*
X129576250Y-122131291D01*
X129608119Y-122060355D01*
X129637381Y-121993825D01*
X129662605Y-121934826D01*
X129682364Y-121886481D01*
X129695228Y-121851915D01*
X129699769Y-121834253D01*
X129699723Y-121833613D01*
X129688674Y-121811388D01*
X129666590Y-121788753D01*
X129665290Y-121787768D01*
X129638147Y-121772425D01*
X129613042Y-121772574D01*
X129603632Y-121775466D01*
X129592166Y-121781718D01*
X129579990Y-121794014D01*
X129565643Y-121814908D01*
X129547664Y-121846949D01*
X129524593Y-121892688D01*
X129494970Y-121954677D01*
X129468255Y-122011898D01*
X129437520Y-122078226D01*
X129409979Y-122137874D01*
X129387062Y-122187725D01*
X129370202Y-122224664D01*
X129360827Y-122245573D01*
X129359460Y-122248845D01*
X129353311Y-122243497D01*
X129339178Y-122221109D01*
X129318943Y-122184946D01*
X129294485Y-122138277D01*
X129284752Y-122119022D01*
X129251783Y-122054004D01*
X129226357Y-122006654D01*
X129206388Y-121974219D01*
X129189790Y-121953946D01*
X129174476Y-121943082D01*
X129158360Y-121938875D01*
X129147857Y-121938400D01*
X129129330Y-121940042D01*
X129113096Y-121946831D01*
X129096965Y-121961566D01*
X129078749Y-121987044D01*
X129056261Y-122026061D01*
X129027311Y-122081414D01*
X129011338Y-122112903D01*
X128985430Y-122163087D01*
X128962833Y-122204704D01*
X128945542Y-122234242D01*
X128935550Y-122248189D01*
X128934191Y-122248770D01*
X128927739Y-122237793D01*
X128913292Y-122209290D01*
X128892297Y-122166244D01*
X128866203Y-122111638D01*
X128836454Y-122048454D01*
X128821820Y-122017071D01*
X128783750Y-121936078D01*
X128753095Y-121873756D01*
X128728263Y-121828071D01*
X128707663Y-121796989D01*
X128689702Y-121778478D01*
X128672790Y-121770504D01*
X128655335Y-121771034D01*
X128655335Y-121771034D01*
G37*
X128655335Y-121771034D02*
X128635745Y-121778035D01*
X128634990Y-121778377D01*
X128608387Y-121798678D01*
X128593730Y-121819561D01*
X128590862Y-121829352D01*
X128591004Y-121842361D01*
X128595039Y-121860895D01*
X128603854Y-121887257D01*
X128618331Y-121923752D01*
X128639355Y-121972687D01*
X128667812Y-122036365D01*
X128704585Y-122117093D01*
X128724825Y-122161216D01*
X128761375Y-122239985D01*
X128795685Y-122312423D01*
X128826448Y-122375880D01*
X128852352Y-122427708D01*
X128872090Y-122465259D01*
X128884350Y-122485884D01*
X128886776Y-122488733D01*
X128917817Y-122501302D01*
X128952879Y-122499619D01*
X128981000Y-122484332D01*
X128982146Y-122483089D01*
X128993332Y-122466154D01*
X129012096Y-122433170D01*
X129036125Y-122388380D01*
X129063103Y-122336032D01*
X129072799Y-122316742D01*
X129145986Y-122170150D01*
X129225760Y-122329393D01*
X129254233Y-122384415D01*
X129280650Y-122432132D01*
X129302852Y-122468893D01*
X129318681Y-122491044D01*
X129324046Y-122495741D01*
X129365743Y-122502102D01*
X129400151Y-122488733D01*
X129410272Y-122474446D01*
X129427786Y-122442692D01*
X129451265Y-122396597D01*
X129479280Y-122339285D01*
X129510401Y-122273880D01*
X129543201Y-122203507D01*
X129576250Y-122131291D01*
X129608119Y-122060355D01*
X129637381Y-121993825D01*
X129662605Y-121934826D01*
X129682364Y-121886481D01*
X129695228Y-121851915D01*
X129699769Y-121834253D01*
X129699723Y-121833613D01*
X129688674Y-121811388D01*
X129666590Y-121788753D01*
X129665290Y-121787768D01*
X129638147Y-121772425D01*
X129613042Y-121772574D01*
X129603632Y-121775466D01*
X129592166Y-121781718D01*
X129579990Y-121794014D01*
X129565643Y-121814908D01*
X129547664Y-121846949D01*
X129524593Y-121892688D01*
X129494970Y-121954677D01*
X129468255Y-122011898D01*
X129437520Y-122078226D01*
X129409979Y-122137874D01*
X129387062Y-122187725D01*
X129370202Y-122224664D01*
X129360827Y-122245573D01*
X129359460Y-122248845D01*
X129353311Y-122243497D01*
X129339178Y-122221109D01*
X129318943Y-122184946D01*
X129294485Y-122138277D01*
X129284752Y-122119022D01*
X129251783Y-122054004D01*
X129226357Y-122006654D01*
X129206388Y-121974219D01*
X129189790Y-121953946D01*
X129174476Y-121943082D01*
X129158360Y-121938875D01*
X129147857Y-121938400D01*
X129129330Y-121940042D01*
X129113096Y-121946831D01*
X129096965Y-121961566D01*
X129078749Y-121987044D01*
X129056261Y-122026061D01*
X129027311Y-122081414D01*
X129011338Y-122112903D01*
X128985430Y-122163087D01*
X128962833Y-122204704D01*
X128945542Y-122234242D01*
X128935550Y-122248189D01*
X128934191Y-122248770D01*
X128927739Y-122237793D01*
X128913292Y-122209290D01*
X128892297Y-122166244D01*
X128866203Y-122111638D01*
X128836454Y-122048454D01*
X128821820Y-122017071D01*
X128783750Y-121936078D01*
X128753095Y-121873756D01*
X128728263Y-121828071D01*
X128707663Y-121796989D01*
X128689702Y-121778478D01*
X128672790Y-121770504D01*
X128655335Y-121771034D01*
G36*
X128211386Y-121775877D02*
X128187673Y-121790647D01*
X128161022Y-121812227D01*
X128161022Y-122133773D01*
X128161107Y-122227830D01*
X128161471Y-122301932D01*
X128162276Y-122358704D01*
X128163687Y-122400768D01*
X128165867Y-122430748D01*
X128168979Y-122451267D01*
X128173186Y-122464949D01*
X128178652Y-122474416D01*
X128182528Y-122479082D01*
X128213966Y-122499575D01*
X128249767Y-122498739D01*
X128281127Y-122481264D01*
X128307778Y-122459684D01*
X128307778Y-121812227D01*
X128281127Y-121790647D01*
X128255406Y-121774949D01*
X128234400Y-121769067D01*
X128211386Y-121775877D01*
X128211386Y-121775877D01*
G37*
X128211386Y-121775877D02*
X128187673Y-121790647D01*
X128161022Y-121812227D01*
X128161022Y-122133773D01*
X128161107Y-122227830D01*
X128161471Y-122301932D01*
X128162276Y-122358704D01*
X128163687Y-122400768D01*
X128165867Y-122430748D01*
X128168979Y-122451267D01*
X128173186Y-122464949D01*
X128178652Y-122474416D01*
X128182528Y-122479082D01*
X128213966Y-122499575D01*
X128249767Y-122498739D01*
X128281127Y-122481264D01*
X128307778Y-122459684D01*
X128307778Y-121812227D01*
X128281127Y-121790647D01*
X128255406Y-121774949D01*
X128234400Y-121769067D01*
X128211386Y-121775877D01*
G36*
X127436935Y-121769163D02*
X127358228Y-121769542D01*
X127297137Y-121770333D01*
X127251183Y-121771670D01*
X127217886Y-121773683D01*
X127194764Y-121776506D01*
X127179338Y-121780269D01*
X127169129Y-121785105D01*
X127164187Y-121788822D01*
X127138543Y-121821358D01*
X127135441Y-121855138D01*
X127151289Y-121885826D01*
X127161652Y-121898089D01*
X127172804Y-121906450D01*
X127188965Y-121911657D01*
X127214358Y-121914457D01*
X127253202Y-121915596D01*
X127309720Y-121915821D01*
X127320820Y-121915822D01*
X127466756Y-121915822D01*
X127466756Y-122186756D01*
X127466852Y-122272154D01*
X127467289Y-122337864D01*
X127468288Y-122386774D01*
X127470072Y-122421773D01*
X127472863Y-122445749D01*
X127476883Y-122461593D01*
X127482355Y-122472191D01*
X127489334Y-122480267D01*
X127522266Y-122500112D01*
X127556646Y-122498548D01*
X127587824Y-122475906D01*
X127590114Y-122473100D01*
X127597571Y-122462492D01*
X127603253Y-122450081D01*
X127607399Y-122432850D01*
X127610250Y-122407784D01*
X127612046Y-122371867D01*
X127613028Y-122322083D01*
X127613436Y-122255417D01*
X127613511Y-122179589D01*
X127613511Y-121915822D01*
X127752873Y-121915822D01*
X127812678Y-121915418D01*
X127854082Y-121913840D01*
X127881252Y-121910547D01*
X127898354Y-121904992D01*
X127909557Y-121896631D01*
X127910917Y-121895178D01*
X127927275Y-121861939D01*
X127925828Y-121824362D01*
X127907022Y-121791645D01*
X127899750Y-121785298D01*
X127890373Y-121780266D01*
X127876391Y-121776396D01*
X127855304Y-121773537D01*
X127824611Y-121771535D01*
X127781811Y-121770239D01*
X127724405Y-121769498D01*
X127649890Y-121769158D01*
X127555767Y-121769068D01*
X127535740Y-121769067D01*
X127436935Y-121769163D01*
X127436935Y-121769163D01*
G37*
X127436935Y-121769163D02*
X127358228Y-121769542D01*
X127297137Y-121770333D01*
X127251183Y-121771670D01*
X127217886Y-121773683D01*
X127194764Y-121776506D01*
X127179338Y-121780269D01*
X127169129Y-121785105D01*
X127164187Y-121788822D01*
X127138543Y-121821358D01*
X127135441Y-121855138D01*
X127151289Y-121885826D01*
X127161652Y-121898089D01*
X127172804Y-121906450D01*
X127188965Y-121911657D01*
X127214358Y-121914457D01*
X127253202Y-121915596D01*
X127309720Y-121915821D01*
X127320820Y-121915822D01*
X127466756Y-121915822D01*
X127466756Y-122186756D01*
X127466852Y-122272154D01*
X127467289Y-122337864D01*
X127468288Y-122386774D01*
X127470072Y-122421773D01*
X127472863Y-122445749D01*
X127476883Y-122461593D01*
X127482355Y-122472191D01*
X127489334Y-122480267D01*
X127522266Y-122500112D01*
X127556646Y-122498548D01*
X127587824Y-122475906D01*
X127590114Y-122473100D01*
X127597571Y-122462492D01*
X127603253Y-122450081D01*
X127607399Y-122432850D01*
X127610250Y-122407784D01*
X127612046Y-122371867D01*
X127613028Y-122322083D01*
X127613436Y-122255417D01*
X127613511Y-122179589D01*
X127613511Y-121915822D01*
X127752873Y-121915822D01*
X127812678Y-121915418D01*
X127854082Y-121913840D01*
X127881252Y-121910547D01*
X127898354Y-121904992D01*
X127909557Y-121896631D01*
X127910917Y-121895178D01*
X127927275Y-121861939D01*
X127925828Y-121824362D01*
X127907022Y-121791645D01*
X127899750Y-121785298D01*
X127890373Y-121780266D01*
X127876391Y-121776396D01*
X127855304Y-121773537D01*
X127824611Y-121771535D01*
X127781811Y-121770239D01*
X127724405Y-121769498D01*
X127649890Y-121769158D01*
X127555767Y-121769068D01*
X127535740Y-121769067D01*
X127436935Y-121769163D01*
G36*
X126171177Y-121774533D02*
X126139798Y-121796776D01*
X126112089Y-121824485D01*
X126112089Y-122133920D01*
X126112162Y-122225799D01*
X126112505Y-122297840D01*
X126113308Y-122352780D01*
X126114759Y-122393360D01*
X126117048Y-122422317D01*
X126120364Y-122442391D01*
X126124895Y-122456321D01*
X126130831Y-122466845D01*
X126135486Y-122473100D01*
X126166217Y-122497673D01*
X126201504Y-122500341D01*
X126233755Y-122485271D01*
X126244412Y-122476374D01*
X126251536Y-122464557D01*
X126255833Y-122445526D01*
X126258009Y-122414992D01*
X126258772Y-122368662D01*
X126258845Y-122332871D01*
X126258845Y-122198045D01*
X126755556Y-122198045D01*
X126755556Y-122320700D01*
X126756069Y-122376787D01*
X126758124Y-122415333D01*
X126762492Y-122441361D01*
X126769944Y-122459897D01*
X126778953Y-122473100D01*
X126809856Y-122497604D01*
X126844804Y-122500506D01*
X126878262Y-122483089D01*
X126887396Y-122473959D01*
X126893848Y-122461855D01*
X126898103Y-122443001D01*
X126900648Y-122413620D01*
X126901971Y-122369937D01*
X126902557Y-122308175D01*
X126902625Y-122294000D01*
X126903109Y-122177631D01*
X126903359Y-122081727D01*
X126903277Y-122004177D01*
X126902769Y-121942869D01*
X126901738Y-121895690D01*
X126900087Y-121860530D01*
X126897721Y-121835276D01*
X126894543Y-121817817D01*
X126890456Y-121806041D01*
X126885366Y-121797835D01*
X126879734Y-121791645D01*
X126847872Y-121771844D01*
X126814643Y-121774533D01*
X126783265Y-121796776D01*
X126770567Y-121811126D01*
X126762474Y-121826978D01*
X126757958Y-121849554D01*
X126755994Y-121884078D01*
X126755556Y-121935776D01*
X126755556Y-122051289D01*
X126258845Y-122051289D01*
X126258845Y-121932756D01*
X126258338Y-121878148D01*
X126256302Y-121841275D01*
X126251965Y-121817307D01*
X126244553Y-121801415D01*
X126236267Y-121791645D01*
X126204406Y-121771844D01*
X126171177Y-121774533D01*
X126171177Y-121774533D01*
G37*
X126171177Y-121774533D02*
X126139798Y-121796776D01*
X126112089Y-121824485D01*
X126112089Y-122133920D01*
X126112162Y-122225799D01*
X126112505Y-122297840D01*
X126113308Y-122352780D01*
X126114759Y-122393360D01*
X126117048Y-122422317D01*
X126120364Y-122442391D01*
X126124895Y-122456321D01*
X126130831Y-122466845D01*
X126135486Y-122473100D01*
X126166217Y-122497673D01*
X126201504Y-122500341D01*
X126233755Y-122485271D01*
X126244412Y-122476374D01*
X126251536Y-122464557D01*
X126255833Y-122445526D01*
X126258009Y-122414992D01*
X126258772Y-122368662D01*
X126258845Y-122332871D01*
X126258845Y-122198045D01*
X126755556Y-122198045D01*
X126755556Y-122320700D01*
X126756069Y-122376787D01*
X126758124Y-122415333D01*
X126762492Y-122441361D01*
X126769944Y-122459897D01*
X126778953Y-122473100D01*
X126809856Y-122497604D01*
X126844804Y-122500506D01*
X126878262Y-122483089D01*
X126887396Y-122473959D01*
X126893848Y-122461855D01*
X126898103Y-122443001D01*
X126900648Y-122413620D01*
X126901971Y-122369937D01*
X126902557Y-122308175D01*
X126902625Y-122294000D01*
X126903109Y-122177631D01*
X126903359Y-122081727D01*
X126903277Y-122004177D01*
X126902769Y-121942869D01*
X126901738Y-121895690D01*
X126900087Y-121860530D01*
X126897721Y-121835276D01*
X126894543Y-121817817D01*
X126890456Y-121806041D01*
X126885366Y-121797835D01*
X126879734Y-121791645D01*
X126847872Y-121771844D01*
X126814643Y-121774533D01*
X126783265Y-121796776D01*
X126770567Y-121811126D01*
X126762474Y-121826978D01*
X126757958Y-121849554D01*
X126755994Y-121884078D01*
X126755556Y-121935776D01*
X126755556Y-122051289D01*
X126258845Y-122051289D01*
X126258845Y-121932756D01*
X126258338Y-121878148D01*
X126256302Y-121841275D01*
X126251965Y-121817307D01*
X126244553Y-121801415D01*
X126236267Y-121791645D01*
X126204406Y-121771844D01*
X126171177Y-121774533D01*
G36*
X135346400Y-116989054D02*
X135335535Y-117102993D01*
X135303918Y-117210616D01*
X135253015Y-117309615D01*
X135184293Y-117397684D01*
X135099219Y-117472516D01*
X135002232Y-117530384D01*
X134895964Y-117570005D01*
X134788950Y-117588573D01*
X134683300Y-117587434D01*
X134581125Y-117567930D01*
X134484534Y-117531406D01*
X134395638Y-117479205D01*
X134316546Y-117412673D01*
X134249369Y-117333152D01*
X134196217Y-117241987D01*
X134159199Y-117140523D01*
X134140427Y-117030102D01*
X134138489Y-116980206D01*
X134138489Y-116892267D01*
X134086560Y-116892267D01*
X134050253Y-116895111D01*
X134023355Y-116906911D01*
X133996249Y-116930649D01*
X133957867Y-116969031D01*
X133957867Y-119160602D01*
X133957876Y-119422739D01*
X133957908Y-119663241D01*
X133957972Y-119883048D01*
X133958076Y-120083101D01*
X133958227Y-120264344D01*
X133958434Y-120427716D01*
X133958706Y-120574160D01*
X133959050Y-120704617D01*
X133959474Y-120820029D01*
X133959987Y-120921338D01*
X133960597Y-121009484D01*
X133961312Y-121085410D01*
X133962140Y-121150057D01*
X133963089Y-121204367D01*
X133964167Y-121249280D01*
X133965383Y-121285740D01*
X133966745Y-121314687D01*
X133968261Y-121337063D01*
X133969938Y-121353809D01*
X133971786Y-121365868D01*
X133973813Y-121374180D01*
X133976025Y-121379687D01*
X133977108Y-121381537D01*
X133981271Y-121388549D01*
X133984805Y-121394996D01*
X133988635Y-121400900D01*
X133993682Y-121406286D01*
X134000871Y-121411178D01*
X134011123Y-121415598D01*
X134025364Y-121419572D01*
X134044514Y-121423121D01*
X134069499Y-121426270D01*
X134101240Y-121429042D01*
X134140662Y-121431461D01*
X134188686Y-121433551D01*
X134246237Y-121435335D01*
X134314237Y-121436837D01*
X134393610Y-121438080D01*
X134485279Y-121439089D01*
X134590166Y-121439885D01*
X134709196Y-121440494D01*
X134843290Y-121440939D01*
X134993373Y-121441243D01*
X135160367Y-121441430D01*
X135345196Y-121441524D01*
X135548783Y-121441548D01*
X135772050Y-121441525D01*
X136015922Y-121441480D01*
X136281321Y-121441437D01*
X136319704Y-121441432D01*
X136586682Y-121441389D01*
X136832002Y-121441318D01*
X137056583Y-121441213D01*
X137261345Y-121441066D01*
X137447206Y-121440869D01*
X137615088Y-121440616D01*
X137765908Y-121440300D01*
X137900587Y-121439913D01*
X138020044Y-121439447D01*
X138125199Y-121438897D01*
X138216971Y-121438253D01*
X138296279Y-121437511D01*
X138364043Y-121436661D01*
X138421182Y-121435697D01*
X138468617Y-121434611D01*
X138507266Y-121433397D01*
X138538049Y-121432047D01*
X138561885Y-121430555D01*
X138579694Y-121428911D01*
X138592395Y-121427111D01*
X138600908Y-121425145D01*
X138605266Y-121423477D01*
X138613728Y-121419906D01*
X138621497Y-121417270D01*
X138628602Y-121414634D01*
X138635073Y-121411062D01*
X138640939Y-121405621D01*
X138646229Y-121397375D01*
X138650974Y-121385390D01*
X138655202Y-121368731D01*
X138658943Y-121346463D01*
X138662227Y-121317652D01*
X138665083Y-121281363D01*
X138667540Y-121236661D01*
X138669629Y-121182611D01*
X138671378Y-121118279D01*
X138672817Y-121042730D01*
X138673976Y-120955030D01*
X138674883Y-120854243D01*
X138675569Y-120739434D01*
X138676063Y-120609670D01*
X138676395Y-120464015D01*
X138676593Y-120301535D01*
X138676687Y-120121295D01*
X138676708Y-119922360D01*
X138676685Y-119703796D01*
X138676646Y-119464668D01*
X138676622Y-119204040D01*
X138676622Y-119161889D01*
X138676636Y-118898992D01*
X138676661Y-118657732D01*
X138676671Y-118437165D01*
X138676642Y-118236352D01*
X138676548Y-118054349D01*
X138676362Y-117890216D01*
X138676059Y-117743011D01*
X138675614Y-117611792D01*
X138675034Y-117501867D01*
X138372197Y-117501867D01*
X138332407Y-117559711D01*
X138321236Y-117575479D01*
X138311166Y-117589441D01*
X138302138Y-117602784D01*
X138294097Y-117616693D01*
X138286986Y-117632356D01*
X138280747Y-117650958D01*
X138275325Y-117673686D01*
X138270662Y-117701727D01*
X138266701Y-117736267D01*
X138263385Y-117778492D01*
X138260659Y-117829589D01*
X138258464Y-117890744D01*
X138256745Y-117963144D01*
X138255444Y-118047975D01*
X138254505Y-118146422D01*
X138253870Y-118259674D01*
X138253484Y-118388916D01*
X138253288Y-118535334D01*
X138253227Y-118700116D01*
X138253243Y-118884447D01*
X138253280Y-119089513D01*
X138253289Y-119212133D01*
X138253265Y-119429082D01*
X138253231Y-119624642D01*
X138253243Y-119799999D01*
X138253358Y-119956341D01*
X138253630Y-120094857D01*
X138254118Y-120216734D01*
X138254876Y-120323160D01*
X138255962Y-120415322D01*
X138257431Y-120494409D01*
X138259340Y-120561608D01*
X138261744Y-120618107D01*
X138264701Y-120665093D01*
X138268266Y-120703755D01*
X138272495Y-120735280D01*
X138277446Y-120760855D01*
X138283173Y-120781670D01*
X138289733Y-120798911D01*
X138297183Y-120813765D01*
X138305579Y-120827422D01*
X138314976Y-120841069D01*
X138325432Y-120855893D01*
X138331523Y-120864783D01*
X138370296Y-120922400D01*
X137838732Y-120922400D01*
X137715483Y-120922365D01*
X137612987Y-120922215D01*
X137529420Y-120921878D01*
X137462956Y-120921286D01*
X137411771Y-120920367D01*
X137374041Y-120919051D01*
X137347940Y-120917269D01*
X137331644Y-120914951D01*
X137323328Y-120912026D01*
X137321168Y-120908424D01*
X137323339Y-120904075D01*
X137324535Y-120902645D01*
X137349685Y-120865573D01*
X137375583Y-120812772D01*
X137399192Y-120750770D01*
X137407461Y-120724357D01*
X137412078Y-120706416D01*
X137415979Y-120685355D01*
X137419248Y-120659089D01*
X137421966Y-120625532D01*
X137424215Y-120582599D01*
X137426077Y-120528204D01*
X137427636Y-120460262D01*
X137428972Y-120376688D01*
X137430169Y-120275395D01*
X137431308Y-120154300D01*
X137431685Y-120109600D01*
X137432702Y-119984449D01*
X137433460Y-119880082D01*
X137433903Y-119794707D01*
X137433970Y-119726533D01*
X137433605Y-119673765D01*
X137432748Y-119634614D01*
X137431341Y-119607285D01*
X137429325Y-119589986D01*
X137426643Y-119580926D01*
X137423236Y-119578312D01*
X137419044Y-119580351D01*
X137414571Y-119584667D01*
X137404216Y-119597602D01*
X137382158Y-119626676D01*
X137349957Y-119669759D01*
X137309174Y-119724718D01*
X137261370Y-119789423D01*
X137208105Y-119861742D01*
X137150940Y-119939544D01*
X137091437Y-120020698D01*
X137031155Y-120103072D01*
X136971655Y-120184536D01*
X136914498Y-120262957D01*
X136861245Y-120336204D01*
X136813457Y-120402147D01*
X136772693Y-120458654D01*
X136740516Y-120503593D01*
X136718485Y-120534834D01*
X136713917Y-120541466D01*
X136690996Y-120578369D01*
X136664188Y-120626359D01*
X136638789Y-120675897D01*
X136635568Y-120682577D01*
X136613890Y-120730772D01*
X136601304Y-120768334D01*
X136595574Y-120804160D01*
X136594456Y-120846200D01*
X136595090Y-120922400D01*
X135440651Y-120922400D01*
X135531815Y-120828669D01*
X135578612Y-120778775D01*
X135628899Y-120722295D01*
X135674944Y-120668026D01*
X135695369Y-120642673D01*
X135725807Y-120603128D01*
X135765862Y-120549916D01*
X135814361Y-120484667D01*
X135870135Y-120409011D01*
X135932011Y-120324577D01*
X135998819Y-120232994D01*
X136069387Y-120135892D01*
X136142545Y-120034901D01*
X136217121Y-119931650D01*
X136291944Y-119827768D01*
X136365843Y-119724885D01*
X136437646Y-119624631D01*
X136506184Y-119528636D01*
X136570284Y-119438527D01*
X136628775Y-119355936D01*
X136680486Y-119282492D01*
X136724247Y-119219824D01*
X136758885Y-119169561D01*
X136783230Y-119133334D01*
X136796111Y-119112771D01*
X136797869Y-119108668D01*
X136789910Y-119097342D01*
X136769115Y-119070162D01*
X136736847Y-119028829D01*
X136694470Y-118975044D01*
X136643347Y-118910506D01*
X136584841Y-118836918D01*
X136520314Y-118755978D01*
X136451131Y-118669388D01*
X136378653Y-118578848D01*
X136304246Y-118486060D01*
X136244517Y-118411702D01*
X135233511Y-118411702D01*
X135227602Y-118424659D01*
X135213272Y-118446908D01*
X135212225Y-118448391D01*
X135193438Y-118478544D01*
X135173791Y-118515375D01*
X135169892Y-118523511D01*
X135166356Y-118531940D01*
X135163230Y-118542059D01*
X135160486Y-118555260D01*
X135158092Y-118572938D01*
X135156019Y-118596484D01*
X135154235Y-118627293D01*
X135152712Y-118666757D01*
X135151419Y-118716269D01*
X135150326Y-118777223D01*
X135149403Y-118851011D01*
X135148619Y-118939028D01*
X135147945Y-119042665D01*
X135147350Y-119163316D01*
X135146805Y-119302374D01*
X135146279Y-119461232D01*
X135145745Y-119640089D01*
X135145206Y-119825207D01*
X135144772Y-119989145D01*
X135144509Y-120133303D01*
X135144484Y-120259079D01*
X135144765Y-120367871D01*
X135145419Y-120461077D01*
X135146514Y-120540097D01*
X135148118Y-120606328D01*
X135150297Y-120661170D01*
X135153119Y-120706021D01*
X135156651Y-120742278D01*
X135160961Y-120771341D01*
X135166117Y-120794609D01*
X135172185Y-120813479D01*
X135179233Y-120829351D01*
X135187329Y-120843622D01*
X135196540Y-120857691D01*
X135205040Y-120870158D01*
X135222176Y-120896452D01*
X135232322Y-120914037D01*
X135233511Y-120917257D01*
X135222604Y-120918334D01*
X135191411Y-120919335D01*
X135142223Y-120920235D01*
X135077333Y-120921010D01*
X134999030Y-120921637D01*
X134909607Y-120922091D01*
X134811356Y-120922349D01*
X134742445Y-120922400D01*
X134637452Y-120922180D01*
X134540610Y-120921548D01*
X134454107Y-120920549D01*
X134380132Y-120919227D01*
X134320874Y-120917626D01*
X134278520Y-120915791D01*
X134255260Y-120913765D01*
X134251378Y-120912493D01*
X134259076Y-120897591D01*
X134267074Y-120889560D01*
X134280246Y-120872434D01*
X134297485Y-120842183D01*
X134309407Y-120817622D01*
X134336045Y-120758711D01*
X134339120Y-119581845D01*
X134342195Y-118404978D01*
X134787853Y-118404978D01*
X134885670Y-118405142D01*
X134976064Y-118405611D01*
X135056630Y-118406347D01*
X135124962Y-118407316D01*
X135178656Y-118408480D01*
X135215305Y-118409803D01*
X135232504Y-118411249D01*
X135233511Y-118411702D01*
X136244517Y-118411702D01*
X136229270Y-118392722D01*
X136155090Y-118300537D01*
X136083069Y-118211204D01*
X136014569Y-118126424D01*
X135950955Y-118047898D01*
X135893588Y-117977326D01*
X135843833Y-117916409D01*
X135803052Y-117866847D01*
X135785888Y-117846178D01*
X135699596Y-117745516D01*
X135622997Y-117662259D01*
X135554183Y-117594438D01*
X135491248Y-117540089D01*
X135481867Y-117532722D01*
X135442356Y-117502117D01*
X136574116Y-117501867D01*
X136568827Y-117549844D01*
X136572130Y-117607188D01*
X136593661Y-117675463D01*
X136633635Y-117755212D01*
X136678943Y-117827495D01*
X136695161Y-117850140D01*
X136723214Y-117887696D01*
X136761430Y-117938021D01*
X136808137Y-117998973D01*
X136861661Y-118068411D01*
X136920331Y-118144194D01*
X136982475Y-118224180D01*
X137046421Y-118306228D01*
X137110495Y-118388196D01*
X137173027Y-118467943D01*
X137232343Y-118543327D01*
X137286771Y-118612207D01*
X137334639Y-118672442D01*
X137374275Y-118721889D01*
X137404006Y-118758408D01*
X137422161Y-118779858D01*
X137425220Y-118783156D01*
X137428079Y-118775149D01*
X137430293Y-118744855D01*
X137431857Y-118692556D01*
X137432767Y-118618531D01*
X137433020Y-118523063D01*
X137432613Y-118406434D01*
X137431704Y-118286445D01*
X137430382Y-118154333D01*
X137428857Y-118042594D01*
X137426881Y-117949025D01*
X137424206Y-117871419D01*
X137420582Y-117807574D01*
X137415761Y-117755283D01*
X137409494Y-117712344D01*
X137401532Y-117676551D01*
X137391627Y-117645700D01*
X137379531Y-117617586D01*
X137364993Y-117590005D01*
X137350311Y-117564966D01*
X137312314Y-117501867D01*
X138372197Y-117501867D01*
X138675034Y-117501867D01*
X138675001Y-117495617D01*
X138674195Y-117393544D01*
X138673170Y-117304633D01*
X138671900Y-117227941D01*
X138670360Y-117162527D01*
X138668524Y-117107449D01*
X138666367Y-117061765D01*
X138663863Y-117024534D01*
X138660987Y-116994813D01*
X138657713Y-116971662D01*
X138654015Y-116954139D01*
X138649869Y-116941301D01*
X138645247Y-116932208D01*
X138640126Y-116925918D01*
X138634478Y-116921488D01*
X138628279Y-116917978D01*
X138621504Y-116914445D01*
X138615508Y-116910876D01*
X138610275Y-116908300D01*
X138602099Y-116905972D01*
X138589886Y-116903878D01*
X138572541Y-116902007D01*
X138548969Y-116900347D01*
X138518077Y-116898884D01*
X138478768Y-116897608D01*
X138429950Y-116896504D01*
X138370527Y-116895561D01*
X138299404Y-116894767D01*
X138215488Y-116894109D01*
X138117683Y-116893575D01*
X138004894Y-116893153D01*
X137876029Y-116892829D01*
X137729991Y-116892592D01*
X137565686Y-116892430D01*
X137382020Y-116892330D01*
X137177897Y-116892280D01*
X136966753Y-116892267D01*
X135346400Y-116892267D01*
X135346400Y-116989054D01*
X135346400Y-116989054D01*
G37*
X135346400Y-116989054D02*
X135335535Y-117102993D01*
X135303918Y-117210616D01*
X135253015Y-117309615D01*
X135184293Y-117397684D01*
X135099219Y-117472516D01*
X135002232Y-117530384D01*
X134895964Y-117570005D01*
X134788950Y-117588573D01*
X134683300Y-117587434D01*
X134581125Y-117567930D01*
X134484534Y-117531406D01*
X134395638Y-117479205D01*
X134316546Y-117412673D01*
X134249369Y-117333152D01*
X134196217Y-117241987D01*
X134159199Y-117140523D01*
X134140427Y-117030102D01*
X134138489Y-116980206D01*
X134138489Y-116892267D01*
X134086560Y-116892267D01*
X134050253Y-116895111D01*
X134023355Y-116906911D01*
X133996249Y-116930649D01*
X133957867Y-116969031D01*
X133957867Y-119160602D01*
X133957876Y-119422739D01*
X133957908Y-119663241D01*
X133957972Y-119883048D01*
X133958076Y-120083101D01*
X133958227Y-120264344D01*
X133958434Y-120427716D01*
X133958706Y-120574160D01*
X133959050Y-120704617D01*
X133959474Y-120820029D01*
X133959987Y-120921338D01*
X133960597Y-121009484D01*
X133961312Y-121085410D01*
X133962140Y-121150057D01*
X133963089Y-121204367D01*
X133964167Y-121249280D01*
X133965383Y-121285740D01*
X133966745Y-121314687D01*
X133968261Y-121337063D01*
X133969938Y-121353809D01*
X133971786Y-121365868D01*
X133973813Y-121374180D01*
X133976025Y-121379687D01*
X133977108Y-121381537D01*
X133981271Y-121388549D01*
X133984805Y-121394996D01*
X133988635Y-121400900D01*
X133993682Y-121406286D01*
X134000871Y-121411178D01*
X134011123Y-121415598D01*
X134025364Y-121419572D01*
X134044514Y-121423121D01*
X134069499Y-121426270D01*
X134101240Y-121429042D01*
X134140662Y-121431461D01*
X134188686Y-121433551D01*
X134246237Y-121435335D01*
X134314237Y-121436837D01*
X134393610Y-121438080D01*
X134485279Y-121439089D01*
X134590166Y-121439885D01*
X134709196Y-121440494D01*
X134843290Y-121440939D01*
X134993373Y-121441243D01*
X135160367Y-121441430D01*
X135345196Y-121441524D01*
X135548783Y-121441548D01*
X135772050Y-121441525D01*
X136015922Y-121441480D01*
X136281321Y-121441437D01*
X136319704Y-121441432D01*
X136586682Y-121441389D01*
X136832002Y-121441318D01*
X137056583Y-121441213D01*
X137261345Y-121441066D01*
X137447206Y-121440869D01*
X137615088Y-121440616D01*
X137765908Y-121440300D01*
X137900587Y-121439913D01*
X138020044Y-121439447D01*
X138125199Y-121438897D01*
X138216971Y-121438253D01*
X138296279Y-121437511D01*
X138364043Y-121436661D01*
X138421182Y-121435697D01*
X138468617Y-121434611D01*
X138507266Y-121433397D01*
X138538049Y-121432047D01*
X138561885Y-121430555D01*
X138579694Y-121428911D01*
X138592395Y-121427111D01*
X138600908Y-121425145D01*
X138605266Y-121423477D01*
X138613728Y-121419906D01*
X138621497Y-121417270D01*
X138628602Y-121414634D01*
X138635073Y-121411062D01*
X138640939Y-121405621D01*
X138646229Y-121397375D01*
X138650974Y-121385390D01*
X138655202Y-121368731D01*
X138658943Y-121346463D01*
X138662227Y-121317652D01*
X138665083Y-121281363D01*
X138667540Y-121236661D01*
X138669629Y-121182611D01*
X138671378Y-121118279D01*
X138672817Y-121042730D01*
X138673976Y-120955030D01*
X138674883Y-120854243D01*
X138675569Y-120739434D01*
X138676063Y-120609670D01*
X138676395Y-120464015D01*
X138676593Y-120301535D01*
X138676687Y-120121295D01*
X138676708Y-119922360D01*
X138676685Y-119703796D01*
X138676646Y-119464668D01*
X138676622Y-119204040D01*
X138676622Y-119161889D01*
X138676636Y-118898992D01*
X138676661Y-118657732D01*
X138676671Y-118437165D01*
X138676642Y-118236352D01*
X138676548Y-118054349D01*
X138676362Y-117890216D01*
X138676059Y-117743011D01*
X138675614Y-117611792D01*
X138675034Y-117501867D01*
X138372197Y-117501867D01*
X138332407Y-117559711D01*
X138321236Y-117575479D01*
X138311166Y-117589441D01*
X138302138Y-117602784D01*
X138294097Y-117616693D01*
X138286986Y-117632356D01*
X138280747Y-117650958D01*
X138275325Y-117673686D01*
X138270662Y-117701727D01*
X138266701Y-117736267D01*
X138263385Y-117778492D01*
X138260659Y-117829589D01*
X138258464Y-117890744D01*
X138256745Y-117963144D01*
X138255444Y-118047975D01*
X138254505Y-118146422D01*
X138253870Y-118259674D01*
X138253484Y-118388916D01*
X138253288Y-118535334D01*
X138253227Y-118700116D01*
X138253243Y-118884447D01*
X138253280Y-119089513D01*
X138253289Y-119212133D01*
X138253265Y-119429082D01*
X138253231Y-119624642D01*
X138253243Y-119799999D01*
X138253358Y-119956341D01*
X138253630Y-120094857D01*
X138254118Y-120216734D01*
X138254876Y-120323160D01*
X138255962Y-120415322D01*
X138257431Y-120494409D01*
X138259340Y-120561608D01*
X138261744Y-120618107D01*
X138264701Y-120665093D01*
X138268266Y-120703755D01*
X138272495Y-120735280D01*
X138277446Y-120760855D01*
X138283173Y-120781670D01*
X138289733Y-120798911D01*
X138297183Y-120813765D01*
X138305579Y-120827422D01*
X138314976Y-120841069D01*
X138325432Y-120855893D01*
X138331523Y-120864783D01*
X138370296Y-120922400D01*
X137838732Y-120922400D01*
X137715483Y-120922365D01*
X137612987Y-120922215D01*
X137529420Y-120921878D01*
X137462956Y-120921286D01*
X137411771Y-120920367D01*
X137374041Y-120919051D01*
X137347940Y-120917269D01*
X137331644Y-120914951D01*
X137323328Y-120912026D01*
X137321168Y-120908424D01*
X137323339Y-120904075D01*
X137324535Y-120902645D01*
X137349685Y-120865573D01*
X137375583Y-120812772D01*
X137399192Y-120750770D01*
X137407461Y-120724357D01*
X137412078Y-120706416D01*
X137415979Y-120685355D01*
X137419248Y-120659089D01*
X137421966Y-120625532D01*
X137424215Y-120582599D01*
X137426077Y-120528204D01*
X137427636Y-120460262D01*
X137428972Y-120376688D01*
X137430169Y-120275395D01*
X137431308Y-120154300D01*
X137431685Y-120109600D01*
X137432702Y-119984449D01*
X137433460Y-119880082D01*
X137433903Y-119794707D01*
X137433970Y-119726533D01*
X137433605Y-119673765D01*
X137432748Y-119634614D01*
X137431341Y-119607285D01*
X137429325Y-119589986D01*
X137426643Y-119580926D01*
X137423236Y-119578312D01*
X137419044Y-119580351D01*
X137414571Y-119584667D01*
X137404216Y-119597602D01*
X137382158Y-119626676D01*
X137349957Y-119669759D01*
X137309174Y-119724718D01*
X137261370Y-119789423D01*
X137208105Y-119861742D01*
X137150940Y-119939544D01*
X137091437Y-120020698D01*
X137031155Y-120103072D01*
X136971655Y-120184536D01*
X136914498Y-120262957D01*
X136861245Y-120336204D01*
X136813457Y-120402147D01*
X136772693Y-120458654D01*
X136740516Y-120503593D01*
X136718485Y-120534834D01*
X136713917Y-120541466D01*
X136690996Y-120578369D01*
X136664188Y-120626359D01*
X136638789Y-120675897D01*
X136635568Y-120682577D01*
X136613890Y-120730772D01*
X136601304Y-120768334D01*
X136595574Y-120804160D01*
X136594456Y-120846200D01*
X136595090Y-120922400D01*
X135440651Y-120922400D01*
X135531815Y-120828669D01*
X135578612Y-120778775D01*
X135628899Y-120722295D01*
X135674944Y-120668026D01*
X135695369Y-120642673D01*
X135725807Y-120603128D01*
X135765862Y-120549916D01*
X135814361Y-120484667D01*
X135870135Y-120409011D01*
X135932011Y-120324577D01*
X135998819Y-120232994D01*
X136069387Y-120135892D01*
X136142545Y-120034901D01*
X136217121Y-119931650D01*
X136291944Y-119827768D01*
X136365843Y-119724885D01*
X136437646Y-119624631D01*
X136506184Y-119528636D01*
X136570284Y-119438527D01*
X136628775Y-119355936D01*
X136680486Y-119282492D01*
X136724247Y-119219824D01*
X136758885Y-119169561D01*
X136783230Y-119133334D01*
X136796111Y-119112771D01*
X136797869Y-119108668D01*
X136789910Y-119097342D01*
X136769115Y-119070162D01*
X136736847Y-119028829D01*
X136694470Y-118975044D01*
X136643347Y-118910506D01*
X136584841Y-118836918D01*
X136520314Y-118755978D01*
X136451131Y-118669388D01*
X136378653Y-118578848D01*
X136304246Y-118486060D01*
X136244517Y-118411702D01*
X135233511Y-118411702D01*
X135227602Y-118424659D01*
X135213272Y-118446908D01*
X135212225Y-118448391D01*
X135193438Y-118478544D01*
X135173791Y-118515375D01*
X135169892Y-118523511D01*
X135166356Y-118531940D01*
X135163230Y-118542059D01*
X135160486Y-118555260D01*
X135158092Y-118572938D01*
X135156019Y-118596484D01*
X135154235Y-118627293D01*
X135152712Y-118666757D01*
X135151419Y-118716269D01*
X135150326Y-118777223D01*
X135149403Y-118851011D01*
X135148619Y-118939028D01*
X135147945Y-119042665D01*
X135147350Y-119163316D01*
X135146805Y-119302374D01*
X135146279Y-119461232D01*
X135145745Y-119640089D01*
X135145206Y-119825207D01*
X135144772Y-119989145D01*
X135144509Y-120133303D01*
X135144484Y-120259079D01*
X135144765Y-120367871D01*
X135145419Y-120461077D01*
X135146514Y-120540097D01*
X135148118Y-120606328D01*
X135150297Y-120661170D01*
X135153119Y-120706021D01*
X135156651Y-120742278D01*
X135160961Y-120771341D01*
X135166117Y-120794609D01*
X135172185Y-120813479D01*
X135179233Y-120829351D01*
X135187329Y-120843622D01*
X135196540Y-120857691D01*
X135205040Y-120870158D01*
X135222176Y-120896452D01*
X135232322Y-120914037D01*
X135233511Y-120917257D01*
X135222604Y-120918334D01*
X135191411Y-120919335D01*
X135142223Y-120920235D01*
X135077333Y-120921010D01*
X134999030Y-120921637D01*
X134909607Y-120922091D01*
X134811356Y-120922349D01*
X134742445Y-120922400D01*
X134637452Y-120922180D01*
X134540610Y-120921548D01*
X134454107Y-120920549D01*
X134380132Y-120919227D01*
X134320874Y-120917626D01*
X134278520Y-120915791D01*
X134255260Y-120913765D01*
X134251378Y-120912493D01*
X134259076Y-120897591D01*
X134267074Y-120889560D01*
X134280246Y-120872434D01*
X134297485Y-120842183D01*
X134309407Y-120817622D01*
X134336045Y-120758711D01*
X134339120Y-119581845D01*
X134342195Y-118404978D01*
X134787853Y-118404978D01*
X134885670Y-118405142D01*
X134976064Y-118405611D01*
X135056630Y-118406347D01*
X135124962Y-118407316D01*
X135178656Y-118408480D01*
X135215305Y-118409803D01*
X135232504Y-118411249D01*
X135233511Y-118411702D01*
X136244517Y-118411702D01*
X136229270Y-118392722D01*
X136155090Y-118300537D01*
X136083069Y-118211204D01*
X136014569Y-118126424D01*
X135950955Y-118047898D01*
X135893588Y-117977326D01*
X135843833Y-117916409D01*
X135803052Y-117866847D01*
X135785888Y-117846178D01*
X135699596Y-117745516D01*
X135622997Y-117662259D01*
X135554183Y-117594438D01*
X135491248Y-117540089D01*
X135481867Y-117532722D01*
X135442356Y-117502117D01*
X136574116Y-117501867D01*
X136568827Y-117549844D01*
X136572130Y-117607188D01*
X136593661Y-117675463D01*
X136633635Y-117755212D01*
X136678943Y-117827495D01*
X136695161Y-117850140D01*
X136723214Y-117887696D01*
X136761430Y-117938021D01*
X136808137Y-117998973D01*
X136861661Y-118068411D01*
X136920331Y-118144194D01*
X136982475Y-118224180D01*
X137046421Y-118306228D01*
X137110495Y-118388196D01*
X137173027Y-118467943D01*
X137232343Y-118543327D01*
X137286771Y-118612207D01*
X137334639Y-118672442D01*
X137374275Y-118721889D01*
X137404006Y-118758408D01*
X137422161Y-118779858D01*
X137425220Y-118783156D01*
X137428079Y-118775149D01*
X137430293Y-118744855D01*
X137431857Y-118692556D01*
X137432767Y-118618531D01*
X137433020Y-118523063D01*
X137432613Y-118406434D01*
X137431704Y-118286445D01*
X137430382Y-118154333D01*
X137428857Y-118042594D01*
X137426881Y-117949025D01*
X137424206Y-117871419D01*
X137420582Y-117807574D01*
X137415761Y-117755283D01*
X137409494Y-117712344D01*
X137401532Y-117676551D01*
X137391627Y-117645700D01*
X137379531Y-117617586D01*
X137364993Y-117590005D01*
X137350311Y-117564966D01*
X137312314Y-117501867D01*
X138372197Y-117501867D01*
X138675034Y-117501867D01*
X138675001Y-117495617D01*
X138674195Y-117393544D01*
X138673170Y-117304633D01*
X138671900Y-117227941D01*
X138670360Y-117162527D01*
X138668524Y-117107449D01*
X138666367Y-117061765D01*
X138663863Y-117024534D01*
X138660987Y-116994813D01*
X138657713Y-116971662D01*
X138654015Y-116954139D01*
X138649869Y-116941301D01*
X138645247Y-116932208D01*
X138640126Y-116925918D01*
X138634478Y-116921488D01*
X138628279Y-116917978D01*
X138621504Y-116914445D01*
X138615508Y-116910876D01*
X138610275Y-116908300D01*
X138602099Y-116905972D01*
X138589886Y-116903878D01*
X138572541Y-116902007D01*
X138548969Y-116900347D01*
X138518077Y-116898884D01*
X138478768Y-116897608D01*
X138429950Y-116896504D01*
X138370527Y-116895561D01*
X138299404Y-116894767D01*
X138215488Y-116894109D01*
X138117683Y-116893575D01*
X138004894Y-116893153D01*
X137876029Y-116892829D01*
X137729991Y-116892592D01*
X137565686Y-116892430D01*
X137382020Y-116892330D01*
X137177897Y-116892280D01*
X136966753Y-116892267D01*
X135346400Y-116892267D01*
X135346400Y-116989054D01*
G36*
X132071571Y-117449071D02*
X131911430Y-117470245D01*
X131747490Y-117510385D01*
X131577687Y-117569889D01*
X131399957Y-117649154D01*
X131388690Y-117654699D01*
X131330995Y-117682725D01*
X131279448Y-117706802D01*
X131237809Y-117725249D01*
X131209838Y-117736386D01*
X131200267Y-117738933D01*
X131181050Y-117743941D01*
X131176439Y-117748147D01*
X131181542Y-117758580D01*
X131197582Y-117784868D01*
X131222712Y-117824257D01*
X131255086Y-117873991D01*
X131292857Y-117931315D01*
X131334178Y-117993476D01*
X131377202Y-118057718D01*
X131420083Y-118121285D01*
X131460974Y-118181425D01*
X131498029Y-118235380D01*
X131529400Y-118280397D01*
X131553241Y-118313721D01*
X131567706Y-118332597D01*
X131569691Y-118334787D01*
X131579809Y-118330138D01*
X131602150Y-118312962D01*
X131632720Y-118286440D01*
X131648464Y-118271964D01*
X131744953Y-118196682D01*
X131851664Y-118141241D01*
X131967168Y-118106141D01*
X132090038Y-118091880D01*
X132159439Y-118093051D01*
X132280577Y-118110212D01*
X132389795Y-118146094D01*
X132487418Y-118200959D01*
X132573772Y-118275070D01*
X132649185Y-118368688D01*
X132713982Y-118482076D01*
X132751399Y-118568667D01*
X132795252Y-118704366D01*
X132827572Y-118851850D01*
X132848443Y-119007314D01*
X132857949Y-119166956D01*
X132856173Y-119326973D01*
X132843197Y-119483561D01*
X132819106Y-119632918D01*
X132783982Y-119771240D01*
X132737908Y-119894724D01*
X132721627Y-119928978D01*
X132653380Y-120043064D01*
X132572921Y-120139557D01*
X132481430Y-120217670D01*
X132380089Y-120276617D01*
X132270080Y-120315612D01*
X132152585Y-120333868D01*
X132111117Y-120335211D01*
X131989559Y-120324290D01*
X131869122Y-120291474D01*
X131751334Y-120237439D01*
X131637723Y-120162865D01*
X131546315Y-120084539D01*
X131499785Y-120040008D01*
X131318517Y-120337271D01*
X131273420Y-120411433D01*
X131232181Y-120479646D01*
X131196265Y-120539459D01*
X131167134Y-120588420D01*
X131146250Y-120624079D01*
X131135076Y-120643984D01*
X131133625Y-120647079D01*
X131141854Y-120656718D01*
X131167433Y-120673999D01*
X131207127Y-120697283D01*
X131257703Y-120724934D01*
X131315926Y-120755315D01*
X131378563Y-120786790D01*
X131442379Y-120817722D01*
X131504140Y-120846473D01*
X131560612Y-120871408D01*
X131608562Y-120890889D01*
X131632014Y-120899318D01*
X131765779Y-120937133D01*
X131903673Y-120962136D01*
X132051378Y-120975140D01*
X132178167Y-120977468D01*
X132246122Y-120976373D01*
X132311723Y-120974275D01*
X132369153Y-120971434D01*
X132412597Y-120968106D01*
X132426702Y-120966422D01*
X132565716Y-120937587D01*
X132707243Y-120892468D01*
X132844725Y-120833750D01*
X132971606Y-120764120D01*
X133049111Y-120711441D01*
X133176519Y-120603239D01*
X133294822Y-120476671D01*
X133401828Y-120334866D01*
X133495348Y-120180951D01*
X133573190Y-120018053D01*
X133617044Y-119900756D01*
X133667292Y-119717128D01*
X133700791Y-119522581D01*
X133717551Y-119321325D01*
X133717584Y-119117568D01*
X133700899Y-118915521D01*
X133667507Y-118719392D01*
X133617420Y-118533391D01*
X133613603Y-118521803D01*
X133550719Y-118359750D01*
X133473972Y-118211832D01*
X133380758Y-118073865D01*
X133268473Y-117941661D01*
X133224608Y-117896399D01*
X133088466Y-117772457D01*
X132948509Y-117669915D01*
X132802589Y-117587656D01*
X132648558Y-117524564D01*
X132484268Y-117479523D01*
X132388711Y-117462033D01*
X132229977Y-117446466D01*
X132071571Y-117449071D01*
X132071571Y-117449071D01*
G37*
X132071571Y-117449071D02*
X131911430Y-117470245D01*
X131747490Y-117510385D01*
X131577687Y-117569889D01*
X131399957Y-117649154D01*
X131388690Y-117654699D01*
X131330995Y-117682725D01*
X131279448Y-117706802D01*
X131237809Y-117725249D01*
X131209838Y-117736386D01*
X131200267Y-117738933D01*
X131181050Y-117743941D01*
X131176439Y-117748147D01*
X131181542Y-117758580D01*
X131197582Y-117784868D01*
X131222712Y-117824257D01*
X131255086Y-117873991D01*
X131292857Y-117931315D01*
X131334178Y-117993476D01*
X131377202Y-118057718D01*
X131420083Y-118121285D01*
X131460974Y-118181425D01*
X131498029Y-118235380D01*
X131529400Y-118280397D01*
X131553241Y-118313721D01*
X131567706Y-118332597D01*
X131569691Y-118334787D01*
X131579809Y-118330138D01*
X131602150Y-118312962D01*
X131632720Y-118286440D01*
X131648464Y-118271964D01*
X131744953Y-118196682D01*
X131851664Y-118141241D01*
X131967168Y-118106141D01*
X132090038Y-118091880D01*
X132159439Y-118093051D01*
X132280577Y-118110212D01*
X132389795Y-118146094D01*
X132487418Y-118200959D01*
X132573772Y-118275070D01*
X132649185Y-118368688D01*
X132713982Y-118482076D01*
X132751399Y-118568667D01*
X132795252Y-118704366D01*
X132827572Y-118851850D01*
X132848443Y-119007314D01*
X132857949Y-119166956D01*
X132856173Y-119326973D01*
X132843197Y-119483561D01*
X132819106Y-119632918D01*
X132783982Y-119771240D01*
X132737908Y-119894724D01*
X132721627Y-119928978D01*
X132653380Y-120043064D01*
X132572921Y-120139557D01*
X132481430Y-120217670D01*
X132380089Y-120276617D01*
X132270080Y-120315612D01*
X132152585Y-120333868D01*
X132111117Y-120335211D01*
X131989559Y-120324290D01*
X131869122Y-120291474D01*
X131751334Y-120237439D01*
X131637723Y-120162865D01*
X131546315Y-120084539D01*
X131499785Y-120040008D01*
X131318517Y-120337271D01*
X131273420Y-120411433D01*
X131232181Y-120479646D01*
X131196265Y-120539459D01*
X131167134Y-120588420D01*
X131146250Y-120624079D01*
X131135076Y-120643984D01*
X131133625Y-120647079D01*
X131141854Y-120656718D01*
X131167433Y-120673999D01*
X131207127Y-120697283D01*
X131257703Y-120724934D01*
X131315926Y-120755315D01*
X131378563Y-120786790D01*
X131442379Y-120817722D01*
X131504140Y-120846473D01*
X131560612Y-120871408D01*
X131608562Y-120890889D01*
X131632014Y-120899318D01*
X131765779Y-120937133D01*
X131903673Y-120962136D01*
X132051378Y-120975140D01*
X132178167Y-120977468D01*
X132246122Y-120976373D01*
X132311723Y-120974275D01*
X132369153Y-120971434D01*
X132412597Y-120968106D01*
X132426702Y-120966422D01*
X132565716Y-120937587D01*
X132707243Y-120892468D01*
X132844725Y-120833750D01*
X132971606Y-120764120D01*
X133049111Y-120711441D01*
X133176519Y-120603239D01*
X133294822Y-120476671D01*
X133401828Y-120334866D01*
X133495348Y-120180951D01*
X133573190Y-120018053D01*
X133617044Y-119900756D01*
X133667292Y-119717128D01*
X133700791Y-119522581D01*
X133717551Y-119321325D01*
X133717584Y-119117568D01*
X133700899Y-118915521D01*
X133667507Y-118719392D01*
X133617420Y-118533391D01*
X133613603Y-118521803D01*
X133550719Y-118359750D01*
X133473972Y-118211832D01*
X133380758Y-118073865D01*
X133268473Y-117941661D01*
X133224608Y-117896399D01*
X133088466Y-117772457D01*
X132948509Y-117669915D01*
X132802589Y-117587656D01*
X132648558Y-117524564D01*
X132484268Y-117479523D01*
X132388711Y-117462033D01*
X132229977Y-117446466D01*
X132071571Y-117449071D01*
G36*
X129726426Y-118366552D02*
X129574508Y-118386567D01*
X129439244Y-118420202D01*
X129319761Y-118467725D01*
X129215185Y-118529405D01*
X129137576Y-118592965D01*
X129068735Y-118667099D01*
X129014994Y-118746871D01*
X128972090Y-118839091D01*
X128956616Y-118882161D01*
X128943756Y-118921142D01*
X128932554Y-118957289D01*
X128922880Y-118992434D01*
X128914604Y-119028410D01*
X128907597Y-119067050D01*
X128901728Y-119110185D01*
X128896869Y-119159649D01*
X128892890Y-119217273D01*
X128889660Y-119284891D01*
X128887051Y-119364334D01*
X128884933Y-119457436D01*
X128883176Y-119566027D01*
X128881651Y-119691942D01*
X128880228Y-119837012D01*
X128878975Y-119979778D01*
X128877649Y-120135968D01*
X128876444Y-120271239D01*
X128875234Y-120387246D01*
X128873894Y-120485645D01*
X128872300Y-120568093D01*
X128870325Y-120636246D01*
X128867844Y-120691760D01*
X128864731Y-120736292D01*
X128860862Y-120771498D01*
X128856111Y-120799034D01*
X128850352Y-120820556D01*
X128843461Y-120837722D01*
X128835311Y-120852186D01*
X128825777Y-120865606D01*
X128814734Y-120879638D01*
X128810434Y-120885071D01*
X128794614Y-120907910D01*
X128787578Y-120923463D01*
X128787556Y-120923922D01*
X128798433Y-120926121D01*
X128829418Y-120928147D01*
X128878043Y-120929942D01*
X128941837Y-120931451D01*
X129018331Y-120932616D01*
X129105056Y-120933380D01*
X129199543Y-120933686D01*
X129210450Y-120933689D01*
X129633343Y-120933689D01*
X129636605Y-120837622D01*
X129639867Y-120741556D01*
X129701956Y-120792543D01*
X129799286Y-120860057D01*
X129909187Y-120914749D01*
X129995651Y-120944978D01*
X130064722Y-120959666D01*
X130148075Y-120969659D01*
X130237841Y-120974646D01*
X130326155Y-120974313D01*
X130405149Y-120968351D01*
X130441378Y-120962638D01*
X130581397Y-120924776D01*
X130707822Y-120869932D01*
X130819740Y-120798924D01*
X130916238Y-120712568D01*
X130996400Y-120611679D01*
X131059313Y-120497076D01*
X131103688Y-120370984D01*
X131116022Y-120314401D01*
X131123632Y-120252202D01*
X131127261Y-120177363D01*
X131127755Y-120143467D01*
X131127690Y-120140282D01*
X130367752Y-120140282D01*
X130358459Y-120215333D01*
X130330272Y-120279160D01*
X130281803Y-120334798D01*
X130276746Y-120339211D01*
X130228452Y-120374037D01*
X130176743Y-120396620D01*
X130116011Y-120408540D01*
X130040648Y-120411383D01*
X130022541Y-120410978D01*
X129968722Y-120408325D01*
X129928692Y-120402909D01*
X129893676Y-120392745D01*
X129854897Y-120375850D01*
X129844255Y-120370672D01*
X129783604Y-120334844D01*
X129736785Y-120292212D01*
X129724048Y-120276973D01*
X129679378Y-120220462D01*
X129679378Y-120024586D01*
X129679914Y-119945939D01*
X129681604Y-119887988D01*
X129684572Y-119848875D01*
X129688943Y-119826741D01*
X129693028Y-119820274D01*
X129708953Y-119817111D01*
X129742736Y-119814488D01*
X129789660Y-119812655D01*
X129845007Y-119811857D01*
X129853894Y-119811842D01*
X129974670Y-119817096D01*
X130077340Y-119833263D01*
X130163894Y-119860961D01*
X130236319Y-119900808D01*
X130291249Y-119947758D01*
X130335796Y-120005645D01*
X130360520Y-120068693D01*
X130367752Y-120140282D01*
X131127690Y-120140282D01*
X131125822Y-120049712D01*
X131117478Y-119970812D01*
X131101232Y-119899590D01*
X131075595Y-119828864D01*
X131051599Y-119776493D01*
X130992980Y-119681196D01*
X130914883Y-119593170D01*
X130819685Y-119514017D01*
X130709762Y-119445340D01*
X130587490Y-119388741D01*
X130455245Y-119345821D01*
X130390578Y-119330882D01*
X130254396Y-119308777D01*
X130105951Y-119294194D01*
X129954495Y-119287813D01*
X129827936Y-119289445D01*
X129666050Y-119296224D01*
X129673470Y-119237245D01*
X129692762Y-119138092D01*
X129723896Y-119057372D01*
X129767731Y-118994466D01*
X129825129Y-118948756D01*
X129896952Y-118919622D01*
X129984059Y-118906447D01*
X130087314Y-118908611D01*
X130125289Y-118912612D01*
X130266480Y-118937780D01*
X130403293Y-118978814D01*
X130497822Y-119016815D01*
X130542982Y-119036190D01*
X130581415Y-119051760D01*
X130607766Y-119061405D01*
X130615454Y-119063452D01*
X130625198Y-119054374D01*
X130641917Y-119025405D01*
X130665768Y-118976217D01*
X130696907Y-118906484D01*
X130735493Y-118815879D01*
X130742090Y-118800089D01*
X130772147Y-118727772D01*
X130799126Y-118662425D01*
X130821864Y-118606906D01*
X130839194Y-118564072D01*
X130849952Y-118536781D01*
X130853059Y-118527942D01*
X130843060Y-118523187D01*
X130816783Y-118517910D01*
X130788511Y-118514231D01*
X130758354Y-118509474D01*
X130710567Y-118500028D01*
X130649388Y-118486820D01*
X130579054Y-118470776D01*
X130503806Y-118452820D01*
X130475245Y-118445797D01*
X130370184Y-118420209D01*
X130282520Y-118400147D01*
X130207932Y-118384969D01*
X130142097Y-118374035D01*
X130080693Y-118366704D01*
X130019398Y-118362335D01*
X129953890Y-118360287D01*
X129895872Y-118359889D01*
X129726426Y-118366552D01*
X129726426Y-118366552D01*
G37*
X129726426Y-118366552D02*
X129574508Y-118386567D01*
X129439244Y-118420202D01*
X129319761Y-118467725D01*
X129215185Y-118529405D01*
X129137576Y-118592965D01*
X129068735Y-118667099D01*
X129014994Y-118746871D01*
X128972090Y-118839091D01*
X128956616Y-118882161D01*
X128943756Y-118921142D01*
X128932554Y-118957289D01*
X128922880Y-118992434D01*
X128914604Y-119028410D01*
X128907597Y-119067050D01*
X128901728Y-119110185D01*
X128896869Y-119159649D01*
X128892890Y-119217273D01*
X128889660Y-119284891D01*
X128887051Y-119364334D01*
X128884933Y-119457436D01*
X128883176Y-119566027D01*
X128881651Y-119691942D01*
X128880228Y-119837012D01*
X128878975Y-119979778D01*
X128877649Y-120135968D01*
X128876444Y-120271239D01*
X128875234Y-120387246D01*
X128873894Y-120485645D01*
X128872300Y-120568093D01*
X128870325Y-120636246D01*
X128867844Y-120691760D01*
X128864731Y-120736292D01*
X128860862Y-120771498D01*
X128856111Y-120799034D01*
X128850352Y-120820556D01*
X128843461Y-120837722D01*
X128835311Y-120852186D01*
X128825777Y-120865606D01*
X128814734Y-120879638D01*
X128810434Y-120885071D01*
X128794614Y-120907910D01*
X128787578Y-120923463D01*
X128787556Y-120923922D01*
X128798433Y-120926121D01*
X128829418Y-120928147D01*
X128878043Y-120929942D01*
X128941837Y-120931451D01*
X129018331Y-120932616D01*
X129105056Y-120933380D01*
X129199543Y-120933686D01*
X129210450Y-120933689D01*
X129633343Y-120933689D01*
X129636605Y-120837622D01*
X129639867Y-120741556D01*
X129701956Y-120792543D01*
X129799286Y-120860057D01*
X129909187Y-120914749D01*
X129995651Y-120944978D01*
X130064722Y-120959666D01*
X130148075Y-120969659D01*
X130237841Y-120974646D01*
X130326155Y-120974313D01*
X130405149Y-120968351D01*
X130441378Y-120962638D01*
X130581397Y-120924776D01*
X130707822Y-120869932D01*
X130819740Y-120798924D01*
X130916238Y-120712568D01*
X130996400Y-120611679D01*
X131059313Y-120497076D01*
X131103688Y-120370984D01*
X131116022Y-120314401D01*
X131123632Y-120252202D01*
X131127261Y-120177363D01*
X131127755Y-120143467D01*
X131127690Y-120140282D01*
X130367752Y-120140282D01*
X130358459Y-120215333D01*
X130330272Y-120279160D01*
X130281803Y-120334798D01*
X130276746Y-120339211D01*
X130228452Y-120374037D01*
X130176743Y-120396620D01*
X130116011Y-120408540D01*
X130040648Y-120411383D01*
X130022541Y-120410978D01*
X129968722Y-120408325D01*
X129928692Y-120402909D01*
X129893676Y-120392745D01*
X129854897Y-120375850D01*
X129844255Y-120370672D01*
X129783604Y-120334844D01*
X129736785Y-120292212D01*
X129724048Y-120276973D01*
X129679378Y-120220462D01*
X129679378Y-120024586D01*
X129679914Y-119945939D01*
X129681604Y-119887988D01*
X129684572Y-119848875D01*
X129688943Y-119826741D01*
X129693028Y-119820274D01*
X129708953Y-119817111D01*
X129742736Y-119814488D01*
X129789660Y-119812655D01*
X129845007Y-119811857D01*
X129853894Y-119811842D01*
X129974670Y-119817096D01*
X130077340Y-119833263D01*
X130163894Y-119860961D01*
X130236319Y-119900808D01*
X130291249Y-119947758D01*
X130335796Y-120005645D01*
X130360520Y-120068693D01*
X130367752Y-120140282D01*
X131127690Y-120140282D01*
X131125822Y-120049712D01*
X131117478Y-119970812D01*
X131101232Y-119899590D01*
X131075595Y-119828864D01*
X131051599Y-119776493D01*
X130992980Y-119681196D01*
X130914883Y-119593170D01*
X130819685Y-119514017D01*
X130709762Y-119445340D01*
X130587490Y-119388741D01*
X130455245Y-119345821D01*
X130390578Y-119330882D01*
X130254396Y-119308777D01*
X130105951Y-119294194D01*
X129954495Y-119287813D01*
X129827936Y-119289445D01*
X129666050Y-119296224D01*
X129673470Y-119237245D01*
X129692762Y-119138092D01*
X129723896Y-119057372D01*
X129767731Y-118994466D01*
X129825129Y-118948756D01*
X129896952Y-118919622D01*
X129984059Y-118906447D01*
X130087314Y-118908611D01*
X130125289Y-118912612D01*
X130266480Y-118937780D01*
X130403293Y-118978814D01*
X130497822Y-119016815D01*
X130542982Y-119036190D01*
X130581415Y-119051760D01*
X130607766Y-119061405D01*
X130615454Y-119063452D01*
X130625198Y-119054374D01*
X130641917Y-119025405D01*
X130665768Y-118976217D01*
X130696907Y-118906484D01*
X130735493Y-118815879D01*
X130742090Y-118800089D01*
X130772147Y-118727772D01*
X130799126Y-118662425D01*
X130821864Y-118606906D01*
X130839194Y-118564072D01*
X130849952Y-118536781D01*
X130853059Y-118527942D01*
X130843060Y-118523187D01*
X130816783Y-118517910D01*
X130788511Y-118514231D01*
X130758354Y-118509474D01*
X130710567Y-118500028D01*
X130649388Y-118486820D01*
X130579054Y-118470776D01*
X130503806Y-118452820D01*
X130475245Y-118445797D01*
X130370184Y-118420209D01*
X130282520Y-118400147D01*
X130207932Y-118384969D01*
X130142097Y-118374035D01*
X130080693Y-118366704D01*
X130019398Y-118362335D01*
X129953890Y-118360287D01*
X129895872Y-118359889D01*
X129726426Y-118366552D01*
G36*
X126213493Y-118972245D02*
X126213474Y-119206662D01*
X126213448Y-119419603D01*
X126213375Y-119612168D01*
X126213218Y-119785459D01*
X126212936Y-119940576D01*
X126212491Y-120078620D01*
X126211844Y-120200692D01*
X126210955Y-120307894D01*
X126209787Y-120401326D01*
X126208299Y-120482090D01*
X126206454Y-120551286D01*
X126204211Y-120610015D01*
X126201531Y-120659379D01*
X126198377Y-120700478D01*
X126194708Y-120734413D01*
X126190487Y-120762286D01*
X126185673Y-120785198D01*
X126180227Y-120804249D01*
X126174112Y-120820540D01*
X126167288Y-120835173D01*
X126159715Y-120849249D01*
X126151355Y-120863868D01*
X126146161Y-120872974D01*
X126111896Y-120933689D01*
X126970045Y-120933689D01*
X126970045Y-120837733D01*
X126970776Y-120794370D01*
X126972728Y-120761205D01*
X126975537Y-120743424D01*
X126976779Y-120741778D01*
X126988201Y-120748662D01*
X127010916Y-120766505D01*
X127033615Y-120785879D01*
X127088200Y-120826614D01*
X127157679Y-120867617D01*
X127234730Y-120905123D01*
X127312035Y-120935364D01*
X127342887Y-120945012D01*
X127411384Y-120959578D01*
X127494236Y-120969539D01*
X127583629Y-120974583D01*
X127671752Y-120974396D01*
X127750793Y-120968666D01*
X127788489Y-120962858D01*
X127926586Y-120924797D01*
X128053887Y-120867073D01*
X128169708Y-120790211D01*
X128273363Y-120694739D01*
X128364167Y-120581179D01*
X128430969Y-120470381D01*
X128485836Y-120353625D01*
X128527837Y-120234276D01*
X128557833Y-120108283D01*
X128576689Y-119971594D01*
X128585268Y-119820158D01*
X128585994Y-119742711D01*
X128583900Y-119685934D01*
X127754783Y-119685934D01*
X127754576Y-119779002D01*
X127751663Y-119866692D01*
X127746000Y-119943772D01*
X127737545Y-120005009D01*
X127734962Y-120017350D01*
X127703160Y-120124633D01*
X127661502Y-120211658D01*
X127609637Y-120278642D01*
X127547219Y-120325805D01*
X127473900Y-120353365D01*
X127389331Y-120361541D01*
X127293165Y-120350551D01*
X127229689Y-120334829D01*
X127180546Y-120316639D01*
X127126417Y-120290791D01*
X127085756Y-120267089D01*
X127015200Y-120220721D01*
X127015200Y-119070530D01*
X127082608Y-119026962D01*
X127161133Y-118986040D01*
X127245319Y-118959389D01*
X127330443Y-118947465D01*
X127411784Y-118950722D01*
X127484620Y-118969615D01*
X127516574Y-118985184D01*
X127574499Y-119028181D01*
X127623456Y-119084953D01*
X127664610Y-119157575D01*
X127699126Y-119248121D01*
X127728167Y-119358666D01*
X127729448Y-119364533D01*
X127739619Y-119426788D01*
X127747261Y-119504594D01*
X127752330Y-119592720D01*
X127754783Y-119685934D01*
X128583900Y-119685934D01*
X128578143Y-119529895D01*
X128556198Y-119334059D01*
X128520214Y-119155332D01*
X128470241Y-118993845D01*
X128406332Y-118849726D01*
X128328538Y-118723106D01*
X128236911Y-118614115D01*
X128131503Y-118522883D01*
X128086338Y-118491932D01*
X127985389Y-118435785D01*
X127882099Y-118396174D01*
X127772011Y-118372014D01*
X127650670Y-118362219D01*
X127558164Y-118363265D01*
X127428510Y-118374231D01*
X127315916Y-118396046D01*
X127217125Y-118429714D01*
X127128879Y-118476236D01*
X127080014Y-118510448D01*
X127050647Y-118532362D01*
X127028957Y-118547333D01*
X127020747Y-118551733D01*
X127019132Y-118540904D01*
X127017841Y-118510251D01*
X127016862Y-118462526D01*
X127016183Y-118400479D01*
X127015790Y-118326862D01*
X127015670Y-118244427D01*
X127015812Y-118155925D01*
X127016203Y-118064107D01*
X127016829Y-117971724D01*
X127017680Y-117881528D01*
X127018740Y-117796271D01*
X127019999Y-117718703D01*
X127021444Y-117651576D01*
X127023062Y-117597641D01*
X127024839Y-117559650D01*
X127025331Y-117552667D01*
X127032908Y-117482251D01*
X127044469Y-117427102D01*
X127062208Y-117379981D01*
X127088318Y-117333647D01*
X127094585Y-117324067D01*
X127119017Y-117287378D01*
X126213689Y-117287378D01*
X126213493Y-118972245D01*
X126213493Y-118972245D01*
G37*
X126213493Y-118972245D02*
X126213474Y-119206662D01*
X126213448Y-119419603D01*
X126213375Y-119612168D01*
X126213218Y-119785459D01*
X126212936Y-119940576D01*
X126212491Y-120078620D01*
X126211844Y-120200692D01*
X126210955Y-120307894D01*
X126209787Y-120401326D01*
X126208299Y-120482090D01*
X126206454Y-120551286D01*
X126204211Y-120610015D01*
X126201531Y-120659379D01*
X126198377Y-120700478D01*
X126194708Y-120734413D01*
X126190487Y-120762286D01*
X126185673Y-120785198D01*
X126180227Y-120804249D01*
X126174112Y-120820540D01*
X126167288Y-120835173D01*
X126159715Y-120849249D01*
X126151355Y-120863868D01*
X126146161Y-120872974D01*
X126111896Y-120933689D01*
X126970045Y-120933689D01*
X126970045Y-120837733D01*
X126970776Y-120794370D01*
X126972728Y-120761205D01*
X126975537Y-120743424D01*
X126976779Y-120741778D01*
X126988201Y-120748662D01*
X127010916Y-120766505D01*
X127033615Y-120785879D01*
X127088200Y-120826614D01*
X127157679Y-120867617D01*
X127234730Y-120905123D01*
X127312035Y-120935364D01*
X127342887Y-120945012D01*
X127411384Y-120959578D01*
X127494236Y-120969539D01*
X127583629Y-120974583D01*
X127671752Y-120974396D01*
X127750793Y-120968666D01*
X127788489Y-120962858D01*
X127926586Y-120924797D01*
X128053887Y-120867073D01*
X128169708Y-120790211D01*
X128273363Y-120694739D01*
X128364167Y-120581179D01*
X128430969Y-120470381D01*
X128485836Y-120353625D01*
X128527837Y-120234276D01*
X128557833Y-120108283D01*
X128576689Y-119971594D01*
X128585268Y-119820158D01*
X128585994Y-119742711D01*
X128583900Y-119685934D01*
X127754783Y-119685934D01*
X127754576Y-119779002D01*
X127751663Y-119866692D01*
X127746000Y-119943772D01*
X127737545Y-120005009D01*
X127734962Y-120017350D01*
X127703160Y-120124633D01*
X127661502Y-120211658D01*
X127609637Y-120278642D01*
X127547219Y-120325805D01*
X127473900Y-120353365D01*
X127389331Y-120361541D01*
X127293165Y-120350551D01*
X127229689Y-120334829D01*
X127180546Y-120316639D01*
X127126417Y-120290791D01*
X127085756Y-120267089D01*
X127015200Y-120220721D01*
X127015200Y-119070530D01*
X127082608Y-119026962D01*
X127161133Y-118986040D01*
X127245319Y-118959389D01*
X127330443Y-118947465D01*
X127411784Y-118950722D01*
X127484620Y-118969615D01*
X127516574Y-118985184D01*
X127574499Y-119028181D01*
X127623456Y-119084953D01*
X127664610Y-119157575D01*
X127699126Y-119248121D01*
X127728167Y-119358666D01*
X127729448Y-119364533D01*
X127739619Y-119426788D01*
X127747261Y-119504594D01*
X127752330Y-119592720D01*
X127754783Y-119685934D01*
X128583900Y-119685934D01*
X128578143Y-119529895D01*
X128556198Y-119334059D01*
X128520214Y-119155332D01*
X128470241Y-118993845D01*
X128406332Y-118849726D01*
X128328538Y-118723106D01*
X128236911Y-118614115D01*
X128131503Y-118522883D01*
X128086338Y-118491932D01*
X127985389Y-118435785D01*
X127882099Y-118396174D01*
X127772011Y-118372014D01*
X127650670Y-118362219D01*
X127558164Y-118363265D01*
X127428510Y-118374231D01*
X127315916Y-118396046D01*
X127217125Y-118429714D01*
X127128879Y-118476236D01*
X127080014Y-118510448D01*
X127050647Y-118532362D01*
X127028957Y-118547333D01*
X127020747Y-118551733D01*
X127019132Y-118540904D01*
X127017841Y-118510251D01*
X127016862Y-118462526D01*
X127016183Y-118400479D01*
X127015790Y-118326862D01*
X127015670Y-118244427D01*
X127015812Y-118155925D01*
X127016203Y-118064107D01*
X127016829Y-117971724D01*
X127017680Y-117881528D01*
X127018740Y-117796271D01*
X127019999Y-117718703D01*
X127021444Y-117651576D01*
X127023062Y-117597641D01*
X127024839Y-117559650D01*
X127025331Y-117552667D01*
X127032908Y-117482251D01*
X127044469Y-117427102D01*
X127062208Y-117379981D01*
X127088318Y-117333647D01*
X127094585Y-117324067D01*
X127119017Y-117287378D01*
X126213689Y-117287378D01*
X126213493Y-118972245D01*
G36*
X134673043Y-116526571D02*
X134576768Y-116550809D01*
X134490184Y-116593641D01*
X134415373Y-116653419D01*
X134354418Y-116728494D01*
X134309399Y-116817220D01*
X134283136Y-116913530D01*
X134277286Y-117010795D01*
X134292140Y-117104654D01*
X134325840Y-117192511D01*
X134376528Y-117271770D01*
X134442345Y-117339836D01*
X134521434Y-117394112D01*
X134611934Y-117432002D01*
X134663200Y-117444426D01*
X134707698Y-117451947D01*
X134741999Y-117454919D01*
X134774960Y-117453094D01*
X134815434Y-117446225D01*
X134848531Y-117439250D01*
X134941947Y-117407741D01*
X135025619Y-117356617D01*
X135097665Y-117287429D01*
X135156200Y-117201728D01*
X135170148Y-117174489D01*
X135186586Y-117138122D01*
X135196894Y-117107582D01*
X135202460Y-117075450D01*
X135204669Y-117034307D01*
X135204948Y-116988222D01*
X135200861Y-116903865D01*
X135187446Y-116834586D01*
X135162256Y-116773961D01*
X135122846Y-116715567D01*
X135084298Y-116671302D01*
X135012406Y-116605484D01*
X134937313Y-116560053D01*
X134854562Y-116532850D01*
X134776928Y-116522576D01*
X134673043Y-116526571D01*
X134673043Y-116526571D01*
G37*
X134673043Y-116526571D02*
X134576768Y-116550809D01*
X134490184Y-116593641D01*
X134415373Y-116653419D01*
X134354418Y-116728494D01*
X134309399Y-116817220D01*
X134283136Y-116913530D01*
X134277286Y-117010795D01*
X134292140Y-117104654D01*
X134325840Y-117192511D01*
X134376528Y-117271770D01*
X134442345Y-117339836D01*
X134521434Y-117394112D01*
X134611934Y-117432002D01*
X134663200Y-117444426D01*
X134707698Y-117451947D01*
X134741999Y-117454919D01*
X134774960Y-117453094D01*
X134815434Y-117446225D01*
X134848531Y-117439250D01*
X134941947Y-117407741D01*
X135025619Y-117356617D01*
X135097665Y-117287429D01*
X135156200Y-117201728D01*
X135170148Y-117174489D01*
X135186586Y-117138122D01*
X135196894Y-117107582D01*
X135202460Y-117075450D01*
X135204669Y-117034307D01*
X135204948Y-116988222D01*
X135200861Y-116903865D01*
X135187446Y-116834586D01*
X135162256Y-116773961D01*
X135122846Y-116715567D01*
X135084298Y-116671302D01*
X135012406Y-116605484D01*
X134937313Y-116560053D01*
X134854562Y-116532850D01*
X134776928Y-116522576D01*
X134673043Y-116526571D01*
G36*
X168708759Y-113169184D02*
X168682247Y-113182282D01*
X168649553Y-113205106D01*
X168625725Y-113229996D01*
X168609406Y-113261249D01*
X168599240Y-113303166D01*
X168593872Y-113360044D01*
X168591944Y-113436184D01*
X168591831Y-113468917D01*
X168592161Y-113540656D01*
X168593527Y-113591927D01*
X168596500Y-113627404D01*
X168601649Y-113651763D01*
X168609543Y-113669680D01*
X168617757Y-113681902D01*
X168670187Y-113733905D01*
X168731930Y-113765184D01*
X168798536Y-113774592D01*
X168865558Y-113760980D01*
X168886792Y-113751354D01*
X168937624Y-113724859D01*
X168937624Y-114140052D01*
X168900525Y-114120868D01*
X168851643Y-114106025D01*
X168791561Y-114102222D01*
X168731564Y-114109243D01*
X168686256Y-114125013D01*
X168648675Y-114155047D01*
X168616564Y-114198024D01*
X168614150Y-114202436D01*
X168603967Y-114223221D01*
X168596530Y-114244170D01*
X168591411Y-114269548D01*
X168588181Y-114303618D01*
X168586413Y-114350641D01*
X168585677Y-114414882D01*
X168585544Y-114487176D01*
X168585544Y-114717822D01*
X168723861Y-114717822D01*
X168723861Y-114292533D01*
X168762549Y-114259979D01*
X168802738Y-114233940D01*
X168840797Y-114229205D01*
X168879066Y-114241389D01*
X168899462Y-114253320D01*
X168914642Y-114270313D01*
X168925438Y-114295995D01*
X168932683Y-114333991D01*
X168937208Y-114387926D01*
X168939844Y-114461425D01*
X168940772Y-114510347D01*
X168943911Y-114711535D01*
X169009926Y-114715336D01*
X169075940Y-114719136D01*
X169075940Y-113470650D01*
X168937624Y-113470650D01*
X168934097Y-113540254D01*
X168922215Y-113588569D01*
X168900020Y-113618631D01*
X168865559Y-113633471D01*
X168830742Y-113636436D01*
X168791329Y-113633028D01*
X168765171Y-113619617D01*
X168748814Y-113601896D01*
X168735937Y-113582835D01*
X168728272Y-113561601D01*
X168724861Y-113531849D01*
X168724749Y-113487236D01*
X168725897Y-113449880D01*
X168728532Y-113393604D01*
X168732456Y-113356658D01*
X168739063Y-113333223D01*
X168749749Y-113317480D01*
X168759833Y-113308380D01*
X168801970Y-113288537D01*
X168851840Y-113285332D01*
X168880476Y-113292168D01*
X168908828Y-113316464D01*
X168927609Y-113363728D01*
X168936712Y-113433624D01*
X168937624Y-113470650D01*
X169075940Y-113470650D01*
X169075940Y-113158614D01*
X169006782Y-113158614D01*
X168965260Y-113160256D01*
X168943838Y-113166087D01*
X168937626Y-113177461D01*
X168937624Y-113177798D01*
X168934742Y-113188938D01*
X168922030Y-113187673D01*
X168896757Y-113175433D01*
X168837869Y-113156707D01*
X168771615Y-113154739D01*
X168708759Y-113169184D01*
X168708759Y-113169184D01*
G37*
X168708759Y-113169184D02*
X168682247Y-113182282D01*
X168649553Y-113205106D01*
X168625725Y-113229996D01*
X168609406Y-113261249D01*
X168599240Y-113303166D01*
X168593872Y-113360044D01*
X168591944Y-113436184D01*
X168591831Y-113468917D01*
X168592161Y-113540656D01*
X168593527Y-113591927D01*
X168596500Y-113627404D01*
X168601649Y-113651763D01*
X168609543Y-113669680D01*
X168617757Y-113681902D01*
X168670187Y-113733905D01*
X168731930Y-113765184D01*
X168798536Y-113774592D01*
X168865558Y-113760980D01*
X168886792Y-113751354D01*
X168937624Y-113724859D01*
X168937624Y-114140052D01*
X168900525Y-114120868D01*
X168851643Y-114106025D01*
X168791561Y-114102222D01*
X168731564Y-114109243D01*
X168686256Y-114125013D01*
X168648675Y-114155047D01*
X168616564Y-114198024D01*
X168614150Y-114202436D01*
X168603967Y-114223221D01*
X168596530Y-114244170D01*
X168591411Y-114269548D01*
X168588181Y-114303618D01*
X168586413Y-114350641D01*
X168585677Y-114414882D01*
X168585544Y-114487176D01*
X168585544Y-114717822D01*
X168723861Y-114717822D01*
X168723861Y-114292533D01*
X168762549Y-114259979D01*
X168802738Y-114233940D01*
X168840797Y-114229205D01*
X168879066Y-114241389D01*
X168899462Y-114253320D01*
X168914642Y-114270313D01*
X168925438Y-114295995D01*
X168932683Y-114333991D01*
X168937208Y-114387926D01*
X168939844Y-114461425D01*
X168940772Y-114510347D01*
X168943911Y-114711535D01*
X169009926Y-114715336D01*
X169075940Y-114719136D01*
X169075940Y-113470650D01*
X168937624Y-113470650D01*
X168934097Y-113540254D01*
X168922215Y-113588569D01*
X168900020Y-113618631D01*
X168865559Y-113633471D01*
X168830742Y-113636436D01*
X168791329Y-113633028D01*
X168765171Y-113619617D01*
X168748814Y-113601896D01*
X168735937Y-113582835D01*
X168728272Y-113561601D01*
X168724861Y-113531849D01*
X168724749Y-113487236D01*
X168725897Y-113449880D01*
X168728532Y-113393604D01*
X168732456Y-113356658D01*
X168739063Y-113333223D01*
X168749749Y-113317480D01*
X168759833Y-113308380D01*
X168801970Y-113288537D01*
X168851840Y-113285332D01*
X168880476Y-113292168D01*
X168908828Y-113316464D01*
X168927609Y-113363728D01*
X168936712Y-113433624D01*
X168937624Y-113470650D01*
X169075940Y-113470650D01*
X169075940Y-113158614D01*
X169006782Y-113158614D01*
X168965260Y-113160256D01*
X168943838Y-113166087D01*
X168937626Y-113177461D01*
X168937624Y-113177798D01*
X168934742Y-113188938D01*
X168922030Y-113187673D01*
X168896757Y-113175433D01*
X168837869Y-113156707D01*
X168771615Y-113154739D01*
X168708759Y-113169184D01*
G36*
X168184210Y-114106555D02*
X168125055Y-114122339D01*
X168080023Y-114150948D01*
X168048246Y-114188419D01*
X168038366Y-114204411D01*
X168031073Y-114221163D01*
X168025974Y-114242592D01*
X168022679Y-114272616D01*
X168020797Y-114315154D01*
X168019937Y-114374122D01*
X168019707Y-114453440D01*
X168019703Y-114474484D01*
X168019703Y-114717822D01*
X168080059Y-114717822D01*
X168118557Y-114715126D01*
X168147023Y-114708295D01*
X168154155Y-114704083D01*
X168173652Y-114696813D01*
X168193566Y-114704083D01*
X168226353Y-114713160D01*
X168273978Y-114716813D01*
X168326764Y-114715228D01*
X168375036Y-114708589D01*
X168403218Y-114700072D01*
X168457753Y-114665063D01*
X168491835Y-114616479D01*
X168507157Y-114551882D01*
X168507299Y-114550223D01*
X168505955Y-114521566D01*
X168384356Y-114521566D01*
X168373726Y-114554161D01*
X168356410Y-114572505D01*
X168321652Y-114586379D01*
X168275773Y-114591917D01*
X168228988Y-114589191D01*
X168191514Y-114578274D01*
X168181015Y-114571269D01*
X168162668Y-114538904D01*
X168158020Y-114502111D01*
X168158020Y-114453763D01*
X168227582Y-114453763D01*
X168293667Y-114458850D01*
X168343764Y-114473263D01*
X168374929Y-114495729D01*
X168384356Y-114521566D01*
X168505955Y-114521566D01*
X168503987Y-114479647D01*
X168480710Y-114423845D01*
X168436948Y-114381647D01*
X168430899Y-114377808D01*
X168404907Y-114365309D01*
X168372735Y-114357740D01*
X168327760Y-114354061D01*
X168274331Y-114353216D01*
X168158020Y-114353169D01*
X168158020Y-114304411D01*
X168162953Y-114266581D01*
X168175543Y-114241236D01*
X168177017Y-114239887D01*
X168205034Y-114228800D01*
X168247326Y-114224503D01*
X168294064Y-114226615D01*
X168335418Y-114234756D01*
X168359957Y-114246965D01*
X168373253Y-114256746D01*
X168387294Y-114258613D01*
X168406671Y-114250600D01*
X168435976Y-114230739D01*
X168479803Y-114197063D01*
X168483825Y-114193909D01*
X168481764Y-114182236D01*
X168464568Y-114162822D01*
X168438433Y-114141248D01*
X168409552Y-114123096D01*
X168400478Y-114118809D01*
X168367380Y-114110256D01*
X168318880Y-114104155D01*
X168264695Y-114101708D01*
X168262161Y-114101703D01*
X168184210Y-114106555D01*
X168184210Y-114106555D01*
G37*
X168184210Y-114106555D02*
X168125055Y-114122339D01*
X168080023Y-114150948D01*
X168048246Y-114188419D01*
X168038366Y-114204411D01*
X168031073Y-114221163D01*
X168025974Y-114242592D01*
X168022679Y-114272616D01*
X168020797Y-114315154D01*
X168019937Y-114374122D01*
X168019707Y-114453440D01*
X168019703Y-114474484D01*
X168019703Y-114717822D01*
X168080059Y-114717822D01*
X168118557Y-114715126D01*
X168147023Y-114708295D01*
X168154155Y-114704083D01*
X168173652Y-114696813D01*
X168193566Y-114704083D01*
X168226353Y-114713160D01*
X168273978Y-114716813D01*
X168326764Y-114715228D01*
X168375036Y-114708589D01*
X168403218Y-114700072D01*
X168457753Y-114665063D01*
X168491835Y-114616479D01*
X168507157Y-114551882D01*
X168507299Y-114550223D01*
X168505955Y-114521566D01*
X168384356Y-114521566D01*
X168373726Y-114554161D01*
X168356410Y-114572505D01*
X168321652Y-114586379D01*
X168275773Y-114591917D01*
X168228988Y-114589191D01*
X168191514Y-114578274D01*
X168181015Y-114571269D01*
X168162668Y-114538904D01*
X168158020Y-114502111D01*
X168158020Y-114453763D01*
X168227582Y-114453763D01*
X168293667Y-114458850D01*
X168343764Y-114473263D01*
X168374929Y-114495729D01*
X168384356Y-114521566D01*
X168505955Y-114521566D01*
X168503987Y-114479647D01*
X168480710Y-114423845D01*
X168436948Y-114381647D01*
X168430899Y-114377808D01*
X168404907Y-114365309D01*
X168372735Y-114357740D01*
X168327760Y-114354061D01*
X168274331Y-114353216D01*
X168158020Y-114353169D01*
X168158020Y-114304411D01*
X168162953Y-114266581D01*
X168175543Y-114241236D01*
X168177017Y-114239887D01*
X168205034Y-114228800D01*
X168247326Y-114224503D01*
X168294064Y-114226615D01*
X168335418Y-114234756D01*
X168359957Y-114246965D01*
X168373253Y-114256746D01*
X168387294Y-114258613D01*
X168406671Y-114250600D01*
X168435976Y-114230739D01*
X168479803Y-114197063D01*
X168483825Y-114193909D01*
X168481764Y-114182236D01*
X168464568Y-114162822D01*
X168438433Y-114141248D01*
X168409552Y-114123096D01*
X168400478Y-114118809D01*
X168367380Y-114110256D01*
X168318880Y-114104155D01*
X168264695Y-114101708D01*
X168262161Y-114101703D01*
X168184210Y-114106555D01*
G36*
X167793356Y-114103020D02*
X167774539Y-114108660D01*
X167768473Y-114121053D01*
X167768218Y-114126647D01*
X167767129Y-114142230D01*
X167759632Y-114144676D01*
X167739381Y-114133993D01*
X167727351Y-114126694D01*
X167689400Y-114111063D01*
X167644072Y-114103334D01*
X167596544Y-114102740D01*
X167551995Y-114108513D01*
X167515602Y-114119884D01*
X167492543Y-114136088D01*
X167487996Y-114156355D01*
X167490291Y-114161843D01*
X167507020Y-114184626D01*
X167532963Y-114212647D01*
X167537655Y-114217177D01*
X167562383Y-114238005D01*
X167583718Y-114244735D01*
X167613555Y-114240038D01*
X167625508Y-114236917D01*
X167662705Y-114229421D01*
X167688859Y-114232792D01*
X167710946Y-114244681D01*
X167731178Y-114260635D01*
X167746079Y-114280700D01*
X167756434Y-114308702D01*
X167763029Y-114348467D01*
X167766649Y-114403823D01*
X167768078Y-114478594D01*
X167768218Y-114523740D01*
X167768218Y-114717822D01*
X167893960Y-114717822D01*
X167893960Y-114101683D01*
X167831089Y-114101683D01*
X167793356Y-114103020D01*
X167793356Y-114103020D01*
G37*
X167793356Y-114103020D02*
X167774539Y-114108660D01*
X167768473Y-114121053D01*
X167768218Y-114126647D01*
X167767129Y-114142230D01*
X167759632Y-114144676D01*
X167739381Y-114133993D01*
X167727351Y-114126694D01*
X167689400Y-114111063D01*
X167644072Y-114103334D01*
X167596544Y-114102740D01*
X167551995Y-114108513D01*
X167515602Y-114119884D01*
X167492543Y-114136088D01*
X167487996Y-114156355D01*
X167490291Y-114161843D01*
X167507020Y-114184626D01*
X167532963Y-114212647D01*
X167537655Y-114217177D01*
X167562383Y-114238005D01*
X167583718Y-114244735D01*
X167613555Y-114240038D01*
X167625508Y-114236917D01*
X167662705Y-114229421D01*
X167688859Y-114232792D01*
X167710946Y-114244681D01*
X167731178Y-114260635D01*
X167746079Y-114280700D01*
X167756434Y-114308702D01*
X167763029Y-114348467D01*
X167766649Y-114403823D01*
X167768078Y-114478594D01*
X167768218Y-114523740D01*
X167768218Y-114717822D01*
X167893960Y-114717822D01*
X167893960Y-114101683D01*
X167831089Y-114101683D01*
X167793356Y-114103020D01*
G36*
X167001188Y-114717822D02*
X167070346Y-114717822D01*
X167110488Y-114716645D01*
X167131394Y-114711772D01*
X167138922Y-114701186D01*
X167139505Y-114694029D01*
X167140774Y-114679676D01*
X167148779Y-114676923D01*
X167169815Y-114685771D01*
X167186173Y-114694029D01*
X167248977Y-114713597D01*
X167317248Y-114714729D01*
X167372752Y-114700135D01*
X167424438Y-114664877D01*
X167463838Y-114612835D01*
X167485413Y-114551450D01*
X167485962Y-114548018D01*
X167489167Y-114510571D01*
X167490761Y-114456813D01*
X167490633Y-114416155D01*
X167353279Y-114416155D01*
X167350097Y-114470194D01*
X167342859Y-114514735D01*
X167333060Y-114539888D01*
X167295989Y-114574260D01*
X167251974Y-114586582D01*
X167206584Y-114576618D01*
X167167797Y-114546895D01*
X167153108Y-114526905D01*
X167144519Y-114503050D01*
X167140496Y-114468230D01*
X167139505Y-114415930D01*
X167141278Y-114364139D01*
X167145963Y-114318634D01*
X167152603Y-114288181D01*
X167153710Y-114285452D01*
X167180491Y-114253000D01*
X167219579Y-114235183D01*
X167263315Y-114232306D01*
X167304038Y-114244674D01*
X167334087Y-114272593D01*
X167337204Y-114278148D01*
X167346961Y-114312022D01*
X167352277Y-114360728D01*
X167353279Y-114416155D01*
X167490633Y-114416155D01*
X167490568Y-114395540D01*
X167489664Y-114362563D01*
X167483514Y-114280981D01*
X167470733Y-114219730D01*
X167449471Y-114174449D01*
X167417878Y-114140779D01*
X167387207Y-114121014D01*
X167344354Y-114107120D01*
X167291056Y-114102354D01*
X167236480Y-114106236D01*
X167189792Y-114118282D01*
X167165124Y-114132693D01*
X167139505Y-114155878D01*
X167139505Y-113862773D01*
X167001188Y-113862773D01*
X167001188Y-114717822D01*
X167001188Y-114717822D01*
G37*
X167001188Y-114717822D02*
X167070346Y-114717822D01*
X167110488Y-114716645D01*
X167131394Y-114711772D01*
X167138922Y-114701186D01*
X167139505Y-114694029D01*
X167140774Y-114679676D01*
X167148779Y-114676923D01*
X167169815Y-114685771D01*
X167186173Y-114694029D01*
X167248977Y-114713597D01*
X167317248Y-114714729D01*
X167372752Y-114700135D01*
X167424438Y-114664877D01*
X167463838Y-114612835D01*
X167485413Y-114551450D01*
X167485962Y-114548018D01*
X167489167Y-114510571D01*
X167490761Y-114456813D01*
X167490633Y-114416155D01*
X167353279Y-114416155D01*
X167350097Y-114470194D01*
X167342859Y-114514735D01*
X167333060Y-114539888D01*
X167295989Y-114574260D01*
X167251974Y-114586582D01*
X167206584Y-114576618D01*
X167167797Y-114546895D01*
X167153108Y-114526905D01*
X167144519Y-114503050D01*
X167140496Y-114468230D01*
X167139505Y-114415930D01*
X167141278Y-114364139D01*
X167145963Y-114318634D01*
X167152603Y-114288181D01*
X167153710Y-114285452D01*
X167180491Y-114253000D01*
X167219579Y-114235183D01*
X167263315Y-114232306D01*
X167304038Y-114244674D01*
X167334087Y-114272593D01*
X167337204Y-114278148D01*
X167346961Y-114312022D01*
X167352277Y-114360728D01*
X167353279Y-114416155D01*
X167490633Y-114416155D01*
X167490568Y-114395540D01*
X167489664Y-114362563D01*
X167483514Y-114280981D01*
X167470733Y-114219730D01*
X167449471Y-114174449D01*
X167417878Y-114140779D01*
X167387207Y-114121014D01*
X167344354Y-114107120D01*
X167291056Y-114102354D01*
X167236480Y-114106236D01*
X167189792Y-114118282D01*
X167165124Y-114132693D01*
X167139505Y-114155878D01*
X167139505Y-113862773D01*
X167001188Y-113862773D01*
X167001188Y-114717822D01*
G36*
X166518476Y-114104237D02*
X166468745Y-114107971D01*
X166338709Y-114497773D01*
X166318322Y-114428614D01*
X166306054Y-114385874D01*
X166289915Y-114328115D01*
X166272488Y-114264625D01*
X166263274Y-114230570D01*
X166228612Y-114101683D01*
X166085609Y-114101683D01*
X166128354Y-114236857D01*
X166149404Y-114303342D01*
X166174833Y-114383539D01*
X166201390Y-114467193D01*
X166225098Y-114541782D01*
X166279098Y-114711535D01*
X166337402Y-114715328D01*
X166395705Y-114719122D01*
X166427321Y-114614734D01*
X166446818Y-114549889D01*
X166468096Y-114478400D01*
X166486692Y-114415263D01*
X166487426Y-114412750D01*
X166501316Y-114369969D01*
X166513571Y-114340779D01*
X166522154Y-114329741D01*
X166523918Y-114331018D01*
X166530109Y-114348130D01*
X166541872Y-114384787D01*
X166557775Y-114436378D01*
X166576386Y-114498294D01*
X166586457Y-114532352D01*
X166640993Y-114717822D01*
X166756736Y-114717822D01*
X166849263Y-114425471D01*
X166875256Y-114343462D01*
X166898934Y-114268987D01*
X166919180Y-114205544D01*
X166934874Y-114156632D01*
X166944898Y-114125749D01*
X166947945Y-114116726D01*
X166945533Y-114107487D01*
X166926592Y-114103441D01*
X166887177Y-114103846D01*
X166881007Y-114104152D01*
X166807914Y-114107971D01*
X166760043Y-114284010D01*
X166742447Y-114348211D01*
X166726723Y-114404649D01*
X166714254Y-114448422D01*
X166706426Y-114474630D01*
X166704980Y-114478903D01*
X166698986Y-114473990D01*
X166686899Y-114448532D01*
X166670107Y-114405997D01*
X166649997Y-114349850D01*
X166632997Y-114299130D01*
X166568206Y-114100504D01*
X166518476Y-114104237D01*
X166518476Y-114104237D01*
G37*
X166518476Y-114104237D02*
X166468745Y-114107971D01*
X166338709Y-114497773D01*
X166318322Y-114428614D01*
X166306054Y-114385874D01*
X166289915Y-114328115D01*
X166272488Y-114264625D01*
X166263274Y-114230570D01*
X166228612Y-114101683D01*
X166085609Y-114101683D01*
X166128354Y-114236857D01*
X166149404Y-114303342D01*
X166174833Y-114383539D01*
X166201390Y-114467193D01*
X166225098Y-114541782D01*
X166279098Y-114711535D01*
X166337402Y-114715328D01*
X166395705Y-114719122D01*
X166427321Y-114614734D01*
X166446818Y-114549889D01*
X166468096Y-114478400D01*
X166486692Y-114415263D01*
X166487426Y-114412750D01*
X166501316Y-114369969D01*
X166513571Y-114340779D01*
X166522154Y-114329741D01*
X166523918Y-114331018D01*
X166530109Y-114348130D01*
X166541872Y-114384787D01*
X166557775Y-114436378D01*
X166576386Y-114498294D01*
X166586457Y-114532352D01*
X166640993Y-114717822D01*
X166756736Y-114717822D01*
X166849263Y-114425471D01*
X166875256Y-114343462D01*
X166898934Y-114268987D01*
X166919180Y-114205544D01*
X166934874Y-114156632D01*
X166944898Y-114125749D01*
X166947945Y-114116726D01*
X166945533Y-114107487D01*
X166926592Y-114103441D01*
X166887177Y-114103846D01*
X166881007Y-114104152D01*
X166807914Y-114107971D01*
X166760043Y-114284010D01*
X166742447Y-114348211D01*
X166726723Y-114404649D01*
X166714254Y-114448422D01*
X166706426Y-114474630D01*
X166704980Y-114478903D01*
X166698986Y-114473990D01*
X166686899Y-114448532D01*
X166670107Y-114405997D01*
X166649997Y-114349850D01*
X166632997Y-114299130D01*
X166568206Y-114100504D01*
X166518476Y-114104237D01*
G36*
X165761589Y-114105417D02*
X165708589Y-114118290D01*
X165693269Y-114125110D01*
X165663572Y-114142974D01*
X165640780Y-114163093D01*
X165623917Y-114188962D01*
X165612002Y-114224073D01*
X165604058Y-114271920D01*
X165599106Y-114335996D01*
X165596169Y-114419794D01*
X165595053Y-114475768D01*
X165590948Y-114717822D01*
X165661068Y-114717822D01*
X165703607Y-114716038D01*
X165725524Y-114709942D01*
X165731188Y-114699706D01*
X165734179Y-114688637D01*
X165747549Y-114690754D01*
X165765767Y-114699629D01*
X165811376Y-114713233D01*
X165869993Y-114716899D01*
X165931646Y-114710903D01*
X165986362Y-114695521D01*
X165991270Y-114693386D01*
X166041277Y-114658255D01*
X166074244Y-114609419D01*
X166089413Y-114552333D01*
X166088254Y-114531824D01*
X165964492Y-114531824D01*
X165953587Y-114559425D01*
X165921255Y-114579204D01*
X165869090Y-114589819D01*
X165841213Y-114591228D01*
X165794753Y-114587620D01*
X165763871Y-114573597D01*
X165756336Y-114566931D01*
X165735924Y-114530666D01*
X165731188Y-114497773D01*
X165731188Y-114453763D01*
X165792487Y-114453763D01*
X165863744Y-114457395D01*
X165913724Y-114468818D01*
X165945304Y-114488824D01*
X165952374Y-114497743D01*
X165964492Y-114531824D01*
X166088254Y-114531824D01*
X166086029Y-114492456D01*
X166063337Y-114435244D01*
X166032376Y-114396580D01*
X166013624Y-114379864D01*
X165995267Y-114368878D01*
X165971381Y-114362180D01*
X165936043Y-114358326D01*
X165883331Y-114355873D01*
X165862423Y-114355168D01*
X165731188Y-114350879D01*
X165731380Y-114311158D01*
X165736463Y-114269405D01*
X165754838Y-114244158D01*
X165791961Y-114228030D01*
X165792957Y-114227742D01*
X165845590Y-114221400D01*
X165897094Y-114229684D01*
X165935370Y-114249827D01*
X165950728Y-114259773D01*
X165967270Y-114258397D01*
X165992725Y-114243987D01*
X166007672Y-114233817D01*
X166036909Y-114212088D01*
X166055020Y-114195800D01*
X166057926Y-114191137D01*
X166045960Y-114167005D01*
X166010604Y-114138185D01*
X165995247Y-114128461D01*
X165951099Y-114111714D01*
X165891602Y-114102227D01*
X165825513Y-114100095D01*
X165761589Y-114105417D01*
X165761589Y-114105417D01*
G37*
X165761589Y-114105417D02*
X165708589Y-114118290D01*
X165693269Y-114125110D01*
X165663572Y-114142974D01*
X165640780Y-114163093D01*
X165623917Y-114188962D01*
X165612002Y-114224073D01*
X165604058Y-114271920D01*
X165599106Y-114335996D01*
X165596169Y-114419794D01*
X165595053Y-114475768D01*
X165590948Y-114717822D01*
X165661068Y-114717822D01*
X165703607Y-114716038D01*
X165725524Y-114709942D01*
X165731188Y-114699706D01*
X165734179Y-114688637D01*
X165747549Y-114690754D01*
X165765767Y-114699629D01*
X165811376Y-114713233D01*
X165869993Y-114716899D01*
X165931646Y-114710903D01*
X165986362Y-114695521D01*
X165991270Y-114693386D01*
X166041277Y-114658255D01*
X166074244Y-114609419D01*
X166089413Y-114552333D01*
X166088254Y-114531824D01*
X165964492Y-114531824D01*
X165953587Y-114559425D01*
X165921255Y-114579204D01*
X165869090Y-114589819D01*
X165841213Y-114591228D01*
X165794753Y-114587620D01*
X165763871Y-114573597D01*
X165756336Y-114566931D01*
X165735924Y-114530666D01*
X165731188Y-114497773D01*
X165731188Y-114453763D01*
X165792487Y-114453763D01*
X165863744Y-114457395D01*
X165913724Y-114468818D01*
X165945304Y-114488824D01*
X165952374Y-114497743D01*
X165964492Y-114531824D01*
X166088254Y-114531824D01*
X166086029Y-114492456D01*
X166063337Y-114435244D01*
X166032376Y-114396580D01*
X166013624Y-114379864D01*
X165995267Y-114368878D01*
X165971381Y-114362180D01*
X165936043Y-114358326D01*
X165883331Y-114355873D01*
X165862423Y-114355168D01*
X165731188Y-114350879D01*
X165731380Y-114311158D01*
X165736463Y-114269405D01*
X165754838Y-114244158D01*
X165791961Y-114228030D01*
X165792957Y-114227742D01*
X165845590Y-114221400D01*
X165897094Y-114229684D01*
X165935370Y-114249827D01*
X165950728Y-114259773D01*
X165967270Y-114258397D01*
X165992725Y-114243987D01*
X166007672Y-114233817D01*
X166036909Y-114212088D01*
X166055020Y-114195800D01*
X166057926Y-114191137D01*
X166045960Y-114167005D01*
X166010604Y-114138185D01*
X165995247Y-114128461D01*
X165951099Y-114111714D01*
X165891602Y-114102227D01*
X165825513Y-114100095D01*
X165761589Y-114105417D01*
G36*
X165164745Y-114101486D02*
X165116405Y-114111015D01*
X165088886Y-114125125D01*
X165059936Y-114148568D01*
X165101124Y-114200571D01*
X165126518Y-114232064D01*
X165143762Y-114247428D01*
X165160898Y-114249776D01*
X165185973Y-114242217D01*
X165197743Y-114237941D01*
X165245730Y-114231631D01*
X165289676Y-114245156D01*
X165321940Y-114275710D01*
X165327181Y-114285452D01*
X165332888Y-114311258D01*
X165337294Y-114358817D01*
X165340189Y-114424758D01*
X165341369Y-114505710D01*
X165341386Y-114517226D01*
X165341386Y-114717822D01*
X165479703Y-114717822D01*
X165479703Y-114101683D01*
X165410544Y-114101683D01*
X165370667Y-114102725D01*
X165349893Y-114107358D01*
X165342211Y-114117849D01*
X165341386Y-114127745D01*
X165341386Y-114153806D01*
X165308255Y-114127745D01*
X165270265Y-114109965D01*
X165219230Y-114101174D01*
X165164745Y-114101486D01*
X165164745Y-114101486D01*
G37*
X165164745Y-114101486D02*
X165116405Y-114111015D01*
X165088886Y-114125125D01*
X165059936Y-114148568D01*
X165101124Y-114200571D01*
X165126518Y-114232064D01*
X165143762Y-114247428D01*
X165160898Y-114249776D01*
X165185973Y-114242217D01*
X165197743Y-114237941D01*
X165245730Y-114231631D01*
X165289676Y-114245156D01*
X165321940Y-114275710D01*
X165327181Y-114285452D01*
X165332888Y-114311258D01*
X165337294Y-114358817D01*
X165340189Y-114424758D01*
X165341369Y-114505710D01*
X165341386Y-114517226D01*
X165341386Y-114717822D01*
X165479703Y-114717822D01*
X165479703Y-114101683D01*
X165410544Y-114101683D01*
X165370667Y-114102725D01*
X165349893Y-114107358D01*
X165342211Y-114117849D01*
X165341386Y-114127745D01*
X165341386Y-114153806D01*
X165308255Y-114127745D01*
X165270265Y-114109965D01*
X165219230Y-114101174D01*
X165164745Y-114101486D01*
G36*
X164767419Y-114104970D02*
X164707315Y-114120597D01*
X164656979Y-114152848D01*
X164632607Y-114176940D01*
X164592655Y-114233895D01*
X164569758Y-114299965D01*
X164561892Y-114381182D01*
X164561852Y-114387748D01*
X164561782Y-114453763D01*
X164941736Y-114453763D01*
X164933637Y-114488342D01*
X164919013Y-114519659D01*
X164893419Y-114552291D01*
X164888065Y-114557500D01*
X164842057Y-114585694D01*
X164789590Y-114590475D01*
X164729197Y-114571926D01*
X164718960Y-114566931D01*
X164687561Y-114551745D01*
X164666530Y-114543094D01*
X164662861Y-114542293D01*
X164650052Y-114550063D01*
X164625622Y-114569072D01*
X164613221Y-114579460D01*
X164587524Y-114603321D01*
X164579085Y-114619077D01*
X164584942Y-114633571D01*
X164588072Y-114637534D01*
X164609275Y-114654879D01*
X164644262Y-114675959D01*
X164668663Y-114688265D01*
X164737928Y-114709946D01*
X164814612Y-114716971D01*
X164887235Y-114708647D01*
X164907574Y-114702686D01*
X164970524Y-114668952D01*
X165017185Y-114617045D01*
X165047827Y-114546459D01*
X165062718Y-114456692D01*
X165064353Y-114409753D01*
X165059579Y-114341413D01*
X164939010Y-114341413D01*
X164927348Y-114346465D01*
X164896002Y-114350429D01*
X164850429Y-114352768D01*
X164819554Y-114353169D01*
X164764019Y-114352783D01*
X164728967Y-114350975D01*
X164709738Y-114346773D01*
X164701670Y-114339203D01*
X164700099Y-114328218D01*
X164710879Y-114294381D01*
X164738020Y-114260940D01*
X164773723Y-114235272D01*
X164809440Y-114224772D01*
X164857952Y-114234086D01*
X164899947Y-114261013D01*
X164929064Y-114299827D01*
X164939010Y-114341413D01*
X165059579Y-114341413D01*
X165057401Y-114310236D01*
X165035945Y-114230949D01*
X164999530Y-114171263D01*
X164947703Y-114130549D01*
X164880010Y-114108179D01*
X164843338Y-114103871D01*
X164767419Y-114104970D01*
X164767419Y-114104970D01*
G37*
X164767419Y-114104970D02*
X164707315Y-114120597D01*
X164656979Y-114152848D01*
X164632607Y-114176940D01*
X164592655Y-114233895D01*
X164569758Y-114299965D01*
X164561892Y-114381182D01*
X164561852Y-114387748D01*
X164561782Y-114453763D01*
X164941736Y-114453763D01*
X164933637Y-114488342D01*
X164919013Y-114519659D01*
X164893419Y-114552291D01*
X164888065Y-114557500D01*
X164842057Y-114585694D01*
X164789590Y-114590475D01*
X164729197Y-114571926D01*
X164718960Y-114566931D01*
X164687561Y-114551745D01*
X164666530Y-114543094D01*
X164662861Y-114542293D01*
X164650052Y-114550063D01*
X164625622Y-114569072D01*
X164613221Y-114579460D01*
X164587524Y-114603321D01*
X164579085Y-114619077D01*
X164584942Y-114633571D01*
X164588072Y-114637534D01*
X164609275Y-114654879D01*
X164644262Y-114675959D01*
X164668663Y-114688265D01*
X164737928Y-114709946D01*
X164814612Y-114716971D01*
X164887235Y-114708647D01*
X164907574Y-114702686D01*
X164970524Y-114668952D01*
X165017185Y-114617045D01*
X165047827Y-114546459D01*
X165062718Y-114456692D01*
X165064353Y-114409753D01*
X165059579Y-114341413D01*
X164939010Y-114341413D01*
X164927348Y-114346465D01*
X164896002Y-114350429D01*
X164850429Y-114352768D01*
X164819554Y-114353169D01*
X164764019Y-114352783D01*
X164728967Y-114350975D01*
X164709738Y-114346773D01*
X164701670Y-114339203D01*
X164700099Y-114328218D01*
X164710879Y-114294381D01*
X164738020Y-114260940D01*
X164773723Y-114235272D01*
X164809440Y-114224772D01*
X164857952Y-114234086D01*
X164899947Y-114261013D01*
X164929064Y-114299827D01*
X164939010Y-114341413D01*
X165059579Y-114341413D01*
X165057401Y-114310236D01*
X165035945Y-114230949D01*
X164999530Y-114171263D01*
X164947703Y-114130549D01*
X164880010Y-114108179D01*
X164843338Y-114103871D01*
X164767419Y-114104970D01*
G36*
X169338261Y-113165148D02*
X169272479Y-113194231D01*
X169222540Y-113242793D01*
X169188374Y-113310908D01*
X169169907Y-113398651D01*
X169168583Y-113412351D01*
X169167546Y-113508939D01*
X169180993Y-113593602D01*
X169208108Y-113662221D01*
X169222627Y-113684294D01*
X169273201Y-113731011D01*
X169337609Y-113761268D01*
X169409666Y-113773824D01*
X169483185Y-113767439D01*
X169539072Y-113747772D01*
X169587132Y-113714629D01*
X169626412Y-113671175D01*
X169627092Y-113670158D01*
X169643044Y-113643338D01*
X169653410Y-113616368D01*
X169659688Y-113582332D01*
X169663373Y-113534310D01*
X169664997Y-113494931D01*
X169665672Y-113459219D01*
X169539955Y-113459219D01*
X169538726Y-113494770D01*
X169534266Y-113542094D01*
X169526397Y-113572465D01*
X169512207Y-113594072D01*
X169498917Y-113606694D01*
X169451802Y-113633122D01*
X169402505Y-113636653D01*
X169356593Y-113617639D01*
X169333638Y-113596331D01*
X169317096Y-113574859D01*
X169307421Y-113554313D01*
X169303174Y-113527574D01*
X169302920Y-113487523D01*
X169304228Y-113450638D01*
X169307043Y-113397947D01*
X169311505Y-113363772D01*
X169319548Y-113341480D01*
X169333103Y-113324442D01*
X169343845Y-113314703D01*
X169388777Y-113289123D01*
X169437249Y-113287847D01*
X169477894Y-113302999D01*
X169512567Y-113334642D01*
X169533224Y-113386620D01*
X169539955Y-113459219D01*
X169665672Y-113459219D01*
X169666479Y-113416621D01*
X169663948Y-113358056D01*
X169656362Y-113314007D01*
X169642681Y-113279248D01*
X169621865Y-113248551D01*
X169614147Y-113239436D01*
X169565889Y-113194021D01*
X169514128Y-113167493D01*
X169450828Y-113156379D01*
X169419961Y-113155471D01*
X169338261Y-113165148D01*
X169338261Y-113165148D01*
G37*
X169338261Y-113165148D02*
X169272479Y-113194231D01*
X169222540Y-113242793D01*
X169188374Y-113310908D01*
X169169907Y-113398651D01*
X169168583Y-113412351D01*
X169167546Y-113508939D01*
X169180993Y-113593602D01*
X169208108Y-113662221D01*
X169222627Y-113684294D01*
X169273201Y-113731011D01*
X169337609Y-113761268D01*
X169409666Y-113773824D01*
X169483185Y-113767439D01*
X169539072Y-113747772D01*
X169587132Y-113714629D01*
X169626412Y-113671175D01*
X169627092Y-113670158D01*
X169643044Y-113643338D01*
X169653410Y-113616368D01*
X169659688Y-113582332D01*
X169663373Y-113534310D01*
X169664997Y-113494931D01*
X169665672Y-113459219D01*
X169539955Y-113459219D01*
X169538726Y-113494770D01*
X169534266Y-113542094D01*
X169526397Y-113572465D01*
X169512207Y-113594072D01*
X169498917Y-113606694D01*
X169451802Y-113633122D01*
X169402505Y-113636653D01*
X169356593Y-113617639D01*
X169333638Y-113596331D01*
X169317096Y-113574859D01*
X169307421Y-113554313D01*
X169303174Y-113527574D01*
X169302920Y-113487523D01*
X169304228Y-113450638D01*
X169307043Y-113397947D01*
X169311505Y-113363772D01*
X169319548Y-113341480D01*
X169333103Y-113324442D01*
X169343845Y-113314703D01*
X169388777Y-113289123D01*
X169437249Y-113287847D01*
X169477894Y-113302999D01*
X169512567Y-113334642D01*
X169533224Y-113386620D01*
X169539955Y-113459219D01*
X169665672Y-113459219D01*
X169666479Y-113416621D01*
X169663948Y-113358056D01*
X169656362Y-113314007D01*
X169642681Y-113279248D01*
X169621865Y-113248551D01*
X169614147Y-113239436D01*
X169565889Y-113194021D01*
X169514128Y-113167493D01*
X169450828Y-113156379D01*
X169419961Y-113155471D01*
X169338261Y-113165148D01*
G36*
X168156699Y-113172614D02*
X168144168Y-113178514D01*
X168100799Y-113210283D01*
X168059790Y-113256646D01*
X168029168Y-113307696D01*
X168020459Y-113331166D01*
X168012512Y-113373091D01*
X168007774Y-113423757D01*
X168007199Y-113444679D01*
X168007129Y-113510693D01*
X168387083Y-113510693D01*
X168378983Y-113545273D01*
X168359104Y-113586170D01*
X168324347Y-113621514D01*
X168282998Y-113644282D01*
X168256649Y-113649010D01*
X168220916Y-113643273D01*
X168178282Y-113628882D01*
X168163799Y-113622262D01*
X168110240Y-113595513D01*
X168064533Y-113630376D01*
X168038158Y-113653955D01*
X168024124Y-113673417D01*
X168023414Y-113679129D01*
X168035951Y-113692973D01*
X168063428Y-113714012D01*
X168088366Y-113730425D01*
X168155664Y-113759930D01*
X168231110Y-113773284D01*
X168305888Y-113769812D01*
X168365495Y-113751663D01*
X168426941Y-113712784D01*
X168470608Y-113661595D01*
X168497926Y-113595367D01*
X168510322Y-113511371D01*
X168511421Y-113472936D01*
X168507022Y-113384861D01*
X168506482Y-113382299D01*
X168380582Y-113382299D01*
X168377115Y-113390558D01*
X168362863Y-113395113D01*
X168333470Y-113397065D01*
X168284575Y-113397517D01*
X168265748Y-113397525D01*
X168208467Y-113396843D01*
X168172141Y-113394364D01*
X168152604Y-113389443D01*
X168145690Y-113381434D01*
X168145445Y-113378862D01*
X168153336Y-113358423D01*
X168173085Y-113329789D01*
X168181575Y-113319763D01*
X168213094Y-113291408D01*
X168245949Y-113280259D01*
X168263651Y-113279327D01*
X168311539Y-113290981D01*
X168351699Y-113322285D01*
X168377173Y-113367752D01*
X168377625Y-113369233D01*
X168380582Y-113382299D01*
X168506482Y-113382299D01*
X168492392Y-113315510D01*
X168466038Y-113260025D01*
X168433807Y-113220639D01*
X168374217Y-113177931D01*
X168304168Y-113155109D01*
X168229661Y-113153046D01*
X168156699Y-113172614D01*
X168156699Y-113172614D01*
G37*
X168156699Y-113172614D02*
X168144168Y-113178514D01*
X168100799Y-113210283D01*
X168059790Y-113256646D01*
X168029168Y-113307696D01*
X168020459Y-113331166D01*
X168012512Y-113373091D01*
X168007774Y-113423757D01*
X168007199Y-113444679D01*
X168007129Y-113510693D01*
X168387083Y-113510693D01*
X168378983Y-113545273D01*
X168359104Y-113586170D01*
X168324347Y-113621514D01*
X168282998Y-113644282D01*
X168256649Y-113649010D01*
X168220916Y-113643273D01*
X168178282Y-113628882D01*
X168163799Y-113622262D01*
X168110240Y-113595513D01*
X168064533Y-113630376D01*
X168038158Y-113653955D01*
X168024124Y-113673417D01*
X168023414Y-113679129D01*
X168035951Y-113692973D01*
X168063428Y-113714012D01*
X168088366Y-113730425D01*
X168155664Y-113759930D01*
X168231110Y-113773284D01*
X168305888Y-113769812D01*
X168365495Y-113751663D01*
X168426941Y-113712784D01*
X168470608Y-113661595D01*
X168497926Y-113595367D01*
X168510322Y-113511371D01*
X168511421Y-113472936D01*
X168507022Y-113384861D01*
X168506482Y-113382299D01*
X168380582Y-113382299D01*
X168377115Y-113390558D01*
X168362863Y-113395113D01*
X168333470Y-113397065D01*
X168284575Y-113397517D01*
X168265748Y-113397525D01*
X168208467Y-113396843D01*
X168172141Y-113394364D01*
X168152604Y-113389443D01*
X168145690Y-113381434D01*
X168145445Y-113378862D01*
X168153336Y-113358423D01*
X168173085Y-113329789D01*
X168181575Y-113319763D01*
X168213094Y-113291408D01*
X168245949Y-113280259D01*
X168263651Y-113279327D01*
X168311539Y-113290981D01*
X168351699Y-113322285D01*
X168377173Y-113367752D01*
X168377625Y-113369233D01*
X168380582Y-113382299D01*
X168506482Y-113382299D01*
X168492392Y-113315510D01*
X168466038Y-113260025D01*
X168433807Y-113220639D01*
X168374217Y-113177931D01*
X168304168Y-113155109D01*
X168229661Y-113153046D01*
X168156699Y-113172614D01*
G36*
X166785983Y-113156452D02*
X166738366Y-113165482D01*
X166688966Y-113184370D01*
X166683688Y-113186777D01*
X166646226Y-113206476D01*
X166620283Y-113224781D01*
X166611897Y-113236508D01*
X166619883Y-113255632D01*
X166639280Y-113283850D01*
X166647890Y-113294384D01*
X166683372Y-113335847D01*
X166729115Y-113308858D01*
X166772650Y-113290878D01*
X166822950Y-113281267D01*
X166871188Y-113280660D01*
X166908533Y-113289691D01*
X166917495Y-113295327D01*
X166934563Y-113321171D01*
X166936637Y-113350941D01*
X166923866Y-113374197D01*
X166916312Y-113378708D01*
X166893675Y-113384309D01*
X166853885Y-113390892D01*
X166804834Y-113397183D01*
X166795785Y-113398170D01*
X166717004Y-113411798D01*
X166659864Y-113434946D01*
X166621970Y-113469752D01*
X166600921Y-113518354D01*
X166594365Y-113577718D01*
X166603423Y-113645198D01*
X166632836Y-113698188D01*
X166682722Y-113736783D01*
X166753200Y-113761081D01*
X166831435Y-113770667D01*
X166895234Y-113770552D01*
X166946984Y-113761845D01*
X166982327Y-113749825D01*
X167026983Y-113728880D01*
X167068253Y-113704574D01*
X167082921Y-113693876D01*
X167120643Y-113663084D01*
X167075148Y-113617049D01*
X167029653Y-113571013D01*
X166977928Y-113605243D01*
X166926048Y-113630952D01*
X166870649Y-113644399D01*
X166817395Y-113645818D01*
X166771951Y-113635443D01*
X166739984Y-113613507D01*
X166729662Y-113594998D01*
X166731211Y-113565314D01*
X166756860Y-113542615D01*
X166806540Y-113526940D01*
X166860969Y-113519695D01*
X166944736Y-113505873D01*
X167006967Y-113479796D01*
X167048493Y-113440699D01*
X167070147Y-113387820D01*
X167073147Y-113325126D01*
X167058329Y-113259642D01*
X167024546Y-113210144D01*
X166971495Y-113176408D01*
X166898874Y-113158207D01*
X166845072Y-113154639D01*
X166785983Y-113156452D01*
X166785983Y-113156452D01*
G37*
X166785983Y-113156452D02*
X166738366Y-113165482D01*
X166688966Y-113184370D01*
X166683688Y-113186777D01*
X166646226Y-113206476D01*
X166620283Y-113224781D01*
X166611897Y-113236508D01*
X166619883Y-113255632D01*
X166639280Y-113283850D01*
X166647890Y-113294384D01*
X166683372Y-113335847D01*
X166729115Y-113308858D01*
X166772650Y-113290878D01*
X166822950Y-113281267D01*
X166871188Y-113280660D01*
X166908533Y-113289691D01*
X166917495Y-113295327D01*
X166934563Y-113321171D01*
X166936637Y-113350941D01*
X166923866Y-113374197D01*
X166916312Y-113378708D01*
X166893675Y-113384309D01*
X166853885Y-113390892D01*
X166804834Y-113397183D01*
X166795785Y-113398170D01*
X166717004Y-113411798D01*
X166659864Y-113434946D01*
X166621970Y-113469752D01*
X166600921Y-113518354D01*
X166594365Y-113577718D01*
X166603423Y-113645198D01*
X166632836Y-113698188D01*
X166682722Y-113736783D01*
X166753200Y-113761081D01*
X166831435Y-113770667D01*
X166895234Y-113770552D01*
X166946984Y-113761845D01*
X166982327Y-113749825D01*
X167026983Y-113728880D01*
X167068253Y-113704574D01*
X167082921Y-113693876D01*
X167120643Y-113663084D01*
X167075148Y-113617049D01*
X167029653Y-113571013D01*
X166977928Y-113605243D01*
X166926048Y-113630952D01*
X166870649Y-113644399D01*
X166817395Y-113645818D01*
X166771951Y-113635443D01*
X166739984Y-113613507D01*
X166729662Y-113594998D01*
X166731211Y-113565314D01*
X166756860Y-113542615D01*
X166806540Y-113526940D01*
X166860969Y-113519695D01*
X166944736Y-113505873D01*
X167006967Y-113479796D01*
X167048493Y-113440699D01*
X167070147Y-113387820D01*
X167073147Y-113325126D01*
X167058329Y-113259642D01*
X167024546Y-113210144D01*
X166971495Y-113176408D01*
X166898874Y-113158207D01*
X166845072Y-113154639D01*
X166785983Y-113156452D01*
G36*
X166189238Y-113166055D02*
X166125637Y-113200692D01*
X166075877Y-113255372D01*
X166052432Y-113299842D01*
X166042366Y-113339121D01*
X166035844Y-113395116D01*
X166033049Y-113459621D01*
X166034164Y-113524429D01*
X166039374Y-113581334D01*
X166045459Y-113611727D01*
X166065986Y-113653306D01*
X166101537Y-113697468D01*
X166144381Y-113736087D01*
X166186789Y-113761034D01*
X166187823Y-113761430D01*
X166240447Y-113772331D01*
X166302812Y-113772601D01*
X166362076Y-113762676D01*
X166384960Y-113754722D01*
X166443898Y-113721300D01*
X166486110Y-113677511D01*
X166513844Y-113619538D01*
X166529349Y-113543565D01*
X166532857Y-113503771D01*
X166532410Y-113453766D01*
X166397624Y-113453766D01*
X166393083Y-113526732D01*
X166380014Y-113582334D01*
X166359244Y-113617861D01*
X166344448Y-113628020D01*
X166306536Y-113635104D01*
X166261473Y-113633007D01*
X166222513Y-113622812D01*
X166212296Y-113617204D01*
X166185341Y-113584538D01*
X166167549Y-113534545D01*
X166159976Y-113473705D01*
X166163675Y-113408497D01*
X166171943Y-113369253D01*
X166195680Y-113323805D01*
X166233151Y-113295396D01*
X166278280Y-113285573D01*
X166324989Y-113295887D01*
X166360868Y-113321112D01*
X166379723Y-113341925D01*
X166390728Y-113362439D01*
X166395974Y-113390203D01*
X166397551Y-113432762D01*
X166397624Y-113453766D01*
X166532410Y-113453766D01*
X166531906Y-113397580D01*
X166514612Y-113310501D01*
X166480971Y-113242530D01*
X166430982Y-113193664D01*
X166364644Y-113163899D01*
X166350399Y-113160448D01*
X166264790Y-113152345D01*
X166189238Y-113166055D01*
X166189238Y-113166055D01*
G37*
X166189238Y-113166055D02*
X166125637Y-113200692D01*
X166075877Y-113255372D01*
X166052432Y-113299842D01*
X166042366Y-113339121D01*
X166035844Y-113395116D01*
X166033049Y-113459621D01*
X166034164Y-113524429D01*
X166039374Y-113581334D01*
X166045459Y-113611727D01*
X166065986Y-113653306D01*
X166101537Y-113697468D01*
X166144381Y-113736087D01*
X166186789Y-113761034D01*
X166187823Y-113761430D01*
X166240447Y-113772331D01*
X166302812Y-113772601D01*
X166362076Y-113762676D01*
X166384960Y-113754722D01*
X166443898Y-113721300D01*
X166486110Y-113677511D01*
X166513844Y-113619538D01*
X166529349Y-113543565D01*
X166532857Y-113503771D01*
X166532410Y-113453766D01*
X166397624Y-113453766D01*
X166393083Y-113526732D01*
X166380014Y-113582334D01*
X166359244Y-113617861D01*
X166344448Y-113628020D01*
X166306536Y-113635104D01*
X166261473Y-113633007D01*
X166222513Y-113622812D01*
X166212296Y-113617204D01*
X166185341Y-113584538D01*
X166167549Y-113534545D01*
X166159976Y-113473705D01*
X166163675Y-113408497D01*
X166171943Y-113369253D01*
X166195680Y-113323805D01*
X166233151Y-113295396D01*
X166278280Y-113285573D01*
X166324989Y-113295887D01*
X166360868Y-113321112D01*
X166379723Y-113341925D01*
X166390728Y-113362439D01*
X166395974Y-113390203D01*
X166397551Y-113432762D01*
X166397624Y-113453766D01*
X166532410Y-113453766D01*
X166531906Y-113397580D01*
X166514612Y-113310501D01*
X166480971Y-113242530D01*
X166430982Y-113193664D01*
X166364644Y-113163899D01*
X166350399Y-113160448D01*
X166264790Y-113152345D01*
X166189238Y-113166055D01*
G36*
X165806633Y-113354342D02*
X165805445Y-113446563D01*
X165801103Y-113516610D01*
X165792442Y-113567381D01*
X165778296Y-113601772D01*
X165757500Y-113622679D01*
X165728890Y-113633000D01*
X165693465Y-113635636D01*
X165656364Y-113632682D01*
X165628182Y-113621889D01*
X165607757Y-113600360D01*
X165593921Y-113565199D01*
X165585509Y-113513510D01*
X165581357Y-113442394D01*
X165580297Y-113354342D01*
X165580297Y-113158614D01*
X165441980Y-113158614D01*
X165441980Y-113762179D01*
X165511138Y-113762179D01*
X165552830Y-113760489D01*
X165574299Y-113754556D01*
X165580297Y-113743293D01*
X165583909Y-113733261D01*
X165598286Y-113735383D01*
X165627264Y-113749580D01*
X165693681Y-113771480D01*
X165764125Y-113769928D01*
X165831623Y-113746147D01*
X165863767Y-113727362D01*
X165888285Y-113707022D01*
X165906196Y-113681573D01*
X165918521Y-113647458D01*
X165926277Y-113601121D01*
X165930484Y-113539007D01*
X165932160Y-113457561D01*
X165932376Y-113394578D01*
X165932376Y-113158614D01*
X165806633Y-113158614D01*
X165806633Y-113354342D01*
X165806633Y-113354342D01*
G37*
X165806633Y-113354342D02*
X165805445Y-113446563D01*
X165801103Y-113516610D01*
X165792442Y-113567381D01*
X165778296Y-113601772D01*
X165757500Y-113622679D01*
X165728890Y-113633000D01*
X165693465Y-113635636D01*
X165656364Y-113632682D01*
X165628182Y-113621889D01*
X165607757Y-113600360D01*
X165593921Y-113565199D01*
X165585509Y-113513510D01*
X165581357Y-113442394D01*
X165580297Y-113354342D01*
X165580297Y-113158614D01*
X165441980Y-113158614D01*
X165441980Y-113762179D01*
X165511138Y-113762179D01*
X165552830Y-113760489D01*
X165574299Y-113754556D01*
X165580297Y-113743293D01*
X165583909Y-113733261D01*
X165598286Y-113735383D01*
X165627264Y-113749580D01*
X165693681Y-113771480D01*
X165764125Y-113769928D01*
X165831623Y-113746147D01*
X165863767Y-113727362D01*
X165888285Y-113707022D01*
X165906196Y-113681573D01*
X165918521Y-113647458D01*
X165926277Y-113601121D01*
X165930484Y-113539007D01*
X165932160Y-113457561D01*
X165932376Y-113394578D01*
X165932376Y-113158614D01*
X165806633Y-113158614D01*
X165806633Y-113354342D01*
G36*
X164582774Y-113163880D02*
X164509920Y-113194830D01*
X164486973Y-113209895D01*
X164457646Y-113233048D01*
X164439236Y-113251253D01*
X164436039Y-113257183D01*
X164445065Y-113270340D01*
X164468163Y-113292667D01*
X164486656Y-113308250D01*
X164537272Y-113348926D01*
X164577240Y-113315295D01*
X164608126Y-113293584D01*
X164638241Y-113286090D01*
X164672708Y-113287920D01*
X164727439Y-113301528D01*
X164765114Y-113329772D01*
X164788009Y-113375433D01*
X164798403Y-113441289D01*
X164798405Y-113441331D01*
X164797506Y-113514939D01*
X164783537Y-113568946D01*
X164755672Y-113605716D01*
X164736675Y-113618168D01*
X164686224Y-113633673D01*
X164632337Y-113633683D01*
X164585454Y-113618638D01*
X164574356Y-113611287D01*
X164546524Y-113592511D01*
X164524764Y-113589434D01*
X164501296Y-113603409D01*
X164475351Y-113628510D01*
X164434284Y-113670880D01*
X164479879Y-113708464D01*
X164550326Y-113750882D01*
X164629767Y-113771785D01*
X164712785Y-113770272D01*
X164767306Y-113756411D01*
X164831030Y-113722135D01*
X164881995Y-113668212D01*
X164905149Y-113630149D01*
X164923901Y-113575536D01*
X164933285Y-113506369D01*
X164933357Y-113431407D01*
X164924176Y-113359409D01*
X164905801Y-113299137D01*
X164902907Y-113292958D01*
X164860048Y-113232351D01*
X164802021Y-113188224D01*
X164733409Y-113161493D01*
X164658799Y-113153073D01*
X164582774Y-113163880D01*
X164582774Y-113163880D01*
G37*
X164582774Y-113163880D02*
X164509920Y-113194830D01*
X164486973Y-113209895D01*
X164457646Y-113233048D01*
X164439236Y-113251253D01*
X164436039Y-113257183D01*
X164445065Y-113270340D01*
X164468163Y-113292667D01*
X164486656Y-113308250D01*
X164537272Y-113348926D01*
X164577240Y-113315295D01*
X164608126Y-113293584D01*
X164638241Y-113286090D01*
X164672708Y-113287920D01*
X164727439Y-113301528D01*
X164765114Y-113329772D01*
X164788009Y-113375433D01*
X164798403Y-113441289D01*
X164798405Y-113441331D01*
X164797506Y-113514939D01*
X164783537Y-113568946D01*
X164755672Y-113605716D01*
X164736675Y-113618168D01*
X164686224Y-113633673D01*
X164632337Y-113633683D01*
X164585454Y-113618638D01*
X164574356Y-113611287D01*
X164546524Y-113592511D01*
X164524764Y-113589434D01*
X164501296Y-113603409D01*
X164475351Y-113628510D01*
X164434284Y-113670880D01*
X164479879Y-113708464D01*
X164550326Y-113750882D01*
X164629767Y-113771785D01*
X164712785Y-113770272D01*
X164767306Y-113756411D01*
X164831030Y-113722135D01*
X164881995Y-113668212D01*
X164905149Y-113630149D01*
X164923901Y-113575536D01*
X164933285Y-113506369D01*
X164933357Y-113431407D01*
X164924176Y-113359409D01*
X164905801Y-113299137D01*
X164902907Y-113292958D01*
X164860048Y-113232351D01*
X164802021Y-113188224D01*
X164733409Y-113161493D01*
X164658799Y-113153073D01*
X164582774Y-113163880D01*
G36*
X164122102Y-113156457D02*
X164089904Y-113164279D01*
X164028175Y-113192921D01*
X163975390Y-113236667D01*
X163938859Y-113289117D01*
X163933840Y-113300893D01*
X163926955Y-113331740D01*
X163922136Y-113377371D01*
X163920495Y-113423492D01*
X163920495Y-113510693D01*
X164102822Y-113510693D01*
X164178021Y-113510978D01*
X164230997Y-113512704D01*
X164264675Y-113517181D01*
X164281980Y-113525720D01*
X164285837Y-113539630D01*
X164279171Y-113560222D01*
X164267230Y-113584315D01*
X164233920Y-113624525D01*
X164187632Y-113644558D01*
X164131056Y-113643905D01*
X164066969Y-113622101D01*
X164011583Y-113595193D01*
X163965625Y-113631532D01*
X163919667Y-113667872D01*
X163962904Y-113707819D01*
X164020626Y-113745563D01*
X164091614Y-113768320D01*
X164167971Y-113774688D01*
X164241801Y-113763268D01*
X164253713Y-113759393D01*
X164318601Y-113725506D01*
X164366870Y-113674986D01*
X164399535Y-113606325D01*
X164417615Y-113518014D01*
X164417825Y-113516121D01*
X164419444Y-113419878D01*
X164412900Y-113385542D01*
X164285148Y-113385542D01*
X164273416Y-113390822D01*
X164241562Y-113394867D01*
X164194603Y-113397176D01*
X164164846Y-113397525D01*
X164109352Y-113397306D01*
X164074654Y-113395916D01*
X164056399Y-113392251D01*
X164050234Y-113385210D01*
X164051805Y-113373690D01*
X164053122Y-113369233D01*
X164075618Y-113327355D01*
X164110997Y-113293604D01*
X164142220Y-113278773D01*
X164183699Y-113279668D01*
X164225731Y-113298164D01*
X164260988Y-113328786D01*
X164282146Y-113366062D01*
X164285148Y-113385542D01*
X164412900Y-113385542D01*
X164403310Y-113335229D01*
X164371302Y-113264191D01*
X164325299Y-113208779D01*
X164267179Y-113171009D01*
X164198820Y-113152896D01*
X164122102Y-113156457D01*
X164122102Y-113156457D01*
G37*
X164122102Y-113156457D02*
X164089904Y-113164279D01*
X164028175Y-113192921D01*
X163975390Y-113236667D01*
X163938859Y-113289117D01*
X163933840Y-113300893D01*
X163926955Y-113331740D01*
X163922136Y-113377371D01*
X163920495Y-113423492D01*
X163920495Y-113510693D01*
X164102822Y-113510693D01*
X164178021Y-113510978D01*
X164230997Y-113512704D01*
X164264675Y-113517181D01*
X164281980Y-113525720D01*
X164285837Y-113539630D01*
X164279171Y-113560222D01*
X164267230Y-113584315D01*
X164233920Y-113624525D01*
X164187632Y-113644558D01*
X164131056Y-113643905D01*
X164066969Y-113622101D01*
X164011583Y-113595193D01*
X163965625Y-113631532D01*
X163919667Y-113667872D01*
X163962904Y-113707819D01*
X164020626Y-113745563D01*
X164091614Y-113768320D01*
X164167971Y-113774688D01*
X164241801Y-113763268D01*
X164253713Y-113759393D01*
X164318601Y-113725506D01*
X164366870Y-113674986D01*
X164399535Y-113606325D01*
X164417615Y-113518014D01*
X164417825Y-113516121D01*
X164419444Y-113419878D01*
X164412900Y-113385542D01*
X164285148Y-113385542D01*
X164273416Y-113390822D01*
X164241562Y-113394867D01*
X164194603Y-113397176D01*
X164164846Y-113397525D01*
X164109352Y-113397306D01*
X164074654Y-113395916D01*
X164056399Y-113392251D01*
X164050234Y-113385210D01*
X164051805Y-113373690D01*
X164053122Y-113369233D01*
X164075618Y-113327355D01*
X164110997Y-113293604D01*
X164142220Y-113278773D01*
X164183699Y-113279668D01*
X164225731Y-113298164D01*
X164260988Y-113328786D01*
X164282146Y-113366062D01*
X164285148Y-113385542D01*
X164412900Y-113385542D01*
X164403310Y-113335229D01*
X164371302Y-113264191D01*
X164325299Y-113208779D01*
X164267179Y-113171009D01*
X164198820Y-113152896D01*
X164122102Y-113156457D01*
G36*
X167554012Y-113169002D02*
X167522717Y-113183950D01*
X167492409Y-113205541D01*
X167469318Y-113230391D01*
X167452500Y-113262087D01*
X167441006Y-113304214D01*
X167433891Y-113360358D01*
X167430207Y-113434106D01*
X167429008Y-113529044D01*
X167428989Y-113538985D01*
X167428713Y-113762179D01*
X167567030Y-113762179D01*
X167567030Y-113556418D01*
X167567128Y-113480189D01*
X167567809Y-113424939D01*
X167569651Y-113386501D01*
X167573233Y-113360706D01*
X167579132Y-113343384D01*
X167587927Y-113330368D01*
X167600180Y-113317507D01*
X167643047Y-113289873D01*
X167689843Y-113284745D01*
X167734424Y-113302217D01*
X167749928Y-113315221D01*
X167761310Y-113327447D01*
X167769481Y-113340540D01*
X167774974Y-113358615D01*
X167778320Y-113385787D01*
X167780051Y-113426170D01*
X167780697Y-113483879D01*
X167780792Y-113554132D01*
X167780792Y-113762179D01*
X167919109Y-113762179D01*
X167919109Y-113158614D01*
X167849950Y-113158614D01*
X167808428Y-113160256D01*
X167787006Y-113166087D01*
X167780795Y-113177461D01*
X167780792Y-113177798D01*
X167777910Y-113188938D01*
X167765199Y-113187674D01*
X167739926Y-113175434D01*
X167682605Y-113157424D01*
X167617037Y-113155421D01*
X167554012Y-113169002D01*
X167554012Y-113169002D01*
G37*
X167554012Y-113169002D02*
X167522717Y-113183950D01*
X167492409Y-113205541D01*
X167469318Y-113230391D01*
X167452500Y-113262087D01*
X167441006Y-113304214D01*
X167433891Y-113360358D01*
X167430207Y-113434106D01*
X167429008Y-113529044D01*
X167428989Y-113538985D01*
X167428713Y-113762179D01*
X167567030Y-113762179D01*
X167567030Y-113556418D01*
X167567128Y-113480189D01*
X167567809Y-113424939D01*
X167569651Y-113386501D01*
X167573233Y-113360706D01*
X167579132Y-113343384D01*
X167587927Y-113330368D01*
X167600180Y-113317507D01*
X167643047Y-113289873D01*
X167689843Y-113284745D01*
X167734424Y-113302217D01*
X167749928Y-113315221D01*
X167761310Y-113327447D01*
X167769481Y-113340540D01*
X167774974Y-113358615D01*
X167778320Y-113385787D01*
X167780051Y-113426170D01*
X167780697Y-113483879D01*
X167780792Y-113554132D01*
X167780792Y-113762179D01*
X167919109Y-113762179D01*
X167919109Y-113158614D01*
X167849950Y-113158614D01*
X167808428Y-113160256D01*
X167787006Y-113166087D01*
X167780795Y-113177461D01*
X167780792Y-113177798D01*
X167777910Y-113188938D01*
X167765199Y-113187674D01*
X167739926Y-113175434D01*
X167682605Y-113157424D01*
X167617037Y-113155421D01*
X167554012Y-113169002D01*
G36*
X165000540Y-113158030D02*
X164957289Y-113171245D01*
X164929442Y-113187941D01*
X164920371Y-113201145D01*
X164922868Y-113216797D01*
X164939069Y-113241385D01*
X164952768Y-113258800D01*
X164981008Y-113290283D01*
X165002225Y-113303529D01*
X165020312Y-113302664D01*
X165073965Y-113289010D01*
X165113370Y-113289630D01*
X165145368Y-113305104D01*
X165156110Y-113314161D01*
X165190495Y-113346027D01*
X165190495Y-113762179D01*
X165328812Y-113762179D01*
X165328812Y-113158614D01*
X165259653Y-113158614D01*
X165218131Y-113160256D01*
X165196709Y-113166087D01*
X165190498Y-113177461D01*
X165190495Y-113177798D01*
X165187561Y-113189713D01*
X165174296Y-113188159D01*
X165155916Y-113179563D01*
X165117954Y-113163568D01*
X165087128Y-113153945D01*
X165047464Y-113151478D01*
X165000540Y-113158030D01*
X165000540Y-113158030D01*
G37*
X165000540Y-113158030D02*
X164957289Y-113171245D01*
X164929442Y-113187941D01*
X164920371Y-113201145D01*
X164922868Y-113216797D01*
X164939069Y-113241385D01*
X164952768Y-113258800D01*
X164981008Y-113290283D01*
X165002225Y-113303529D01*
X165020312Y-113302664D01*
X165073965Y-113289010D01*
X165113370Y-113289630D01*
X165145368Y-113305104D01*
X165156110Y-113314161D01*
X165190495Y-113346027D01*
X165190495Y-113762179D01*
X165328812Y-113762179D01*
X165328812Y-113158614D01*
X165259653Y-113158614D01*
X165218131Y-113160256D01*
X165196709Y-113166087D01*
X165190498Y-113177461D01*
X165190495Y-113177798D01*
X165187561Y-113189713D01*
X165174296Y-113188159D01*
X165155916Y-113179563D01*
X165117954Y-113163568D01*
X165087128Y-113153945D01*
X165047464Y-113151478D01*
X165000540Y-113158030D01*
G36*
X166423036Y-108990018D02*
X166366188Y-109291570D01*
X165946662Y-109464512D01*
X165695016Y-109293395D01*
X165624542Y-109245750D01*
X165560837Y-109203210D01*
X165506874Y-109167715D01*
X165465627Y-109141210D01*
X165440066Y-109125636D01*
X165433105Y-109122278D01*
X165420565Y-109130914D01*
X165393769Y-109154792D01*
X165355720Y-109190859D01*
X165309421Y-109236067D01*
X165257877Y-109287364D01*
X165204091Y-109341701D01*
X165151065Y-109396028D01*
X165101805Y-109447295D01*
X165059313Y-109492451D01*
X165026593Y-109528446D01*
X165006649Y-109552230D01*
X165001881Y-109560190D01*
X165008743Y-109574865D01*
X165027980Y-109607014D01*
X165057570Y-109653492D01*
X165095490Y-109711156D01*
X165139718Y-109776860D01*
X165165346Y-109814336D01*
X165212059Y-109882768D01*
X165253568Y-109944520D01*
X165287860Y-109996519D01*
X165312920Y-110035692D01*
X165326736Y-110058965D01*
X165328812Y-110063855D01*
X165324105Y-110077755D01*
X165311277Y-110110150D01*
X165292262Y-110156485D01*
X165268997Y-110212206D01*
X165243416Y-110272758D01*
X165217455Y-110333586D01*
X165193050Y-110390136D01*
X165172137Y-110437852D01*
X165156651Y-110472181D01*
X165148528Y-110488568D01*
X165148048Y-110489212D01*
X165135293Y-110492341D01*
X165101323Y-110499321D01*
X165049660Y-110509467D01*
X164983824Y-110522092D01*
X164907336Y-110536509D01*
X164862710Y-110544823D01*
X164780979Y-110560384D01*
X164707157Y-110575192D01*
X164644979Y-110588436D01*
X164598178Y-110599305D01*
X164570491Y-110606989D01*
X164564926Y-110609427D01*
X164559474Y-110625930D01*
X164555076Y-110663200D01*
X164551728Y-110716880D01*
X164549426Y-110782612D01*
X164548168Y-110856037D01*
X164547952Y-110932796D01*
X164548773Y-111008532D01*
X164550629Y-111078886D01*
X164553518Y-111139500D01*
X164557435Y-111186016D01*
X164562378Y-111214075D01*
X164565343Y-111219916D01*
X164583066Y-111226917D01*
X164620619Y-111236927D01*
X164673036Y-111248769D01*
X164735348Y-111261267D01*
X164757100Y-111265310D01*
X164861976Y-111284520D01*
X164944820Y-111299991D01*
X165008370Y-111312337D01*
X165055363Y-111322173D01*
X165088537Y-111330114D01*
X165110629Y-111336776D01*
X165124376Y-111342773D01*
X165132516Y-111348719D01*
X165133655Y-111349894D01*
X165145023Y-111368826D01*
X165162365Y-111405669D01*
X165183950Y-111455913D01*
X165208046Y-111515046D01*
X165232921Y-111578556D01*
X165256843Y-111641932D01*
X165278081Y-111700662D01*
X165294903Y-111750235D01*
X165305578Y-111786139D01*
X165308373Y-111803862D01*
X165308140Y-111804483D01*
X165298669Y-111818970D01*
X165277182Y-111850844D01*
X165245937Y-111896789D01*
X165207193Y-111953485D01*
X165163207Y-112017617D01*
X165150681Y-112035842D01*
X165106016Y-112101914D01*
X165066712Y-112162200D01*
X165034912Y-112213235D01*
X165012755Y-112251560D01*
X165002383Y-112273711D01*
X165001881Y-112276432D01*
X165010595Y-112290736D01*
X165034675Y-112319072D01*
X165071024Y-112358396D01*
X165116547Y-112405661D01*
X165168148Y-112457823D01*
X165222733Y-112511835D01*
X165277206Y-112564653D01*
X165328471Y-112613231D01*
X165373433Y-112654523D01*
X165408996Y-112685485D01*
X165432065Y-112703070D01*
X165438446Y-112705941D01*
X165453301Y-112699178D01*
X165483714Y-112680939D01*
X165524732Y-112654297D01*
X165556291Y-112632852D01*
X165613475Y-112593503D01*
X165681194Y-112547171D01*
X165749120Y-112500913D01*
X165785639Y-112476155D01*
X165909248Y-112392547D01*
X166013009Y-112448650D01*
X166060280Y-112473228D01*
X166100477Y-112492331D01*
X166127674Y-112503227D01*
X166134598Y-112504743D01*
X166142923Y-112493549D01*
X166159346Y-112461917D01*
X166182643Y-112412765D01*
X166211586Y-112349010D01*
X166244950Y-112273571D01*
X166281509Y-112189364D01*
X166320036Y-112099308D01*
X166359306Y-112006321D01*
X166398092Y-111913320D01*
X166435170Y-111823223D01*
X166469311Y-111738948D01*
X166499292Y-111663413D01*
X166523884Y-111599534D01*
X166541864Y-111550231D01*
X166552003Y-111518421D01*
X166553634Y-111507496D01*
X166540709Y-111493561D01*
X166512411Y-111470940D01*
X166474654Y-111444333D01*
X166471485Y-111442228D01*
X166373900Y-111364114D01*
X166295214Y-111272982D01*
X166236109Y-111171745D01*
X166197268Y-111063318D01*
X166179372Y-110950614D01*
X166183103Y-110836548D01*
X166209143Y-110724034D01*
X166258175Y-110615985D01*
X166272600Y-110592345D01*
X166347631Y-110496887D01*
X166436270Y-110420232D01*
X166535451Y-110362780D01*
X166642105Y-110324929D01*
X166753164Y-110307078D01*
X166865561Y-110309625D01*
X166976227Y-110332970D01*
X167082094Y-110377510D01*
X167180095Y-110443645D01*
X167210410Y-110470487D01*
X167287562Y-110554512D01*
X167343782Y-110642966D01*
X167382347Y-110742115D01*
X167403826Y-110840303D01*
X167409128Y-110950697D01*
X167391448Y-111061640D01*
X167352581Y-111169381D01*
X167294323Y-111270169D01*
X167218469Y-111360256D01*
X167126817Y-111435892D01*
X167114772Y-111443864D01*
X167076611Y-111469974D01*
X167047601Y-111492595D01*
X167033732Y-111507039D01*
X167033531Y-111507496D01*
X167036508Y-111523121D01*
X167048311Y-111558582D01*
X167067714Y-111610962D01*
X167093488Y-111677345D01*
X167124409Y-111754814D01*
X167159249Y-111840450D01*
X167196783Y-111931337D01*
X167235783Y-112024559D01*
X167275023Y-112117197D01*
X167313276Y-112206335D01*
X167349317Y-112289055D01*
X167381917Y-112362441D01*
X167409852Y-112423575D01*
X167431895Y-112469541D01*
X167446818Y-112497421D01*
X167452828Y-112504743D01*
X167471191Y-112499041D01*
X167505552Y-112483749D01*
X167549984Y-112461599D01*
X167574417Y-112448650D01*
X167678178Y-112392547D01*
X167801787Y-112476155D01*
X167864886Y-112518987D01*
X167933970Y-112566122D01*
X167998707Y-112610503D01*
X168031134Y-112632852D01*
X168076741Y-112663477D01*
X168115360Y-112687747D01*
X168141952Y-112702587D01*
X168150590Y-112705724D01*
X168163161Y-112697261D01*
X168190984Y-112673636D01*
X168231361Y-112637302D01*
X168281595Y-112590711D01*
X168338988Y-112536317D01*
X168375286Y-112501392D01*
X168438790Y-112438996D01*
X168493673Y-112383188D01*
X168537714Y-112336354D01*
X168568695Y-112300882D01*
X168584398Y-112279161D01*
X168585905Y-112274752D01*
X168578914Y-112257985D01*
X168559594Y-112224082D01*
X168530091Y-112176476D01*
X168492545Y-112118599D01*
X168449100Y-112053884D01*
X168436745Y-112035842D01*
X168391727Y-111970267D01*
X168351340Y-111911228D01*
X168317840Y-111862042D01*
X168293486Y-111826028D01*
X168280536Y-111806502D01*
X168279285Y-111804483D01*
X168281156Y-111788922D01*
X168291087Y-111754709D01*
X168307347Y-111706355D01*
X168328205Y-111648371D01*
X168351927Y-111585270D01*
X168376784Y-111521563D01*
X168401042Y-111461761D01*
X168422971Y-111410376D01*
X168440838Y-111371919D01*
X168452913Y-111350902D01*
X168453771Y-111349894D01*
X168461154Y-111343888D01*
X168473625Y-111337948D01*
X168493920Y-111331460D01*
X168524778Y-111323809D01*
X168568934Y-111314380D01*
X168629126Y-111302559D01*
X168708093Y-111287729D01*
X168808570Y-111269277D01*
X168830325Y-111265310D01*
X168894802Y-111252853D01*
X168951011Y-111240666D01*
X168993987Y-111229926D01*
X169018760Y-111221809D01*
X169022082Y-111219916D01*
X169027556Y-111203138D01*
X169032006Y-111165645D01*
X169035428Y-111111794D01*
X169037819Y-111045944D01*
X169039177Y-110972453D01*
X169039499Y-110895680D01*
X169038781Y-110819983D01*
X169037021Y-110749720D01*
X169034216Y-110689250D01*
X169030362Y-110642930D01*
X169025457Y-110615119D01*
X169022500Y-110609427D01*
X169006037Y-110603686D01*
X168968551Y-110594345D01*
X168913775Y-110582215D01*
X168845445Y-110568107D01*
X168767294Y-110552830D01*
X168724716Y-110544823D01*
X168643929Y-110529721D01*
X168571887Y-110516040D01*
X168512111Y-110504467D01*
X168468121Y-110495687D01*
X168443439Y-110490387D01*
X168439377Y-110489212D01*
X168432511Y-110475965D01*
X168417998Y-110444057D01*
X168397771Y-110398047D01*
X168373766Y-110342492D01*
X168347918Y-110281953D01*
X168322160Y-110220986D01*
X168298427Y-110164151D01*
X168278654Y-110116006D01*
X168264776Y-110081110D01*
X168258726Y-110064021D01*
X168258614Y-110063274D01*
X168265472Y-110049793D01*
X168284698Y-110018770D01*
X168314272Y-109973289D01*
X168352173Y-109916432D01*
X168396380Y-109851283D01*
X168422079Y-109813862D01*
X168468907Y-109745247D01*
X168510499Y-109682952D01*
X168544825Y-109630129D01*
X168569857Y-109589927D01*
X168583565Y-109565500D01*
X168585544Y-109560024D01*
X168577034Y-109547278D01*
X168553507Y-109520063D01*
X168517968Y-109481428D01*
X168473423Y-109434423D01*
X168422877Y-109382095D01*
X168369336Y-109327495D01*
X168315805Y-109273670D01*
X168265289Y-109223670D01*
X168220794Y-109180543D01*
X168185325Y-109147339D01*
X168161887Y-109127106D01*
X168154046Y-109122278D01*
X168141280Y-109129067D01*
X168110744Y-109148142D01*
X168065410Y-109177561D01*
X168008244Y-109215381D01*
X167942216Y-109259661D01*
X167892410Y-109293395D01*
X167640764Y-109464512D01*
X167431001Y-109378041D01*
X167221237Y-109291570D01*
X167164389Y-108990018D01*
X167107540Y-108688466D01*
X166479885Y-108688466D01*
X166423036Y-108990018D01*
X166423036Y-108990018D01*
G37*
X166423036Y-108990018D02*
X166366188Y-109291570D01*
X165946662Y-109464512D01*
X165695016Y-109293395D01*
X165624542Y-109245750D01*
X165560837Y-109203210D01*
X165506874Y-109167715D01*
X165465627Y-109141210D01*
X165440066Y-109125636D01*
X165433105Y-109122278D01*
X165420565Y-109130914D01*
X165393769Y-109154792D01*
X165355720Y-109190859D01*
X165309421Y-109236067D01*
X165257877Y-109287364D01*
X165204091Y-109341701D01*
X165151065Y-109396028D01*
X165101805Y-109447295D01*
X165059313Y-109492451D01*
X165026593Y-109528446D01*
X165006649Y-109552230D01*
X165001881Y-109560190D01*
X165008743Y-109574865D01*
X165027980Y-109607014D01*
X165057570Y-109653492D01*
X165095490Y-109711156D01*
X165139718Y-109776860D01*
X165165346Y-109814336D01*
X165212059Y-109882768D01*
X165253568Y-109944520D01*
X165287860Y-109996519D01*
X165312920Y-110035692D01*
X165326736Y-110058965D01*
X165328812Y-110063855D01*
X165324105Y-110077755D01*
X165311277Y-110110150D01*
X165292262Y-110156485D01*
X165268997Y-110212206D01*
X165243416Y-110272758D01*
X165217455Y-110333586D01*
X165193050Y-110390136D01*
X165172137Y-110437852D01*
X165156651Y-110472181D01*
X165148528Y-110488568D01*
X165148048Y-110489212D01*
X165135293Y-110492341D01*
X165101323Y-110499321D01*
X165049660Y-110509467D01*
X164983824Y-110522092D01*
X164907336Y-110536509D01*
X164862710Y-110544823D01*
X164780979Y-110560384D01*
X164707157Y-110575192D01*
X164644979Y-110588436D01*
X164598178Y-110599305D01*
X164570491Y-110606989D01*
X164564926Y-110609427D01*
X164559474Y-110625930D01*
X164555076Y-110663200D01*
X164551728Y-110716880D01*
X164549426Y-110782612D01*
X164548168Y-110856037D01*
X164547952Y-110932796D01*
X164548773Y-111008532D01*
X164550629Y-111078886D01*
X164553518Y-111139500D01*
X164557435Y-111186016D01*
X164562378Y-111214075D01*
X164565343Y-111219916D01*
X164583066Y-111226917D01*
X164620619Y-111236927D01*
X164673036Y-111248769D01*
X164735348Y-111261267D01*
X164757100Y-111265310D01*
X164861976Y-111284520D01*
X164944820Y-111299991D01*
X165008370Y-111312337D01*
X165055363Y-111322173D01*
X165088537Y-111330114D01*
X165110629Y-111336776D01*
X165124376Y-111342773D01*
X165132516Y-111348719D01*
X165133655Y-111349894D01*
X165145023Y-111368826D01*
X165162365Y-111405669D01*
X165183950Y-111455913D01*
X165208046Y-111515046D01*
X165232921Y-111578556D01*
X165256843Y-111641932D01*
X165278081Y-111700662D01*
X165294903Y-111750235D01*
X165305578Y-111786139D01*
X165308373Y-111803862D01*
X165308140Y-111804483D01*
X165298669Y-111818970D01*
X165277182Y-111850844D01*
X165245937Y-111896789D01*
X165207193Y-111953485D01*
X165163207Y-112017617D01*
X165150681Y-112035842D01*
X165106016Y-112101914D01*
X165066712Y-112162200D01*
X165034912Y-112213235D01*
X165012755Y-112251560D01*
X165002383Y-112273711D01*
X165001881Y-112276432D01*
X165010595Y-112290736D01*
X165034675Y-112319072D01*
X165071024Y-112358396D01*
X165116547Y-112405661D01*
X165168148Y-112457823D01*
X165222733Y-112511835D01*
X165277206Y-112564653D01*
X165328471Y-112613231D01*
X165373433Y-112654523D01*
X165408996Y-112685485D01*
X165432065Y-112703070D01*
X165438446Y-112705941D01*
X165453301Y-112699178D01*
X165483714Y-112680939D01*
X165524732Y-112654297D01*
X165556291Y-112632852D01*
X165613475Y-112593503D01*
X165681194Y-112547171D01*
X165749120Y-112500913D01*
X165785639Y-112476155D01*
X165909248Y-112392547D01*
X166013009Y-112448650D01*
X166060280Y-112473228D01*
X166100477Y-112492331D01*
X166127674Y-112503227D01*
X166134598Y-112504743D01*
X166142923Y-112493549D01*
X166159346Y-112461917D01*
X166182643Y-112412765D01*
X166211586Y-112349010D01*
X166244950Y-112273571D01*
X166281509Y-112189364D01*
X166320036Y-112099308D01*
X166359306Y-112006321D01*
X166398092Y-111913320D01*
X166435170Y-111823223D01*
X166469311Y-111738948D01*
X166499292Y-111663413D01*
X166523884Y-111599534D01*
X166541864Y-111550231D01*
X166552003Y-111518421D01*
X166553634Y-111507496D01*
X166540709Y-111493561D01*
X166512411Y-111470940D01*
X166474654Y-111444333D01*
X166471485Y-111442228D01*
X166373900Y-111364114D01*
X166295214Y-111272982D01*
X166236109Y-111171745D01*
X166197268Y-111063318D01*
X166179372Y-110950614D01*
X166183103Y-110836548D01*
X166209143Y-110724034D01*
X166258175Y-110615985D01*
X166272600Y-110592345D01*
X166347631Y-110496887D01*
X166436270Y-110420232D01*
X166535451Y-110362780D01*
X166642105Y-110324929D01*
X166753164Y-110307078D01*
X166865561Y-110309625D01*
X166976227Y-110332970D01*
X167082094Y-110377510D01*
X167180095Y-110443645D01*
X167210410Y-110470487D01*
X167287562Y-110554512D01*
X167343782Y-110642966D01*
X167382347Y-110742115D01*
X167403826Y-110840303D01*
X167409128Y-110950697D01*
X167391448Y-111061640D01*
X167352581Y-111169381D01*
X167294323Y-111270169D01*
X167218469Y-111360256D01*
X167126817Y-111435892D01*
X167114772Y-111443864D01*
X167076611Y-111469974D01*
X167047601Y-111492595D01*
X167033732Y-111507039D01*
X167033531Y-111507496D01*
X167036508Y-111523121D01*
X167048311Y-111558582D01*
X167067714Y-111610962D01*
X167093488Y-111677345D01*
X167124409Y-111754814D01*
X167159249Y-111840450D01*
X167196783Y-111931337D01*
X167235783Y-112024559D01*
X167275023Y-112117197D01*
X167313276Y-112206335D01*
X167349317Y-112289055D01*
X167381917Y-112362441D01*
X167409852Y-112423575D01*
X167431895Y-112469541D01*
X167446818Y-112497421D01*
X167452828Y-112504743D01*
X167471191Y-112499041D01*
X167505552Y-112483749D01*
X167549984Y-112461599D01*
X167574417Y-112448650D01*
X167678178Y-112392547D01*
X167801787Y-112476155D01*
X167864886Y-112518987D01*
X167933970Y-112566122D01*
X167998707Y-112610503D01*
X168031134Y-112632852D01*
X168076741Y-112663477D01*
X168115360Y-112687747D01*
X168141952Y-112702587D01*
X168150590Y-112705724D01*
X168163161Y-112697261D01*
X168190984Y-112673636D01*
X168231361Y-112637302D01*
X168281595Y-112590711D01*
X168338988Y-112536317D01*
X168375286Y-112501392D01*
X168438790Y-112438996D01*
X168493673Y-112383188D01*
X168537714Y-112336354D01*
X168568695Y-112300882D01*
X168584398Y-112279161D01*
X168585905Y-112274752D01*
X168578914Y-112257985D01*
X168559594Y-112224082D01*
X168530091Y-112176476D01*
X168492545Y-112118599D01*
X168449100Y-112053884D01*
X168436745Y-112035842D01*
X168391727Y-111970267D01*
X168351340Y-111911228D01*
X168317840Y-111862042D01*
X168293486Y-111826028D01*
X168280536Y-111806502D01*
X168279285Y-111804483D01*
X168281156Y-111788922D01*
X168291087Y-111754709D01*
X168307347Y-111706355D01*
X168328205Y-111648371D01*
X168351927Y-111585270D01*
X168376784Y-111521563D01*
X168401042Y-111461761D01*
X168422971Y-111410376D01*
X168440838Y-111371919D01*
X168452913Y-111350902D01*
X168453771Y-111349894D01*
X168461154Y-111343888D01*
X168473625Y-111337948D01*
X168493920Y-111331460D01*
X168524778Y-111323809D01*
X168568934Y-111314380D01*
X168629126Y-111302559D01*
X168708093Y-111287729D01*
X168808570Y-111269277D01*
X168830325Y-111265310D01*
X168894802Y-111252853D01*
X168951011Y-111240666D01*
X168993987Y-111229926D01*
X169018760Y-111221809D01*
X169022082Y-111219916D01*
X169027556Y-111203138D01*
X169032006Y-111165645D01*
X169035428Y-111111794D01*
X169037819Y-111045944D01*
X169039177Y-110972453D01*
X169039499Y-110895680D01*
X169038781Y-110819983D01*
X169037021Y-110749720D01*
X169034216Y-110689250D01*
X169030362Y-110642930D01*
X169025457Y-110615119D01*
X169022500Y-110609427D01*
X169006037Y-110603686D01*
X168968551Y-110594345D01*
X168913775Y-110582215D01*
X168845445Y-110568107D01*
X168767294Y-110552830D01*
X168724716Y-110544823D01*
X168643929Y-110529721D01*
X168571887Y-110516040D01*
X168512111Y-110504467D01*
X168468121Y-110495687D01*
X168443439Y-110490387D01*
X168439377Y-110489212D01*
X168432511Y-110475965D01*
X168417998Y-110444057D01*
X168397771Y-110398047D01*
X168373766Y-110342492D01*
X168347918Y-110281953D01*
X168322160Y-110220986D01*
X168298427Y-110164151D01*
X168278654Y-110116006D01*
X168264776Y-110081110D01*
X168258726Y-110064021D01*
X168258614Y-110063274D01*
X168265472Y-110049793D01*
X168284698Y-110018770D01*
X168314272Y-109973289D01*
X168352173Y-109916432D01*
X168396380Y-109851283D01*
X168422079Y-109813862D01*
X168468907Y-109745247D01*
X168510499Y-109682952D01*
X168544825Y-109630129D01*
X168569857Y-109589927D01*
X168583565Y-109565500D01*
X168585544Y-109560024D01*
X168577034Y-109547278D01*
X168553507Y-109520063D01*
X168517968Y-109481428D01*
X168473423Y-109434423D01*
X168422877Y-109382095D01*
X168369336Y-109327495D01*
X168315805Y-109273670D01*
X168265289Y-109223670D01*
X168220794Y-109180543D01*
X168185325Y-109147339D01*
X168161887Y-109127106D01*
X168154046Y-109122278D01*
X168141280Y-109129067D01*
X168110744Y-109148142D01*
X168065410Y-109177561D01*
X168008244Y-109215381D01*
X167942216Y-109259661D01*
X167892410Y-109293395D01*
X167640764Y-109464512D01*
X167431001Y-109378041D01*
X167221237Y-109291570D01*
X167164389Y-108990018D01*
X167107540Y-108688466D01*
X166479885Y-108688466D01*
X166423036Y-108990018D01*
M02*
