G04 #@! TF.FileFunction,Legend,Top*
%FSLAX46Y46*%
G04 Gerber Fmt 4.6, Leading zero omitted, Abs format (unit mm)*
G04 Created by KiCad (PCBNEW 4.0.6) date 10/04/17 23:46:52*
%MOMM*%
%LPD*%
G01*
G04 APERTURE LIST*
%ADD10C,0.100000*%
%ADD11C,0.200000*%
%ADD12C,0.300000*%
%ADD13C,0.150000*%
%ADD14C,0.120000*%
%ADD15C,0.010000*%
%ADD16C,0.160000*%
G04 APERTURE END LIST*
D10*
D11*
X126700000Y-122800000D02*
X127600000Y-122800000D01*
X126700000Y-122600000D02*
X127600000Y-122600000D01*
X126700000Y-122400000D02*
X127600000Y-122400000D01*
X126700000Y-122200000D02*
X127600000Y-122200000D01*
X126800000Y-121100000D02*
X127600000Y-121100000D01*
X126700000Y-120900000D02*
X127600000Y-120900000D01*
X126700000Y-120700000D02*
X127600000Y-120700000D01*
X126700000Y-120500000D02*
X127600000Y-120500000D01*
X126800000Y-119400000D02*
X127600000Y-119400000D01*
X126700000Y-119200000D02*
X127600000Y-119200000D01*
X126700000Y-119000000D02*
X127600000Y-119000000D01*
X126700000Y-118800000D02*
X127600000Y-118800000D01*
X126700000Y-119600000D02*
X127600000Y-119600000D01*
X126700000Y-118600000D02*
X126700000Y-119600000D01*
X127600000Y-118600000D02*
X126700000Y-118600000D01*
X127600000Y-119600000D02*
X127600000Y-118600000D01*
X126700000Y-121300000D02*
X127600000Y-121300000D01*
X126700000Y-120300000D02*
X126700000Y-121300000D01*
X127600000Y-120300000D02*
X126700000Y-120300000D01*
X127600000Y-121300000D02*
X127600000Y-120300000D01*
X126700000Y-123000000D02*
X127600000Y-123000000D01*
X126700000Y-122000000D02*
X126700000Y-123000000D01*
X127600000Y-122000000D02*
X126700000Y-122000000D01*
X127600000Y-123000000D02*
X127600000Y-122000000D01*
X128666667Y-118885714D02*
X128666667Y-119552381D01*
X128428571Y-118504762D02*
X128190476Y-119219048D01*
X128809524Y-119219048D01*
X129095238Y-118552381D02*
X129714286Y-118552381D01*
X129380952Y-118933333D01*
X129523810Y-118933333D01*
X129619048Y-118980952D01*
X129666667Y-119028571D01*
X129714286Y-119123810D01*
X129714286Y-119361905D01*
X129666667Y-119457143D01*
X129619048Y-119504762D01*
X129523810Y-119552381D01*
X129238095Y-119552381D01*
X129142857Y-119504762D01*
X129095238Y-119457143D01*
X130047619Y-118552381D02*
X130666667Y-118552381D01*
X130333333Y-118933333D01*
X130476191Y-118933333D01*
X130571429Y-118980952D01*
X130619048Y-119028571D01*
X130666667Y-119123810D01*
X130666667Y-119361905D01*
X130619048Y-119457143D01*
X130571429Y-119504762D01*
X130476191Y-119552381D01*
X130190476Y-119552381D01*
X130095238Y-119504762D01*
X130047619Y-119457143D01*
X131095238Y-119552381D02*
X131095238Y-118552381D01*
X131428572Y-119266667D01*
X131761905Y-118552381D01*
X131761905Y-119552381D01*
X132238095Y-119552381D02*
X132238095Y-118552381D01*
X132666667Y-119552381D02*
X132666667Y-119028571D01*
X132619048Y-118933333D01*
X132523810Y-118885714D01*
X132380952Y-118885714D01*
X132285714Y-118933333D01*
X132238095Y-118980952D01*
X133047619Y-118885714D02*
X133571429Y-118885714D01*
X133047619Y-119552381D01*
X133571429Y-119552381D01*
X128380952Y-120680952D02*
X128285714Y-120633333D01*
X128238095Y-120585714D01*
X128190476Y-120490476D01*
X128190476Y-120442857D01*
X128238095Y-120347619D01*
X128285714Y-120300000D01*
X128380952Y-120252381D01*
X128571429Y-120252381D01*
X128666667Y-120300000D01*
X128714286Y-120347619D01*
X128761905Y-120442857D01*
X128761905Y-120490476D01*
X128714286Y-120585714D01*
X128666667Y-120633333D01*
X128571429Y-120680952D01*
X128380952Y-120680952D01*
X128285714Y-120728571D01*
X128238095Y-120776190D01*
X128190476Y-120871429D01*
X128190476Y-121061905D01*
X128238095Y-121157143D01*
X128285714Y-121204762D01*
X128380952Y-121252381D01*
X128571429Y-121252381D01*
X128666667Y-121204762D01*
X128714286Y-121157143D01*
X128761905Y-121061905D01*
X128761905Y-120871429D01*
X128714286Y-120776190D01*
X128666667Y-120728571D01*
X128571429Y-120680952D01*
X129619048Y-120252381D02*
X129428571Y-120252381D01*
X129333333Y-120300000D01*
X129285714Y-120347619D01*
X129190476Y-120490476D01*
X129142857Y-120680952D01*
X129142857Y-121061905D01*
X129190476Y-121157143D01*
X129238095Y-121204762D01*
X129333333Y-121252381D01*
X129523810Y-121252381D01*
X129619048Y-121204762D01*
X129666667Y-121157143D01*
X129714286Y-121061905D01*
X129714286Y-120823810D01*
X129666667Y-120728571D01*
X129619048Y-120680952D01*
X129523810Y-120633333D01*
X129333333Y-120633333D01*
X129238095Y-120680952D01*
X129190476Y-120728571D01*
X129142857Y-120823810D01*
X130285714Y-120680952D02*
X130190476Y-120633333D01*
X130142857Y-120585714D01*
X130095238Y-120490476D01*
X130095238Y-120442857D01*
X130142857Y-120347619D01*
X130190476Y-120300000D01*
X130285714Y-120252381D01*
X130476191Y-120252381D01*
X130571429Y-120300000D01*
X130619048Y-120347619D01*
X130666667Y-120442857D01*
X130666667Y-120490476D01*
X130619048Y-120585714D01*
X130571429Y-120633333D01*
X130476191Y-120680952D01*
X130285714Y-120680952D01*
X130190476Y-120728571D01*
X130142857Y-120776190D01*
X130095238Y-120871429D01*
X130095238Y-121061905D01*
X130142857Y-121157143D01*
X130190476Y-121204762D01*
X130285714Y-121252381D01*
X130476191Y-121252381D01*
X130571429Y-121204762D01*
X130619048Y-121157143D01*
X130666667Y-121061905D01*
X130666667Y-120871429D01*
X130619048Y-120776190D01*
X130571429Y-120728571D01*
X130476191Y-120680952D01*
X131095238Y-121252381D02*
X131095238Y-120252381D01*
X131428572Y-120966667D01*
X131761905Y-120252381D01*
X131761905Y-121252381D01*
X132238095Y-121252381D02*
X132238095Y-120252381D01*
X132666667Y-121252381D02*
X132666667Y-120728571D01*
X132619048Y-120633333D01*
X132523810Y-120585714D01*
X132380952Y-120585714D01*
X132285714Y-120633333D01*
X132238095Y-120680952D01*
X133047619Y-120585714D02*
X133571429Y-120585714D01*
X133047619Y-121252381D01*
X133571429Y-121252381D01*
X128285714Y-122952381D02*
X128476190Y-122952381D01*
X128571429Y-122904762D01*
X128619048Y-122857143D01*
X128714286Y-122714286D01*
X128761905Y-122523810D01*
X128761905Y-122142857D01*
X128714286Y-122047619D01*
X128666667Y-122000000D01*
X128571429Y-121952381D01*
X128380952Y-121952381D01*
X128285714Y-122000000D01*
X128238095Y-122047619D01*
X128190476Y-122142857D01*
X128190476Y-122380952D01*
X128238095Y-122476190D01*
X128285714Y-122523810D01*
X128380952Y-122571429D01*
X128571429Y-122571429D01*
X128666667Y-122523810D01*
X128714286Y-122476190D01*
X128761905Y-122380952D01*
X129714286Y-122952381D02*
X129142857Y-122952381D01*
X129428571Y-122952381D02*
X129428571Y-121952381D01*
X129333333Y-122095238D01*
X129238095Y-122190476D01*
X129142857Y-122238095D01*
X130619048Y-121952381D02*
X130142857Y-121952381D01*
X130095238Y-122428571D01*
X130142857Y-122380952D01*
X130238095Y-122333333D01*
X130476191Y-122333333D01*
X130571429Y-122380952D01*
X130619048Y-122428571D01*
X130666667Y-122523810D01*
X130666667Y-122761905D01*
X130619048Y-122857143D01*
X130571429Y-122904762D01*
X130476191Y-122952381D01*
X130238095Y-122952381D01*
X130142857Y-122904762D01*
X130095238Y-122857143D01*
X131095238Y-122952381D02*
X131095238Y-121952381D01*
X131428572Y-122666667D01*
X131761905Y-121952381D01*
X131761905Y-122952381D01*
X132238095Y-122952381D02*
X132238095Y-121952381D01*
X132666667Y-122952381D02*
X132666667Y-122428571D01*
X132619048Y-122333333D01*
X132523810Y-122285714D01*
X132380952Y-122285714D01*
X132285714Y-122333333D01*
X132238095Y-122380952D01*
X133047619Y-122285714D02*
X133571429Y-122285714D01*
X133047619Y-122952381D01*
X133571429Y-122952381D01*
X135000000Y-111500000D02*
X135000000Y-127500000D01*
X151000000Y-112100000D02*
X151000000Y-127400000D01*
X150652381Y-126190476D02*
X150176190Y-126523810D01*
X150652381Y-126761905D02*
X149652381Y-126761905D01*
X149652381Y-126380952D01*
X149700000Y-126285714D01*
X149747619Y-126238095D01*
X149842857Y-126190476D01*
X149985714Y-126190476D01*
X150080952Y-126238095D01*
X150128571Y-126285714D01*
X150176190Y-126380952D01*
X150176190Y-126761905D01*
X150128571Y-125428571D02*
X150128571Y-125761905D01*
X150652381Y-125761905D02*
X149652381Y-125761905D01*
X149652381Y-125285714D01*
X150652381Y-124904762D02*
X149652381Y-124904762D01*
X150366667Y-124571428D01*
X149652381Y-124238095D01*
X150652381Y-124238095D01*
X150652381Y-123761905D02*
X149652381Y-123761905D01*
X150128571Y-123761905D02*
X150128571Y-123190476D01*
X150652381Y-123190476D02*
X149652381Y-123190476D01*
X149652381Y-122809524D02*
X150652381Y-122571429D01*
X149938095Y-122380952D01*
X150652381Y-122190476D01*
X149652381Y-121952381D01*
X149652381Y-121142857D02*
X149652381Y-121333334D01*
X149700000Y-121428572D01*
X149747619Y-121476191D01*
X149890476Y-121571429D01*
X150080952Y-121619048D01*
X150461905Y-121619048D01*
X150557143Y-121571429D01*
X150604762Y-121523810D01*
X150652381Y-121428572D01*
X150652381Y-121238095D01*
X150604762Y-121142857D01*
X150557143Y-121095238D01*
X150461905Y-121047619D01*
X150223810Y-121047619D01*
X150128571Y-121095238D01*
X150080952Y-121142857D01*
X150033333Y-121238095D01*
X150033333Y-121428572D01*
X150080952Y-121523810D01*
X150128571Y-121571429D01*
X150223810Y-121619048D01*
X150652381Y-120571429D02*
X150652381Y-120380953D01*
X150604762Y-120285714D01*
X150557143Y-120238095D01*
X150414286Y-120142857D01*
X150223810Y-120095238D01*
X149842857Y-120095238D01*
X149747619Y-120142857D01*
X149700000Y-120190476D01*
X149652381Y-120285714D01*
X149652381Y-120476191D01*
X149700000Y-120571429D01*
X149747619Y-120619048D01*
X149842857Y-120666667D01*
X150080952Y-120666667D01*
X150176190Y-120619048D01*
X150223810Y-120571429D01*
X150271429Y-120476191D01*
X150271429Y-120285714D01*
X150223810Y-120190476D01*
X150176190Y-120142857D01*
X150080952Y-120095238D01*
D12*
X160278573Y-120750000D02*
X160107144Y-120664286D01*
X159850001Y-120664286D01*
X159592858Y-120750000D01*
X159421430Y-120921429D01*
X159335715Y-121092857D01*
X159250001Y-121435714D01*
X159250001Y-121692857D01*
X159335715Y-122035714D01*
X159421430Y-122207143D01*
X159592858Y-122378571D01*
X159850001Y-122464286D01*
X160021430Y-122464286D01*
X160278573Y-122378571D01*
X160364287Y-122292857D01*
X160364287Y-121692857D01*
X160021430Y-121692857D01*
X161907144Y-122464286D02*
X161907144Y-121521429D01*
X161821430Y-121350000D01*
X161650001Y-121264286D01*
X161307144Y-121264286D01*
X161135715Y-121350000D01*
X161907144Y-122378571D02*
X161735715Y-122464286D01*
X161307144Y-122464286D01*
X161135715Y-122378571D01*
X161050001Y-122207143D01*
X161050001Y-122035714D01*
X161135715Y-121864286D01*
X161307144Y-121778571D01*
X161735715Y-121778571D01*
X161907144Y-121692857D01*
X162507144Y-121264286D02*
X163192858Y-121264286D01*
X162764286Y-120664286D02*
X162764286Y-122207143D01*
X162850001Y-122378571D01*
X163021429Y-122464286D01*
X163192858Y-122464286D01*
X164478572Y-122378571D02*
X164307143Y-122464286D01*
X163964286Y-122464286D01*
X163792857Y-122378571D01*
X163707143Y-122207143D01*
X163707143Y-121521429D01*
X163792857Y-121350000D01*
X163964286Y-121264286D01*
X164307143Y-121264286D01*
X164478572Y-121350000D01*
X164564286Y-121521429D01*
X164564286Y-121692857D01*
X163707143Y-121864286D01*
X165164286Y-121264286D02*
X165507143Y-122464286D01*
X165850000Y-121607143D01*
X166192857Y-122464286D01*
X166535714Y-121264286D01*
X167992857Y-122464286D02*
X167992857Y-121521429D01*
X167907143Y-121350000D01*
X167735714Y-121264286D01*
X167392857Y-121264286D01*
X167221428Y-121350000D01*
X167992857Y-122378571D02*
X167821428Y-122464286D01*
X167392857Y-122464286D01*
X167221428Y-122378571D01*
X167135714Y-122207143D01*
X167135714Y-122035714D01*
X167221428Y-121864286D01*
X167392857Y-121778571D01*
X167821428Y-121778571D01*
X167992857Y-121692857D01*
X168678571Y-121264286D02*
X169107142Y-122464286D01*
X169535714Y-121264286D02*
X169107142Y-122464286D01*
X168935714Y-122892857D01*
X168849999Y-122978571D01*
X168678571Y-123064286D01*
D13*
X144873000Y-121206000D02*
X144873000Y-123873000D01*
X144873000Y-123873000D02*
X142206000Y-123873000D01*
X144746000Y-116126000D02*
X144746000Y-113586000D01*
X144746000Y-113586000D02*
X142206000Y-113586000D01*
X144746000Y-121206000D02*
X142206000Y-121206000D01*
X142206000Y-121206000D02*
X142206000Y-123746000D01*
X144746000Y-116126000D02*
X144746000Y-123746000D01*
X144746000Y-123746000D02*
X139666000Y-123746000D01*
X139666000Y-123746000D02*
X139666000Y-113586000D01*
X139666000Y-113586000D02*
X142206000Y-113586000D01*
D14*
X159000000Y-130750000D02*
X155800000Y-130750000D01*
X155800000Y-129250000D02*
X159000000Y-129250000D01*
X155800000Y-129250000D02*
X155800000Y-130750000D01*
X166000000Y-130750000D02*
X162800000Y-130750000D01*
X162800000Y-129250000D02*
X166000000Y-129250000D01*
X162800000Y-129250000D02*
X162800000Y-130750000D01*
X173000000Y-130750000D02*
X169800000Y-130750000D01*
X169800000Y-129250000D02*
X173000000Y-129250000D01*
X169800000Y-129250000D02*
X169800000Y-130750000D01*
X128500000Y-123700000D02*
X130500000Y-123700000D01*
X128500000Y-130300000D02*
X130500000Y-130300000D01*
X132800000Y-126000000D02*
X132800000Y-128000000D01*
X126200000Y-126000000D02*
X126200000Y-128000000D01*
X158600000Y-129030000D02*
X157400000Y-129030000D01*
X157400000Y-127270000D02*
X158600000Y-127270000D01*
X165600000Y-128980000D02*
X164400000Y-128980000D01*
X164400000Y-127220000D02*
X165600000Y-127220000D01*
X172600000Y-128980000D02*
X171400000Y-128980000D01*
X171400000Y-127220000D02*
X172600000Y-127220000D01*
X128600000Y-127880000D02*
X127400000Y-127880000D01*
X127400000Y-126120000D02*
X128600000Y-126120000D01*
X124753219Y-127000000D02*
G75*
G03X124753219Y-127000000I-803219J0D01*
G01*
D15*
G36*
X164696414Y-107747520D02*
X164840273Y-107835734D01*
X164951197Y-107947209D01*
X165002476Y-108027807D01*
X165099452Y-108188200D01*
X165238533Y-108422163D01*
X165416129Y-108723475D01*
X165628649Y-109085914D01*
X165872501Y-109503255D01*
X166144093Y-109969277D01*
X166439836Y-110477758D01*
X166756137Y-111022474D01*
X167089406Y-111597204D01*
X167436051Y-112195724D01*
X167792482Y-112811812D01*
X168155106Y-113439246D01*
X168520334Y-114071803D01*
X168884573Y-114703260D01*
X169244233Y-115327395D01*
X169595722Y-115937985D01*
X169935450Y-116528808D01*
X170259825Y-117093642D01*
X170565255Y-117626263D01*
X170848151Y-118120449D01*
X171104920Y-118569977D01*
X171331971Y-118968626D01*
X171525714Y-119310172D01*
X171682557Y-119588393D01*
X171798909Y-119797066D01*
X171871179Y-119929970D01*
X171895710Y-119980254D01*
X171880657Y-120143769D01*
X171782804Y-120294710D01*
X171620440Y-120410312D01*
X171519989Y-120447966D01*
X171439775Y-120456178D01*
X171265678Y-120463682D01*
X171004964Y-120470486D01*
X170664900Y-120476596D01*
X170252754Y-120482019D01*
X169775793Y-120486764D01*
X169241283Y-120490836D01*
X168656493Y-120494243D01*
X168028690Y-120496991D01*
X167365140Y-120499089D01*
X166673110Y-120500543D01*
X165959869Y-120501359D01*
X165232683Y-120501546D01*
X164498819Y-120501110D01*
X163765545Y-120500058D01*
X163040127Y-120498397D01*
X162329833Y-120496135D01*
X161641931Y-120493278D01*
X160983686Y-120489834D01*
X160362368Y-120485809D01*
X159785241Y-120481211D01*
X159259575Y-120476046D01*
X158792636Y-120470323D01*
X158391691Y-120464047D01*
X158064007Y-120457225D01*
X157816852Y-120449866D01*
X157657493Y-120441976D01*
X157595158Y-120434432D01*
X157444272Y-120352078D01*
X157321424Y-120237960D01*
X157319879Y-120235894D01*
X157255861Y-120130595D01*
X157245879Y-120031491D01*
X157277058Y-119905694D01*
X157309332Y-119839010D01*
X157332606Y-119795696D01*
X158005266Y-119795696D01*
X158052946Y-119801527D01*
X158197041Y-119807089D01*
X158432364Y-119812346D01*
X158753729Y-119817264D01*
X159155953Y-119821806D01*
X159633848Y-119825937D01*
X160182229Y-119829623D01*
X160795911Y-119832827D01*
X161469707Y-119835515D01*
X162198434Y-119837651D01*
X162976904Y-119839200D01*
X163799932Y-119840127D01*
X164571166Y-119840400D01*
X165380093Y-119840185D01*
X166160468Y-119839558D01*
X166906316Y-119838546D01*
X167611663Y-119837172D01*
X168270533Y-119835464D01*
X168876953Y-119833447D01*
X169424947Y-119831147D01*
X169908542Y-119828589D01*
X170321762Y-119825800D01*
X170658633Y-119822804D01*
X170913181Y-119819628D01*
X171079431Y-119816298D01*
X171151407Y-119812838D01*
X171154000Y-119812040D01*
X171128782Y-119764737D01*
X171055634Y-119636345D01*
X170938313Y-119433248D01*
X170780575Y-119161828D01*
X170586177Y-118828466D01*
X170358875Y-118439545D01*
X170102427Y-118001447D01*
X169820590Y-117520554D01*
X169517119Y-117003249D01*
X169195773Y-116455913D01*
X168860306Y-115884929D01*
X168514478Y-115296678D01*
X168162043Y-114697544D01*
X167806759Y-114093908D01*
X167452383Y-113492152D01*
X167102671Y-112898658D01*
X166761380Y-112319810D01*
X166432268Y-111761988D01*
X166119090Y-111231575D01*
X165825603Y-110734953D01*
X165555565Y-110278505D01*
X165312732Y-109868613D01*
X165100861Y-109511658D01*
X164923708Y-109214023D01*
X164785031Y-108982090D01*
X164688585Y-108822241D01*
X164638129Y-108740858D01*
X164631818Y-108731858D01*
X164609329Y-108745740D01*
X164559090Y-108808893D01*
X164479252Y-108924354D01*
X164367965Y-109095164D01*
X164223383Y-109324361D01*
X164043655Y-109614984D01*
X163826935Y-109970074D01*
X163571372Y-110392667D01*
X163275120Y-110885805D01*
X162936328Y-111452525D01*
X162553150Y-112095867D01*
X162123736Y-112818870D01*
X161646238Y-113624572D01*
X161298800Y-114211654D01*
X160891204Y-114900850D01*
X160497954Y-115566032D01*
X160122149Y-116201946D01*
X159766889Y-116803336D01*
X159435273Y-117364947D01*
X159130402Y-117881523D01*
X158855375Y-118347809D01*
X158613292Y-118758548D01*
X158407253Y-119108487D01*
X158240357Y-119392369D01*
X158115704Y-119604938D01*
X158036394Y-119740940D01*
X158005527Y-119795118D01*
X158005266Y-119795696D01*
X157332606Y-119795696D01*
X157389552Y-119689722D01*
X157514703Y-119463122D01*
X157681772Y-119164501D01*
X157887748Y-118799153D01*
X158129615Y-118372370D01*
X158404363Y-117889445D01*
X158708976Y-117355668D01*
X159040443Y-116776333D01*
X159395750Y-116156733D01*
X159771884Y-115502159D01*
X160165832Y-114817903D01*
X160574581Y-114109259D01*
X160755970Y-113795200D01*
X161246850Y-112945881D01*
X161689701Y-112180304D01*
X162087124Y-111494125D01*
X162441719Y-110882997D01*
X162756084Y-110342576D01*
X163032820Y-109868516D01*
X163274526Y-109456472D01*
X163483802Y-109102100D01*
X163663248Y-108801052D01*
X163815463Y-108548985D01*
X163943047Y-108341554D01*
X164048600Y-108174412D01*
X164134721Y-108043216D01*
X164204011Y-107943619D01*
X164259068Y-107871276D01*
X164302492Y-107821842D01*
X164336884Y-107790973D01*
X164355429Y-107778911D01*
X164485929Y-107718373D01*
X164586390Y-107711413D01*
X164696414Y-107747520D01*
X164696414Y-107747520D01*
G37*
X164696414Y-107747520D02*
X164840273Y-107835734D01*
X164951197Y-107947209D01*
X165002476Y-108027807D01*
X165099452Y-108188200D01*
X165238533Y-108422163D01*
X165416129Y-108723475D01*
X165628649Y-109085914D01*
X165872501Y-109503255D01*
X166144093Y-109969277D01*
X166439836Y-110477758D01*
X166756137Y-111022474D01*
X167089406Y-111597204D01*
X167436051Y-112195724D01*
X167792482Y-112811812D01*
X168155106Y-113439246D01*
X168520334Y-114071803D01*
X168884573Y-114703260D01*
X169244233Y-115327395D01*
X169595722Y-115937985D01*
X169935450Y-116528808D01*
X170259825Y-117093642D01*
X170565255Y-117626263D01*
X170848151Y-118120449D01*
X171104920Y-118569977D01*
X171331971Y-118968626D01*
X171525714Y-119310172D01*
X171682557Y-119588393D01*
X171798909Y-119797066D01*
X171871179Y-119929970D01*
X171895710Y-119980254D01*
X171880657Y-120143769D01*
X171782804Y-120294710D01*
X171620440Y-120410312D01*
X171519989Y-120447966D01*
X171439775Y-120456178D01*
X171265678Y-120463682D01*
X171004964Y-120470486D01*
X170664900Y-120476596D01*
X170252754Y-120482019D01*
X169775793Y-120486764D01*
X169241283Y-120490836D01*
X168656493Y-120494243D01*
X168028690Y-120496991D01*
X167365140Y-120499089D01*
X166673110Y-120500543D01*
X165959869Y-120501359D01*
X165232683Y-120501546D01*
X164498819Y-120501110D01*
X163765545Y-120500058D01*
X163040127Y-120498397D01*
X162329833Y-120496135D01*
X161641931Y-120493278D01*
X160983686Y-120489834D01*
X160362368Y-120485809D01*
X159785241Y-120481211D01*
X159259575Y-120476046D01*
X158792636Y-120470323D01*
X158391691Y-120464047D01*
X158064007Y-120457225D01*
X157816852Y-120449866D01*
X157657493Y-120441976D01*
X157595158Y-120434432D01*
X157444272Y-120352078D01*
X157321424Y-120237960D01*
X157319879Y-120235894D01*
X157255861Y-120130595D01*
X157245879Y-120031491D01*
X157277058Y-119905694D01*
X157309332Y-119839010D01*
X157332606Y-119795696D01*
X158005266Y-119795696D01*
X158052946Y-119801527D01*
X158197041Y-119807089D01*
X158432364Y-119812346D01*
X158753729Y-119817264D01*
X159155953Y-119821806D01*
X159633848Y-119825937D01*
X160182229Y-119829623D01*
X160795911Y-119832827D01*
X161469707Y-119835515D01*
X162198434Y-119837651D01*
X162976904Y-119839200D01*
X163799932Y-119840127D01*
X164571166Y-119840400D01*
X165380093Y-119840185D01*
X166160468Y-119839558D01*
X166906316Y-119838546D01*
X167611663Y-119837172D01*
X168270533Y-119835464D01*
X168876953Y-119833447D01*
X169424947Y-119831147D01*
X169908542Y-119828589D01*
X170321762Y-119825800D01*
X170658633Y-119822804D01*
X170913181Y-119819628D01*
X171079431Y-119816298D01*
X171151407Y-119812838D01*
X171154000Y-119812040D01*
X171128782Y-119764737D01*
X171055634Y-119636345D01*
X170938313Y-119433248D01*
X170780575Y-119161828D01*
X170586177Y-118828466D01*
X170358875Y-118439545D01*
X170102427Y-118001447D01*
X169820590Y-117520554D01*
X169517119Y-117003249D01*
X169195773Y-116455913D01*
X168860306Y-115884929D01*
X168514478Y-115296678D01*
X168162043Y-114697544D01*
X167806759Y-114093908D01*
X167452383Y-113492152D01*
X167102671Y-112898658D01*
X166761380Y-112319810D01*
X166432268Y-111761988D01*
X166119090Y-111231575D01*
X165825603Y-110734953D01*
X165555565Y-110278505D01*
X165312732Y-109868613D01*
X165100861Y-109511658D01*
X164923708Y-109214023D01*
X164785031Y-108982090D01*
X164688585Y-108822241D01*
X164638129Y-108740858D01*
X164631818Y-108731858D01*
X164609329Y-108745740D01*
X164559090Y-108808893D01*
X164479252Y-108924354D01*
X164367965Y-109095164D01*
X164223383Y-109324361D01*
X164043655Y-109614984D01*
X163826935Y-109970074D01*
X163571372Y-110392667D01*
X163275120Y-110885805D01*
X162936328Y-111452525D01*
X162553150Y-112095867D01*
X162123736Y-112818870D01*
X161646238Y-113624572D01*
X161298800Y-114211654D01*
X160891204Y-114900850D01*
X160497954Y-115566032D01*
X160122149Y-116201946D01*
X159766889Y-116803336D01*
X159435273Y-117364947D01*
X159130402Y-117881523D01*
X158855375Y-118347809D01*
X158613292Y-118758548D01*
X158407253Y-119108487D01*
X158240357Y-119392369D01*
X158115704Y-119604938D01*
X158036394Y-119740940D01*
X158005527Y-119795118D01*
X158005266Y-119795696D01*
X157332606Y-119795696D01*
X157389552Y-119689722D01*
X157514703Y-119463122D01*
X157681772Y-119164501D01*
X157887748Y-118799153D01*
X158129615Y-118372370D01*
X158404363Y-117889445D01*
X158708976Y-117355668D01*
X159040443Y-116776333D01*
X159395750Y-116156733D01*
X159771884Y-115502159D01*
X160165832Y-114817903D01*
X160574581Y-114109259D01*
X160755970Y-113795200D01*
X161246850Y-112945881D01*
X161689701Y-112180304D01*
X162087124Y-111494125D01*
X162441719Y-110882997D01*
X162756084Y-110342576D01*
X163032820Y-109868516D01*
X163274526Y-109456472D01*
X163483802Y-109102100D01*
X163663248Y-108801052D01*
X163815463Y-108548985D01*
X163943047Y-108341554D01*
X164048600Y-108174412D01*
X164134721Y-108043216D01*
X164204011Y-107943619D01*
X164259068Y-107871276D01*
X164302492Y-107821842D01*
X164336884Y-107790973D01*
X164355429Y-107778911D01*
X164485929Y-107718373D01*
X164586390Y-107711413D01*
X164696414Y-107747520D01*
G36*
X162174594Y-118194633D02*
X162205220Y-118220541D01*
X162209470Y-118279189D01*
X162185992Y-118383489D01*
X162133433Y-118546350D01*
X162050437Y-118780682D01*
X161947759Y-119065700D01*
X161687527Y-119789600D01*
X161518563Y-119789600D01*
X161404569Y-119778598D01*
X161350326Y-119751724D01*
X161349600Y-119747849D01*
X161364845Y-119678886D01*
X161403674Y-119549863D01*
X161431243Y-119466488D01*
X161512886Y-119226878D01*
X161256413Y-118784339D01*
X161152128Y-118595773D01*
X161075557Y-118440396D01*
X161036035Y-118338239D01*
X161035069Y-118309409D01*
X161108173Y-118269801D01*
X161179446Y-118244090D01*
X161247938Y-118239446D01*
X161314312Y-118282051D01*
X161397195Y-118388209D01*
X161466368Y-118495213D01*
X161644044Y-118779265D01*
X161742355Y-118484332D01*
X161799226Y-118322167D01*
X161847201Y-118234004D01*
X161909013Y-118197291D01*
X162007389Y-118189479D01*
X162039633Y-118189400D01*
X162118947Y-118188556D01*
X162174594Y-118194633D01*
X162174594Y-118194633D01*
G37*
X162174594Y-118194633D02*
X162205220Y-118220541D01*
X162209470Y-118279189D01*
X162185992Y-118383489D01*
X162133433Y-118546350D01*
X162050437Y-118780682D01*
X161947759Y-119065700D01*
X161687527Y-119789600D01*
X161518563Y-119789600D01*
X161404569Y-119778598D01*
X161350326Y-119751724D01*
X161349600Y-119747849D01*
X161364845Y-119678886D01*
X161403674Y-119549863D01*
X161431243Y-119466488D01*
X161512886Y-119226878D01*
X161256413Y-118784339D01*
X161152128Y-118595773D01*
X161075557Y-118440396D01*
X161036035Y-118338239D01*
X161035069Y-118309409D01*
X161108173Y-118269801D01*
X161179446Y-118244090D01*
X161247938Y-118239446D01*
X161314312Y-118282051D01*
X161397195Y-118388209D01*
X161466368Y-118495213D01*
X161644044Y-118779265D01*
X161742355Y-118484332D01*
X161799226Y-118322167D01*
X161847201Y-118234004D01*
X161909013Y-118197291D01*
X162007389Y-118189479D01*
X162039633Y-118189400D01*
X162118947Y-118188556D01*
X162174594Y-118194633D01*
G36*
X160777855Y-117877129D02*
X160812737Y-117951660D01*
X160856341Y-118103160D01*
X160904027Y-118307880D01*
X160951157Y-118542071D01*
X160993092Y-118781984D01*
X161025193Y-119003872D01*
X161042823Y-119183983D01*
X161044800Y-119243817D01*
X161039414Y-119370519D01*
X161006652Y-119422911D01*
X160921608Y-119428253D01*
X160879700Y-119424518D01*
X160714600Y-119408600D01*
X160662273Y-118951400D01*
X160609947Y-118494200D01*
X160519987Y-118799000D01*
X160465067Y-118984026D01*
X160416113Y-119147172D01*
X160390601Y-119230800D01*
X160325001Y-119332968D01*
X160196790Y-119373211D01*
X160121543Y-119375841D01*
X160065418Y-119354173D01*
X160014339Y-119290674D01*
X159954227Y-119167810D01*
X159871006Y-118968046D01*
X159870502Y-118966811D01*
X159698600Y-118545000D01*
X159654146Y-118951400D01*
X159632767Y-119141055D01*
X159615251Y-119285776D01*
X159604607Y-119361044D01*
X159603242Y-119366370D01*
X159536821Y-119396868D01*
X159428394Y-119411363D01*
X159330170Y-119406019D01*
X159295756Y-119388954D01*
X159289278Y-119320209D01*
X159296163Y-119172842D01*
X159314835Y-118968723D01*
X159342725Y-118737138D01*
X159384999Y-118420828D01*
X159417758Y-118191243D01*
X159445791Y-118034519D01*
X159473886Y-117936792D01*
X159506833Y-117884198D01*
X159549420Y-117862875D01*
X159606437Y-117858957D01*
X159645989Y-117859200D01*
X159745030Y-117866638D01*
X159807636Y-117904969D01*
X159856826Y-117998214D01*
X159900934Y-118125275D01*
X159981904Y-118350752D01*
X160060014Y-118529351D01*
X160127852Y-118647441D01*
X160178007Y-118691396D01*
X160198226Y-118672000D01*
X160224291Y-118587719D01*
X160269276Y-118437018D01*
X160323881Y-118251079D01*
X160329005Y-118233490D01*
X160388230Y-118043938D01*
X160438304Y-117930912D01*
X160493316Y-117872033D01*
X160567354Y-117844921D01*
X160574542Y-117843450D01*
X160701177Y-117843247D01*
X160777855Y-117877129D01*
X160777855Y-117877129D01*
G37*
X160777855Y-117877129D02*
X160812737Y-117951660D01*
X160856341Y-118103160D01*
X160904027Y-118307880D01*
X160951157Y-118542071D01*
X160993092Y-118781984D01*
X161025193Y-119003872D01*
X161042823Y-119183983D01*
X161044800Y-119243817D01*
X161039414Y-119370519D01*
X161006652Y-119422911D01*
X160921608Y-119428253D01*
X160879700Y-119424518D01*
X160714600Y-119408600D01*
X160662273Y-118951400D01*
X160609947Y-118494200D01*
X160519987Y-118799000D01*
X160465067Y-118984026D01*
X160416113Y-119147172D01*
X160390601Y-119230800D01*
X160325001Y-119332968D01*
X160196790Y-119373211D01*
X160121543Y-119375841D01*
X160065418Y-119354173D01*
X160014339Y-119290674D01*
X159954227Y-119167810D01*
X159871006Y-118968046D01*
X159870502Y-118966811D01*
X159698600Y-118545000D01*
X159654146Y-118951400D01*
X159632767Y-119141055D01*
X159615251Y-119285776D01*
X159604607Y-119361044D01*
X159603242Y-119366370D01*
X159536821Y-119396868D01*
X159428394Y-119411363D01*
X159330170Y-119406019D01*
X159295756Y-119388954D01*
X159289278Y-119320209D01*
X159296163Y-119172842D01*
X159314835Y-118968723D01*
X159342725Y-118737138D01*
X159384999Y-118420828D01*
X159417758Y-118191243D01*
X159445791Y-118034519D01*
X159473886Y-117936792D01*
X159506833Y-117884198D01*
X159549420Y-117862875D01*
X159606437Y-117858957D01*
X159645989Y-117859200D01*
X159745030Y-117866638D01*
X159807636Y-117904969D01*
X159856826Y-117998214D01*
X159900934Y-118125275D01*
X159981904Y-118350752D01*
X160060014Y-118529351D01*
X160127852Y-118647441D01*
X160178007Y-118691396D01*
X160198226Y-118672000D01*
X160224291Y-118587719D01*
X160269276Y-118437018D01*
X160323881Y-118251079D01*
X160329005Y-118233490D01*
X160388230Y-118043938D01*
X160438304Y-117930912D01*
X160493316Y-117872033D01*
X160567354Y-117844921D01*
X160574542Y-117843450D01*
X160701177Y-117843247D01*
X160777855Y-117877129D01*
G36*
X163169566Y-117873755D02*
X163289970Y-117951585D01*
X163439756Y-118077621D01*
X163336271Y-118181106D01*
X163256421Y-118249737D01*
X163197553Y-118246677D01*
X163138092Y-118198895D01*
X163030554Y-118131877D01*
X162932935Y-118116717D01*
X162877306Y-118155847D01*
X162873600Y-118178823D01*
X162907641Y-118246788D01*
X162996148Y-118357425D01*
X163099197Y-118465853D01*
X163302666Y-118698452D01*
X163409361Y-118902963D01*
X163419584Y-119081282D01*
X163333636Y-119235305D01*
X163234387Y-119317954D01*
X163069616Y-119407254D01*
X162928996Y-119424866D01*
X162822800Y-119398251D01*
X162727646Y-119341768D01*
X162616481Y-119248038D01*
X162520081Y-119146707D01*
X162469221Y-119067420D01*
X162467200Y-119055715D01*
X162474894Y-119042583D01*
X162530723Y-119042583D01*
X162565013Y-119092327D01*
X162626975Y-119154710D01*
X162655317Y-119161215D01*
X162701341Y-119177951D01*
X162784007Y-119247479D01*
X162789703Y-119253121D01*
X162889716Y-119329031D01*
X162982317Y-119363897D01*
X163040511Y-119352590D01*
X163042102Y-119301089D01*
X163054188Y-119256569D01*
X163145297Y-119259160D01*
X163257840Y-119254411D01*
X163314782Y-119218504D01*
X163347053Y-119126640D01*
X163358278Y-119010965D01*
X163348020Y-118913277D01*
X163318360Y-118875200D01*
X163296173Y-118843872D01*
X163303758Y-118827055D01*
X163287936Y-118796883D01*
X163230556Y-118798738D01*
X163142613Y-118795976D01*
X163140437Y-118742371D01*
X163191100Y-118678531D01*
X163226774Y-118630129D01*
X163178907Y-118630162D01*
X163178400Y-118630271D01*
X163118598Y-118613684D01*
X163114290Y-118584928D01*
X163090359Y-118546077D01*
X163042457Y-118555461D01*
X162985703Y-118561707D01*
X162991068Y-118535022D01*
X162984665Y-118469493D01*
X162926653Y-118396140D01*
X162852284Y-118348595D01*
X162801718Y-118354389D01*
X162781837Y-118336726D01*
X162780847Y-118244806D01*
X162783751Y-118214985D01*
X162830077Y-118078831D01*
X162921492Y-118031626D01*
X163048084Y-118076892D01*
X163088547Y-118106667D01*
X163173239Y-118151503D01*
X163251224Y-118115973D01*
X163254755Y-118113070D01*
X163301526Y-118058292D01*
X163271558Y-118007526D01*
X163222662Y-117970823D01*
X163090542Y-117913193D01*
X162928014Y-117886750D01*
X162775014Y-117893465D01*
X162671479Y-117935308D01*
X162663878Y-117943258D01*
X162633600Y-118000259D01*
X162645000Y-118011600D01*
X162649569Y-118042854D01*
X162619600Y-118087800D01*
X162589156Y-118154703D01*
X162647140Y-118172931D01*
X162694374Y-118166257D01*
X162700961Y-118190317D01*
X162648318Y-118261924D01*
X162646422Y-118264027D01*
X162582652Y-118338252D01*
X162587551Y-118354441D01*
X162643481Y-118335353D01*
X162708588Y-118324210D01*
X162705699Y-118351182D01*
X162714754Y-118415743D01*
X162776801Y-118497791D01*
X162859723Y-118566499D01*
X162931404Y-118591045D01*
X162947823Y-118583564D01*
X162970628Y-118586294D01*
X162963237Y-118621200D01*
X162974704Y-118708310D01*
X163035731Y-118827820D01*
X163055522Y-118856017D01*
X163128666Y-118967254D01*
X163140703Y-119041476D01*
X163103935Y-119110017D01*
X163004954Y-119194989D01*
X162900973Y-119180345D01*
X162804908Y-119090129D01*
X162719625Y-119012527D01*
X162650864Y-119022813D01*
X162647834Y-119025247D01*
X162569630Y-119051490D01*
X162540400Y-119039859D01*
X162530723Y-119042583D01*
X162474894Y-119042583D01*
X162505867Y-118989726D01*
X162574186Y-118934425D01*
X162661861Y-118896694D01*
X162738401Y-118925496D01*
X162793360Y-118973005D01*
X162908044Y-119051998D01*
X163009342Y-119075768D01*
X163069999Y-119040978D01*
X163076800Y-119007721D01*
X163042840Y-118940422D01*
X162952819Y-118825530D01*
X162824517Y-118685235D01*
X162791496Y-118651740D01*
X162649874Y-118505850D01*
X162572167Y-118410158D01*
X162547534Y-118346058D01*
X162565136Y-118294940D01*
X162575596Y-118281106D01*
X162617840Y-118220247D01*
X162585311Y-118218736D01*
X162556100Y-118229094D01*
X162482424Y-118232617D01*
X162472135Y-118173480D01*
X162522868Y-118066479D01*
X162598273Y-117965222D01*
X162707292Y-117859611D01*
X162824191Y-117819494D01*
X162934766Y-117817499D01*
X163169566Y-117873755D01*
X163169566Y-117873755D01*
G37*
X163169566Y-117873755D02*
X163289970Y-117951585D01*
X163439756Y-118077621D01*
X163336271Y-118181106D01*
X163256421Y-118249737D01*
X163197553Y-118246677D01*
X163138092Y-118198895D01*
X163030554Y-118131877D01*
X162932935Y-118116717D01*
X162877306Y-118155847D01*
X162873600Y-118178823D01*
X162907641Y-118246788D01*
X162996148Y-118357425D01*
X163099197Y-118465853D01*
X163302666Y-118698452D01*
X163409361Y-118902963D01*
X163419584Y-119081282D01*
X163333636Y-119235305D01*
X163234387Y-119317954D01*
X163069616Y-119407254D01*
X162928996Y-119424866D01*
X162822800Y-119398251D01*
X162727646Y-119341768D01*
X162616481Y-119248038D01*
X162520081Y-119146707D01*
X162469221Y-119067420D01*
X162467200Y-119055715D01*
X162474894Y-119042583D01*
X162530723Y-119042583D01*
X162565013Y-119092327D01*
X162626975Y-119154710D01*
X162655317Y-119161215D01*
X162701341Y-119177951D01*
X162784007Y-119247479D01*
X162789703Y-119253121D01*
X162889716Y-119329031D01*
X162982317Y-119363897D01*
X163040511Y-119352590D01*
X163042102Y-119301089D01*
X163054188Y-119256569D01*
X163145297Y-119259160D01*
X163257840Y-119254411D01*
X163314782Y-119218504D01*
X163347053Y-119126640D01*
X163358278Y-119010965D01*
X163348020Y-118913277D01*
X163318360Y-118875200D01*
X163296173Y-118843872D01*
X163303758Y-118827055D01*
X163287936Y-118796883D01*
X163230556Y-118798738D01*
X163142613Y-118795976D01*
X163140437Y-118742371D01*
X163191100Y-118678531D01*
X163226774Y-118630129D01*
X163178907Y-118630162D01*
X163178400Y-118630271D01*
X163118598Y-118613684D01*
X163114290Y-118584928D01*
X163090359Y-118546077D01*
X163042457Y-118555461D01*
X162985703Y-118561707D01*
X162991068Y-118535022D01*
X162984665Y-118469493D01*
X162926653Y-118396140D01*
X162852284Y-118348595D01*
X162801718Y-118354389D01*
X162781837Y-118336726D01*
X162780847Y-118244806D01*
X162783751Y-118214985D01*
X162830077Y-118078831D01*
X162921492Y-118031626D01*
X163048084Y-118076892D01*
X163088547Y-118106667D01*
X163173239Y-118151503D01*
X163251224Y-118115973D01*
X163254755Y-118113070D01*
X163301526Y-118058292D01*
X163271558Y-118007526D01*
X163222662Y-117970823D01*
X163090542Y-117913193D01*
X162928014Y-117886750D01*
X162775014Y-117893465D01*
X162671479Y-117935308D01*
X162663878Y-117943258D01*
X162633600Y-118000259D01*
X162645000Y-118011600D01*
X162649569Y-118042854D01*
X162619600Y-118087800D01*
X162589156Y-118154703D01*
X162647140Y-118172931D01*
X162694374Y-118166257D01*
X162700961Y-118190317D01*
X162648318Y-118261924D01*
X162646422Y-118264027D01*
X162582652Y-118338252D01*
X162587551Y-118354441D01*
X162643481Y-118335353D01*
X162708588Y-118324210D01*
X162705699Y-118351182D01*
X162714754Y-118415743D01*
X162776801Y-118497791D01*
X162859723Y-118566499D01*
X162931404Y-118591045D01*
X162947823Y-118583564D01*
X162970628Y-118586294D01*
X162963237Y-118621200D01*
X162974704Y-118708310D01*
X163035731Y-118827820D01*
X163055522Y-118856017D01*
X163128666Y-118967254D01*
X163140703Y-119041476D01*
X163103935Y-119110017D01*
X163004954Y-119194989D01*
X162900973Y-119180345D01*
X162804908Y-119090129D01*
X162719625Y-119012527D01*
X162650864Y-119022813D01*
X162647834Y-119025247D01*
X162569630Y-119051490D01*
X162540400Y-119039859D01*
X162530723Y-119042583D01*
X162474894Y-119042583D01*
X162505867Y-118989726D01*
X162574186Y-118934425D01*
X162661861Y-118896694D01*
X162738401Y-118925496D01*
X162793360Y-118973005D01*
X162908044Y-119051998D01*
X163009342Y-119075768D01*
X163069999Y-119040978D01*
X163076800Y-119007721D01*
X163042840Y-118940422D01*
X162952819Y-118825530D01*
X162824517Y-118685235D01*
X162791496Y-118651740D01*
X162649874Y-118505850D01*
X162572167Y-118410158D01*
X162547534Y-118346058D01*
X162565136Y-118294940D01*
X162575596Y-118281106D01*
X162617840Y-118220247D01*
X162585311Y-118218736D01*
X162556100Y-118229094D01*
X162482424Y-118232617D01*
X162472135Y-118173480D01*
X162522868Y-118066479D01*
X162598273Y-117965222D01*
X162707292Y-117859611D01*
X162824191Y-117819494D01*
X162934766Y-117817499D01*
X163169566Y-117873755D01*
G36*
X164405274Y-118208398D02*
X164583254Y-118326554D01*
X164707145Y-118495910D01*
X164753200Y-118692320D01*
X164753200Y-118875200D01*
X164410300Y-118883248D01*
X164221277Y-118886319D01*
X164064273Y-118886437D01*
X163978500Y-118883847D01*
X163903627Y-118907841D01*
X163889600Y-118941838D01*
X163931950Y-119049076D01*
X164039785Y-119112136D01*
X164184281Y-119124636D01*
X164336613Y-119080193D01*
X164384447Y-119051414D01*
X164485075Y-119001626D01*
X164575836Y-119024547D01*
X164598950Y-119038234D01*
X164678783Y-119098758D01*
X164689339Y-119155545D01*
X164625766Y-119232855D01*
X164546102Y-119302484D01*
X164343628Y-119410779D01*
X164112026Y-119423865D01*
X163940426Y-119376928D01*
X163741207Y-119254766D01*
X163602898Y-119082859D01*
X163556288Y-118952679D01*
X163547942Y-118809367D01*
X163559133Y-118717416D01*
X163606189Y-118717416D01*
X163615911Y-118841299D01*
X163670705Y-118972529D01*
X163711209Y-119026947D01*
X163767773Y-119100612D01*
X163770970Y-119129200D01*
X163773633Y-119161088D01*
X163817937Y-119222333D01*
X163899524Y-119287033D01*
X163985143Y-119317202D01*
X164037554Y-119302249D01*
X164041222Y-119285833D01*
X164016242Y-119222690D01*
X164012793Y-119216810D01*
X164069611Y-119216810D01*
X164095128Y-119285950D01*
X164153212Y-119362223D01*
X164182791Y-119351064D01*
X164164760Y-119263470D01*
X164114654Y-119192414D01*
X164199065Y-119192414D01*
X164207558Y-119253696D01*
X164225235Y-119302845D01*
X164277456Y-119376595D01*
X164330825Y-119352576D01*
X164359957Y-119281600D01*
X164397600Y-119281600D01*
X164416186Y-119323414D01*
X164431466Y-119315466D01*
X164437546Y-119255178D01*
X164431466Y-119247733D01*
X164401266Y-119254706D01*
X164397600Y-119281600D01*
X164359957Y-119281600D01*
X164364260Y-119271118D01*
X164373761Y-119177609D01*
X164356272Y-119125228D01*
X164448400Y-119125228D01*
X164473495Y-119188765D01*
X164520019Y-119206418D01*
X164540580Y-119182858D01*
X164590969Y-119153215D01*
X164617838Y-119162428D01*
X164649127Y-119169543D01*
X164637429Y-119152807D01*
X164566019Y-119109829D01*
X164486684Y-119098001D01*
X164448411Y-119124472D01*
X164448400Y-119125228D01*
X164356272Y-119125228D01*
X164356026Y-119124494D01*
X164324287Y-119137065D01*
X164310106Y-119167616D01*
X164262590Y-119208839D01*
X164240861Y-119202718D01*
X164199065Y-119192414D01*
X164114654Y-119192414D01*
X164114244Y-119191833D01*
X164085577Y-119180000D01*
X164069611Y-119216810D01*
X164012793Y-119216810D01*
X163991200Y-119180000D01*
X163950970Y-119136159D01*
X163941177Y-119170298D01*
X163910408Y-119211192D01*
X163886136Y-119203259D01*
X163853267Y-119134011D01*
X163860154Y-119096023D01*
X163863018Y-119046384D01*
X163843974Y-119049802D01*
X163781227Y-119037978D01*
X163730255Y-118992129D01*
X163688592Y-118931637D01*
X163723910Y-118931225D01*
X163757085Y-118943051D01*
X163821074Y-118957972D01*
X163804869Y-118918480D01*
X163801709Y-118914462D01*
X163765385Y-118796907D01*
X163775809Y-118750666D01*
X163859921Y-118750666D01*
X163864559Y-118774181D01*
X163918893Y-118816293D01*
X163977120Y-118823360D01*
X163991200Y-118804435D01*
X163951352Y-118771809D01*
X163912361Y-118754216D01*
X163859921Y-118750666D01*
X163775809Y-118750666D01*
X163793409Y-118672595D01*
X163994688Y-118672595D01*
X164005438Y-118696868D01*
X164028493Y-118727033D01*
X164109821Y-118789947D01*
X164194694Y-118805071D01*
X164243856Y-118767821D01*
X164245977Y-118752433D01*
X164266672Y-118737553D01*
X164289708Y-118765159D01*
X164331229Y-118806529D01*
X164356336Y-118767721D01*
X164608842Y-118767721D01*
X164618632Y-118819373D01*
X164640520Y-118824400D01*
X164671820Y-118780436D01*
X164687990Y-118684700D01*
X164689368Y-118595764D01*
X164673409Y-118600399D01*
X164651841Y-118646600D01*
X164608842Y-118767721D01*
X164356336Y-118767721D01*
X164359637Y-118762619D01*
X164345686Y-118706548D01*
X164265106Y-118692320D01*
X164172277Y-118709028D01*
X164143600Y-118739180D01*
X164111352Y-118749932D01*
X164054700Y-118716320D01*
X163994688Y-118672595D01*
X163793409Y-118672595D01*
X163796911Y-118657063D01*
X163840546Y-118586100D01*
X163965847Y-118586100D01*
X163978104Y-118608664D01*
X164065537Y-118617704D01*
X164187920Y-118619584D01*
X164342143Y-118617021D01*
X164412375Y-118602798D01*
X164416078Y-118570704D01*
X164397600Y-118545000D01*
X164282895Y-118478306D01*
X164134805Y-118483714D01*
X164013609Y-118543384D01*
X163965847Y-118586100D01*
X163840546Y-118586100D01*
X163877589Y-118525858D01*
X163988722Y-118434219D01*
X164105500Y-118411984D01*
X164142258Y-118379463D01*
X164143600Y-118366028D01*
X164179475Y-118354592D01*
X164267212Y-118395308D01*
X164280855Y-118403991D01*
X164373364Y-118461486D01*
X164401106Y-118460219D01*
X164383746Y-118397944D01*
X164381787Y-118392462D01*
X164368664Y-118338400D01*
X164400607Y-118362332D01*
X164446830Y-118418000D01*
X164511754Y-118520671D01*
X164529164Y-118594057D01*
X164528572Y-118595800D01*
X164482434Y-118725619D01*
X164478585Y-118765341D01*
X164516630Y-118713869D01*
X164550142Y-118655571D01*
X164614806Y-118519139D01*
X164622161Y-118433077D01*
X164598170Y-118389431D01*
X164529434Y-118340596D01*
X164497782Y-118342675D01*
X164447867Y-118329108D01*
X164437285Y-118308455D01*
X164386806Y-118249201D01*
X164318928Y-118236932D01*
X164276215Y-118271580D01*
X164278264Y-118308711D01*
X164287517Y-118358543D01*
X164252512Y-118328785D01*
X164228110Y-118299684D01*
X164144530Y-118236847D01*
X164058863Y-118256574D01*
X163958411Y-118303187D01*
X163915000Y-118317676D01*
X163847603Y-118360025D01*
X163755143Y-118446658D01*
X163752325Y-118449685D01*
X163680836Y-118540585D01*
X163689736Y-118578007D01*
X163752075Y-118575690D01*
X163764195Y-118606619D01*
X163741162Y-118664595D01*
X163714789Y-118758037D01*
X163726287Y-118800465D01*
X163726671Y-118817561D01*
X163701318Y-118805517D01*
X163664302Y-118735656D01*
X163671851Y-118687439D01*
X163677762Y-118631443D01*
X163647784Y-118639069D01*
X163606189Y-118717416D01*
X163559133Y-118717416D01*
X163566280Y-118658703D01*
X163603667Y-118532075D01*
X163652468Y-118460870D01*
X163677238Y-118455490D01*
X163712077Y-118430212D01*
X163705854Y-118395424D01*
X163725009Y-118321832D01*
X163820568Y-118251255D01*
X163967710Y-118195391D01*
X164141611Y-118165938D01*
X164196957Y-118164000D01*
X164405274Y-118208398D01*
X164405274Y-118208398D01*
G37*
X164405274Y-118208398D02*
X164583254Y-118326554D01*
X164707145Y-118495910D01*
X164753200Y-118692320D01*
X164753200Y-118875200D01*
X164410300Y-118883248D01*
X164221277Y-118886319D01*
X164064273Y-118886437D01*
X163978500Y-118883847D01*
X163903627Y-118907841D01*
X163889600Y-118941838D01*
X163931950Y-119049076D01*
X164039785Y-119112136D01*
X164184281Y-119124636D01*
X164336613Y-119080193D01*
X164384447Y-119051414D01*
X164485075Y-119001626D01*
X164575836Y-119024547D01*
X164598950Y-119038234D01*
X164678783Y-119098758D01*
X164689339Y-119155545D01*
X164625766Y-119232855D01*
X164546102Y-119302484D01*
X164343628Y-119410779D01*
X164112026Y-119423865D01*
X163940426Y-119376928D01*
X163741207Y-119254766D01*
X163602898Y-119082859D01*
X163556288Y-118952679D01*
X163547942Y-118809367D01*
X163559133Y-118717416D01*
X163606189Y-118717416D01*
X163615911Y-118841299D01*
X163670705Y-118972529D01*
X163711209Y-119026947D01*
X163767773Y-119100612D01*
X163770970Y-119129200D01*
X163773633Y-119161088D01*
X163817937Y-119222333D01*
X163899524Y-119287033D01*
X163985143Y-119317202D01*
X164037554Y-119302249D01*
X164041222Y-119285833D01*
X164016242Y-119222690D01*
X164012793Y-119216810D01*
X164069611Y-119216810D01*
X164095128Y-119285950D01*
X164153212Y-119362223D01*
X164182791Y-119351064D01*
X164164760Y-119263470D01*
X164114654Y-119192414D01*
X164199065Y-119192414D01*
X164207558Y-119253696D01*
X164225235Y-119302845D01*
X164277456Y-119376595D01*
X164330825Y-119352576D01*
X164359957Y-119281600D01*
X164397600Y-119281600D01*
X164416186Y-119323414D01*
X164431466Y-119315466D01*
X164437546Y-119255178D01*
X164431466Y-119247733D01*
X164401266Y-119254706D01*
X164397600Y-119281600D01*
X164359957Y-119281600D01*
X164364260Y-119271118D01*
X164373761Y-119177609D01*
X164356272Y-119125228D01*
X164448400Y-119125228D01*
X164473495Y-119188765D01*
X164520019Y-119206418D01*
X164540580Y-119182858D01*
X164590969Y-119153215D01*
X164617838Y-119162428D01*
X164649127Y-119169543D01*
X164637429Y-119152807D01*
X164566019Y-119109829D01*
X164486684Y-119098001D01*
X164448411Y-119124472D01*
X164448400Y-119125228D01*
X164356272Y-119125228D01*
X164356026Y-119124494D01*
X164324287Y-119137065D01*
X164310106Y-119167616D01*
X164262590Y-119208839D01*
X164240861Y-119202718D01*
X164199065Y-119192414D01*
X164114654Y-119192414D01*
X164114244Y-119191833D01*
X164085577Y-119180000D01*
X164069611Y-119216810D01*
X164012793Y-119216810D01*
X163991200Y-119180000D01*
X163950970Y-119136159D01*
X163941177Y-119170298D01*
X163910408Y-119211192D01*
X163886136Y-119203259D01*
X163853267Y-119134011D01*
X163860154Y-119096023D01*
X163863018Y-119046384D01*
X163843974Y-119049802D01*
X163781227Y-119037978D01*
X163730255Y-118992129D01*
X163688592Y-118931637D01*
X163723910Y-118931225D01*
X163757085Y-118943051D01*
X163821074Y-118957972D01*
X163804869Y-118918480D01*
X163801709Y-118914462D01*
X163765385Y-118796907D01*
X163775809Y-118750666D01*
X163859921Y-118750666D01*
X163864559Y-118774181D01*
X163918893Y-118816293D01*
X163977120Y-118823360D01*
X163991200Y-118804435D01*
X163951352Y-118771809D01*
X163912361Y-118754216D01*
X163859921Y-118750666D01*
X163775809Y-118750666D01*
X163793409Y-118672595D01*
X163994688Y-118672595D01*
X164005438Y-118696868D01*
X164028493Y-118727033D01*
X164109821Y-118789947D01*
X164194694Y-118805071D01*
X164243856Y-118767821D01*
X164245977Y-118752433D01*
X164266672Y-118737553D01*
X164289708Y-118765159D01*
X164331229Y-118806529D01*
X164356336Y-118767721D01*
X164608842Y-118767721D01*
X164618632Y-118819373D01*
X164640520Y-118824400D01*
X164671820Y-118780436D01*
X164687990Y-118684700D01*
X164689368Y-118595764D01*
X164673409Y-118600399D01*
X164651841Y-118646600D01*
X164608842Y-118767721D01*
X164356336Y-118767721D01*
X164359637Y-118762619D01*
X164345686Y-118706548D01*
X164265106Y-118692320D01*
X164172277Y-118709028D01*
X164143600Y-118739180D01*
X164111352Y-118749932D01*
X164054700Y-118716320D01*
X163994688Y-118672595D01*
X163793409Y-118672595D01*
X163796911Y-118657063D01*
X163840546Y-118586100D01*
X163965847Y-118586100D01*
X163978104Y-118608664D01*
X164065537Y-118617704D01*
X164187920Y-118619584D01*
X164342143Y-118617021D01*
X164412375Y-118602798D01*
X164416078Y-118570704D01*
X164397600Y-118545000D01*
X164282895Y-118478306D01*
X164134805Y-118483714D01*
X164013609Y-118543384D01*
X163965847Y-118586100D01*
X163840546Y-118586100D01*
X163877589Y-118525858D01*
X163988722Y-118434219D01*
X164105500Y-118411984D01*
X164142258Y-118379463D01*
X164143600Y-118366028D01*
X164179475Y-118354592D01*
X164267212Y-118395308D01*
X164280855Y-118403991D01*
X164373364Y-118461486D01*
X164401106Y-118460219D01*
X164383746Y-118397944D01*
X164381787Y-118392462D01*
X164368664Y-118338400D01*
X164400607Y-118362332D01*
X164446830Y-118418000D01*
X164511754Y-118520671D01*
X164529164Y-118594057D01*
X164528572Y-118595800D01*
X164482434Y-118725619D01*
X164478585Y-118765341D01*
X164516630Y-118713869D01*
X164550142Y-118655571D01*
X164614806Y-118519139D01*
X164622161Y-118433077D01*
X164598170Y-118389431D01*
X164529434Y-118340596D01*
X164497782Y-118342675D01*
X164447867Y-118329108D01*
X164437285Y-118308455D01*
X164386806Y-118249201D01*
X164318928Y-118236932D01*
X164276215Y-118271580D01*
X164278264Y-118308711D01*
X164287517Y-118358543D01*
X164252512Y-118328785D01*
X164228110Y-118299684D01*
X164144530Y-118236847D01*
X164058863Y-118256574D01*
X163958411Y-118303187D01*
X163915000Y-118317676D01*
X163847603Y-118360025D01*
X163755143Y-118446658D01*
X163752325Y-118449685D01*
X163680836Y-118540585D01*
X163689736Y-118578007D01*
X163752075Y-118575690D01*
X163764195Y-118606619D01*
X163741162Y-118664595D01*
X163714789Y-118758037D01*
X163726287Y-118800465D01*
X163726671Y-118817561D01*
X163701318Y-118805517D01*
X163664302Y-118735656D01*
X163671851Y-118687439D01*
X163677762Y-118631443D01*
X163647784Y-118639069D01*
X163606189Y-118717416D01*
X163559133Y-118717416D01*
X163566280Y-118658703D01*
X163603667Y-118532075D01*
X163652468Y-118460870D01*
X163677238Y-118455490D01*
X163712077Y-118430212D01*
X163705854Y-118395424D01*
X163725009Y-118321832D01*
X163820568Y-118251255D01*
X163967710Y-118195391D01*
X164141611Y-118165938D01*
X164196957Y-118164000D01*
X164405274Y-118208398D01*
G36*
X166582738Y-118158219D02*
X166770066Y-118234661D01*
X166856951Y-118322151D01*
X166844045Y-118421649D01*
X166799908Y-118476669D01*
X166709649Y-118545890D01*
X166625398Y-118540482D01*
X166583838Y-118520583D01*
X166483970Y-118487835D01*
X166434022Y-118504867D01*
X166454346Y-118555074D01*
X166499905Y-118589058D01*
X166729058Y-118753543D01*
X166857060Y-118910690D01*
X166886800Y-119026487D01*
X166843691Y-119208534D01*
X166726282Y-119337151D01*
X166552451Y-119401640D01*
X166340071Y-119391306D01*
X166296288Y-119379838D01*
X166125563Y-119305661D01*
X166050752Y-119214641D01*
X166074182Y-119110322D01*
X166085986Y-119095333D01*
X166141733Y-119095333D01*
X166145532Y-119150812D01*
X166200067Y-119228328D01*
X166272729Y-119291812D01*
X166330907Y-119305197D01*
X166331279Y-119304973D01*
X166390283Y-119315436D01*
X166403772Y-119331708D01*
X166469632Y-119355942D01*
X166534282Y-119330750D01*
X166610997Y-119302820D01*
X166632800Y-119313086D01*
X166664180Y-119310084D01*
X166733264Y-119257227D01*
X166806652Y-119144898D01*
X166823869Y-119047183D01*
X166814010Y-118928058D01*
X166672337Y-119063789D01*
X166517036Y-119181649D01*
X166386004Y-119207678D01*
X166266013Y-119144473D01*
X166265128Y-119143675D01*
X166184272Y-119093156D01*
X166141733Y-119095333D01*
X166085986Y-119095333D01*
X166098803Y-119079059D01*
X166175032Y-119012645D01*
X166245347Y-119022761D01*
X166294917Y-119054612D01*
X166400877Y-119112188D01*
X166466303Y-119129200D01*
X166528085Y-119102157D01*
X166510480Y-119027062D01*
X166418132Y-118912968D01*
X166299822Y-118804907D01*
X166168489Y-118687682D01*
X166101514Y-118598336D01*
X166080881Y-118505274D01*
X166083922Y-118426210D01*
X166104521Y-118361768D01*
X166130466Y-118361768D01*
X166151622Y-118350030D01*
X166175509Y-118329100D01*
X166263306Y-118270467D01*
X166301859Y-118277946D01*
X166272709Y-118342320D01*
X166251800Y-118367200D01*
X166199818Y-118440426D01*
X166205826Y-118469577D01*
X166210794Y-118491372D01*
X166175600Y-118519600D01*
X166131759Y-118559829D01*
X166165898Y-118569622D01*
X166210002Y-118595750D01*
X166204557Y-118615444D01*
X166211962Y-118676574D01*
X166268436Y-118733553D01*
X166331622Y-118748443D01*
X166344178Y-118740488D01*
X166385478Y-118751495D01*
X166408936Y-118793025D01*
X166448353Y-118849017D01*
X166513177Y-118819612D01*
X166521484Y-118812996D01*
X166576027Y-118775212D01*
X166566049Y-118807165D01*
X166563353Y-118811700D01*
X166543701Y-118899851D01*
X166585376Y-118947034D01*
X166661574Y-118923196D01*
X166662272Y-118922619D01*
X166691840Y-118876446D01*
X166659043Y-118819312D01*
X166551875Y-118732006D01*
X166535822Y-118720308D01*
X166388559Y-118607629D01*
X166317531Y-118530160D01*
X166313056Y-118468873D01*
X166365456Y-118404743D01*
X166372157Y-118398611D01*
X166443560Y-118346587D01*
X166507748Y-118355288D01*
X166593945Y-118416492D01*
X166691224Y-118480455D01*
X166751678Y-118476795D01*
X166780211Y-118449410D01*
X166807851Y-118373593D01*
X166768452Y-118323580D01*
X166694140Y-118290919D01*
X166666225Y-118299907D01*
X166636406Y-118292506D01*
X166632800Y-118265600D01*
X166614431Y-118223543D01*
X166599374Y-118231292D01*
X166537931Y-118233514D01*
X166502296Y-118211892D01*
X166430265Y-118188261D01*
X166407095Y-118210114D01*
X166339269Y-118241610D01*
X166309111Y-118235669D01*
X166229795Y-118250947D01*
X166173488Y-118301388D01*
X166130466Y-118361768D01*
X166104521Y-118361768D01*
X166138446Y-118255641D01*
X166260845Y-118155224D01*
X166440410Y-118130713D01*
X166582738Y-118158219D01*
X166582738Y-118158219D01*
G37*
X166582738Y-118158219D02*
X166770066Y-118234661D01*
X166856951Y-118322151D01*
X166844045Y-118421649D01*
X166799908Y-118476669D01*
X166709649Y-118545890D01*
X166625398Y-118540482D01*
X166583838Y-118520583D01*
X166483970Y-118487835D01*
X166434022Y-118504867D01*
X166454346Y-118555074D01*
X166499905Y-118589058D01*
X166729058Y-118753543D01*
X166857060Y-118910690D01*
X166886800Y-119026487D01*
X166843691Y-119208534D01*
X166726282Y-119337151D01*
X166552451Y-119401640D01*
X166340071Y-119391306D01*
X166296288Y-119379838D01*
X166125563Y-119305661D01*
X166050752Y-119214641D01*
X166074182Y-119110322D01*
X166085986Y-119095333D01*
X166141733Y-119095333D01*
X166145532Y-119150812D01*
X166200067Y-119228328D01*
X166272729Y-119291812D01*
X166330907Y-119305197D01*
X166331279Y-119304973D01*
X166390283Y-119315436D01*
X166403772Y-119331708D01*
X166469632Y-119355942D01*
X166534282Y-119330750D01*
X166610997Y-119302820D01*
X166632800Y-119313086D01*
X166664180Y-119310084D01*
X166733264Y-119257227D01*
X166806652Y-119144898D01*
X166823869Y-119047183D01*
X166814010Y-118928058D01*
X166672337Y-119063789D01*
X166517036Y-119181649D01*
X166386004Y-119207678D01*
X166266013Y-119144473D01*
X166265128Y-119143675D01*
X166184272Y-119093156D01*
X166141733Y-119095333D01*
X166085986Y-119095333D01*
X166098803Y-119079059D01*
X166175032Y-119012645D01*
X166245347Y-119022761D01*
X166294917Y-119054612D01*
X166400877Y-119112188D01*
X166466303Y-119129200D01*
X166528085Y-119102157D01*
X166510480Y-119027062D01*
X166418132Y-118912968D01*
X166299822Y-118804907D01*
X166168489Y-118687682D01*
X166101514Y-118598336D01*
X166080881Y-118505274D01*
X166083922Y-118426210D01*
X166104521Y-118361768D01*
X166130466Y-118361768D01*
X166151622Y-118350030D01*
X166175509Y-118329100D01*
X166263306Y-118270467D01*
X166301859Y-118277946D01*
X166272709Y-118342320D01*
X166251800Y-118367200D01*
X166199818Y-118440426D01*
X166205826Y-118469577D01*
X166210794Y-118491372D01*
X166175600Y-118519600D01*
X166131759Y-118559829D01*
X166165898Y-118569622D01*
X166210002Y-118595750D01*
X166204557Y-118615444D01*
X166211962Y-118676574D01*
X166268436Y-118733553D01*
X166331622Y-118748443D01*
X166344178Y-118740488D01*
X166385478Y-118751495D01*
X166408936Y-118793025D01*
X166448353Y-118849017D01*
X166513177Y-118819612D01*
X166521484Y-118812996D01*
X166576027Y-118775212D01*
X166566049Y-118807165D01*
X166563353Y-118811700D01*
X166543701Y-118899851D01*
X166585376Y-118947034D01*
X166661574Y-118923196D01*
X166662272Y-118922619D01*
X166691840Y-118876446D01*
X166659043Y-118819312D01*
X166551875Y-118732006D01*
X166535822Y-118720308D01*
X166388559Y-118607629D01*
X166317531Y-118530160D01*
X166313056Y-118468873D01*
X166365456Y-118404743D01*
X166372157Y-118398611D01*
X166443560Y-118346587D01*
X166507748Y-118355288D01*
X166593945Y-118416492D01*
X166691224Y-118480455D01*
X166751678Y-118476795D01*
X166780211Y-118449410D01*
X166807851Y-118373593D01*
X166768452Y-118323580D01*
X166694140Y-118290919D01*
X166666225Y-118299907D01*
X166636406Y-118292506D01*
X166632800Y-118265600D01*
X166614431Y-118223543D01*
X166599374Y-118231292D01*
X166537931Y-118233514D01*
X166502296Y-118211892D01*
X166430265Y-118188261D01*
X166407095Y-118210114D01*
X166339269Y-118241610D01*
X166309111Y-118235669D01*
X166229795Y-118250947D01*
X166173488Y-118301388D01*
X166130466Y-118361768D01*
X166104521Y-118361768D01*
X166138446Y-118255641D01*
X166260845Y-118155224D01*
X166440410Y-118130713D01*
X166582738Y-118158219D01*
G36*
X169826183Y-118156470D02*
X169897936Y-118181336D01*
X170054878Y-118263665D01*
X170116123Y-118344943D01*
X170086935Y-118435509D01*
X170049248Y-118478528D01*
X169963390Y-118545568D01*
X169886509Y-118538287D01*
X169842194Y-118513427D01*
X169747165Y-118477926D01*
X169695810Y-118489381D01*
X169700245Y-118543836D01*
X169751105Y-118589058D01*
X169966330Y-118739645D01*
X170091786Y-118882535D01*
X170137413Y-119029558D01*
X170138000Y-119049642D01*
X170093674Y-119221976D01*
X169973970Y-119345969D01*
X169798799Y-119408530D01*
X169604600Y-119400327D01*
X169490088Y-119353948D01*
X169377307Y-119283213D01*
X169294038Y-119212191D01*
X169286236Y-119159076D01*
X169332194Y-119100554D01*
X169393337Y-119100554D01*
X169426800Y-119129200D01*
X169470267Y-119169967D01*
X169458679Y-119179222D01*
X169448680Y-119210835D01*
X169477135Y-119255640D01*
X169547141Y-119306862D01*
X169581445Y-119305612D01*
X169641399Y-119315457D01*
X169654972Y-119331708D01*
X169722889Y-119355881D01*
X169778803Y-119334324D01*
X169863839Y-119304791D01*
X169895481Y-119310014D01*
X169943255Y-119302784D01*
X170001213Y-119230988D01*
X170048706Y-119126868D01*
X170065150Y-119045044D01*
X170071733Y-118921809D01*
X169926977Y-119060494D01*
X169764408Y-119181605D01*
X169627882Y-119211544D01*
X169527465Y-119153474D01*
X169447840Y-119090287D01*
X169407879Y-119079177D01*
X169393337Y-119100554D01*
X169332194Y-119100554D01*
X169342982Y-119086817D01*
X169412689Y-119021880D01*
X169477654Y-119017862D01*
X169580771Y-119069892D01*
X169702207Y-119121464D01*
X169777483Y-119103241D01*
X169783151Y-119097968D01*
X169791058Y-119045235D01*
X169729018Y-118960379D01*
X169589100Y-118832702D01*
X169582155Y-118826874D01*
X169413117Y-118662434D01*
X169347361Y-118545000D01*
X169376000Y-118545000D01*
X169401400Y-118570400D01*
X169426800Y-118545000D01*
X169401400Y-118519600D01*
X169376000Y-118545000D01*
X169347361Y-118545000D01*
X169331907Y-118517402D01*
X169331890Y-118388573D01*
X169396764Y-118388573D01*
X169426389Y-118469778D01*
X169454780Y-118488160D01*
X169502205Y-118552251D01*
X169503686Y-118617634D01*
X169505254Y-118694805D01*
X169527931Y-118709061D01*
X169589635Y-118735039D01*
X169655581Y-118799000D01*
X169707270Y-118855069D01*
X169712201Y-118845566D01*
X169726463Y-118797034D01*
X169757000Y-118790533D01*
X169806432Y-118813110D01*
X169802567Y-118832866D01*
X169801563Y-118910321D01*
X169855894Y-118971073D01*
X169881563Y-118976800D01*
X169935288Y-118936768D01*
X169950556Y-118907412D01*
X169926766Y-118836882D01*
X169826041Y-118735808D01*
X169747405Y-118676063D01*
X169618505Y-118580788D01*
X169561716Y-118519159D01*
X169563969Y-118469444D01*
X169597164Y-118426215D01*
X169671721Y-118371971D01*
X169763450Y-118335929D01*
X169839427Y-118325811D01*
X169866728Y-118349340D01*
X169860269Y-118364499D01*
X169879796Y-118408452D01*
X169935320Y-118432855D01*
X170027947Y-118437409D01*
X170061190Y-118418986D01*
X170051537Y-118360020D01*
X169992273Y-118305508D01*
X169928377Y-118292708D01*
X169917425Y-118299907D01*
X169887000Y-118293776D01*
X169884000Y-118271068D01*
X169856048Y-118231555D01*
X169836710Y-118238030D01*
X169771482Y-118231629D01*
X169757427Y-118215491D01*
X169691567Y-118191257D01*
X169626917Y-118216449D01*
X169550265Y-118243519D01*
X169528400Y-118231827D01*
X169507194Y-118219687D01*
X169460816Y-118264610D01*
X169415125Y-118335804D01*
X169396764Y-118388573D01*
X169331890Y-118388573D01*
X169331887Y-118373774D01*
X169375577Y-118266389D01*
X169478324Y-118173275D01*
X169638805Y-118134962D01*
X169826183Y-118156470D01*
X169826183Y-118156470D01*
G37*
X169826183Y-118156470D02*
X169897936Y-118181336D01*
X170054878Y-118263665D01*
X170116123Y-118344943D01*
X170086935Y-118435509D01*
X170049248Y-118478528D01*
X169963390Y-118545568D01*
X169886509Y-118538287D01*
X169842194Y-118513427D01*
X169747165Y-118477926D01*
X169695810Y-118489381D01*
X169700245Y-118543836D01*
X169751105Y-118589058D01*
X169966330Y-118739645D01*
X170091786Y-118882535D01*
X170137413Y-119029558D01*
X170138000Y-119049642D01*
X170093674Y-119221976D01*
X169973970Y-119345969D01*
X169798799Y-119408530D01*
X169604600Y-119400327D01*
X169490088Y-119353948D01*
X169377307Y-119283213D01*
X169294038Y-119212191D01*
X169286236Y-119159076D01*
X169332194Y-119100554D01*
X169393337Y-119100554D01*
X169426800Y-119129200D01*
X169470267Y-119169967D01*
X169458679Y-119179222D01*
X169448680Y-119210835D01*
X169477135Y-119255640D01*
X169547141Y-119306862D01*
X169581445Y-119305612D01*
X169641399Y-119315457D01*
X169654972Y-119331708D01*
X169722889Y-119355881D01*
X169778803Y-119334324D01*
X169863839Y-119304791D01*
X169895481Y-119310014D01*
X169943255Y-119302784D01*
X170001213Y-119230988D01*
X170048706Y-119126868D01*
X170065150Y-119045044D01*
X170071733Y-118921809D01*
X169926977Y-119060494D01*
X169764408Y-119181605D01*
X169627882Y-119211544D01*
X169527465Y-119153474D01*
X169447840Y-119090287D01*
X169407879Y-119079177D01*
X169393337Y-119100554D01*
X169332194Y-119100554D01*
X169342982Y-119086817D01*
X169412689Y-119021880D01*
X169477654Y-119017862D01*
X169580771Y-119069892D01*
X169702207Y-119121464D01*
X169777483Y-119103241D01*
X169783151Y-119097968D01*
X169791058Y-119045235D01*
X169729018Y-118960379D01*
X169589100Y-118832702D01*
X169582155Y-118826874D01*
X169413117Y-118662434D01*
X169347361Y-118545000D01*
X169376000Y-118545000D01*
X169401400Y-118570400D01*
X169426800Y-118545000D01*
X169401400Y-118519600D01*
X169376000Y-118545000D01*
X169347361Y-118545000D01*
X169331907Y-118517402D01*
X169331890Y-118388573D01*
X169396764Y-118388573D01*
X169426389Y-118469778D01*
X169454780Y-118488160D01*
X169502205Y-118552251D01*
X169503686Y-118617634D01*
X169505254Y-118694805D01*
X169527931Y-118709061D01*
X169589635Y-118735039D01*
X169655581Y-118799000D01*
X169707270Y-118855069D01*
X169712201Y-118845566D01*
X169726463Y-118797034D01*
X169757000Y-118790533D01*
X169806432Y-118813110D01*
X169802567Y-118832866D01*
X169801563Y-118910321D01*
X169855894Y-118971073D01*
X169881563Y-118976800D01*
X169935288Y-118936768D01*
X169950556Y-118907412D01*
X169926766Y-118836882D01*
X169826041Y-118735808D01*
X169747405Y-118676063D01*
X169618505Y-118580788D01*
X169561716Y-118519159D01*
X169563969Y-118469444D01*
X169597164Y-118426215D01*
X169671721Y-118371971D01*
X169763450Y-118335929D01*
X169839427Y-118325811D01*
X169866728Y-118349340D01*
X169860269Y-118364499D01*
X169879796Y-118408452D01*
X169935320Y-118432855D01*
X170027947Y-118437409D01*
X170061190Y-118418986D01*
X170051537Y-118360020D01*
X169992273Y-118305508D01*
X169928377Y-118292708D01*
X169917425Y-118299907D01*
X169887000Y-118293776D01*
X169884000Y-118271068D01*
X169856048Y-118231555D01*
X169836710Y-118238030D01*
X169771482Y-118231629D01*
X169757427Y-118215491D01*
X169691567Y-118191257D01*
X169626917Y-118216449D01*
X169550265Y-118243519D01*
X169528400Y-118231827D01*
X169507194Y-118219687D01*
X169460816Y-118264610D01*
X169415125Y-118335804D01*
X169396764Y-118388573D01*
X169331890Y-118388573D01*
X169331887Y-118373774D01*
X169375577Y-118266389D01*
X169478324Y-118173275D01*
X169638805Y-118134962D01*
X169826183Y-118156470D01*
G36*
X165589643Y-118188027D02*
X165750216Y-118283633D01*
X165827131Y-118360490D01*
X165868663Y-118444597D01*
X165885013Y-118569167D01*
X165886761Y-118728133D01*
X165884184Y-118996048D01*
X165878563Y-119178698D01*
X165865663Y-119292410D01*
X165841249Y-119353512D01*
X165801087Y-119378330D01*
X165740941Y-119383192D01*
X165716853Y-119383200D01*
X165630795Y-119378437D01*
X165585889Y-119347526D01*
X165568752Y-119265533D01*
X165566000Y-119107526D01*
X165566000Y-119102168D01*
X165550357Y-118877741D01*
X165508213Y-118689784D01*
X165446743Y-118557060D01*
X165373125Y-118498330D01*
X165336316Y-118501645D01*
X165241023Y-118589448D01*
X165182488Y-118767127D01*
X165159931Y-119037240D01*
X165159600Y-119081707D01*
X165157540Y-119249273D01*
X165143246Y-119339319D01*
X165104547Y-119375920D01*
X165029271Y-119383157D01*
X165007200Y-119383200D01*
X164854800Y-119383200D01*
X164854800Y-118964341D01*
X164924187Y-118964341D01*
X164946247Y-119002201D01*
X164973559Y-118992690D01*
X164997885Y-118991944D01*
X164966633Y-119038725D01*
X164929370Y-119118299D01*
X164956400Y-119154600D01*
X164985128Y-119207710D01*
X164956031Y-119256643D01*
X164928170Y-119299420D01*
X164956412Y-119310673D01*
X165059655Y-119294129D01*
X165102320Y-119285486D01*
X165091904Y-119250394D01*
X165064660Y-119213425D01*
X165031258Y-119140521D01*
X165039047Y-119114286D01*
X165067481Y-119045298D01*
X165081939Y-118936835D01*
X165080413Y-118832391D01*
X165060892Y-118775458D01*
X165054782Y-118773600D01*
X164990433Y-118816096D01*
X164936758Y-118914166D01*
X164924187Y-118964341D01*
X164854800Y-118964341D01*
X164854800Y-118750927D01*
X164931892Y-118750927D01*
X164987805Y-118742567D01*
X164996687Y-118740268D01*
X165091848Y-118678259D01*
X165123276Y-118622126D01*
X165121877Y-118507977D01*
X165103351Y-118461723D01*
X165065843Y-118422490D01*
X165058777Y-118433698D01*
X165025768Y-118451381D01*
X165004160Y-118441521D01*
X164992577Y-118390803D01*
X165042260Y-118340139D01*
X165104227Y-118289562D01*
X165080118Y-118280482D01*
X165032600Y-118286476D01*
X164952321Y-118332819D01*
X164937657Y-118422960D01*
X164948136Y-118555324D01*
X164969101Y-118604369D01*
X165014322Y-118588324D01*
X165045300Y-118565457D01*
X165074345Y-118552602D01*
X165039270Y-118603062D01*
X165014083Y-118632202D01*
X164939714Y-118719957D01*
X164931892Y-118750927D01*
X164854800Y-118750927D01*
X164854800Y-118208362D01*
X165019900Y-118224281D01*
X165134326Y-118247355D01*
X165177714Y-118305276D01*
X165182133Y-118380855D01*
X165201162Y-118480762D01*
X165244859Y-118499603D01*
X165284661Y-118431721D01*
X165290401Y-118402304D01*
X165280308Y-118343281D01*
X165256740Y-118344556D01*
X165212775Y-118357280D01*
X165230127Y-118313342D01*
X165233712Y-118309195D01*
X165314095Y-118309195D01*
X165358909Y-118290866D01*
X165362800Y-118288701D01*
X165411918Y-118267556D01*
X165388711Y-118307889D01*
X165373379Y-118327108D01*
X165340877Y-118402530D01*
X165378712Y-118436330D01*
X165461707Y-118421521D01*
X165539724Y-118373271D01*
X165608332Y-118319479D01*
X165606726Y-118333289D01*
X165569488Y-118382449D01*
X165526633Y-118461893D01*
X165560071Y-118530227D01*
X165590219Y-118560249D01*
X165646242Y-118604074D01*
X165648527Y-118586610D01*
X165646047Y-118514512D01*
X165662311Y-118497468D01*
X165696883Y-118503417D01*
X165690512Y-118569930D01*
X165646322Y-118666023D01*
X165645138Y-118667932D01*
X165628724Y-118718645D01*
X165676199Y-118710876D01*
X165741642Y-118717133D01*
X165752266Y-118748200D01*
X165717038Y-118794326D01*
X165689219Y-118790519D01*
X165651578Y-118806356D01*
X165634172Y-118899611D01*
X165633120Y-119045329D01*
X165643449Y-119210691D01*
X165668170Y-119295011D01*
X165713776Y-119318539D01*
X165720616Y-119318265D01*
X165761992Y-119298971D01*
X165784759Y-119235641D01*
X165792433Y-119108388D01*
X165789522Y-118928598D01*
X165779356Y-118679475D01*
X165763920Y-118512159D01*
X165738798Y-118406859D01*
X165699573Y-118343787D01*
X165651083Y-118308166D01*
X165581771Y-118283779D01*
X165566000Y-118294695D01*
X165534473Y-118295861D01*
X165487647Y-118263813D01*
X165411381Y-118224407D01*
X165347947Y-118265045D01*
X165314095Y-118309195D01*
X165233712Y-118309195D01*
X165290228Y-118243828D01*
X165426765Y-118172152D01*
X165589643Y-118188027D01*
X165589643Y-118188027D01*
G37*
X165589643Y-118188027D02*
X165750216Y-118283633D01*
X165827131Y-118360490D01*
X165868663Y-118444597D01*
X165885013Y-118569167D01*
X165886761Y-118728133D01*
X165884184Y-118996048D01*
X165878563Y-119178698D01*
X165865663Y-119292410D01*
X165841249Y-119353512D01*
X165801087Y-119378330D01*
X165740941Y-119383192D01*
X165716853Y-119383200D01*
X165630795Y-119378437D01*
X165585889Y-119347526D01*
X165568752Y-119265533D01*
X165566000Y-119107526D01*
X165566000Y-119102168D01*
X165550357Y-118877741D01*
X165508213Y-118689784D01*
X165446743Y-118557060D01*
X165373125Y-118498330D01*
X165336316Y-118501645D01*
X165241023Y-118589448D01*
X165182488Y-118767127D01*
X165159931Y-119037240D01*
X165159600Y-119081707D01*
X165157540Y-119249273D01*
X165143246Y-119339319D01*
X165104547Y-119375920D01*
X165029271Y-119383157D01*
X165007200Y-119383200D01*
X164854800Y-119383200D01*
X164854800Y-118964341D01*
X164924187Y-118964341D01*
X164946247Y-119002201D01*
X164973559Y-118992690D01*
X164997885Y-118991944D01*
X164966633Y-119038725D01*
X164929370Y-119118299D01*
X164956400Y-119154600D01*
X164985128Y-119207710D01*
X164956031Y-119256643D01*
X164928170Y-119299420D01*
X164956412Y-119310673D01*
X165059655Y-119294129D01*
X165102320Y-119285486D01*
X165091904Y-119250394D01*
X165064660Y-119213425D01*
X165031258Y-119140521D01*
X165039047Y-119114286D01*
X165067481Y-119045298D01*
X165081939Y-118936835D01*
X165080413Y-118832391D01*
X165060892Y-118775458D01*
X165054782Y-118773600D01*
X164990433Y-118816096D01*
X164936758Y-118914166D01*
X164924187Y-118964341D01*
X164854800Y-118964341D01*
X164854800Y-118750927D01*
X164931892Y-118750927D01*
X164987805Y-118742567D01*
X164996687Y-118740268D01*
X165091848Y-118678259D01*
X165123276Y-118622126D01*
X165121877Y-118507977D01*
X165103351Y-118461723D01*
X165065843Y-118422490D01*
X165058777Y-118433698D01*
X165025768Y-118451381D01*
X165004160Y-118441521D01*
X164992577Y-118390803D01*
X165042260Y-118340139D01*
X165104227Y-118289562D01*
X165080118Y-118280482D01*
X165032600Y-118286476D01*
X164952321Y-118332819D01*
X164937657Y-118422960D01*
X164948136Y-118555324D01*
X164969101Y-118604369D01*
X165014322Y-118588324D01*
X165045300Y-118565457D01*
X165074345Y-118552602D01*
X165039270Y-118603062D01*
X165014083Y-118632202D01*
X164939714Y-118719957D01*
X164931892Y-118750927D01*
X164854800Y-118750927D01*
X164854800Y-118208362D01*
X165019900Y-118224281D01*
X165134326Y-118247355D01*
X165177714Y-118305276D01*
X165182133Y-118380855D01*
X165201162Y-118480762D01*
X165244859Y-118499603D01*
X165284661Y-118431721D01*
X165290401Y-118402304D01*
X165280308Y-118343281D01*
X165256740Y-118344556D01*
X165212775Y-118357280D01*
X165230127Y-118313342D01*
X165233712Y-118309195D01*
X165314095Y-118309195D01*
X165358909Y-118290866D01*
X165362800Y-118288701D01*
X165411918Y-118267556D01*
X165388711Y-118307889D01*
X165373379Y-118327108D01*
X165340877Y-118402530D01*
X165378712Y-118436330D01*
X165461707Y-118421521D01*
X165539724Y-118373271D01*
X165608332Y-118319479D01*
X165606726Y-118333289D01*
X165569488Y-118382449D01*
X165526633Y-118461893D01*
X165560071Y-118530227D01*
X165590219Y-118560249D01*
X165646242Y-118604074D01*
X165648527Y-118586610D01*
X165646047Y-118514512D01*
X165662311Y-118497468D01*
X165696883Y-118503417D01*
X165690512Y-118569930D01*
X165646322Y-118666023D01*
X165645138Y-118667932D01*
X165628724Y-118718645D01*
X165676199Y-118710876D01*
X165741642Y-118717133D01*
X165752266Y-118748200D01*
X165717038Y-118794326D01*
X165689219Y-118790519D01*
X165651578Y-118806356D01*
X165634172Y-118899611D01*
X165633120Y-119045329D01*
X165643449Y-119210691D01*
X165668170Y-119295011D01*
X165713776Y-119318539D01*
X165720616Y-119318265D01*
X165761992Y-119298971D01*
X165784759Y-119235641D01*
X165792433Y-119108388D01*
X165789522Y-118928598D01*
X165779356Y-118679475D01*
X165763920Y-118512159D01*
X165738798Y-118406859D01*
X165699573Y-118343787D01*
X165651083Y-118308166D01*
X165581771Y-118283779D01*
X165566000Y-118294695D01*
X165534473Y-118295861D01*
X165487647Y-118263813D01*
X165411381Y-118224407D01*
X165347947Y-118265045D01*
X165314095Y-118309195D01*
X165233712Y-118309195D01*
X165290228Y-118243828D01*
X165426765Y-118172152D01*
X165589643Y-118188027D01*
G36*
X167782189Y-118175260D02*
X167890714Y-118201091D01*
X167973279Y-118262124D01*
X168022622Y-118317134D01*
X168152155Y-118538072D01*
X168199968Y-118778981D01*
X168166089Y-119014534D01*
X168050544Y-119219404D01*
X168021638Y-119250506D01*
X167905435Y-119340130D01*
X167767947Y-119377221D01*
X167654572Y-119381399D01*
X167483891Y-119366175D01*
X167337988Y-119330200D01*
X167302839Y-119314474D01*
X167134917Y-119166819D01*
X167025005Y-118956187D01*
X167005329Y-118833710D01*
X167109889Y-118833710D01*
X167130520Y-118998789D01*
X167206939Y-119146374D01*
X167291656Y-119253246D01*
X167363192Y-119271258D01*
X167448082Y-119205063D01*
X167461091Y-119190948D01*
X167513919Y-119117327D01*
X167486080Y-119066840D01*
X167439584Y-119035632D01*
X167342927Y-118996583D01*
X167260423Y-119032322D01*
X167254067Y-119037383D01*
X167197518Y-119077904D01*
X167205459Y-119048833D01*
X167215097Y-119032450D01*
X167231044Y-118985190D01*
X167203908Y-118994592D01*
X167166370Y-118989402D01*
X167164980Y-118930807D01*
X167196814Y-118859188D01*
X167215207Y-118838570D01*
X167235518Y-118834800D01*
X167224315Y-118858989D01*
X167220451Y-118930622D01*
X167236540Y-118947778D01*
X167265752Y-118923472D01*
X167278352Y-118826716D01*
X167278135Y-118800095D01*
X167275224Y-118755741D01*
X167344237Y-118755741D01*
X167392508Y-118901807D01*
X167471372Y-118998096D01*
X167552042Y-119083215D01*
X167560722Y-119137689D01*
X167522172Y-119179690D01*
X167452827Y-119258348D01*
X167477107Y-119303563D01*
X167596600Y-119317084D01*
X167645544Y-119315520D01*
X167865288Y-119260064D01*
X167975544Y-119183246D01*
X168055176Y-119096419D01*
X168082987Y-119040729D01*
X168080840Y-119036307D01*
X168086806Y-118982596D01*
X168112660Y-118943374D01*
X168142098Y-118886987D01*
X168106000Y-118875200D01*
X168069224Y-118856487D01*
X168099339Y-118807025D01*
X168129540Y-118730944D01*
X168118259Y-118701192D01*
X168075567Y-118624112D01*
X168074250Y-118616966D01*
X168058950Y-118559581D01*
X168057663Y-118557700D01*
X168040988Y-118503948D01*
X168029433Y-118449460D01*
X167988546Y-118341607D01*
X167964381Y-118308336D01*
X167887906Y-118399023D01*
X167830603Y-118481035D01*
X167844311Y-118522839D01*
X167869318Y-118534869D01*
X167921997Y-118606436D01*
X167928459Y-118719747D01*
X167934345Y-118839722D01*
X167967196Y-118908998D01*
X167967596Y-118909250D01*
X167995177Y-118909438D01*
X167979000Y-118875200D01*
X167965458Y-118832813D01*
X168000371Y-118847310D01*
X168025259Y-118896781D01*
X167972791Y-118980820D01*
X167948565Y-119007559D01*
X167883698Y-119088758D01*
X167874417Y-119128423D01*
X167878704Y-119129200D01*
X167896413Y-119149848D01*
X167854529Y-119195420D01*
X167782196Y-119241357D01*
X167721125Y-119261994D01*
X167672850Y-119259583D01*
X167687541Y-119227492D01*
X167762855Y-119227492D01*
X167769803Y-119230800D01*
X167816163Y-119195037D01*
X167826600Y-119180000D01*
X167839544Y-119132507D01*
X167832596Y-119129200D01*
X167786236Y-119164962D01*
X167775800Y-119180000D01*
X167762855Y-119227492D01*
X167687541Y-119227492D01*
X167693027Y-119215509D01*
X167733311Y-119167535D01*
X167795159Y-119093136D01*
X167787301Y-119077754D01*
X167725000Y-119098323D01*
X167662570Y-119116958D01*
X167671806Y-119092768D01*
X167706341Y-119059220D01*
X167801200Y-119059220D01*
X167825910Y-119074425D01*
X167893442Y-119009168D01*
X167909279Y-118989500D01*
X167953214Y-118929327D01*
X167926907Y-118941942D01*
X167890100Y-118970320D01*
X167819744Y-119032986D01*
X167801200Y-119059220D01*
X167706341Y-119059220D01*
X167737700Y-119028758D01*
X167830147Y-118891963D01*
X167857357Y-118737582D01*
X167820138Y-118598565D01*
X167725000Y-118510356D01*
X167566240Y-118477585D01*
X167442357Y-118521988D01*
X167364604Y-118621920D01*
X167344237Y-118755741D01*
X167275224Y-118755741D01*
X167270661Y-118686245D01*
X167246396Y-118658151D01*
X167188795Y-118699969D01*
X167180956Y-118707032D01*
X167109889Y-118833710D01*
X167005329Y-118833710D01*
X166988734Y-118730420D01*
X167003371Y-118572470D01*
X167114311Y-118572470D01*
X167117244Y-118640369D01*
X167157910Y-118625130D01*
X167191497Y-118595893D01*
X167270975Y-118545540D01*
X167310022Y-118544889D01*
X167323508Y-118543656D01*
X167318489Y-118536422D01*
X167328353Y-118477716D01*
X167374300Y-118412585D01*
X167466411Y-118351271D01*
X167577611Y-118369105D01*
X167676558Y-118391790D01*
X167709627Y-118349613D01*
X167708438Y-118312166D01*
X167746587Y-118285783D01*
X167780315Y-118282533D01*
X167825441Y-118300748D01*
X167802893Y-118335026D01*
X167748720Y-118413213D01*
X167770989Y-118439844D01*
X167850974Y-118398940D01*
X167864700Y-118387773D01*
X167962151Y-118305266D01*
X167964381Y-118308336D01*
X167979000Y-118291000D01*
X167962151Y-118305266D01*
X167960466Y-118302946D01*
X167880368Y-118267885D01*
X167746958Y-118245197D01*
X167599083Y-118237139D01*
X167475586Y-118245972D01*
X167416660Y-118271327D01*
X167360025Y-118298215D01*
X167347279Y-118293026D01*
X167285527Y-118306043D01*
X167208324Y-118379644D01*
X167142270Y-118481924D01*
X167114311Y-118572470D01*
X167003371Y-118572470D01*
X167003704Y-118568886D01*
X167064220Y-118444793D01*
X167155741Y-118342098D01*
X167267041Y-118243249D01*
X167373056Y-118192535D01*
X167516910Y-118173745D01*
X167610066Y-118171329D01*
X167782189Y-118175260D01*
X167782189Y-118175260D01*
G37*
X167782189Y-118175260D02*
X167890714Y-118201091D01*
X167973279Y-118262124D01*
X168022622Y-118317134D01*
X168152155Y-118538072D01*
X168199968Y-118778981D01*
X168166089Y-119014534D01*
X168050544Y-119219404D01*
X168021638Y-119250506D01*
X167905435Y-119340130D01*
X167767947Y-119377221D01*
X167654572Y-119381399D01*
X167483891Y-119366175D01*
X167337988Y-119330200D01*
X167302839Y-119314474D01*
X167134917Y-119166819D01*
X167025005Y-118956187D01*
X167005329Y-118833710D01*
X167109889Y-118833710D01*
X167130520Y-118998789D01*
X167206939Y-119146374D01*
X167291656Y-119253246D01*
X167363192Y-119271258D01*
X167448082Y-119205063D01*
X167461091Y-119190948D01*
X167513919Y-119117327D01*
X167486080Y-119066840D01*
X167439584Y-119035632D01*
X167342927Y-118996583D01*
X167260423Y-119032322D01*
X167254067Y-119037383D01*
X167197518Y-119077904D01*
X167205459Y-119048833D01*
X167215097Y-119032450D01*
X167231044Y-118985190D01*
X167203908Y-118994592D01*
X167166370Y-118989402D01*
X167164980Y-118930807D01*
X167196814Y-118859188D01*
X167215207Y-118838570D01*
X167235518Y-118834800D01*
X167224315Y-118858989D01*
X167220451Y-118930622D01*
X167236540Y-118947778D01*
X167265752Y-118923472D01*
X167278352Y-118826716D01*
X167278135Y-118800095D01*
X167275224Y-118755741D01*
X167344237Y-118755741D01*
X167392508Y-118901807D01*
X167471372Y-118998096D01*
X167552042Y-119083215D01*
X167560722Y-119137689D01*
X167522172Y-119179690D01*
X167452827Y-119258348D01*
X167477107Y-119303563D01*
X167596600Y-119317084D01*
X167645544Y-119315520D01*
X167865288Y-119260064D01*
X167975544Y-119183246D01*
X168055176Y-119096419D01*
X168082987Y-119040729D01*
X168080840Y-119036307D01*
X168086806Y-118982596D01*
X168112660Y-118943374D01*
X168142098Y-118886987D01*
X168106000Y-118875200D01*
X168069224Y-118856487D01*
X168099339Y-118807025D01*
X168129540Y-118730944D01*
X168118259Y-118701192D01*
X168075567Y-118624112D01*
X168074250Y-118616966D01*
X168058950Y-118559581D01*
X168057663Y-118557700D01*
X168040988Y-118503948D01*
X168029433Y-118449460D01*
X167988546Y-118341607D01*
X167964381Y-118308336D01*
X167887906Y-118399023D01*
X167830603Y-118481035D01*
X167844311Y-118522839D01*
X167869318Y-118534869D01*
X167921997Y-118606436D01*
X167928459Y-118719747D01*
X167934345Y-118839722D01*
X167967196Y-118908998D01*
X167967596Y-118909250D01*
X167995177Y-118909438D01*
X167979000Y-118875200D01*
X167965458Y-118832813D01*
X168000371Y-118847310D01*
X168025259Y-118896781D01*
X167972791Y-118980820D01*
X167948565Y-119007559D01*
X167883698Y-119088758D01*
X167874417Y-119128423D01*
X167878704Y-119129200D01*
X167896413Y-119149848D01*
X167854529Y-119195420D01*
X167782196Y-119241357D01*
X167721125Y-119261994D01*
X167672850Y-119259583D01*
X167687541Y-119227492D01*
X167762855Y-119227492D01*
X167769803Y-119230800D01*
X167816163Y-119195037D01*
X167826600Y-119180000D01*
X167839544Y-119132507D01*
X167832596Y-119129200D01*
X167786236Y-119164962D01*
X167775800Y-119180000D01*
X167762855Y-119227492D01*
X167687541Y-119227492D01*
X167693027Y-119215509D01*
X167733311Y-119167535D01*
X167795159Y-119093136D01*
X167787301Y-119077754D01*
X167725000Y-119098323D01*
X167662570Y-119116958D01*
X167671806Y-119092768D01*
X167706341Y-119059220D01*
X167801200Y-119059220D01*
X167825910Y-119074425D01*
X167893442Y-119009168D01*
X167909279Y-118989500D01*
X167953214Y-118929327D01*
X167926907Y-118941942D01*
X167890100Y-118970320D01*
X167819744Y-119032986D01*
X167801200Y-119059220D01*
X167706341Y-119059220D01*
X167737700Y-119028758D01*
X167830147Y-118891963D01*
X167857357Y-118737582D01*
X167820138Y-118598565D01*
X167725000Y-118510356D01*
X167566240Y-118477585D01*
X167442357Y-118521988D01*
X167364604Y-118621920D01*
X167344237Y-118755741D01*
X167275224Y-118755741D01*
X167270661Y-118686245D01*
X167246396Y-118658151D01*
X167188795Y-118699969D01*
X167180956Y-118707032D01*
X167109889Y-118833710D01*
X167005329Y-118833710D01*
X166988734Y-118730420D01*
X167003371Y-118572470D01*
X167114311Y-118572470D01*
X167117244Y-118640369D01*
X167157910Y-118625130D01*
X167191497Y-118595893D01*
X167270975Y-118545540D01*
X167310022Y-118544889D01*
X167323508Y-118543656D01*
X167318489Y-118536422D01*
X167328353Y-118477716D01*
X167374300Y-118412585D01*
X167466411Y-118351271D01*
X167577611Y-118369105D01*
X167676558Y-118391790D01*
X167709627Y-118349613D01*
X167708438Y-118312166D01*
X167746587Y-118285783D01*
X167780315Y-118282533D01*
X167825441Y-118300748D01*
X167802893Y-118335026D01*
X167748720Y-118413213D01*
X167770989Y-118439844D01*
X167850974Y-118398940D01*
X167864700Y-118387773D01*
X167962151Y-118305266D01*
X167964381Y-118308336D01*
X167979000Y-118291000D01*
X167962151Y-118305266D01*
X167960466Y-118302946D01*
X167880368Y-118267885D01*
X167746958Y-118245197D01*
X167599083Y-118237139D01*
X167475586Y-118245972D01*
X167416660Y-118271327D01*
X167360025Y-118298215D01*
X167347279Y-118293026D01*
X167285527Y-118306043D01*
X167208324Y-118379644D01*
X167142270Y-118481924D01*
X167114311Y-118572470D01*
X167003371Y-118572470D01*
X167003704Y-118568886D01*
X167064220Y-118444793D01*
X167155741Y-118342098D01*
X167267041Y-118243249D01*
X167373056Y-118192535D01*
X167516910Y-118173745D01*
X167610066Y-118171329D01*
X167782189Y-118175260D01*
G36*
X168384978Y-118619895D02*
X168391387Y-118685850D01*
X168406556Y-118770237D01*
X168438740Y-118789686D01*
X168479368Y-118825172D01*
X168492080Y-118900705D01*
X168477767Y-118982613D01*
X168450611Y-118995408D01*
X168431639Y-118937453D01*
X168438369Y-118922489D01*
X168429856Y-118878293D01*
X168412060Y-118875200D01*
X168378187Y-118916347D01*
X168375109Y-119011547D01*
X168401581Y-119118437D01*
X168420281Y-119155160D01*
X168418803Y-119231232D01*
X168380895Y-119304569D01*
X168344858Y-119343898D01*
X168323343Y-119330353D01*
X168312716Y-119249246D01*
X168311811Y-119205400D01*
X168360000Y-119205400D01*
X168385400Y-119230800D01*
X168410800Y-119205400D01*
X168385400Y-119180000D01*
X168360000Y-119205400D01*
X168311811Y-119205400D01*
X168309342Y-119085892D01*
X168309200Y-119014907D01*
X168314588Y-118826400D01*
X168328845Y-118680535D01*
X168349104Y-118604277D01*
X168353287Y-118599948D01*
X168384978Y-118619895D01*
X168384978Y-118619895D01*
G37*
X168384978Y-118619895D02*
X168391387Y-118685850D01*
X168406556Y-118770237D01*
X168438740Y-118789686D01*
X168479368Y-118825172D01*
X168492080Y-118900705D01*
X168477767Y-118982613D01*
X168450611Y-118995408D01*
X168431639Y-118937453D01*
X168438369Y-118922489D01*
X168429856Y-118878293D01*
X168412060Y-118875200D01*
X168378187Y-118916347D01*
X168375109Y-119011547D01*
X168401581Y-119118437D01*
X168420281Y-119155160D01*
X168418803Y-119231232D01*
X168380895Y-119304569D01*
X168344858Y-119343898D01*
X168323343Y-119330353D01*
X168312716Y-119249246D01*
X168311811Y-119205400D01*
X168360000Y-119205400D01*
X168385400Y-119230800D01*
X168410800Y-119205400D01*
X168385400Y-119180000D01*
X168360000Y-119205400D01*
X168311811Y-119205400D01*
X168309342Y-119085892D01*
X168309200Y-119014907D01*
X168314588Y-118826400D01*
X168328845Y-118680535D01*
X168349104Y-118604277D01*
X168353287Y-118599948D01*
X168384978Y-118619895D01*
G36*
X168953032Y-118231584D02*
X169124041Y-118262437D01*
X169204053Y-118317392D01*
X169197447Y-118398864D01*
X169142878Y-118473796D01*
X169026128Y-118551567D01*
X168907567Y-118550373D01*
X168764189Y-118561360D01*
X168669715Y-118659140D01*
X168625783Y-118840566D01*
X168631576Y-119080235D01*
X168647123Y-119247954D01*
X168643872Y-119338482D01*
X168614159Y-119375615D01*
X168550323Y-119383150D01*
X168534023Y-119383200D01*
X168447417Y-119366819D01*
X168436712Y-119331571D01*
X168494786Y-119300477D01*
X168511450Y-119306413D01*
X168542313Y-119297065D01*
X168535656Y-119230063D01*
X168497442Y-119145410D01*
X168493172Y-119103800D01*
X168512400Y-119103800D01*
X168537800Y-119129200D01*
X168563200Y-119103800D01*
X168537800Y-119078400D01*
X168512400Y-119103800D01*
X168493172Y-119103800D01*
X168490184Y-119074684D01*
X168506343Y-119056743D01*
X168532988Y-118992438D01*
X168542799Y-118867002D01*
X168541456Y-118821290D01*
X168548012Y-118666917D01*
X168597417Y-118572508D01*
X168635585Y-118540678D01*
X168687894Y-118494200D01*
X169020400Y-118494200D01*
X169045800Y-118519600D01*
X169071200Y-118494200D01*
X169045800Y-118468800D01*
X169020400Y-118494200D01*
X168687894Y-118494200D01*
X168708875Y-118475558D01*
X168724066Y-118438188D01*
X168737354Y-118383420D01*
X168744911Y-118375666D01*
X168761889Y-118375425D01*
X168752853Y-118394447D01*
X168776078Y-118430311D01*
X168885551Y-118447644D01*
X168920692Y-118448518D01*
X169055320Y-118434672D01*
X169135586Y-118397975D01*
X169142375Y-118387374D01*
X169128618Y-118322076D01*
X169056404Y-118288744D01*
X168967352Y-118301809D01*
X168942283Y-118317990D01*
X168869953Y-118342647D01*
X168847072Y-118323635D01*
X168780075Y-118295345D01*
X168715549Y-118301693D01*
X168621888Y-118360451D01*
X168607751Y-118476086D01*
X168609242Y-118485275D01*
X168583343Y-118502433D01*
X168556609Y-118490126D01*
X168520988Y-118482438D01*
X168537800Y-118519600D01*
X168551054Y-118562363D01*
X168522904Y-118551492D01*
X168484385Y-118558347D01*
X168486532Y-118618774D01*
X168485673Y-118712457D01*
X168466424Y-118745218D01*
X168438013Y-118728350D01*
X168434481Y-118650894D01*
X168453049Y-118550023D01*
X168487075Y-118468800D01*
X168538281Y-118355291D01*
X168508628Y-118297735D01*
X168432425Y-118285920D01*
X168351970Y-118303037D01*
X168352628Y-118339260D01*
X168387640Y-118442806D01*
X168359085Y-118532581D01*
X168321900Y-118557700D01*
X168274966Y-118531639D01*
X168258442Y-118410502D01*
X168258400Y-118401241D01*
X168258400Y-118223616D01*
X168686647Y-118222422D01*
X168953032Y-118231584D01*
X168953032Y-118231584D01*
G37*
X168953032Y-118231584D02*
X169124041Y-118262437D01*
X169204053Y-118317392D01*
X169197447Y-118398864D01*
X169142878Y-118473796D01*
X169026128Y-118551567D01*
X168907567Y-118550373D01*
X168764189Y-118561360D01*
X168669715Y-118659140D01*
X168625783Y-118840566D01*
X168631576Y-119080235D01*
X168647123Y-119247954D01*
X168643872Y-119338482D01*
X168614159Y-119375615D01*
X168550323Y-119383150D01*
X168534023Y-119383200D01*
X168447417Y-119366819D01*
X168436712Y-119331571D01*
X168494786Y-119300477D01*
X168511450Y-119306413D01*
X168542313Y-119297065D01*
X168535656Y-119230063D01*
X168497442Y-119145410D01*
X168493172Y-119103800D01*
X168512400Y-119103800D01*
X168537800Y-119129200D01*
X168563200Y-119103800D01*
X168537800Y-119078400D01*
X168512400Y-119103800D01*
X168493172Y-119103800D01*
X168490184Y-119074684D01*
X168506343Y-119056743D01*
X168532988Y-118992438D01*
X168542799Y-118867002D01*
X168541456Y-118821290D01*
X168548012Y-118666917D01*
X168597417Y-118572508D01*
X168635585Y-118540678D01*
X168687894Y-118494200D01*
X169020400Y-118494200D01*
X169045800Y-118519600D01*
X169071200Y-118494200D01*
X169045800Y-118468800D01*
X169020400Y-118494200D01*
X168687894Y-118494200D01*
X168708875Y-118475558D01*
X168724066Y-118438188D01*
X168737354Y-118383420D01*
X168744911Y-118375666D01*
X168761889Y-118375425D01*
X168752853Y-118394447D01*
X168776078Y-118430311D01*
X168885551Y-118447644D01*
X168920692Y-118448518D01*
X169055320Y-118434672D01*
X169135586Y-118397975D01*
X169142375Y-118387374D01*
X169128618Y-118322076D01*
X169056404Y-118288744D01*
X168967352Y-118301809D01*
X168942283Y-118317990D01*
X168869953Y-118342647D01*
X168847072Y-118323635D01*
X168780075Y-118295345D01*
X168715549Y-118301693D01*
X168621888Y-118360451D01*
X168607751Y-118476086D01*
X168609242Y-118485275D01*
X168583343Y-118502433D01*
X168556609Y-118490126D01*
X168520988Y-118482438D01*
X168537800Y-118519600D01*
X168551054Y-118562363D01*
X168522904Y-118551492D01*
X168484385Y-118558347D01*
X168486532Y-118618774D01*
X168485673Y-118712457D01*
X168466424Y-118745218D01*
X168438013Y-118728350D01*
X168434481Y-118650894D01*
X168453049Y-118550023D01*
X168487075Y-118468800D01*
X168538281Y-118355291D01*
X168508628Y-118297735D01*
X168432425Y-118285920D01*
X168351970Y-118303037D01*
X168352628Y-118339260D01*
X168387640Y-118442806D01*
X168359085Y-118532581D01*
X168321900Y-118557700D01*
X168274966Y-118531639D01*
X168258442Y-118410502D01*
X168258400Y-118401241D01*
X168258400Y-118223616D01*
X168686647Y-118222422D01*
X168953032Y-118231584D01*
G36*
X168470895Y-118347544D02*
X168491501Y-118406448D01*
X168484830Y-118421510D01*
X168443131Y-118465873D01*
X168428035Y-118413605D01*
X168427733Y-118394834D01*
X168450151Y-118343886D01*
X168470895Y-118347544D01*
X168470895Y-118347544D01*
G37*
X168470895Y-118347544D02*
X168491501Y-118406448D01*
X168484830Y-118421510D01*
X168443131Y-118465873D01*
X168428035Y-118413605D01*
X168427733Y-118394834D01*
X168450151Y-118343886D01*
X168470895Y-118347544D01*
G36*
X168809350Y-118336949D02*
X168863459Y-118384171D01*
X168868000Y-118395598D01*
X168843891Y-118416477D01*
X168793698Y-118369692D01*
X168786949Y-118359350D01*
X168780961Y-118324588D01*
X168809350Y-118336949D01*
X168809350Y-118336949D01*
G37*
X168809350Y-118336949D02*
X168863459Y-118384171D01*
X168868000Y-118395598D01*
X168843891Y-118416477D01*
X168793698Y-118369692D01*
X168786949Y-118359350D01*
X168780961Y-118324588D01*
X168809350Y-118336949D01*
G36*
X169004462Y-118349214D02*
X168995000Y-118367200D01*
X168947135Y-118415714D01*
X168938203Y-118418000D01*
X168934737Y-118385185D01*
X168944200Y-118367200D01*
X168992064Y-118318685D01*
X169000996Y-118316400D01*
X169004462Y-118349214D01*
X169004462Y-118349214D01*
G37*
X169004462Y-118349214D02*
X168995000Y-118367200D01*
X168947135Y-118415714D01*
X168938203Y-118418000D01*
X168934737Y-118385185D01*
X168944200Y-118367200D01*
X168992064Y-118318685D01*
X169000996Y-118316400D01*
X169004462Y-118349214D01*
G36*
X165118834Y-111516885D02*
X165154658Y-111559461D01*
X165141937Y-111661012D01*
X165133923Y-111772033D01*
X165182951Y-111843049D01*
X165268391Y-111893918D01*
X165369363Y-111956618D01*
X165405744Y-112028548D01*
X165396825Y-112152176D01*
X165393970Y-112170360D01*
X165362733Y-112365709D01*
X165666557Y-112242254D01*
X165831594Y-112178263D01*
X165961102Y-112133644D01*
X166022190Y-112118799D01*
X166073326Y-112140933D01*
X166043495Y-112198194D01*
X165940825Y-112276870D01*
X165921600Y-112288519D01*
X165819567Y-112359462D01*
X165770079Y-112414829D01*
X165769200Y-112419777D01*
X165814056Y-112453828D01*
X165930940Y-112501538D01*
X166074000Y-112546534D01*
X166265189Y-112613563D01*
X166361827Y-112678401D01*
X166362300Y-112736945D01*
X166264991Y-112785096D01*
X166175600Y-112804600D01*
X166048778Y-112831953D01*
X165977836Y-112858759D01*
X165972400Y-112865858D01*
X166002965Y-112916800D01*
X166080217Y-113014402D01*
X166124800Y-113066361D01*
X166217410Y-113187259D01*
X166271474Y-113287669D01*
X166277200Y-113314367D01*
X166235346Y-113368389D01*
X166133650Y-113388609D01*
X166007907Y-113375514D01*
X165893916Y-113329591D01*
X165866590Y-113308790D01*
X165810418Y-113264393D01*
X165795335Y-113285055D01*
X165813763Y-113386409D01*
X165818567Y-113407847D01*
X165840911Y-113553735D01*
X165816078Y-113611312D01*
X165736083Y-113586007D01*
X165646676Y-113524657D01*
X165494042Y-113412229D01*
X165406415Y-113366006D01*
X165369116Y-113395017D01*
X165367466Y-113508290D01*
X165383986Y-113686235D01*
X165400826Y-114043616D01*
X165369526Y-114334639D01*
X165285325Y-114584819D01*
X165182967Y-114763420D01*
X165016009Y-115011519D01*
X165297677Y-115406659D01*
X165419369Y-115577346D01*
X165516131Y-115713011D01*
X165574779Y-115795172D01*
X165586141Y-115811034D01*
X165635434Y-115800020D01*
X165749930Y-115750282D01*
X165906771Y-115673770D01*
X166083096Y-115582429D01*
X166256046Y-115488209D01*
X166402761Y-115403057D01*
X166500384Y-115338921D01*
X166518822Y-115323554D01*
X166666673Y-115153508D01*
X166776699Y-114973773D01*
X166839932Y-114806251D01*
X166847403Y-114672843D01*
X166811539Y-114608779D01*
X166765895Y-114516292D01*
X166795566Y-114400050D01*
X166884850Y-114281450D01*
X167018047Y-114181890D01*
X167166200Y-114125436D01*
X167318600Y-114092541D01*
X167189937Y-114210570D01*
X167057963Y-114321930D01*
X166935937Y-114412347D01*
X166810600Y-114496095D01*
X166954385Y-114533180D01*
X167091834Y-114540011D01*
X167228860Y-114473330D01*
X167246485Y-114460611D01*
X167351209Y-114393730D01*
X167391758Y-114389138D01*
X167372569Y-114434190D01*
X167298078Y-114516241D01*
X167196012Y-114604505D01*
X167056658Y-114741285D01*
X166915545Y-114920707D01*
X166844438Y-115032670D01*
X166682507Y-115274806D01*
X166489946Y-115465362D01*
X166239912Y-115627486D01*
X166041451Y-115725149D01*
X165881590Y-115800807D01*
X165766077Y-115861527D01*
X165718571Y-115894823D01*
X165718400Y-115895686D01*
X165739044Y-115948665D01*
X165794794Y-116072746D01*
X165876380Y-116247638D01*
X165946173Y-116394172D01*
X166148723Y-116872308D01*
X166281299Y-117326439D01*
X166348557Y-117732200D01*
X166357734Y-117864940D01*
X166347402Y-117907637D01*
X166322010Y-117868986D01*
X166286001Y-117757680D01*
X166243823Y-117582412D01*
X166225159Y-117490900D01*
X166192277Y-117335031D01*
X166164959Y-117229057D01*
X166151703Y-117198800D01*
X166104271Y-117224868D01*
X165997299Y-117292792D01*
X165872002Y-117375790D01*
X165677839Y-117489299D01*
X165465563Y-117588192D01*
X165349677Y-117629790D01*
X165138279Y-117672370D01*
X164871918Y-117697736D01*
X164587976Y-117705082D01*
X164323836Y-117693600D01*
X164116882Y-117662483D01*
X164095829Y-117656868D01*
X163974216Y-117630156D01*
X163901220Y-117629291D01*
X163896559Y-117632106D01*
X163900171Y-117689282D01*
X163940327Y-117800296D01*
X163956695Y-117836161D01*
X164018556Y-117970952D01*
X164031097Y-118037590D01*
X163987781Y-118060076D01*
X163895072Y-118062400D01*
X163818481Y-118056301D01*
X163766376Y-118024107D01*
X163725119Y-117944975D01*
X163681070Y-117798059D01*
X163654103Y-117694100D01*
X163595633Y-117385261D01*
X163573601Y-117117408D01*
X163679533Y-117117408D01*
X163685098Y-117252845D01*
X163693527Y-117293745D01*
X163737523Y-117387700D01*
X163797602Y-117448343D01*
X163894815Y-117482912D01*
X164050215Y-117498646D01*
X164284851Y-117502785D01*
X164301528Y-117502822D01*
X164738857Y-117503600D01*
X164625831Y-116906700D01*
X164577667Y-116651646D01*
X164533091Y-116414342D01*
X164497457Y-116223369D01*
X164477876Y-116117038D01*
X164461939Y-116029082D01*
X164577579Y-116029082D01*
X164582046Y-116187393D01*
X164615026Y-116434464D01*
X164651987Y-116648668D01*
X164707950Y-116952384D01*
X164753704Y-117169862D01*
X164798300Y-117314619D01*
X164850792Y-117400172D01*
X164920230Y-117440042D01*
X165015668Y-117447745D01*
X165146157Y-117436801D01*
X165177553Y-117433533D01*
X165384106Y-117406481D01*
X165582174Y-117371289D01*
X165683598Y-117347557D01*
X165899513Y-117258545D01*
X166022585Y-117134383D01*
X166057045Y-116969912D01*
X166048967Y-116901939D01*
X165988266Y-116704309D01*
X165877608Y-116457671D01*
X165732825Y-116190440D01*
X165569749Y-115931029D01*
X165404212Y-115707855D01*
X165346599Y-115641344D01*
X165092792Y-115363639D01*
X164847104Y-116142897D01*
X164743427Y-116031613D01*
X164657454Y-115956701D01*
X164602443Y-115954021D01*
X164577579Y-116029082D01*
X164461939Y-116029082D01*
X164442947Y-115924277D01*
X164352095Y-116036475D01*
X164261243Y-116148672D01*
X164088945Y-115835262D01*
X163997265Y-115683021D01*
X163917959Y-115576987D01*
X163867209Y-115538570D01*
X163865023Y-115539006D01*
X163838023Y-115594631D01*
X163808139Y-115731404D01*
X163777356Y-115928991D01*
X163747663Y-116167057D01*
X163721047Y-116425266D01*
X163699495Y-116683284D01*
X163684994Y-116920777D01*
X163679533Y-117117408D01*
X163573601Y-117117408D01*
X163565377Y-117017431D01*
X163559731Y-116729042D01*
X163559400Y-116132285D01*
X163378120Y-116132142D01*
X163075238Y-116094858D01*
X162771635Y-115979074D01*
X162452020Y-115778161D01*
X162314800Y-115671278D01*
X162125521Y-115522573D01*
X161942130Y-115388736D01*
X161793807Y-115290688D01*
X161746746Y-115264055D01*
X161597355Y-115177851D01*
X161530642Y-115102027D01*
X161534141Y-115011319D01*
X161575762Y-114917513D01*
X161668044Y-114772959D01*
X161751155Y-114721170D01*
X161810530Y-114737305D01*
X161819802Y-114786993D01*
X161759730Y-114844784D01*
X161667971Y-114946520D01*
X161658642Y-115040895D01*
X161715281Y-115102604D01*
X161821428Y-115106344D01*
X161905133Y-115068293D01*
X161951574Y-115017318D01*
X161916246Y-114947713D01*
X161911613Y-114942071D01*
X161878861Y-114878941D01*
X161895959Y-114862000D01*
X161989726Y-114903299D01*
X162031500Y-115002779D01*
X162006212Y-115123076D01*
X161981528Y-115186430D01*
X161991700Y-115247443D01*
X162048748Y-115326141D01*
X162164693Y-115442545D01*
X162240992Y-115514152D01*
X162500783Y-115732801D01*
X162737306Y-115875003D01*
X162977165Y-115952830D01*
X163246962Y-115978353D01*
X163264301Y-115978484D01*
X163433229Y-115972661D01*
X163557412Y-115956393D01*
X163605272Y-115936772D01*
X163630830Y-115871356D01*
X163676354Y-115733458D01*
X163733673Y-115548225D01*
X163757966Y-115466872D01*
X163817784Y-115278683D01*
X163860631Y-115174079D01*
X163883696Y-115159214D01*
X163886896Y-115184543D01*
X163914658Y-115301651D01*
X163984522Y-115465490D01*
X164073899Y-115627874D01*
X164258198Y-115926462D01*
X164400094Y-115825423D01*
X164449019Y-115781767D01*
X164670555Y-115781767D01*
X164691171Y-115828716D01*
X164733460Y-115863020D01*
X164810662Y-115901812D01*
X164840811Y-115892458D01*
X164861664Y-115823874D01*
X164900633Y-115693997D01*
X164925325Y-115611300D01*
X164959322Y-115473688D01*
X164967404Y-115386316D01*
X164958178Y-115370000D01*
X164910017Y-115408813D01*
X164830339Y-115507866D01*
X164778897Y-115581862D01*
X164698236Y-115709145D01*
X164670555Y-115781767D01*
X164449019Y-115781767D01*
X164602228Y-115645060D01*
X164789383Y-115415192D01*
X164886995Y-115255258D01*
X164966302Y-115101896D01*
X164593051Y-115138644D01*
X164409779Y-115158964D01*
X164270518Y-115178686D01*
X164202043Y-115193940D01*
X164199665Y-115195463D01*
X164213272Y-115245351D01*
X164270431Y-115349939D01*
X164314686Y-115419767D01*
X164394654Y-115553264D01*
X164414620Y-115614499D01*
X164383204Y-115606133D01*
X164309028Y-115530826D01*
X164200711Y-115391240D01*
X164194609Y-115382700D01*
X163971996Y-115066488D01*
X163803393Y-114813275D01*
X163682062Y-114604621D01*
X163601267Y-114422085D01*
X163554270Y-114247227D01*
X163534333Y-114061607D01*
X163534721Y-113846784D01*
X163547060Y-113610310D01*
X163573623Y-113184538D01*
X163300425Y-113340846D01*
X163149377Y-113418105D01*
X163030421Y-113462327D01*
X162975813Y-113465379D01*
X162950929Y-113402530D01*
X162932671Y-113265939D01*
X162924532Y-113083412D01*
X162924400Y-113056146D01*
X162899696Y-112708742D01*
X162886575Y-112656212D01*
X163070754Y-112656212D01*
X163175731Y-112789668D01*
X163245123Y-112903293D01*
X163245743Y-113007619D01*
X163228132Y-113061407D01*
X163199237Y-113169445D01*
X163204481Y-113228615D01*
X163259609Y-113220026D01*
X163377691Y-113170323D01*
X163534152Y-113089981D01*
X163548803Y-113081869D01*
X163707680Y-112997438D01*
X163836648Y-112945481D01*
X163970466Y-112918179D01*
X164143893Y-112907710D01*
X164329639Y-112906200D01*
X164538607Y-112902279D01*
X164708105Y-112891779D01*
X164813137Y-112876590D01*
X164833406Y-112868100D01*
X164909292Y-112831364D01*
X164954040Y-112875017D01*
X164956400Y-112898326D01*
X164921579Y-112981197D01*
X164854660Y-113058725D01*
X164773834Y-113115098D01*
X164683760Y-113122967D01*
X164554688Y-113091406D01*
X164371303Y-113055065D01*
X164167750Y-113040118D01*
X164125822Y-113040737D01*
X163993639Y-113055191D01*
X163901294Y-113098462D01*
X163836826Y-113188127D01*
X163788273Y-113341762D01*
X163743674Y-113576944D01*
X163738205Y-113610341D01*
X163711289Y-113974797D01*
X163761574Y-114297136D01*
X163882895Y-114587050D01*
X164054046Y-114826454D01*
X164256664Y-114985260D01*
X164477275Y-115058498D01*
X164702405Y-115041197D01*
X164881637Y-114955480D01*
X165067786Y-114800800D01*
X165192449Y-114623214D01*
X165266642Y-114399009D01*
X165301380Y-114104472D01*
X165304146Y-114045922D01*
X165308554Y-113803609D01*
X165296014Y-113627267D01*
X165261989Y-113482031D01*
X165215246Y-113362523D01*
X165155030Y-113223052D01*
X165116443Y-113127250D01*
X165108800Y-113102942D01*
X165144345Y-113080767D01*
X165238183Y-113116241D01*
X165371117Y-113201302D01*
X165406289Y-113227875D01*
X165559863Y-113344900D01*
X165647876Y-113400306D01*
X165684163Y-113395872D01*
X165682558Y-113333375D01*
X165667519Y-113261441D01*
X165649447Y-113145659D01*
X165671321Y-113094940D01*
X165746404Y-113106991D01*
X165887958Y-113179521D01*
X165946263Y-113213253D01*
X166098060Y-113290745D01*
X166175274Y-113306135D01*
X166177947Y-113266264D01*
X166106125Y-113177972D01*
X165959852Y-113048101D01*
X165945109Y-113036258D01*
X165812078Y-112921803D01*
X165722640Y-112828609D01*
X165695173Y-112775963D01*
X165695813Y-112774648D01*
X165668186Y-112733491D01*
X165627634Y-112708106D01*
X165867689Y-112708106D01*
X165937933Y-112716122D01*
X165972400Y-112716614D01*
X166064821Y-112711317D01*
X166075713Y-112698131D01*
X166061300Y-112693382D01*
X165932459Y-112685481D01*
X165883500Y-112693382D01*
X165867689Y-112708106D01*
X165627634Y-112708106D01*
X165569610Y-112671784D01*
X165470013Y-112624371D01*
X165325314Y-112558025D01*
X165254084Y-112503631D01*
X165235586Y-112435085D01*
X165246381Y-112342836D01*
X165255571Y-112222382D01*
X165224945Y-112174147D01*
X165194527Y-112169600D01*
X165107181Y-112207960D01*
X165037252Y-112279973D01*
X164970965Y-112344846D01*
X164931663Y-112320822D01*
X164922121Y-112217678D01*
X164945113Y-112045191D01*
X164955986Y-111993646D01*
X164983635Y-111848695D01*
X164993309Y-111750531D01*
X164989328Y-111728395D01*
X164948757Y-111754689D01*
X164855264Y-111842342D01*
X164723586Y-111976922D01*
X164596686Y-112113005D01*
X164442627Y-112275384D01*
X164311848Y-112401988D01*
X164219914Y-112478446D01*
X164184483Y-112493671D01*
X164152947Y-112428870D01*
X164143600Y-112344401D01*
X164130046Y-112244023D01*
X164081004Y-112231330D01*
X163983900Y-112303207D01*
X163982500Y-112304473D01*
X163911388Y-112424394D01*
X163889600Y-112558473D01*
X163871808Y-112686332D01*
X163824959Y-112724801D01*
X163758838Y-112668555D01*
X163740688Y-112639500D01*
X163666520Y-112517348D01*
X163603611Y-112461790D01*
X163519837Y-112464817D01*
X163383073Y-112518418D01*
X163336796Y-112538801D01*
X163070754Y-112656212D01*
X162886575Y-112656212D01*
X162830376Y-112431238D01*
X162736352Y-112183788D01*
X162952046Y-112208100D01*
X163092494Y-112216389D01*
X163165021Y-112192940D01*
X163200576Y-112128956D01*
X163236850Y-112061533D01*
X163306281Y-112050758D01*
X163396070Y-112072150D01*
X163552478Y-112110044D01*
X163639971Y-112103243D01*
X163684756Y-112042751D01*
X163704180Y-111966400D01*
X163745766Y-111845866D01*
X163795607Y-111823641D01*
X163843454Y-111898130D01*
X163867551Y-111991800D01*
X163898411Y-112108938D01*
X163931345Y-112167921D01*
X163936549Y-112169600D01*
X163990604Y-112136058D01*
X164083502Y-112051945D01*
X164121395Y-112013440D01*
X164290034Y-111864051D01*
X164494022Y-111722735D01*
X164704623Y-111605846D01*
X164893097Y-111529738D01*
X165007495Y-111509200D01*
X165118834Y-111516885D01*
X165118834Y-111516885D01*
G37*
X165118834Y-111516885D02*
X165154658Y-111559461D01*
X165141937Y-111661012D01*
X165133923Y-111772033D01*
X165182951Y-111843049D01*
X165268391Y-111893918D01*
X165369363Y-111956618D01*
X165405744Y-112028548D01*
X165396825Y-112152176D01*
X165393970Y-112170360D01*
X165362733Y-112365709D01*
X165666557Y-112242254D01*
X165831594Y-112178263D01*
X165961102Y-112133644D01*
X166022190Y-112118799D01*
X166073326Y-112140933D01*
X166043495Y-112198194D01*
X165940825Y-112276870D01*
X165921600Y-112288519D01*
X165819567Y-112359462D01*
X165770079Y-112414829D01*
X165769200Y-112419777D01*
X165814056Y-112453828D01*
X165930940Y-112501538D01*
X166074000Y-112546534D01*
X166265189Y-112613563D01*
X166361827Y-112678401D01*
X166362300Y-112736945D01*
X166264991Y-112785096D01*
X166175600Y-112804600D01*
X166048778Y-112831953D01*
X165977836Y-112858759D01*
X165972400Y-112865858D01*
X166002965Y-112916800D01*
X166080217Y-113014402D01*
X166124800Y-113066361D01*
X166217410Y-113187259D01*
X166271474Y-113287669D01*
X166277200Y-113314367D01*
X166235346Y-113368389D01*
X166133650Y-113388609D01*
X166007907Y-113375514D01*
X165893916Y-113329591D01*
X165866590Y-113308790D01*
X165810418Y-113264393D01*
X165795335Y-113285055D01*
X165813763Y-113386409D01*
X165818567Y-113407847D01*
X165840911Y-113553735D01*
X165816078Y-113611312D01*
X165736083Y-113586007D01*
X165646676Y-113524657D01*
X165494042Y-113412229D01*
X165406415Y-113366006D01*
X165369116Y-113395017D01*
X165367466Y-113508290D01*
X165383986Y-113686235D01*
X165400826Y-114043616D01*
X165369526Y-114334639D01*
X165285325Y-114584819D01*
X165182967Y-114763420D01*
X165016009Y-115011519D01*
X165297677Y-115406659D01*
X165419369Y-115577346D01*
X165516131Y-115713011D01*
X165574779Y-115795172D01*
X165586141Y-115811034D01*
X165635434Y-115800020D01*
X165749930Y-115750282D01*
X165906771Y-115673770D01*
X166083096Y-115582429D01*
X166256046Y-115488209D01*
X166402761Y-115403057D01*
X166500384Y-115338921D01*
X166518822Y-115323554D01*
X166666673Y-115153508D01*
X166776699Y-114973773D01*
X166839932Y-114806251D01*
X166847403Y-114672843D01*
X166811539Y-114608779D01*
X166765895Y-114516292D01*
X166795566Y-114400050D01*
X166884850Y-114281450D01*
X167018047Y-114181890D01*
X167166200Y-114125436D01*
X167318600Y-114092541D01*
X167189937Y-114210570D01*
X167057963Y-114321930D01*
X166935937Y-114412347D01*
X166810600Y-114496095D01*
X166954385Y-114533180D01*
X167091834Y-114540011D01*
X167228860Y-114473330D01*
X167246485Y-114460611D01*
X167351209Y-114393730D01*
X167391758Y-114389138D01*
X167372569Y-114434190D01*
X167298078Y-114516241D01*
X167196012Y-114604505D01*
X167056658Y-114741285D01*
X166915545Y-114920707D01*
X166844438Y-115032670D01*
X166682507Y-115274806D01*
X166489946Y-115465362D01*
X166239912Y-115627486D01*
X166041451Y-115725149D01*
X165881590Y-115800807D01*
X165766077Y-115861527D01*
X165718571Y-115894823D01*
X165718400Y-115895686D01*
X165739044Y-115948665D01*
X165794794Y-116072746D01*
X165876380Y-116247638D01*
X165946173Y-116394172D01*
X166148723Y-116872308D01*
X166281299Y-117326439D01*
X166348557Y-117732200D01*
X166357734Y-117864940D01*
X166347402Y-117907637D01*
X166322010Y-117868986D01*
X166286001Y-117757680D01*
X166243823Y-117582412D01*
X166225159Y-117490900D01*
X166192277Y-117335031D01*
X166164959Y-117229057D01*
X166151703Y-117198800D01*
X166104271Y-117224868D01*
X165997299Y-117292792D01*
X165872002Y-117375790D01*
X165677839Y-117489299D01*
X165465563Y-117588192D01*
X165349677Y-117629790D01*
X165138279Y-117672370D01*
X164871918Y-117697736D01*
X164587976Y-117705082D01*
X164323836Y-117693600D01*
X164116882Y-117662483D01*
X164095829Y-117656868D01*
X163974216Y-117630156D01*
X163901220Y-117629291D01*
X163896559Y-117632106D01*
X163900171Y-117689282D01*
X163940327Y-117800296D01*
X163956695Y-117836161D01*
X164018556Y-117970952D01*
X164031097Y-118037590D01*
X163987781Y-118060076D01*
X163895072Y-118062400D01*
X163818481Y-118056301D01*
X163766376Y-118024107D01*
X163725119Y-117944975D01*
X163681070Y-117798059D01*
X163654103Y-117694100D01*
X163595633Y-117385261D01*
X163573601Y-117117408D01*
X163679533Y-117117408D01*
X163685098Y-117252845D01*
X163693527Y-117293745D01*
X163737523Y-117387700D01*
X163797602Y-117448343D01*
X163894815Y-117482912D01*
X164050215Y-117498646D01*
X164284851Y-117502785D01*
X164301528Y-117502822D01*
X164738857Y-117503600D01*
X164625831Y-116906700D01*
X164577667Y-116651646D01*
X164533091Y-116414342D01*
X164497457Y-116223369D01*
X164477876Y-116117038D01*
X164461939Y-116029082D01*
X164577579Y-116029082D01*
X164582046Y-116187393D01*
X164615026Y-116434464D01*
X164651987Y-116648668D01*
X164707950Y-116952384D01*
X164753704Y-117169862D01*
X164798300Y-117314619D01*
X164850792Y-117400172D01*
X164920230Y-117440042D01*
X165015668Y-117447745D01*
X165146157Y-117436801D01*
X165177553Y-117433533D01*
X165384106Y-117406481D01*
X165582174Y-117371289D01*
X165683598Y-117347557D01*
X165899513Y-117258545D01*
X166022585Y-117134383D01*
X166057045Y-116969912D01*
X166048967Y-116901939D01*
X165988266Y-116704309D01*
X165877608Y-116457671D01*
X165732825Y-116190440D01*
X165569749Y-115931029D01*
X165404212Y-115707855D01*
X165346599Y-115641344D01*
X165092792Y-115363639D01*
X164847104Y-116142897D01*
X164743427Y-116031613D01*
X164657454Y-115956701D01*
X164602443Y-115954021D01*
X164577579Y-116029082D01*
X164461939Y-116029082D01*
X164442947Y-115924277D01*
X164352095Y-116036475D01*
X164261243Y-116148672D01*
X164088945Y-115835262D01*
X163997265Y-115683021D01*
X163917959Y-115576987D01*
X163867209Y-115538570D01*
X163865023Y-115539006D01*
X163838023Y-115594631D01*
X163808139Y-115731404D01*
X163777356Y-115928991D01*
X163747663Y-116167057D01*
X163721047Y-116425266D01*
X163699495Y-116683284D01*
X163684994Y-116920777D01*
X163679533Y-117117408D01*
X163573601Y-117117408D01*
X163565377Y-117017431D01*
X163559731Y-116729042D01*
X163559400Y-116132285D01*
X163378120Y-116132142D01*
X163075238Y-116094858D01*
X162771635Y-115979074D01*
X162452020Y-115778161D01*
X162314800Y-115671278D01*
X162125521Y-115522573D01*
X161942130Y-115388736D01*
X161793807Y-115290688D01*
X161746746Y-115264055D01*
X161597355Y-115177851D01*
X161530642Y-115102027D01*
X161534141Y-115011319D01*
X161575762Y-114917513D01*
X161668044Y-114772959D01*
X161751155Y-114721170D01*
X161810530Y-114737305D01*
X161819802Y-114786993D01*
X161759730Y-114844784D01*
X161667971Y-114946520D01*
X161658642Y-115040895D01*
X161715281Y-115102604D01*
X161821428Y-115106344D01*
X161905133Y-115068293D01*
X161951574Y-115017318D01*
X161916246Y-114947713D01*
X161911613Y-114942071D01*
X161878861Y-114878941D01*
X161895959Y-114862000D01*
X161989726Y-114903299D01*
X162031500Y-115002779D01*
X162006212Y-115123076D01*
X161981528Y-115186430D01*
X161991700Y-115247443D01*
X162048748Y-115326141D01*
X162164693Y-115442545D01*
X162240992Y-115514152D01*
X162500783Y-115732801D01*
X162737306Y-115875003D01*
X162977165Y-115952830D01*
X163246962Y-115978353D01*
X163264301Y-115978484D01*
X163433229Y-115972661D01*
X163557412Y-115956393D01*
X163605272Y-115936772D01*
X163630830Y-115871356D01*
X163676354Y-115733458D01*
X163733673Y-115548225D01*
X163757966Y-115466872D01*
X163817784Y-115278683D01*
X163860631Y-115174079D01*
X163883696Y-115159214D01*
X163886896Y-115184543D01*
X163914658Y-115301651D01*
X163984522Y-115465490D01*
X164073899Y-115627874D01*
X164258198Y-115926462D01*
X164400094Y-115825423D01*
X164449019Y-115781767D01*
X164670555Y-115781767D01*
X164691171Y-115828716D01*
X164733460Y-115863020D01*
X164810662Y-115901812D01*
X164840811Y-115892458D01*
X164861664Y-115823874D01*
X164900633Y-115693997D01*
X164925325Y-115611300D01*
X164959322Y-115473688D01*
X164967404Y-115386316D01*
X164958178Y-115370000D01*
X164910017Y-115408813D01*
X164830339Y-115507866D01*
X164778897Y-115581862D01*
X164698236Y-115709145D01*
X164670555Y-115781767D01*
X164449019Y-115781767D01*
X164602228Y-115645060D01*
X164789383Y-115415192D01*
X164886995Y-115255258D01*
X164966302Y-115101896D01*
X164593051Y-115138644D01*
X164409779Y-115158964D01*
X164270518Y-115178686D01*
X164202043Y-115193940D01*
X164199665Y-115195463D01*
X164213272Y-115245351D01*
X164270431Y-115349939D01*
X164314686Y-115419767D01*
X164394654Y-115553264D01*
X164414620Y-115614499D01*
X164383204Y-115606133D01*
X164309028Y-115530826D01*
X164200711Y-115391240D01*
X164194609Y-115382700D01*
X163971996Y-115066488D01*
X163803393Y-114813275D01*
X163682062Y-114604621D01*
X163601267Y-114422085D01*
X163554270Y-114247227D01*
X163534333Y-114061607D01*
X163534721Y-113846784D01*
X163547060Y-113610310D01*
X163573623Y-113184538D01*
X163300425Y-113340846D01*
X163149377Y-113418105D01*
X163030421Y-113462327D01*
X162975813Y-113465379D01*
X162950929Y-113402530D01*
X162932671Y-113265939D01*
X162924532Y-113083412D01*
X162924400Y-113056146D01*
X162899696Y-112708742D01*
X162886575Y-112656212D01*
X163070754Y-112656212D01*
X163175731Y-112789668D01*
X163245123Y-112903293D01*
X163245743Y-113007619D01*
X163228132Y-113061407D01*
X163199237Y-113169445D01*
X163204481Y-113228615D01*
X163259609Y-113220026D01*
X163377691Y-113170323D01*
X163534152Y-113089981D01*
X163548803Y-113081869D01*
X163707680Y-112997438D01*
X163836648Y-112945481D01*
X163970466Y-112918179D01*
X164143893Y-112907710D01*
X164329639Y-112906200D01*
X164538607Y-112902279D01*
X164708105Y-112891779D01*
X164813137Y-112876590D01*
X164833406Y-112868100D01*
X164909292Y-112831364D01*
X164954040Y-112875017D01*
X164956400Y-112898326D01*
X164921579Y-112981197D01*
X164854660Y-113058725D01*
X164773834Y-113115098D01*
X164683760Y-113122967D01*
X164554688Y-113091406D01*
X164371303Y-113055065D01*
X164167750Y-113040118D01*
X164125822Y-113040737D01*
X163993639Y-113055191D01*
X163901294Y-113098462D01*
X163836826Y-113188127D01*
X163788273Y-113341762D01*
X163743674Y-113576944D01*
X163738205Y-113610341D01*
X163711289Y-113974797D01*
X163761574Y-114297136D01*
X163882895Y-114587050D01*
X164054046Y-114826454D01*
X164256664Y-114985260D01*
X164477275Y-115058498D01*
X164702405Y-115041197D01*
X164881637Y-114955480D01*
X165067786Y-114800800D01*
X165192449Y-114623214D01*
X165266642Y-114399009D01*
X165301380Y-114104472D01*
X165304146Y-114045922D01*
X165308554Y-113803609D01*
X165296014Y-113627267D01*
X165261989Y-113482031D01*
X165215246Y-113362523D01*
X165155030Y-113223052D01*
X165116443Y-113127250D01*
X165108800Y-113102942D01*
X165144345Y-113080767D01*
X165238183Y-113116241D01*
X165371117Y-113201302D01*
X165406289Y-113227875D01*
X165559863Y-113344900D01*
X165647876Y-113400306D01*
X165684163Y-113395872D01*
X165682558Y-113333375D01*
X165667519Y-113261441D01*
X165649447Y-113145659D01*
X165671321Y-113094940D01*
X165746404Y-113106991D01*
X165887958Y-113179521D01*
X165946263Y-113213253D01*
X166098060Y-113290745D01*
X166175274Y-113306135D01*
X166177947Y-113266264D01*
X166106125Y-113177972D01*
X165959852Y-113048101D01*
X165945109Y-113036258D01*
X165812078Y-112921803D01*
X165722640Y-112828609D01*
X165695173Y-112775963D01*
X165695813Y-112774648D01*
X165668186Y-112733491D01*
X165627634Y-112708106D01*
X165867689Y-112708106D01*
X165937933Y-112716122D01*
X165972400Y-112716614D01*
X166064821Y-112711317D01*
X166075713Y-112698131D01*
X166061300Y-112693382D01*
X165932459Y-112685481D01*
X165883500Y-112693382D01*
X165867689Y-112708106D01*
X165627634Y-112708106D01*
X165569610Y-112671784D01*
X165470013Y-112624371D01*
X165325314Y-112558025D01*
X165254084Y-112503631D01*
X165235586Y-112435085D01*
X165246381Y-112342836D01*
X165255571Y-112222382D01*
X165224945Y-112174147D01*
X165194527Y-112169600D01*
X165107181Y-112207960D01*
X165037252Y-112279973D01*
X164970965Y-112344846D01*
X164931663Y-112320822D01*
X164922121Y-112217678D01*
X164945113Y-112045191D01*
X164955986Y-111993646D01*
X164983635Y-111848695D01*
X164993309Y-111750531D01*
X164989328Y-111728395D01*
X164948757Y-111754689D01*
X164855264Y-111842342D01*
X164723586Y-111976922D01*
X164596686Y-112113005D01*
X164442627Y-112275384D01*
X164311848Y-112401988D01*
X164219914Y-112478446D01*
X164184483Y-112493671D01*
X164152947Y-112428870D01*
X164143600Y-112344401D01*
X164130046Y-112244023D01*
X164081004Y-112231330D01*
X163983900Y-112303207D01*
X163982500Y-112304473D01*
X163911388Y-112424394D01*
X163889600Y-112558473D01*
X163871808Y-112686332D01*
X163824959Y-112724801D01*
X163758838Y-112668555D01*
X163740688Y-112639500D01*
X163666520Y-112517348D01*
X163603611Y-112461790D01*
X163519837Y-112464817D01*
X163383073Y-112518418D01*
X163336796Y-112538801D01*
X163070754Y-112656212D01*
X162886575Y-112656212D01*
X162830376Y-112431238D01*
X162736352Y-112183788D01*
X162952046Y-112208100D01*
X163092494Y-112216389D01*
X163165021Y-112192940D01*
X163200576Y-112128956D01*
X163236850Y-112061533D01*
X163306281Y-112050758D01*
X163396070Y-112072150D01*
X163552478Y-112110044D01*
X163639971Y-112103243D01*
X163684756Y-112042751D01*
X163704180Y-111966400D01*
X163745766Y-111845866D01*
X163795607Y-111823641D01*
X163843454Y-111898130D01*
X163867551Y-111991800D01*
X163898411Y-112108938D01*
X163931345Y-112167921D01*
X163936549Y-112169600D01*
X163990604Y-112136058D01*
X164083502Y-112051945D01*
X164121395Y-112013440D01*
X164290034Y-111864051D01*
X164494022Y-111722735D01*
X164704623Y-111605846D01*
X164893097Y-111529738D01*
X165007495Y-111509200D01*
X165118834Y-111516885D01*
G36*
X162958266Y-119247733D02*
X162964346Y-119308021D01*
X162958266Y-119315466D01*
X162928066Y-119308493D01*
X162924400Y-119281600D01*
X162942986Y-119239785D01*
X162958266Y-119247733D01*
X162958266Y-119247733D01*
G37*
X162958266Y-119247733D02*
X162964346Y-119308021D01*
X162958266Y-119315466D01*
X162928066Y-119308493D01*
X162924400Y-119281600D01*
X162942986Y-119239785D01*
X162958266Y-119247733D01*
G36*
X162873600Y-119256200D02*
X162848200Y-119281600D01*
X162822800Y-119256200D01*
X162848200Y-119230800D01*
X162873600Y-119256200D01*
X162873600Y-119256200D01*
G37*
X162873600Y-119256200D02*
X162848200Y-119281600D01*
X162822800Y-119256200D01*
X162848200Y-119230800D01*
X162873600Y-119256200D01*
G36*
X163314571Y-119023616D02*
X163310842Y-119051529D01*
X163255757Y-119166775D01*
X163146156Y-119211630D01*
X163107842Y-119201920D01*
X163122948Y-119176692D01*
X163190855Y-119176692D01*
X163197803Y-119180000D01*
X163244163Y-119144237D01*
X163254600Y-119129200D01*
X163267544Y-119081707D01*
X163260596Y-119078400D01*
X163214236Y-119114162D01*
X163203800Y-119129200D01*
X163190855Y-119176692D01*
X163122948Y-119176692D01*
X163142723Y-119143670D01*
X163181881Y-119100093D01*
X163271889Y-119007638D01*
X163310532Y-118984250D01*
X163314571Y-119023616D01*
X163314571Y-119023616D01*
G37*
X163314571Y-119023616D02*
X163310842Y-119051529D01*
X163255757Y-119166775D01*
X163146156Y-119211630D01*
X163107842Y-119201920D01*
X163122948Y-119176692D01*
X163190855Y-119176692D01*
X163197803Y-119180000D01*
X163244163Y-119144237D01*
X163254600Y-119129200D01*
X163267544Y-119081707D01*
X163260596Y-119078400D01*
X163214236Y-119114162D01*
X163203800Y-119129200D01*
X163190855Y-119176692D01*
X163122948Y-119176692D01*
X163142723Y-119143670D01*
X163181881Y-119100093D01*
X163271889Y-119007638D01*
X163310532Y-118984250D01*
X163314571Y-119023616D01*
G36*
X162751122Y-119082153D02*
X162817595Y-119151887D01*
X162804028Y-119179895D01*
X162800398Y-119180000D01*
X162757064Y-119144346D01*
X162746087Y-119128371D01*
X162682584Y-119101731D01*
X162659040Y-119110820D01*
X162628205Y-119113478D01*
X162641673Y-119083782D01*
X162692639Y-119048710D01*
X162751122Y-119082153D01*
X162751122Y-119082153D01*
G37*
X162751122Y-119082153D02*
X162817595Y-119151887D01*
X162804028Y-119179895D01*
X162800398Y-119180000D01*
X162757064Y-119144346D01*
X162746087Y-119128371D01*
X162682584Y-119101731D01*
X162659040Y-119110820D01*
X162628205Y-119113478D01*
X162641673Y-119083782D01*
X162692639Y-119048710D01*
X162751122Y-119082153D01*
G36*
X163202229Y-118876771D02*
X163178400Y-118900600D01*
X163203800Y-118926000D01*
X163218052Y-118911748D01*
X163225436Y-118941981D01*
X163215272Y-118956860D01*
X163169782Y-118942979D01*
X163132004Y-118905906D01*
X163097288Y-118849214D01*
X163137464Y-118842293D01*
X163202229Y-118876771D01*
X163202229Y-118876771D01*
G37*
X163202229Y-118876771D02*
X163178400Y-118900600D01*
X163203800Y-118926000D01*
X163218052Y-118911748D01*
X163225436Y-118941981D01*
X163215272Y-118956860D01*
X163169782Y-118942979D01*
X163132004Y-118905906D01*
X163097288Y-118849214D01*
X163137464Y-118842293D01*
X163202229Y-118876771D01*
G36*
X163210598Y-118881226D02*
X163210847Y-118882247D01*
X163208947Y-118880347D01*
X163210598Y-118881226D01*
X163210598Y-118881226D01*
G37*
X163210598Y-118881226D02*
X163210847Y-118882247D01*
X163208947Y-118880347D01*
X163210598Y-118881226D01*
G36*
X163088078Y-118654350D02*
X163099518Y-118667661D01*
X163094449Y-118734078D01*
X163081138Y-118745518D01*
X163014721Y-118740449D01*
X163003281Y-118727138D01*
X163005550Y-118697400D01*
X163026000Y-118697400D01*
X163051400Y-118722800D01*
X163076800Y-118697400D01*
X163051400Y-118672000D01*
X163026000Y-118697400D01*
X163005550Y-118697400D01*
X163008350Y-118660721D01*
X163021661Y-118649281D01*
X163088078Y-118654350D01*
X163088078Y-118654350D01*
G37*
X163088078Y-118654350D02*
X163099518Y-118667661D01*
X163094449Y-118734078D01*
X163081138Y-118745518D01*
X163014721Y-118740449D01*
X163003281Y-118727138D01*
X163005550Y-118697400D01*
X163026000Y-118697400D01*
X163051400Y-118722800D01*
X163076800Y-118697400D01*
X163051400Y-118672000D01*
X163026000Y-118697400D01*
X163005550Y-118697400D01*
X163008350Y-118660721D01*
X163021661Y-118649281D01*
X163088078Y-118654350D01*
G36*
X162793525Y-118386805D02*
X162890615Y-118423066D01*
X162948695Y-118481482D01*
X162941383Y-118533963D01*
X162935615Y-118538068D01*
X162869621Y-118527698D01*
X162799800Y-118471452D01*
X162768455Y-118432561D01*
X162830988Y-118432561D01*
X162843349Y-118460950D01*
X162894499Y-118515487D01*
X162923905Y-118504299D01*
X162924400Y-118497198D01*
X162888317Y-118454230D01*
X162865750Y-118438549D01*
X162830988Y-118432561D01*
X162768455Y-118432561D01*
X162743911Y-118402109D01*
X162758978Y-118383431D01*
X162793525Y-118386805D01*
X162793525Y-118386805D01*
G37*
X162793525Y-118386805D02*
X162890615Y-118423066D01*
X162948695Y-118481482D01*
X162941383Y-118533963D01*
X162935615Y-118538068D01*
X162869621Y-118527698D01*
X162799800Y-118471452D01*
X162768455Y-118432561D01*
X162830988Y-118432561D01*
X162843349Y-118460950D01*
X162894499Y-118515487D01*
X162923905Y-118504299D01*
X162924400Y-118497198D01*
X162888317Y-118454230D01*
X162865750Y-118438549D01*
X162830988Y-118432561D01*
X162768455Y-118432561D01*
X162743911Y-118402109D01*
X162758978Y-118383431D01*
X162793525Y-118386805D01*
G36*
X162924133Y-117941278D02*
X162944376Y-117969575D01*
X162886825Y-117992535D01*
X162875845Y-117987587D01*
X162818686Y-117997326D01*
X162760367Y-118052362D01*
X162740694Y-118111126D01*
X162747040Y-118122107D01*
X162730224Y-118144035D01*
X162698034Y-118147066D01*
X162651475Y-118119231D01*
X162659156Y-118092033D01*
X162693279Y-118005176D01*
X162695022Y-117988807D01*
X162698112Y-117986200D01*
X162721200Y-117986200D01*
X162746600Y-118011600D01*
X162772000Y-117986200D01*
X162746600Y-117960800D01*
X162721200Y-117986200D01*
X162698112Y-117986200D01*
X162739546Y-117951247D01*
X162833586Y-117933254D01*
X162924133Y-117941278D01*
X162924133Y-117941278D01*
G37*
X162924133Y-117941278D02*
X162944376Y-117969575D01*
X162886825Y-117992535D01*
X162875845Y-117987587D01*
X162818686Y-117997326D01*
X162760367Y-118052362D01*
X162740694Y-118111126D01*
X162747040Y-118122107D01*
X162730224Y-118144035D01*
X162698034Y-118147066D01*
X162651475Y-118119231D01*
X162659156Y-118092033D01*
X162693279Y-118005176D01*
X162695022Y-117988807D01*
X162698112Y-117986200D01*
X162721200Y-117986200D01*
X162746600Y-118011600D01*
X162772000Y-117986200D01*
X162746600Y-117960800D01*
X162721200Y-117986200D01*
X162698112Y-117986200D01*
X162739546Y-117951247D01*
X162833586Y-117933254D01*
X162924133Y-117941278D01*
G36*
X163073891Y-117932620D02*
X163076800Y-117955331D01*
X163104751Y-117994844D01*
X163124089Y-117988369D01*
X163189740Y-117993944D01*
X163201118Y-118007261D01*
X163208260Y-118067069D01*
X163157902Y-118083735D01*
X163088033Y-118048820D01*
X163076987Y-118037000D01*
X163127600Y-118037000D01*
X163153000Y-118062400D01*
X163178400Y-118037000D01*
X163153000Y-118011600D01*
X163127600Y-118037000D01*
X163076987Y-118037000D01*
X163075316Y-118035213D01*
X163037020Y-117958175D01*
X163044160Y-117925705D01*
X163073891Y-117932620D01*
X163073891Y-117932620D01*
G37*
X163073891Y-117932620D02*
X163076800Y-117955331D01*
X163104751Y-117994844D01*
X163124089Y-117988369D01*
X163189740Y-117993944D01*
X163201118Y-118007261D01*
X163208260Y-118067069D01*
X163157902Y-118083735D01*
X163088033Y-118048820D01*
X163076987Y-118037000D01*
X163127600Y-118037000D01*
X163153000Y-118062400D01*
X163178400Y-118037000D01*
X163153000Y-118011600D01*
X163127600Y-118037000D01*
X163076987Y-118037000D01*
X163075316Y-118035213D01*
X163037020Y-117958175D01*
X163044160Y-117925705D01*
X163073891Y-117932620D01*
G36*
X163686400Y-118900600D02*
X163661000Y-118926000D01*
X163635600Y-118900600D01*
X163661000Y-118875200D01*
X163686400Y-118900600D01*
X163686400Y-118900600D01*
G37*
X163686400Y-118900600D02*
X163661000Y-118926000D01*
X163635600Y-118900600D01*
X163661000Y-118875200D01*
X163686400Y-118900600D01*
G36*
X163938784Y-118344790D02*
X163909488Y-118419143D01*
X163862584Y-118491209D01*
X163807836Y-118548497D01*
X163789615Y-118542009D01*
X163818911Y-118467656D01*
X163865815Y-118395590D01*
X163920563Y-118338302D01*
X163938784Y-118344790D01*
X163938784Y-118344790D01*
G37*
X163938784Y-118344790D02*
X163909488Y-118419143D01*
X163862584Y-118491209D01*
X163807836Y-118548497D01*
X163789615Y-118542009D01*
X163818911Y-118467656D01*
X163865815Y-118395590D01*
X163920563Y-118338302D01*
X163938784Y-118344790D01*
G36*
X164559313Y-118406993D02*
X164598126Y-118471655D01*
X164593180Y-118493353D01*
X164540104Y-118491780D01*
X164533066Y-118485733D01*
X164499573Y-118407527D01*
X164499200Y-118399373D01*
X164524973Y-118380485D01*
X164559313Y-118406993D01*
X164559313Y-118406993D01*
G37*
X164559313Y-118406993D02*
X164598126Y-118471655D01*
X164593180Y-118493353D01*
X164540104Y-118491780D01*
X164533066Y-118485733D01*
X164499573Y-118407527D01*
X164499200Y-118399373D01*
X164524973Y-118380485D01*
X164559313Y-118406993D01*
G36*
X164042000Y-118341800D02*
X164016600Y-118367200D01*
X163991200Y-118341800D01*
X164016600Y-118316400D01*
X164042000Y-118341800D01*
X164042000Y-118341800D01*
G37*
X164042000Y-118341800D02*
X164016600Y-118367200D01*
X163991200Y-118341800D01*
X164016600Y-118316400D01*
X164042000Y-118341800D01*
G36*
X164143600Y-118291000D02*
X164118200Y-118316400D01*
X164092800Y-118291000D01*
X164118200Y-118265600D01*
X164143600Y-118291000D01*
X164143600Y-118291000D01*
G37*
X164143600Y-118291000D02*
X164118200Y-118316400D01*
X164092800Y-118291000D01*
X164118200Y-118265600D01*
X164143600Y-118291000D01*
G36*
X166480400Y-119307000D02*
X166455000Y-119332400D01*
X166429600Y-119307000D01*
X166455000Y-119281600D01*
X166480400Y-119307000D01*
X166480400Y-119307000D01*
G37*
X166480400Y-119307000D02*
X166455000Y-119332400D01*
X166429600Y-119307000D01*
X166455000Y-119281600D01*
X166480400Y-119307000D01*
G36*
X166202292Y-119145142D02*
X166239100Y-119173520D01*
X166309455Y-119236186D01*
X166328000Y-119262420D01*
X166303289Y-119277625D01*
X166235757Y-119212368D01*
X166219920Y-119192700D01*
X166175985Y-119132527D01*
X166202292Y-119145142D01*
X166202292Y-119145142D01*
G37*
X166202292Y-119145142D02*
X166239100Y-119173520D01*
X166309455Y-119236186D01*
X166328000Y-119262420D01*
X166303289Y-119277625D01*
X166235757Y-119212368D01*
X166219920Y-119192700D01*
X166175985Y-119132527D01*
X166202292Y-119145142D01*
G36*
X166768971Y-119074416D02*
X166765242Y-119102329D01*
X166710157Y-119217575D01*
X166600556Y-119262430D01*
X166562242Y-119252720D01*
X166577348Y-119227492D01*
X166645255Y-119227492D01*
X166652203Y-119230800D01*
X166698563Y-119195037D01*
X166709000Y-119180000D01*
X166721944Y-119132507D01*
X166714996Y-119129200D01*
X166668636Y-119164962D01*
X166658200Y-119180000D01*
X166645255Y-119227492D01*
X166577348Y-119227492D01*
X166597123Y-119194470D01*
X166636281Y-119150893D01*
X166726289Y-119058438D01*
X166764932Y-119035050D01*
X166768971Y-119074416D01*
X166768971Y-119074416D01*
G37*
X166768971Y-119074416D02*
X166765242Y-119102329D01*
X166710157Y-119217575D01*
X166600556Y-119262430D01*
X166562242Y-119252720D01*
X166577348Y-119227492D01*
X166645255Y-119227492D01*
X166652203Y-119230800D01*
X166698563Y-119195037D01*
X166709000Y-119180000D01*
X166721944Y-119132507D01*
X166714996Y-119129200D01*
X166668636Y-119164962D01*
X166658200Y-119180000D01*
X166645255Y-119227492D01*
X166577348Y-119227492D01*
X166597123Y-119194470D01*
X166636281Y-119150893D01*
X166726289Y-119058438D01*
X166764932Y-119035050D01*
X166768971Y-119074416D01*
G36*
X166632800Y-118900600D02*
X166607400Y-118926000D01*
X166582000Y-118900600D01*
X166607400Y-118875200D01*
X166632800Y-118900600D01*
X166632800Y-118900600D01*
G37*
X166632800Y-118900600D02*
X166607400Y-118926000D01*
X166582000Y-118900600D01*
X166607400Y-118875200D01*
X166632800Y-118900600D01*
G36*
X166276447Y-118551011D02*
X166331850Y-118599285D01*
X166404707Y-118668254D01*
X166429600Y-118696806D01*
X166389949Y-118703917D01*
X166315517Y-118706100D01*
X166273313Y-118701633D01*
X166262075Y-118655894D01*
X166260225Y-118646600D01*
X166277200Y-118646600D01*
X166302600Y-118672000D01*
X166328000Y-118646600D01*
X166302600Y-118621200D01*
X166277200Y-118646600D01*
X166260225Y-118646600D01*
X166251764Y-118604111D01*
X166245056Y-118541577D01*
X166276447Y-118551011D01*
X166276447Y-118551011D01*
G37*
X166276447Y-118551011D02*
X166331850Y-118599285D01*
X166404707Y-118668254D01*
X166429600Y-118696806D01*
X166389949Y-118703917D01*
X166315517Y-118706100D01*
X166273313Y-118701633D01*
X166262075Y-118655894D01*
X166260225Y-118646600D01*
X166277200Y-118646600D01*
X166302600Y-118672000D01*
X166328000Y-118646600D01*
X166302600Y-118621200D01*
X166277200Y-118646600D01*
X166260225Y-118646600D01*
X166251764Y-118604111D01*
X166245056Y-118541577D01*
X166276447Y-118551011D01*
G36*
X166531124Y-118298129D02*
X166531200Y-118302464D01*
X166505739Y-118306821D01*
X166496868Y-118299002D01*
X166440297Y-118305601D01*
X166346650Y-118366780D01*
X166331768Y-118379435D01*
X166201000Y-118494200D01*
X166322684Y-118356065D01*
X166422560Y-118268609D01*
X166498952Y-118247521D01*
X166531124Y-118298129D01*
X166531124Y-118298129D01*
G37*
X166531124Y-118298129D02*
X166531200Y-118302464D01*
X166505739Y-118306821D01*
X166496868Y-118299002D01*
X166440297Y-118305601D01*
X166346650Y-118366780D01*
X166331768Y-118379435D01*
X166201000Y-118494200D01*
X166322684Y-118356065D01*
X166422560Y-118268609D01*
X166498952Y-118247521D01*
X166531124Y-118298129D01*
G36*
X166707429Y-118368771D02*
X166683600Y-118392600D01*
X166709000Y-118418000D01*
X166723252Y-118403748D01*
X166730636Y-118433981D01*
X166720472Y-118448860D01*
X166674982Y-118434979D01*
X166637204Y-118397906D01*
X166602488Y-118341214D01*
X166642664Y-118334293D01*
X166707429Y-118368771D01*
X166707429Y-118368771D01*
G37*
X166707429Y-118368771D02*
X166683600Y-118392600D01*
X166709000Y-118418000D01*
X166723252Y-118403748D01*
X166730636Y-118433981D01*
X166720472Y-118448860D01*
X166674982Y-118434979D01*
X166637204Y-118397906D01*
X166602488Y-118341214D01*
X166642664Y-118334293D01*
X166707429Y-118368771D01*
G36*
X166715798Y-118373226D02*
X166716047Y-118374247D01*
X166714147Y-118372347D01*
X166715798Y-118373226D01*
X166715798Y-118373226D01*
G37*
X166715798Y-118373226D02*
X166716047Y-118374247D01*
X166714147Y-118372347D01*
X166715798Y-118373226D01*
G36*
X169731600Y-119307000D02*
X169706200Y-119332400D01*
X169680800Y-119307000D01*
X169706200Y-119281600D01*
X169731600Y-119307000D01*
X169731600Y-119307000D01*
G37*
X169731600Y-119307000D02*
X169706200Y-119332400D01*
X169680800Y-119307000D01*
X169706200Y-119281600D01*
X169731600Y-119307000D01*
G36*
X169520550Y-119200549D02*
X169575087Y-119251699D01*
X169563899Y-119281105D01*
X169556798Y-119281600D01*
X169513830Y-119245517D01*
X169498149Y-119222950D01*
X169492161Y-119188188D01*
X169520550Y-119200549D01*
X169520550Y-119200549D01*
G37*
X169520550Y-119200549D02*
X169575087Y-119251699D01*
X169563899Y-119281105D01*
X169556798Y-119281600D01*
X169513830Y-119245517D01*
X169498149Y-119222950D01*
X169492161Y-119188188D01*
X169520550Y-119200549D01*
G36*
X170020171Y-119074416D02*
X170016442Y-119102329D01*
X169961357Y-119217575D01*
X169851756Y-119262430D01*
X169813442Y-119252720D01*
X169828548Y-119227492D01*
X169896455Y-119227492D01*
X169903403Y-119230800D01*
X169949763Y-119195037D01*
X169960200Y-119180000D01*
X169973144Y-119132507D01*
X169966196Y-119129200D01*
X169919836Y-119164962D01*
X169909400Y-119180000D01*
X169896455Y-119227492D01*
X169828548Y-119227492D01*
X169848323Y-119194470D01*
X169887481Y-119150893D01*
X169977489Y-119058438D01*
X170016132Y-119035050D01*
X170020171Y-119074416D01*
X170020171Y-119074416D01*
G37*
X170020171Y-119074416D02*
X170016442Y-119102329D01*
X169961357Y-119217575D01*
X169851756Y-119262430D01*
X169813442Y-119252720D01*
X169828548Y-119227492D01*
X169896455Y-119227492D01*
X169903403Y-119230800D01*
X169949763Y-119195037D01*
X169960200Y-119180000D01*
X169973144Y-119132507D01*
X169966196Y-119129200D01*
X169919836Y-119164962D01*
X169909400Y-119180000D01*
X169896455Y-119227492D01*
X169828548Y-119227492D01*
X169848323Y-119194470D01*
X169887481Y-119150893D01*
X169977489Y-119058438D01*
X170016132Y-119035050D01*
X170020171Y-119074416D01*
G36*
X169918862Y-118857214D02*
X169909400Y-118875200D01*
X169861535Y-118923714D01*
X169852603Y-118926000D01*
X169849137Y-118893185D01*
X169858600Y-118875200D01*
X169906464Y-118826685D01*
X169915396Y-118824400D01*
X169918862Y-118857214D01*
X169918862Y-118857214D01*
G37*
X169918862Y-118857214D02*
X169909400Y-118875200D01*
X169861535Y-118923714D01*
X169852603Y-118926000D01*
X169849137Y-118893185D01*
X169858600Y-118875200D01*
X169906464Y-118826685D01*
X169915396Y-118824400D01*
X169918862Y-118857214D01*
G36*
X169555092Y-118586342D02*
X169591900Y-118614720D01*
X169662255Y-118677386D01*
X169680800Y-118703620D01*
X169656089Y-118718825D01*
X169588557Y-118653568D01*
X169572720Y-118633900D01*
X169528785Y-118573727D01*
X169555092Y-118586342D01*
X169555092Y-118586342D01*
G37*
X169555092Y-118586342D02*
X169591900Y-118614720D01*
X169662255Y-118677386D01*
X169680800Y-118703620D01*
X169656089Y-118718825D01*
X169588557Y-118653568D01*
X169572720Y-118633900D01*
X169528785Y-118573727D01*
X169555092Y-118586342D01*
G36*
X169782324Y-118298129D02*
X169782400Y-118302464D01*
X169756939Y-118306821D01*
X169748068Y-118299002D01*
X169691497Y-118305601D01*
X169597850Y-118366780D01*
X169582968Y-118379435D01*
X169452200Y-118494200D01*
X169573884Y-118356065D01*
X169673760Y-118268609D01*
X169750152Y-118247521D01*
X169782324Y-118298129D01*
X169782324Y-118298129D01*
G37*
X169782324Y-118298129D02*
X169782400Y-118302464D01*
X169756939Y-118306821D01*
X169748068Y-118299002D01*
X169691497Y-118305601D01*
X169597850Y-118366780D01*
X169582968Y-118379435D01*
X169452200Y-118494200D01*
X169573884Y-118356065D01*
X169673760Y-118268609D01*
X169750152Y-118247521D01*
X169782324Y-118298129D01*
G36*
X169977750Y-118336949D02*
X170032287Y-118388099D01*
X170021099Y-118417505D01*
X170013998Y-118418000D01*
X169971030Y-118381917D01*
X169955349Y-118359350D01*
X169949361Y-118324588D01*
X169977750Y-118336949D01*
X169977750Y-118336949D01*
G37*
X169977750Y-118336949D02*
X170032287Y-118388099D01*
X170021099Y-118417505D01*
X170013998Y-118418000D01*
X169971030Y-118381917D01*
X169955349Y-118359350D01*
X169949361Y-118324588D01*
X169977750Y-118336949D01*
G36*
X169512462Y-118298414D02*
X169503000Y-118316400D01*
X169455135Y-118364914D01*
X169446203Y-118367200D01*
X169442737Y-118334385D01*
X169452200Y-118316400D01*
X169500064Y-118267885D01*
X169508996Y-118265600D01*
X169512462Y-118298414D01*
X169512462Y-118298414D01*
G37*
X169512462Y-118298414D02*
X169503000Y-118316400D01*
X169455135Y-118364914D01*
X169446203Y-118367200D01*
X169442737Y-118334385D01*
X169452200Y-118316400D01*
X169500064Y-118267885D01*
X169508996Y-118265600D01*
X169512462Y-118298414D01*
G36*
X165058000Y-119256200D02*
X165032600Y-119281600D01*
X165007200Y-119256200D01*
X165032600Y-119230800D01*
X165058000Y-119256200D01*
X165058000Y-119256200D01*
G37*
X165058000Y-119256200D02*
X165032600Y-119281600D01*
X165007200Y-119256200D01*
X165032600Y-119230800D01*
X165058000Y-119256200D01*
G36*
X165007200Y-118900600D02*
X164981800Y-118926000D01*
X164956400Y-118900600D01*
X164981800Y-118875200D01*
X165007200Y-118900600D01*
X165007200Y-118900600D01*
G37*
X165007200Y-118900600D02*
X164981800Y-118926000D01*
X164956400Y-118900600D01*
X164981800Y-118875200D01*
X165007200Y-118900600D01*
G36*
X165744007Y-118922707D02*
X165746890Y-118999109D01*
X165731335Y-119106053D01*
X165711710Y-119152822D01*
X165692792Y-119132492D01*
X165689909Y-119056090D01*
X165705464Y-118949146D01*
X165725089Y-118902377D01*
X165744007Y-118922707D01*
X165744007Y-118922707D01*
G37*
X165744007Y-118922707D02*
X165746890Y-118999109D01*
X165731335Y-119106053D01*
X165711710Y-119152822D01*
X165692792Y-119132492D01*
X165689909Y-119056090D01*
X165705464Y-118949146D01*
X165725089Y-118902377D01*
X165744007Y-118922707D01*
G36*
X165718400Y-118392600D02*
X165693000Y-118418000D01*
X165667600Y-118392600D01*
X165693000Y-118367200D01*
X165718400Y-118392600D01*
X165718400Y-118392600D01*
G37*
X165718400Y-118392600D02*
X165693000Y-118418000D01*
X165667600Y-118392600D01*
X165693000Y-118367200D01*
X165718400Y-118392600D01*
G36*
X165007200Y-118494200D02*
X164981800Y-118519600D01*
X164956400Y-118494200D01*
X164981800Y-118468800D01*
X165007200Y-118494200D01*
X165007200Y-118494200D01*
G37*
X165007200Y-118494200D02*
X164981800Y-118519600D01*
X164956400Y-118494200D01*
X164981800Y-118468800D01*
X165007200Y-118494200D01*
G36*
X168055200Y-119053000D02*
X168029800Y-119078400D01*
X168004400Y-119053000D01*
X168029800Y-119027600D01*
X168055200Y-119053000D01*
X168055200Y-119053000D01*
G37*
X168055200Y-119053000D02*
X168029800Y-119078400D01*
X168004400Y-119053000D01*
X168029800Y-119027600D01*
X168055200Y-119053000D01*
G36*
X168030575Y-118612642D02*
X168030577Y-118612733D01*
X168055310Y-118681929D01*
X168069506Y-118706589D01*
X168074512Y-118778877D01*
X168056028Y-118798487D01*
X168004240Y-118818137D01*
X167999360Y-118814698D01*
X167988111Y-118748200D01*
X168004400Y-118748200D01*
X168029800Y-118773600D01*
X168055200Y-118748200D01*
X168029800Y-118722800D01*
X168004400Y-118748200D01*
X167988111Y-118748200D01*
X167985584Y-118733262D01*
X167981788Y-118634429D01*
X167987948Y-118560944D01*
X167999509Y-118548576D01*
X168030575Y-118612642D01*
X168030575Y-118612642D01*
G37*
X168030575Y-118612642D02*
X168030577Y-118612733D01*
X168055310Y-118681929D01*
X168069506Y-118706589D01*
X168074512Y-118778877D01*
X168056028Y-118798487D01*
X168004240Y-118818137D01*
X167999360Y-118814698D01*
X167988111Y-118748200D01*
X168004400Y-118748200D01*
X168029800Y-118773600D01*
X168055200Y-118748200D01*
X168029800Y-118722800D01*
X168004400Y-118748200D01*
X167988111Y-118748200D01*
X167985584Y-118733262D01*
X167981788Y-118634429D01*
X167987948Y-118560944D01*
X167999509Y-118548576D01*
X168030575Y-118612642D01*
G36*
X167328057Y-118343092D02*
X167299679Y-118379900D01*
X167225531Y-118458877D01*
X167192434Y-118458534D01*
X167191600Y-118449620D01*
X167226315Y-118407215D01*
X167280500Y-118360720D01*
X167340672Y-118316785D01*
X167328057Y-118343092D01*
X167328057Y-118343092D01*
G37*
X167328057Y-118343092D02*
X167299679Y-118379900D01*
X167225531Y-118458877D01*
X167192434Y-118458534D01*
X167191600Y-118449620D01*
X167226315Y-118407215D01*
X167280500Y-118360720D01*
X167340672Y-118316785D01*
X167328057Y-118343092D01*
G36*
X168004400Y-118443400D02*
X167979000Y-118468800D01*
X167953600Y-118443400D01*
X167979000Y-118418000D01*
X168004400Y-118443400D01*
X168004400Y-118443400D01*
G37*
X168004400Y-118443400D02*
X167979000Y-118468800D01*
X167953600Y-118443400D01*
X167979000Y-118418000D01*
X168004400Y-118443400D01*
G36*
X167640950Y-118286149D02*
X167695059Y-118333371D01*
X167699600Y-118344798D01*
X167675491Y-118365677D01*
X167625298Y-118318892D01*
X167618549Y-118308550D01*
X167612561Y-118273788D01*
X167640950Y-118286149D01*
X167640950Y-118286149D01*
G37*
X167640950Y-118286149D02*
X167695059Y-118333371D01*
X167699600Y-118344798D01*
X167675491Y-118365677D01*
X167625298Y-118318892D01*
X167618549Y-118308550D01*
X167612561Y-118273788D01*
X167640950Y-118286149D01*
G36*
X167427311Y-119108173D02*
X167401279Y-119141900D01*
X167334907Y-119217005D01*
X167295035Y-119215496D01*
X167262653Y-119167300D01*
X167251692Y-119131191D01*
X167267681Y-119141459D01*
X167335765Y-119145505D01*
X167390125Y-119116059D01*
X167443415Y-119078173D01*
X167427311Y-119108173D01*
X167427311Y-119108173D01*
G37*
X167427311Y-119108173D02*
X167401279Y-119141900D01*
X167334907Y-119217005D01*
X167295035Y-119215496D01*
X167262653Y-119167300D01*
X167251692Y-119131191D01*
X167267681Y-119141459D01*
X167335765Y-119145505D01*
X167390125Y-119116059D01*
X167443415Y-119078173D01*
X167427311Y-119108173D01*
G36*
X164803350Y-114406548D02*
X164684332Y-114566171D01*
X164528080Y-114643055D01*
X164387780Y-114657184D01*
X164229333Y-114634914D01*
X164127558Y-114554847D01*
X164121080Y-114545896D01*
X164061253Y-114435875D01*
X164042000Y-114362254D01*
X164057944Y-114322471D01*
X164120363Y-114344421D01*
X164169313Y-114374934D01*
X164350101Y-114480579D01*
X164484159Y-114519314D01*
X164599244Y-114493322D01*
X164708393Y-114417361D01*
X164870096Y-114281296D01*
X164803350Y-114406548D01*
X164803350Y-114406548D01*
G37*
X164803350Y-114406548D02*
X164684332Y-114566171D01*
X164528080Y-114643055D01*
X164387780Y-114657184D01*
X164229333Y-114634914D01*
X164127558Y-114554847D01*
X164121080Y-114545896D01*
X164061253Y-114435875D01*
X164042000Y-114362254D01*
X164057944Y-114322471D01*
X164120363Y-114344421D01*
X164169313Y-114374934D01*
X164350101Y-114480579D01*
X164484159Y-114519314D01*
X164599244Y-114493322D01*
X164708393Y-114417361D01*
X164870096Y-114281296D01*
X164803350Y-114406548D01*
G36*
X164243510Y-113509736D02*
X164258534Y-113584058D01*
X164229990Y-113648276D01*
X164160309Y-113731933D01*
X164095234Y-113722413D01*
X164038786Y-113664328D01*
X163998661Y-113592285D01*
X164040175Y-113541381D01*
X164045266Y-113538106D01*
X164165639Y-113490374D01*
X164243510Y-113509736D01*
X164243510Y-113509736D01*
G37*
X164243510Y-113509736D02*
X164258534Y-113584058D01*
X164229990Y-113648276D01*
X164160309Y-113731933D01*
X164095234Y-113722413D01*
X164038786Y-113664328D01*
X163998661Y-113592285D01*
X164040175Y-113541381D01*
X164045266Y-113538106D01*
X164165639Y-113490374D01*
X164243510Y-113509736D01*
G36*
X164809445Y-113502182D02*
X164854789Y-113530567D01*
X164854800Y-113531040D01*
X164821015Y-113599820D01*
X164751355Y-113670205D01*
X164702400Y-113693600D01*
X164644519Y-113662317D01*
X164610959Y-113632640D01*
X164554215Y-113549426D01*
X164590533Y-113503070D01*
X164702400Y-113490400D01*
X164809445Y-113502182D01*
X164809445Y-113502182D01*
G37*
X164809445Y-113502182D02*
X164854789Y-113530567D01*
X164854800Y-113531040D01*
X164821015Y-113599820D01*
X164751355Y-113670205D01*
X164702400Y-113693600D01*
X164644519Y-113662317D01*
X164610959Y-113632640D01*
X164554215Y-113549426D01*
X164590533Y-113503070D01*
X164702400Y-113490400D01*
X164809445Y-113502182D01*
D13*
X135000000Y-107600000D02*
X151000000Y-107600000D01*
X135000000Y-131300000D02*
X135000000Y-107600000D01*
X151000000Y-131300000D02*
X135000000Y-131300000D01*
X151000000Y-107600000D02*
X151000000Y-131300000D01*
D14*
X131900000Y-107750000D02*
X130900000Y-107750000D01*
X130900000Y-109450000D02*
X131900000Y-109450000D01*
X127300000Y-109450000D02*
X128300000Y-109450000D01*
X128300000Y-107750000D02*
X127300000Y-107750000D01*
X131900000Y-116550000D02*
X130900000Y-116550000D01*
X130900000Y-118250000D02*
X131900000Y-118250000D01*
X127300000Y-118250000D02*
X128300000Y-118250000D01*
X128300000Y-116550000D02*
X127300000Y-116550000D01*
X128090000Y-109590000D02*
X128090000Y-110850000D01*
X128090000Y-116410000D02*
X128090000Y-115150000D01*
X131850000Y-109590000D02*
X128090000Y-109590000D01*
X134100000Y-116410000D02*
X128090000Y-116410000D01*
X158650000Y-109100000D02*
X158650000Y-110100000D01*
X160350000Y-110100000D02*
X160350000Y-109100000D01*
X160550000Y-109100000D02*
X160550000Y-110100000D01*
X162250000Y-110100000D02*
X162250000Y-109100000D01*
D13*
X152227000Y-111594000D02*
X152227000Y-108927000D01*
X152227000Y-108927000D02*
X154894000Y-108927000D01*
X152354000Y-116674000D02*
X152354000Y-119214000D01*
X152354000Y-119214000D02*
X154894000Y-119214000D01*
X152354000Y-111594000D02*
X154894000Y-111594000D01*
X154894000Y-111594000D02*
X154894000Y-109054000D01*
X152354000Y-116674000D02*
X152354000Y-109054000D01*
X152354000Y-109054000D02*
X157434000Y-109054000D01*
X157434000Y-109054000D02*
X157434000Y-119214000D01*
X157434000Y-119214000D02*
X154894000Y-119214000D01*
D14*
X159000000Y-127050000D02*
X155800000Y-127050000D01*
X155800000Y-125550000D02*
X159000000Y-125550000D01*
X155800000Y-125550000D02*
X155800000Y-127050000D01*
X166000000Y-127000000D02*
X162800000Y-127000000D01*
X162800000Y-125500000D02*
X166000000Y-125500000D01*
X162800000Y-125500000D02*
X162800000Y-127000000D01*
X173000000Y-127000000D02*
X169800000Y-127000000D01*
X169800000Y-125500000D02*
X173000000Y-125500000D01*
X169800000Y-125500000D02*
X169800000Y-127000000D01*
X158600000Y-125330000D02*
X157400000Y-125330000D01*
X157400000Y-123570000D02*
X158600000Y-123570000D01*
X165600000Y-125280000D02*
X164400000Y-125280000D01*
X164400000Y-123520000D02*
X165600000Y-123520000D01*
X169670000Y-123500000D02*
X169670000Y-122300000D01*
X171430000Y-122300000D02*
X171430000Y-123500000D01*
D16*
X145390476Y-122761905D02*
X145390476Y-123409524D01*
X145428571Y-123485714D01*
X145466667Y-123523810D01*
X145542857Y-123561905D01*
X145695238Y-123561905D01*
X145771429Y-123523810D01*
X145809524Y-123485714D01*
X145847619Y-123409524D01*
X145847619Y-122761905D01*
X146190476Y-122838095D02*
X146228571Y-122800000D01*
X146304762Y-122761905D01*
X146495238Y-122761905D01*
X146571428Y-122800000D01*
X146609524Y-122838095D01*
X146647619Y-122914286D01*
X146647619Y-122990476D01*
X146609524Y-123104762D01*
X146152381Y-123561905D01*
X146647619Y-123561905D01*
X139461905Y-123676191D02*
X138661905Y-123676191D01*
X139461905Y-123219048D01*
X138661905Y-123219048D01*
X139461905Y-122380953D02*
X139080952Y-122647620D01*
X139461905Y-122838096D02*
X138661905Y-122838096D01*
X138661905Y-122533334D01*
X138700000Y-122457143D01*
X138738095Y-122419048D01*
X138814286Y-122380953D01*
X138928571Y-122380953D01*
X139004762Y-122419048D01*
X139042857Y-122457143D01*
X139080952Y-122533334D01*
X139080952Y-122838096D01*
X139042857Y-121771429D02*
X139042857Y-122038096D01*
X139461905Y-122038096D02*
X138661905Y-122038096D01*
X138661905Y-121657143D01*
X138738095Y-121390477D02*
X138700000Y-121352382D01*
X138661905Y-121276191D01*
X138661905Y-121085715D01*
X138700000Y-121009525D01*
X138738095Y-120971429D01*
X138814286Y-120933334D01*
X138890476Y-120933334D01*
X139004762Y-120971429D01*
X139461905Y-121428572D01*
X139461905Y-120933334D01*
X138928571Y-120247620D02*
X139461905Y-120247620D01*
X138623810Y-120438096D02*
X139195238Y-120628572D01*
X139195238Y-120133334D01*
X139461905Y-119447619D02*
X139461905Y-119828572D01*
X138661905Y-119828572D01*
X138661905Y-119028572D02*
X138661905Y-118952381D01*
X138700000Y-118876191D01*
X138738095Y-118838096D01*
X138814286Y-118800000D01*
X138966667Y-118761905D01*
X139157143Y-118761905D01*
X139309524Y-118800000D01*
X139385714Y-118838096D01*
X139423810Y-118876191D01*
X139461905Y-118952381D01*
X139461905Y-119028572D01*
X139423810Y-119104762D01*
X139385714Y-119142858D01*
X139309524Y-119180953D01*
X139157143Y-119219048D01*
X138966667Y-119219048D01*
X138814286Y-119180953D01*
X138738095Y-119142858D01*
X138700000Y-119104762D01*
X138661905Y-119028572D01*
X139461905Y-118000000D02*
X139461905Y-118457143D01*
X139461905Y-118228572D02*
X138661905Y-118228572D01*
X138776190Y-118304762D01*
X138852381Y-118380953D01*
X138890476Y-118457143D01*
X139423810Y-117085714D02*
X139461905Y-116971428D01*
X139461905Y-116780952D01*
X139423810Y-116704762D01*
X139385714Y-116666666D01*
X139309524Y-116628571D01*
X139233333Y-116628571D01*
X139157143Y-116666666D01*
X139119048Y-116704762D01*
X139080952Y-116780952D01*
X139042857Y-116933333D01*
X139004762Y-117009524D01*
X138966667Y-117047619D01*
X138890476Y-117085714D01*
X138814286Y-117085714D01*
X138738095Y-117047619D01*
X138700000Y-117009524D01*
X138661905Y-116933333D01*
X138661905Y-116742857D01*
X138700000Y-116628571D01*
X139461905Y-116285714D02*
X138661905Y-116285714D01*
X138661905Y-115980952D01*
X138700000Y-115904761D01*
X138738095Y-115866666D01*
X138814286Y-115828571D01*
X138928571Y-115828571D01*
X139004762Y-115866666D01*
X139042857Y-115904761D01*
X139080952Y-115980952D01*
X139080952Y-116285714D01*
X139461905Y-115485714D02*
X138661905Y-115485714D01*
X138661905Y-114952381D02*
X138661905Y-114876190D01*
X138700000Y-114800000D01*
X138738095Y-114761905D01*
X138814286Y-114723809D01*
X138966667Y-114685714D01*
X139157143Y-114685714D01*
X139309524Y-114723809D01*
X139385714Y-114761905D01*
X139423810Y-114800000D01*
X139461905Y-114876190D01*
X139461905Y-114952381D01*
X139423810Y-115028571D01*
X139385714Y-115066667D01*
X139309524Y-115104762D01*
X139157143Y-115142857D01*
X138966667Y-115142857D01*
X138814286Y-115104762D01*
X138738095Y-115066667D01*
X138700000Y-115028571D01*
X138661905Y-114952381D01*
D13*
X152785714Y-129928571D02*
X153119048Y-129928571D01*
X153261905Y-130452381D02*
X152785714Y-130452381D01*
X152785714Y-129452381D01*
X153261905Y-129452381D01*
X154261905Y-130452381D02*
X153928571Y-129976190D01*
X153690476Y-130452381D02*
X153690476Y-129452381D01*
X154071429Y-129452381D01*
X154166667Y-129500000D01*
X154214286Y-129547619D01*
X154261905Y-129642857D01*
X154261905Y-129785714D01*
X154214286Y-129880952D01*
X154166667Y-129928571D01*
X154071429Y-129976190D01*
X153690476Y-129976190D01*
X155261905Y-130452381D02*
X154928571Y-129976190D01*
X154690476Y-130452381D02*
X154690476Y-129452381D01*
X155071429Y-129452381D01*
X155166667Y-129500000D01*
X155214286Y-129547619D01*
X155261905Y-129642857D01*
X155261905Y-129785714D01*
X155214286Y-129880952D01*
X155166667Y-129928571D01*
X155071429Y-129976190D01*
X154690476Y-129976190D01*
X161333334Y-130452381D02*
X161000000Y-129976190D01*
X160761905Y-130452381D02*
X160761905Y-129452381D01*
X161142858Y-129452381D01*
X161238096Y-129500000D01*
X161285715Y-129547619D01*
X161333334Y-129642857D01*
X161333334Y-129785714D01*
X161285715Y-129880952D01*
X161238096Y-129928571D01*
X161142858Y-129976190D01*
X160761905Y-129976190D01*
X161666667Y-129452381D02*
X162333334Y-130452381D01*
X162333334Y-129452381D02*
X161666667Y-130452381D01*
X167738095Y-129452381D02*
X168309524Y-129452381D01*
X168023809Y-130452381D02*
X168023809Y-129452381D01*
X168547619Y-129452381D02*
X169214286Y-130452381D01*
X169214286Y-129452381D02*
X168547619Y-130452381D01*
X129216667Y-124052381D02*
X129216667Y-124766667D01*
X129169047Y-124909524D01*
X129073809Y-125004762D01*
X128930952Y-125052381D01*
X128835714Y-125052381D01*
X130216667Y-125052381D02*
X129645238Y-125052381D01*
X129930952Y-125052381D02*
X129930952Y-124052381D01*
X129835714Y-124195238D01*
X129740476Y-124290476D01*
X129645238Y-124338095D01*
X122757143Y-130166667D02*
X123233334Y-130166667D01*
X122661905Y-130452381D02*
X122995238Y-129452381D01*
X123328572Y-130452381D01*
X123661905Y-130452381D02*
X123661905Y-129452381D01*
X124233334Y-130452381D01*
X124233334Y-129452381D01*
X124566667Y-129452381D02*
X125138096Y-129452381D01*
X124852381Y-130452381D02*
X124852381Y-129452381D01*
X154633334Y-128502381D02*
X154300000Y-128026190D01*
X154061905Y-128502381D02*
X154061905Y-127502381D01*
X154442858Y-127502381D01*
X154538096Y-127550000D01*
X154585715Y-127597619D01*
X154633334Y-127692857D01*
X154633334Y-127835714D01*
X154585715Y-127930952D01*
X154538096Y-127978571D01*
X154442858Y-128026190D01*
X154061905Y-128026190D01*
X155585715Y-128502381D02*
X155014286Y-128502381D01*
X155300000Y-128502381D02*
X155300000Y-127502381D01*
X155204762Y-127645238D01*
X155109524Y-127740476D01*
X155014286Y-127788095D01*
X161533334Y-128452381D02*
X161200000Y-127976190D01*
X160961905Y-128452381D02*
X160961905Y-127452381D01*
X161342858Y-127452381D01*
X161438096Y-127500000D01*
X161485715Y-127547619D01*
X161533334Y-127642857D01*
X161533334Y-127785714D01*
X161485715Y-127880952D01*
X161438096Y-127928571D01*
X161342858Y-127976190D01*
X160961905Y-127976190D01*
X161914286Y-127547619D02*
X161961905Y-127500000D01*
X162057143Y-127452381D01*
X162295239Y-127452381D01*
X162390477Y-127500000D01*
X162438096Y-127547619D01*
X162485715Y-127642857D01*
X162485715Y-127738095D01*
X162438096Y-127880952D01*
X161866667Y-128452381D01*
X162485715Y-128452381D01*
X168633334Y-128452381D02*
X168300000Y-127976190D01*
X168061905Y-128452381D02*
X168061905Y-127452381D01*
X168442858Y-127452381D01*
X168538096Y-127500000D01*
X168585715Y-127547619D01*
X168633334Y-127642857D01*
X168633334Y-127785714D01*
X168585715Y-127880952D01*
X168538096Y-127928571D01*
X168442858Y-127976190D01*
X168061905Y-127976190D01*
X168966667Y-127452381D02*
X169585715Y-127452381D01*
X169252381Y-127833333D01*
X169395239Y-127833333D01*
X169490477Y-127880952D01*
X169538096Y-127928571D01*
X169585715Y-128023810D01*
X169585715Y-128261905D01*
X169538096Y-128357143D01*
X169490477Y-128404762D01*
X169395239Y-128452381D01*
X169109524Y-128452381D01*
X169014286Y-128404762D01*
X168966667Y-128357143D01*
X128833334Y-128952381D02*
X128500000Y-128476190D01*
X128261905Y-128952381D02*
X128261905Y-127952381D01*
X128642858Y-127952381D01*
X128738096Y-128000000D01*
X128785715Y-128047619D01*
X128833334Y-128142857D01*
X128833334Y-128285714D01*
X128785715Y-128380952D01*
X128738096Y-128428571D01*
X128642858Y-128476190D01*
X128261905Y-128476190D01*
X129166667Y-127952381D02*
X129833334Y-127952381D01*
X129404762Y-128952381D01*
X128052381Y-126552381D02*
X128147620Y-126552381D01*
X128242858Y-126600000D01*
X128290477Y-126647619D01*
X128338096Y-126742857D01*
X128385715Y-126933333D01*
X128385715Y-127171429D01*
X128338096Y-127361905D01*
X128290477Y-127457143D01*
X128242858Y-127504762D01*
X128147620Y-127552381D01*
X128052381Y-127552381D01*
X127957143Y-127504762D01*
X127909524Y-127457143D01*
X127861905Y-127361905D01*
X127814286Y-127171429D01*
X127814286Y-126933333D01*
X127861905Y-126742857D01*
X127909524Y-126647619D01*
X127957143Y-126600000D01*
X128052381Y-126552381D01*
X123416667Y-128152381D02*
X123416667Y-128866667D01*
X123369047Y-129009524D01*
X123273809Y-129104762D01*
X123130952Y-129152381D01*
X123035714Y-129152381D01*
X123797619Y-128152381D02*
X124416667Y-128152381D01*
X124083333Y-128533333D01*
X124226191Y-128533333D01*
X124321429Y-128580952D01*
X124369048Y-128628571D01*
X124416667Y-128723810D01*
X124416667Y-128961905D01*
X124369048Y-129057143D01*
X124321429Y-129104762D01*
X124226191Y-129152381D01*
X123940476Y-129152381D01*
X123845238Y-129104762D01*
X123797619Y-129057143D01*
D16*
X149590476Y-111361905D02*
X149590476Y-112009524D01*
X149628571Y-112085714D01*
X149666667Y-112123810D01*
X149742857Y-112161905D01*
X149895238Y-112161905D01*
X149971429Y-112123810D01*
X150009524Y-112085714D01*
X150047619Y-112009524D01*
X150047619Y-111361905D01*
X150847619Y-112161905D02*
X150390476Y-112161905D01*
X150619047Y-112161905D02*
X150619047Y-111361905D01*
X150542857Y-111476190D01*
X150466666Y-111552381D01*
X150390476Y-111590476D01*
D13*
X134033334Y-108557143D02*
X133985715Y-108604762D01*
X133842858Y-108652381D01*
X133747620Y-108652381D01*
X133604762Y-108604762D01*
X133509524Y-108509524D01*
X133461905Y-108414286D01*
X133414286Y-108223810D01*
X133414286Y-108080952D01*
X133461905Y-107890476D01*
X133509524Y-107795238D01*
X133604762Y-107700000D01*
X133747620Y-107652381D01*
X133842858Y-107652381D01*
X133985715Y-107700000D01*
X134033334Y-107747619D01*
X134985715Y-108652381D02*
X134414286Y-108652381D01*
X134700000Y-108652381D02*
X134700000Y-107652381D01*
X134604762Y-107795238D01*
X134509524Y-107890476D01*
X134414286Y-107938095D01*
X124833334Y-108557143D02*
X124785715Y-108604762D01*
X124642858Y-108652381D01*
X124547620Y-108652381D01*
X124404762Y-108604762D01*
X124309524Y-108509524D01*
X124261905Y-108414286D01*
X124214286Y-108223810D01*
X124214286Y-108080952D01*
X124261905Y-107890476D01*
X124309524Y-107795238D01*
X124404762Y-107700000D01*
X124547620Y-107652381D01*
X124642858Y-107652381D01*
X124785715Y-107700000D01*
X124833334Y-107747619D01*
X125214286Y-107747619D02*
X125261905Y-107700000D01*
X125357143Y-107652381D01*
X125595239Y-107652381D01*
X125690477Y-107700000D01*
X125738096Y-107747619D01*
X125785715Y-107842857D01*
X125785715Y-107938095D01*
X125738096Y-108080952D01*
X125166667Y-108652381D01*
X125785715Y-108652381D01*
X133833334Y-117757143D02*
X133785715Y-117804762D01*
X133642858Y-117852381D01*
X133547620Y-117852381D01*
X133404762Y-117804762D01*
X133309524Y-117709524D01*
X133261905Y-117614286D01*
X133214286Y-117423810D01*
X133214286Y-117280952D01*
X133261905Y-117090476D01*
X133309524Y-116995238D01*
X133404762Y-116900000D01*
X133547620Y-116852381D01*
X133642858Y-116852381D01*
X133785715Y-116900000D01*
X133833334Y-116947619D01*
X134166667Y-116852381D02*
X134785715Y-116852381D01*
X134452381Y-117233333D01*
X134595239Y-117233333D01*
X134690477Y-117280952D01*
X134738096Y-117328571D01*
X134785715Y-117423810D01*
X134785715Y-117661905D01*
X134738096Y-117757143D01*
X134690477Y-117804762D01*
X134595239Y-117852381D01*
X134309524Y-117852381D01*
X134214286Y-117804762D01*
X134166667Y-117757143D01*
X126633334Y-116557143D02*
X126585715Y-116604762D01*
X126442858Y-116652381D01*
X126347620Y-116652381D01*
X126204762Y-116604762D01*
X126109524Y-116509524D01*
X126061905Y-116414286D01*
X126014286Y-116223810D01*
X126014286Y-116080952D01*
X126061905Y-115890476D01*
X126109524Y-115795238D01*
X126204762Y-115700000D01*
X126347620Y-115652381D01*
X126442858Y-115652381D01*
X126585715Y-115700000D01*
X126633334Y-115747619D01*
X127490477Y-115985714D02*
X127490477Y-116652381D01*
X127252381Y-115604762D02*
X127014286Y-116319048D01*
X127633334Y-116319048D01*
X126038095Y-109652381D02*
X126038095Y-110461905D01*
X126085714Y-110557143D01*
X126133333Y-110604762D01*
X126228571Y-110652381D01*
X126419048Y-110652381D01*
X126514286Y-110604762D01*
X126561905Y-110557143D01*
X126609524Y-110461905D01*
X126609524Y-109652381D01*
X126990476Y-109652381D02*
X127609524Y-109652381D01*
X127276190Y-110033333D01*
X127419048Y-110033333D01*
X127514286Y-110080952D01*
X127561905Y-110128571D01*
X127609524Y-110223810D01*
X127609524Y-110461905D01*
X127561905Y-110557143D01*
X127514286Y-110604762D01*
X127419048Y-110652381D01*
X127133333Y-110652381D01*
X127038095Y-110604762D01*
X126990476Y-110557143D01*
X157533334Y-108257143D02*
X157485715Y-108304762D01*
X157342858Y-108352381D01*
X157247620Y-108352381D01*
X157104762Y-108304762D01*
X157009524Y-108209524D01*
X156961905Y-108114286D01*
X156914286Y-107923810D01*
X156914286Y-107780952D01*
X156961905Y-107590476D01*
X157009524Y-107495238D01*
X157104762Y-107400000D01*
X157247620Y-107352381D01*
X157342858Y-107352381D01*
X157485715Y-107400000D01*
X157533334Y-107447619D01*
X158438096Y-107352381D02*
X157961905Y-107352381D01*
X157914286Y-107828571D01*
X157961905Y-107780952D01*
X158057143Y-107733333D01*
X158295239Y-107733333D01*
X158390477Y-107780952D01*
X158438096Y-107828571D01*
X158485715Y-107923810D01*
X158485715Y-108161905D01*
X158438096Y-108257143D01*
X158390477Y-108304762D01*
X158295239Y-108352381D01*
X158057143Y-108352381D01*
X157961905Y-108304762D01*
X157914286Y-108257143D01*
X162833334Y-108257143D02*
X162785715Y-108304762D01*
X162642858Y-108352381D01*
X162547620Y-108352381D01*
X162404762Y-108304762D01*
X162309524Y-108209524D01*
X162261905Y-108114286D01*
X162214286Y-107923810D01*
X162214286Y-107780952D01*
X162261905Y-107590476D01*
X162309524Y-107495238D01*
X162404762Y-107400000D01*
X162547620Y-107352381D01*
X162642858Y-107352381D01*
X162785715Y-107400000D01*
X162833334Y-107447619D01*
X163690477Y-107352381D02*
X163500000Y-107352381D01*
X163404762Y-107400000D01*
X163357143Y-107447619D01*
X163261905Y-107590476D01*
X163214286Y-107780952D01*
X163214286Y-108161905D01*
X163261905Y-108257143D01*
X163309524Y-108304762D01*
X163404762Y-108352381D01*
X163595239Y-108352381D01*
X163690477Y-108304762D01*
X163738096Y-108257143D01*
X163785715Y-108161905D01*
X163785715Y-107923810D01*
X163738096Y-107828571D01*
X163690477Y-107780952D01*
X163595239Y-107733333D01*
X163404762Y-107733333D01*
X163309524Y-107780952D01*
X163261905Y-107828571D01*
X163214286Y-107923810D01*
D16*
X152190476Y-107661905D02*
X152190476Y-108309524D01*
X152228571Y-108385714D01*
X152266667Y-108423810D01*
X152342857Y-108461905D01*
X152495238Y-108461905D01*
X152571429Y-108423810D01*
X152609524Y-108385714D01*
X152647619Y-108309524D01*
X152647619Y-107661905D01*
X153371428Y-107928571D02*
X153371428Y-108461905D01*
X153180952Y-107623810D02*
X152990476Y-108195238D01*
X153485714Y-108195238D01*
X152061905Y-119176191D02*
X151261905Y-119176191D01*
X152061905Y-118719048D01*
X151261905Y-118719048D01*
X152061905Y-117880953D02*
X151680952Y-118147620D01*
X152061905Y-118338096D02*
X151261905Y-118338096D01*
X151261905Y-118033334D01*
X151300000Y-117957143D01*
X151338095Y-117919048D01*
X151414286Y-117880953D01*
X151528571Y-117880953D01*
X151604762Y-117919048D01*
X151642857Y-117957143D01*
X151680952Y-118033334D01*
X151680952Y-118338096D01*
X151642857Y-117271429D02*
X151642857Y-117538096D01*
X152061905Y-117538096D02*
X151261905Y-117538096D01*
X151261905Y-117157143D01*
X151338095Y-116890477D02*
X151300000Y-116852382D01*
X151261905Y-116776191D01*
X151261905Y-116585715D01*
X151300000Y-116509525D01*
X151338095Y-116471429D01*
X151414286Y-116433334D01*
X151490476Y-116433334D01*
X151604762Y-116471429D01*
X152061905Y-116928572D01*
X152061905Y-116433334D01*
X151528571Y-115747620D02*
X152061905Y-115747620D01*
X151223810Y-115938096D02*
X151795238Y-116128572D01*
X151795238Y-115633334D01*
X152061905Y-114947619D02*
X152061905Y-115328572D01*
X151261905Y-115328572D01*
X151261905Y-114528572D02*
X151261905Y-114452381D01*
X151300000Y-114376191D01*
X151338095Y-114338096D01*
X151414286Y-114300000D01*
X151566667Y-114261905D01*
X151757143Y-114261905D01*
X151909524Y-114300000D01*
X151985714Y-114338096D01*
X152023810Y-114376191D01*
X152061905Y-114452381D01*
X152061905Y-114528572D01*
X152023810Y-114604762D01*
X151985714Y-114642858D01*
X151909524Y-114680953D01*
X151757143Y-114719048D01*
X151566667Y-114719048D01*
X151414286Y-114680953D01*
X151338095Y-114642858D01*
X151300000Y-114604762D01*
X151261905Y-114528572D01*
X152061905Y-113500000D02*
X152061905Y-113957143D01*
X152061905Y-113728572D02*
X151261905Y-113728572D01*
X151376190Y-113804762D01*
X151452381Y-113880953D01*
X151490476Y-113957143D01*
X152023810Y-112585714D02*
X152061905Y-112471428D01*
X152061905Y-112280952D01*
X152023810Y-112204762D01*
X151985714Y-112166666D01*
X151909524Y-112128571D01*
X151833333Y-112128571D01*
X151757143Y-112166666D01*
X151719048Y-112204762D01*
X151680952Y-112280952D01*
X151642857Y-112433333D01*
X151604762Y-112509524D01*
X151566667Y-112547619D01*
X151490476Y-112585714D01*
X151414286Y-112585714D01*
X151338095Y-112547619D01*
X151300000Y-112509524D01*
X151261905Y-112433333D01*
X151261905Y-112242857D01*
X151300000Y-112128571D01*
X152061905Y-111785714D02*
X151261905Y-111785714D01*
X151261905Y-111480952D01*
X151300000Y-111404761D01*
X151338095Y-111366666D01*
X151414286Y-111328571D01*
X151528571Y-111328571D01*
X151604762Y-111366666D01*
X151642857Y-111404761D01*
X151680952Y-111480952D01*
X151680952Y-111785714D01*
X152061905Y-110985714D02*
X151261905Y-110985714D01*
X152061905Y-110185714D02*
X152061905Y-110642857D01*
X152061905Y-110414286D02*
X151261905Y-110414286D01*
X151376190Y-110490476D01*
X151452381Y-110566667D01*
X151490476Y-110642857D01*
D13*
X152835714Y-126228571D02*
X153169048Y-126228571D01*
X153311905Y-126752381D02*
X152835714Y-126752381D01*
X152835714Y-125752381D01*
X153311905Y-125752381D01*
X154311905Y-126752381D02*
X153978571Y-126276190D01*
X153740476Y-126752381D02*
X153740476Y-125752381D01*
X154121429Y-125752381D01*
X154216667Y-125800000D01*
X154264286Y-125847619D01*
X154311905Y-125942857D01*
X154311905Y-126085714D01*
X154264286Y-126180952D01*
X154216667Y-126228571D01*
X154121429Y-126276190D01*
X153740476Y-126276190D01*
X155311905Y-126752381D02*
X154978571Y-126276190D01*
X154740476Y-126752381D02*
X154740476Y-125752381D01*
X155121429Y-125752381D01*
X155216667Y-125800000D01*
X155264286Y-125847619D01*
X155311905Y-125942857D01*
X155311905Y-126085714D01*
X155264286Y-126180952D01*
X155216667Y-126228571D01*
X155121429Y-126276190D01*
X154740476Y-126276190D01*
X161333334Y-126702381D02*
X161000000Y-126226190D01*
X160761905Y-126702381D02*
X160761905Y-125702381D01*
X161142858Y-125702381D01*
X161238096Y-125750000D01*
X161285715Y-125797619D01*
X161333334Y-125892857D01*
X161333334Y-126035714D01*
X161285715Y-126130952D01*
X161238096Y-126178571D01*
X161142858Y-126226190D01*
X160761905Y-126226190D01*
X161666667Y-125702381D02*
X162333334Y-126702381D01*
X162333334Y-125702381D02*
X161666667Y-126702381D01*
X167788095Y-125702381D02*
X168359524Y-125702381D01*
X168073809Y-126702381D02*
X168073809Y-125702381D01*
X168597619Y-125702381D02*
X169264286Y-126702381D01*
X169264286Y-125702381D02*
X168597619Y-126702381D01*
X154583334Y-124902381D02*
X154250000Y-124426190D01*
X154011905Y-124902381D02*
X154011905Y-123902381D01*
X154392858Y-123902381D01*
X154488096Y-123950000D01*
X154535715Y-123997619D01*
X154583334Y-124092857D01*
X154583334Y-124235714D01*
X154535715Y-124330952D01*
X154488096Y-124378571D01*
X154392858Y-124426190D01*
X154011905Y-124426190D01*
X155440477Y-124235714D02*
X155440477Y-124902381D01*
X155202381Y-123854762D02*
X154964286Y-124569048D01*
X155583334Y-124569048D01*
X161633334Y-124852381D02*
X161300000Y-124376190D01*
X161061905Y-124852381D02*
X161061905Y-123852381D01*
X161442858Y-123852381D01*
X161538096Y-123900000D01*
X161585715Y-123947619D01*
X161633334Y-124042857D01*
X161633334Y-124185714D01*
X161585715Y-124280952D01*
X161538096Y-124328571D01*
X161442858Y-124376190D01*
X161061905Y-124376190D01*
X162538096Y-123852381D02*
X162061905Y-123852381D01*
X162014286Y-124328571D01*
X162061905Y-124280952D01*
X162157143Y-124233333D01*
X162395239Y-124233333D01*
X162490477Y-124280952D01*
X162538096Y-124328571D01*
X162585715Y-124423810D01*
X162585715Y-124661905D01*
X162538096Y-124757143D01*
X162490477Y-124804762D01*
X162395239Y-124852381D01*
X162157143Y-124852381D01*
X162061905Y-124804762D01*
X162014286Y-124757143D01*
X172233334Y-125102381D02*
X171900000Y-124626190D01*
X171661905Y-125102381D02*
X171661905Y-124102381D01*
X172042858Y-124102381D01*
X172138096Y-124150000D01*
X172185715Y-124197619D01*
X172233334Y-124292857D01*
X172233334Y-124435714D01*
X172185715Y-124530952D01*
X172138096Y-124578571D01*
X172042858Y-124626190D01*
X171661905Y-124626190D01*
X173090477Y-124102381D02*
X172900000Y-124102381D01*
X172804762Y-124150000D01*
X172757143Y-124197619D01*
X172661905Y-124340476D01*
X172614286Y-124530952D01*
X172614286Y-124911905D01*
X172661905Y-125007143D01*
X172709524Y-125054762D01*
X172804762Y-125102381D01*
X172995239Y-125102381D01*
X173090477Y-125054762D01*
X173138096Y-125007143D01*
X173185715Y-124911905D01*
X173185715Y-124673810D01*
X173138096Y-124578571D01*
X173090477Y-124530952D01*
X172995239Y-124483333D01*
X172804762Y-124483333D01*
X172709524Y-124530952D01*
X172661905Y-124578571D01*
X172614286Y-124673810D01*
M02*
