G04 #@! TF.FileFunction,Legend,Bot*
%FSLAX46Y46*%
G04 Gerber Fmt 4.6, Leading zero omitted, Abs format (unit mm)*
G04 Created by KiCad (PCBNEW 4.0.6) date 10/04/17 23:46:52*
%MOMM*%
%LPD*%
G01*
G04 APERTURE LIST*
%ADD10C,0.100000*%
%ADD11C,0.300000*%
%ADD12C,0.150000*%
%ADD13C,0.010000*%
G04 APERTURE END LIST*
D10*
D11*
X137671428Y-129678571D02*
X137314285Y-130678571D01*
X136957143Y-129678571D01*
X136528571Y-129178571D02*
X135600000Y-129178571D01*
X136100000Y-129750000D01*
X135885714Y-129750000D01*
X135742857Y-129821429D01*
X135671428Y-129892857D01*
X135600000Y-130035714D01*
X135600000Y-130392857D01*
X135671428Y-130535714D01*
X135742857Y-130607143D01*
X135885714Y-130678571D01*
X136314286Y-130678571D01*
X136457143Y-130607143D01*
X136528571Y-130535714D01*
D12*
X172171431Y-127427381D02*
X172171431Y-126427381D01*
X171933336Y-126427381D01*
X171790478Y-126475000D01*
X171695240Y-126570238D01*
X171647621Y-126665476D01*
X171600002Y-126855952D01*
X171600002Y-126998810D01*
X171647621Y-127189286D01*
X171695240Y-127284524D01*
X171790478Y-127379762D01*
X171933336Y-127427381D01*
X172171431Y-127427381D01*
X170790478Y-127379762D02*
X170885716Y-127427381D01*
X171076193Y-127427381D01*
X171171431Y-127379762D01*
X171219050Y-127284524D01*
X171219050Y-126903571D01*
X171171431Y-126808333D01*
X171076193Y-126760714D01*
X170885716Y-126760714D01*
X170790478Y-126808333D01*
X170742859Y-126903571D01*
X170742859Y-126998810D01*
X171219050Y-127094048D01*
X170361907Y-127379762D02*
X170266669Y-127427381D01*
X170076193Y-127427381D01*
X169980954Y-127379762D01*
X169933335Y-127284524D01*
X169933335Y-127236905D01*
X169980954Y-127141667D01*
X170076193Y-127094048D01*
X170219050Y-127094048D01*
X170314288Y-127046429D01*
X170361907Y-126951190D01*
X170361907Y-126903571D01*
X170314288Y-126808333D01*
X170219050Y-126760714D01*
X170076193Y-126760714D01*
X169980954Y-126808333D01*
X169504764Y-127427381D02*
X169504764Y-126760714D01*
X169504764Y-126427381D02*
X169552383Y-126475000D01*
X169504764Y-126522619D01*
X169457145Y-126475000D01*
X169504764Y-126427381D01*
X169504764Y-126522619D01*
X168600002Y-126760714D02*
X168600002Y-127570238D01*
X168647621Y-127665476D01*
X168695240Y-127713095D01*
X168790479Y-127760714D01*
X168933336Y-127760714D01*
X169028574Y-127713095D01*
X168600002Y-127379762D02*
X168695240Y-127427381D01*
X168885717Y-127427381D01*
X168980955Y-127379762D01*
X169028574Y-127332143D01*
X169076193Y-127236905D01*
X169076193Y-126951190D01*
X169028574Y-126855952D01*
X168980955Y-126808333D01*
X168885717Y-126760714D01*
X168695240Y-126760714D01*
X168600002Y-126808333D01*
X168123812Y-126760714D02*
X168123812Y-127427381D01*
X168123812Y-126855952D02*
X168076193Y-126808333D01*
X167980955Y-126760714D01*
X167838097Y-126760714D01*
X167742859Y-126808333D01*
X167695240Y-126903571D01*
X167695240Y-127427381D01*
X166838097Y-127379762D02*
X166933335Y-127427381D01*
X167123812Y-127427381D01*
X167219050Y-127379762D01*
X167266669Y-127284524D01*
X167266669Y-126903571D01*
X167219050Y-126808333D01*
X167123812Y-126760714D01*
X166933335Y-126760714D01*
X166838097Y-126808333D01*
X166790478Y-126903571D01*
X166790478Y-126998810D01*
X167266669Y-127094048D01*
X165933335Y-127427381D02*
X165933335Y-126427381D01*
X165933335Y-127379762D02*
X166028573Y-127427381D01*
X166219050Y-127427381D01*
X166314288Y-127379762D01*
X166361907Y-127332143D01*
X166409526Y-127236905D01*
X166409526Y-126951190D01*
X166361907Y-126855952D01*
X166314288Y-126808333D01*
X166219050Y-126760714D01*
X166028573Y-126760714D01*
X165933335Y-126808333D01*
X164695240Y-127427381D02*
X164695240Y-126427381D01*
X164695240Y-126808333D02*
X164600002Y-126760714D01*
X164409525Y-126760714D01*
X164314287Y-126808333D01*
X164266668Y-126855952D01*
X164219049Y-126951190D01*
X164219049Y-127236905D01*
X164266668Y-127332143D01*
X164314287Y-127379762D01*
X164409525Y-127427381D01*
X164600002Y-127427381D01*
X164695240Y-127379762D01*
X163885716Y-126760714D02*
X163647621Y-127427381D01*
X163409525Y-126760714D02*
X163647621Y-127427381D01*
X163742859Y-127665476D01*
X163790478Y-127713095D01*
X163885716Y-127760714D01*
X161790477Y-127427381D02*
X162266668Y-127427381D01*
X162266668Y-126427381D01*
X161028572Y-127427381D02*
X161028572Y-126903571D01*
X161076191Y-126808333D01*
X161171429Y-126760714D01*
X161361906Y-126760714D01*
X161457144Y-126808333D01*
X161028572Y-127379762D02*
X161123810Y-127427381D01*
X161361906Y-127427381D01*
X161457144Y-127379762D01*
X161504763Y-127284524D01*
X161504763Y-127189286D01*
X161457144Y-127094048D01*
X161361906Y-127046429D01*
X161123810Y-127046429D01*
X161028572Y-126998810D01*
X160123810Y-126760714D02*
X160123810Y-127427381D01*
X160552382Y-126760714D02*
X160552382Y-127284524D01*
X160504763Y-127379762D01*
X160409525Y-127427381D01*
X160266667Y-127427381D01*
X160171429Y-127379762D01*
X160123810Y-127332143D01*
X159647620Y-127427381D02*
X159647620Y-126760714D01*
X159647620Y-126951190D02*
X159600001Y-126855952D01*
X159552382Y-126808333D01*
X159457144Y-126760714D01*
X159361905Y-126760714D01*
X158647619Y-127379762D02*
X158742857Y-127427381D01*
X158933334Y-127427381D01*
X159028572Y-127379762D01*
X159076191Y-127284524D01*
X159076191Y-126903571D01*
X159028572Y-126808333D01*
X158933334Y-126760714D01*
X158742857Y-126760714D01*
X158647619Y-126808333D01*
X158600000Y-126903571D01*
X158600000Y-126998810D01*
X159076191Y-127094048D01*
X158171429Y-126760714D02*
X158171429Y-127427381D01*
X158171429Y-126855952D02*
X158123810Y-126808333D01*
X158028572Y-126760714D01*
X157885714Y-126760714D01*
X157790476Y-126808333D01*
X157742857Y-126903571D01*
X157742857Y-127427381D01*
X157409524Y-126760714D02*
X157028572Y-126760714D01*
X157266667Y-126427381D02*
X157266667Y-127284524D01*
X157219048Y-127379762D01*
X157123810Y-127427381D01*
X157028572Y-127427381D01*
X155457142Y-127427381D02*
X155933333Y-127427381D01*
X155933333Y-126427381D01*
X154742856Y-127379762D02*
X154838094Y-127427381D01*
X155028571Y-127427381D01*
X155123809Y-127379762D01*
X155171428Y-127284524D01*
X155171428Y-126903571D01*
X155123809Y-126808333D01*
X155028571Y-126760714D01*
X154838094Y-126760714D01*
X154742856Y-126808333D01*
X154695237Y-126903571D01*
X154695237Y-126998810D01*
X155171428Y-127094048D01*
X152980951Y-126475000D02*
X153076189Y-126427381D01*
X153219046Y-126427381D01*
X153361904Y-126475000D01*
X153457142Y-126570238D01*
X153504761Y-126665476D01*
X153552380Y-126855952D01*
X153552380Y-126998810D01*
X153504761Y-127189286D01*
X153457142Y-127284524D01*
X153361904Y-127379762D01*
X153219046Y-127427381D01*
X153123808Y-127427381D01*
X152980951Y-127379762D01*
X152933332Y-127332143D01*
X152933332Y-126998810D01*
X153123808Y-126998810D01*
X152361904Y-127427381D02*
X152457142Y-127379762D01*
X152504761Y-127332143D01*
X152552380Y-127236905D01*
X152552380Y-126951190D01*
X152504761Y-126855952D01*
X152457142Y-126808333D01*
X152361904Y-126760714D01*
X152219046Y-126760714D01*
X152123808Y-126808333D01*
X152076189Y-126855952D01*
X152028570Y-126951190D01*
X152028570Y-127236905D01*
X152076189Y-127332143D01*
X152123808Y-127379762D01*
X152219046Y-127427381D01*
X152361904Y-127427381D01*
X151742856Y-126760714D02*
X151361904Y-126760714D01*
X151599999Y-127427381D02*
X151599999Y-126570238D01*
X151552380Y-126475000D01*
X151457142Y-126427381D01*
X151361904Y-126427381D01*
X151171427Y-126760714D02*
X150790475Y-126760714D01*
X151028570Y-127427381D02*
X151028570Y-126570238D01*
X150980951Y-126475000D01*
X150885713Y-126427381D01*
X150790475Y-126427381D01*
X149409521Y-127808333D02*
X149457141Y-127760714D01*
X149552379Y-127617857D01*
X149599998Y-127522619D01*
X149647617Y-127379762D01*
X149695236Y-127141667D01*
X149695236Y-126951190D01*
X149647617Y-126713095D01*
X149599998Y-126570238D01*
X149552379Y-126475000D01*
X149457141Y-126332143D01*
X149409521Y-126284524D01*
X149076188Y-126522619D02*
X149028569Y-126475000D01*
X148933331Y-126427381D01*
X148695235Y-126427381D01*
X148599997Y-126475000D01*
X148552378Y-126522619D01*
X148504759Y-126617857D01*
X148504759Y-126713095D01*
X148552378Y-126855952D01*
X149123807Y-127427381D01*
X148504759Y-127427381D01*
X147885712Y-126427381D02*
X147790473Y-126427381D01*
X147695235Y-126475000D01*
X147647616Y-126522619D01*
X147599997Y-126617857D01*
X147552378Y-126808333D01*
X147552378Y-127046429D01*
X147599997Y-127236905D01*
X147647616Y-127332143D01*
X147695235Y-127379762D01*
X147790473Y-127427381D01*
X147885712Y-127427381D01*
X147980950Y-127379762D01*
X148028569Y-127332143D01*
X148076188Y-127236905D01*
X148123807Y-127046429D01*
X148123807Y-126808333D01*
X148076188Y-126617857D01*
X148028569Y-126522619D01*
X147980950Y-126475000D01*
X147885712Y-126427381D01*
X146599997Y-127427381D02*
X147171426Y-127427381D01*
X146885712Y-127427381D02*
X146885712Y-126427381D01*
X146980950Y-126570238D01*
X147076188Y-126665476D01*
X147171426Y-126713095D01*
X146266664Y-126427381D02*
X145599997Y-126427381D01*
X146028569Y-127427381D01*
X145314283Y-127808333D02*
X145266664Y-127760714D01*
X145171426Y-127617857D01*
X145123807Y-127522619D01*
X145076188Y-127379762D01*
X145028569Y-127141667D01*
X145028569Y-126951190D01*
X145076188Y-126713095D01*
X145123807Y-126570238D01*
X145171426Y-126475000D01*
X145266664Y-126332143D01*
X145314283Y-126284524D01*
X168576191Y-129458333D02*
X168623811Y-129410714D01*
X168719049Y-129267857D01*
X168766668Y-129172619D01*
X168814287Y-129029762D01*
X168861906Y-128791667D01*
X168861906Y-128601190D01*
X168814287Y-128363095D01*
X168766668Y-128220238D01*
X168719049Y-128125000D01*
X168623811Y-127982143D01*
X168576191Y-127934524D01*
X168195239Y-129077381D02*
X168195239Y-128077381D01*
X167766667Y-129077381D02*
X167766667Y-128553571D01*
X167814286Y-128458333D01*
X167909524Y-128410714D01*
X168052382Y-128410714D01*
X168147620Y-128458333D01*
X168195239Y-128505952D01*
X167433334Y-128410714D02*
X167052382Y-128410714D01*
X167290477Y-128077381D02*
X167290477Y-128934524D01*
X167242858Y-129029762D01*
X167147620Y-129077381D01*
X167052382Y-129077381D01*
X166861905Y-128410714D02*
X166480953Y-128410714D01*
X166719048Y-128077381D02*
X166719048Y-128934524D01*
X166671429Y-129029762D01*
X166576191Y-129077381D01*
X166480953Y-129077381D01*
X166147619Y-128410714D02*
X166147619Y-129410714D01*
X166147619Y-128458333D02*
X166052381Y-128410714D01*
X165861904Y-128410714D01*
X165766666Y-128458333D01*
X165719047Y-128505952D01*
X165671428Y-128601190D01*
X165671428Y-128886905D01*
X165719047Y-128982143D01*
X165766666Y-129029762D01*
X165861904Y-129077381D01*
X166052381Y-129077381D01*
X166147619Y-129029762D01*
X165242857Y-128982143D02*
X165195238Y-129029762D01*
X165242857Y-129077381D01*
X165290476Y-129029762D01*
X165242857Y-128982143D01*
X165242857Y-129077381D01*
X165242857Y-128458333D02*
X165195238Y-128505952D01*
X165242857Y-128553571D01*
X165290476Y-128505952D01*
X165242857Y-128458333D01*
X165242857Y-128553571D01*
X164052381Y-128029762D02*
X164909524Y-129315476D01*
X163004762Y-128029762D02*
X163861905Y-129315476D01*
X162242857Y-128410714D02*
X162242857Y-129220238D01*
X162290476Y-129315476D01*
X162338095Y-129363095D01*
X162433334Y-129410714D01*
X162576191Y-129410714D01*
X162671429Y-129363095D01*
X162242857Y-129029762D02*
X162338095Y-129077381D01*
X162528572Y-129077381D01*
X162623810Y-129029762D01*
X162671429Y-128982143D01*
X162719048Y-128886905D01*
X162719048Y-128601190D01*
X162671429Y-128505952D01*
X162623810Y-128458333D01*
X162528572Y-128410714D01*
X162338095Y-128410714D01*
X162242857Y-128458333D01*
X161766667Y-129077381D02*
X161766667Y-128410714D01*
X161766667Y-128077381D02*
X161814286Y-128125000D01*
X161766667Y-128172619D01*
X161719048Y-128125000D01*
X161766667Y-128077381D01*
X161766667Y-128172619D01*
X161433334Y-128410714D02*
X161052382Y-128410714D01*
X161290477Y-128077381D02*
X161290477Y-128934524D01*
X161242858Y-129029762D01*
X161147620Y-129077381D01*
X161052382Y-129077381D01*
X160719048Y-129077381D02*
X160719048Y-128077381D01*
X160290476Y-129077381D02*
X160290476Y-128553571D01*
X160338095Y-128458333D01*
X160433333Y-128410714D01*
X160576191Y-128410714D01*
X160671429Y-128458333D01*
X160719048Y-128505952D01*
X159385714Y-128410714D02*
X159385714Y-129077381D01*
X159814286Y-128410714D02*
X159814286Y-128934524D01*
X159766667Y-129029762D01*
X159671429Y-129077381D01*
X159528571Y-129077381D01*
X159433333Y-129029762D01*
X159385714Y-128982143D01*
X158909524Y-129077381D02*
X158909524Y-128077381D01*
X158909524Y-128458333D02*
X158814286Y-128410714D01*
X158623809Y-128410714D01*
X158528571Y-128458333D01*
X158480952Y-128505952D01*
X158433333Y-128601190D01*
X158433333Y-128886905D01*
X158480952Y-128982143D01*
X158528571Y-129029762D01*
X158623809Y-129077381D01*
X158814286Y-129077381D01*
X158909524Y-129029762D01*
X158004762Y-128982143D02*
X157957143Y-129029762D01*
X158004762Y-129077381D01*
X158052381Y-129029762D01*
X158004762Y-128982143D01*
X158004762Y-129077381D01*
X157100000Y-129029762D02*
X157195238Y-129077381D01*
X157385715Y-129077381D01*
X157480953Y-129029762D01*
X157528572Y-128982143D01*
X157576191Y-128886905D01*
X157576191Y-128601190D01*
X157528572Y-128505952D01*
X157480953Y-128458333D01*
X157385715Y-128410714D01*
X157195238Y-128410714D01*
X157100000Y-128458333D01*
X156528572Y-129077381D02*
X156623810Y-129029762D01*
X156671429Y-128982143D01*
X156719048Y-128886905D01*
X156719048Y-128601190D01*
X156671429Y-128505952D01*
X156623810Y-128458333D01*
X156528572Y-128410714D01*
X156385714Y-128410714D01*
X156290476Y-128458333D01*
X156242857Y-128505952D01*
X156195238Y-128601190D01*
X156195238Y-128886905D01*
X156242857Y-128982143D01*
X156290476Y-129029762D01*
X156385714Y-129077381D01*
X156528572Y-129077381D01*
X155766667Y-129077381D02*
X155766667Y-128410714D01*
X155766667Y-128505952D02*
X155719048Y-128458333D01*
X155623810Y-128410714D01*
X155480952Y-128410714D01*
X155385714Y-128458333D01*
X155338095Y-128553571D01*
X155338095Y-129077381D01*
X155338095Y-128553571D02*
X155290476Y-128458333D01*
X155195238Y-128410714D01*
X155052381Y-128410714D01*
X154957143Y-128458333D01*
X154909524Y-128553571D01*
X154909524Y-129077381D01*
X153719048Y-128029762D02*
X154576191Y-129315476D01*
X153242858Y-129077381D02*
X153338096Y-129029762D01*
X153385715Y-128934524D01*
X153385715Y-128077381D01*
X152719048Y-129077381D02*
X152814286Y-129029762D01*
X152861905Y-128934524D01*
X152861905Y-128077381D01*
X151957142Y-129029762D02*
X152052380Y-129077381D01*
X152242857Y-129077381D01*
X152338095Y-129029762D01*
X152385714Y-128934524D01*
X152385714Y-128553571D01*
X152338095Y-128458333D01*
X152242857Y-128410714D01*
X152052380Y-128410714D01*
X151957142Y-128458333D01*
X151909523Y-128553571D01*
X151909523Y-128648810D01*
X152385714Y-128744048D01*
X151052380Y-128410714D02*
X151052380Y-129220238D01*
X151099999Y-129315476D01*
X151147618Y-129363095D01*
X151242857Y-129410714D01*
X151385714Y-129410714D01*
X151480952Y-129363095D01*
X151052380Y-129029762D02*
X151147618Y-129077381D01*
X151338095Y-129077381D01*
X151433333Y-129029762D01*
X151480952Y-128982143D01*
X151528571Y-128886905D01*
X151528571Y-128601190D01*
X151480952Y-128505952D01*
X151433333Y-128458333D01*
X151338095Y-128410714D01*
X151147618Y-128410714D01*
X151052380Y-128458333D01*
X150433333Y-129077381D02*
X150528571Y-129029762D01*
X150576190Y-128982143D01*
X150623809Y-128886905D01*
X150623809Y-128601190D01*
X150576190Y-128505952D01*
X150528571Y-128458333D01*
X150433333Y-128410714D01*
X150290475Y-128410714D01*
X150195237Y-128458333D01*
X150147618Y-128505952D01*
X150099999Y-128601190D01*
X150099999Y-128886905D01*
X150147618Y-128982143D01*
X150195237Y-129029762D01*
X150290475Y-129077381D01*
X150433333Y-129077381D01*
X149814285Y-128410714D02*
X149433333Y-128410714D01*
X149671428Y-129077381D02*
X149671428Y-128220238D01*
X149623809Y-128125000D01*
X149528571Y-128077381D01*
X149433333Y-128077381D01*
X149242856Y-128410714D02*
X148861904Y-128410714D01*
X149099999Y-129077381D02*
X149099999Y-128220238D01*
X149052380Y-128125000D01*
X148957142Y-128077381D01*
X148861904Y-128077381D01*
X148623808Y-129458333D02*
X148576189Y-129410714D01*
X148480951Y-129267857D01*
X148433332Y-129172619D01*
X148385713Y-129029762D01*
X148338094Y-128791667D01*
X148338094Y-128601190D01*
X148385713Y-128363095D01*
X148433332Y-128220238D01*
X148480951Y-128125000D01*
X148576189Y-127982143D01*
X148623808Y-127934524D01*
D13*
G36*
X138521371Y-121769066D02*
X138481889Y-121769467D01*
X138366200Y-121772259D01*
X138269311Y-121780550D01*
X138187919Y-121795232D01*
X138118723Y-121817193D01*
X138058420Y-121847322D01*
X138003708Y-121886510D01*
X137984167Y-121903532D01*
X137951750Y-121943363D01*
X137922520Y-121997413D01*
X137899991Y-122057323D01*
X137887679Y-122114739D01*
X137886400Y-122135956D01*
X137894417Y-122194769D01*
X137915899Y-122259013D01*
X137946999Y-122319821D01*
X137983866Y-122368330D01*
X137989854Y-122374182D01*
X138040579Y-122415321D01*
X138096125Y-122447435D01*
X138159696Y-122471365D01*
X138234494Y-122487953D01*
X138323722Y-122498041D01*
X138430582Y-122502469D01*
X138479528Y-122502845D01*
X138541762Y-122502545D01*
X138585528Y-122501292D01*
X138614931Y-122498554D01*
X138634079Y-122493801D01*
X138647077Y-122486501D01*
X138654045Y-122480267D01*
X138660626Y-122472694D01*
X138665788Y-122462924D01*
X138669703Y-122448340D01*
X138672543Y-122426326D01*
X138674480Y-122394264D01*
X138675684Y-122349536D01*
X138676328Y-122289526D01*
X138676583Y-122211617D01*
X138676622Y-122135956D01*
X138676870Y-122035041D01*
X138676817Y-121954427D01*
X138675857Y-121915822D01*
X138529867Y-121915822D01*
X138529867Y-122356089D01*
X138436734Y-122356004D01*
X138380693Y-122354396D01*
X138321999Y-122350256D01*
X138273028Y-122344464D01*
X138271538Y-122344226D01*
X138192392Y-122325090D01*
X138131002Y-122295287D01*
X138084305Y-122252878D01*
X138054635Y-122206961D01*
X138036353Y-122156026D01*
X138037771Y-122108200D01*
X138058988Y-122056933D01*
X138100489Y-122003899D01*
X138157998Y-121964600D01*
X138232750Y-121938331D01*
X138282708Y-121929035D01*
X138339416Y-121922507D01*
X138399519Y-121917782D01*
X138450639Y-121915817D01*
X138453667Y-121915808D01*
X138529867Y-121915822D01*
X138675857Y-121915822D01*
X138675260Y-121891851D01*
X138670998Y-121845055D01*
X138662830Y-121811778D01*
X138649556Y-121789759D01*
X138629974Y-121776739D01*
X138602883Y-121770457D01*
X138567082Y-121768653D01*
X138521371Y-121769066D01*
X138521371Y-121769066D01*
G37*
X138521371Y-121769066D02*
X138481889Y-121769467D01*
X138366200Y-121772259D01*
X138269311Y-121780550D01*
X138187919Y-121795232D01*
X138118723Y-121817193D01*
X138058420Y-121847322D01*
X138003708Y-121886510D01*
X137984167Y-121903532D01*
X137951750Y-121943363D01*
X137922520Y-121997413D01*
X137899991Y-122057323D01*
X137887679Y-122114739D01*
X137886400Y-122135956D01*
X137894417Y-122194769D01*
X137915899Y-122259013D01*
X137946999Y-122319821D01*
X137983866Y-122368330D01*
X137989854Y-122374182D01*
X138040579Y-122415321D01*
X138096125Y-122447435D01*
X138159696Y-122471365D01*
X138234494Y-122487953D01*
X138323722Y-122498041D01*
X138430582Y-122502469D01*
X138479528Y-122502845D01*
X138541762Y-122502545D01*
X138585528Y-122501292D01*
X138614931Y-122498554D01*
X138634079Y-122493801D01*
X138647077Y-122486501D01*
X138654045Y-122480267D01*
X138660626Y-122472694D01*
X138665788Y-122462924D01*
X138669703Y-122448340D01*
X138672543Y-122426326D01*
X138674480Y-122394264D01*
X138675684Y-122349536D01*
X138676328Y-122289526D01*
X138676583Y-122211617D01*
X138676622Y-122135956D01*
X138676870Y-122035041D01*
X138676817Y-121954427D01*
X138675857Y-121915822D01*
X138529867Y-121915822D01*
X138529867Y-122356089D01*
X138436734Y-122356004D01*
X138380693Y-122354396D01*
X138321999Y-122350256D01*
X138273028Y-122344464D01*
X138271538Y-122344226D01*
X138192392Y-122325090D01*
X138131002Y-122295287D01*
X138084305Y-122252878D01*
X138054635Y-122206961D01*
X138036353Y-122156026D01*
X138037771Y-122108200D01*
X138058988Y-122056933D01*
X138100489Y-122003899D01*
X138157998Y-121964600D01*
X138232750Y-121938331D01*
X138282708Y-121929035D01*
X138339416Y-121922507D01*
X138399519Y-121917782D01*
X138450639Y-121915817D01*
X138453667Y-121915808D01*
X138529867Y-121915822D01*
X138675857Y-121915822D01*
X138675260Y-121891851D01*
X138670998Y-121845055D01*
X138662830Y-121811778D01*
X138649556Y-121789759D01*
X138629974Y-121776739D01*
X138602883Y-121770457D01*
X138567082Y-121768653D01*
X138521371Y-121769066D01*
G36*
X137112794Y-121769146D02*
X137043386Y-121769518D01*
X136990997Y-121770385D01*
X136952847Y-121771946D01*
X136926159Y-121774403D01*
X136908153Y-121777957D01*
X136896049Y-121782810D01*
X136887069Y-121789161D01*
X136883818Y-121792084D01*
X136864043Y-121823142D01*
X136860482Y-121858828D01*
X136873491Y-121890510D01*
X136879506Y-121896913D01*
X136889235Y-121903121D01*
X136904901Y-121907910D01*
X136929408Y-121911514D01*
X136965661Y-121914164D01*
X137016565Y-121916095D01*
X137085026Y-121917539D01*
X137147617Y-121918418D01*
X137395334Y-121921467D01*
X137398719Y-121986378D01*
X137402105Y-122051289D01*
X137233958Y-122051289D01*
X137160959Y-122051919D01*
X137107517Y-122054553D01*
X137070628Y-122060309D01*
X137047288Y-122070304D01*
X137034494Y-122085656D01*
X137029242Y-122107482D01*
X137028445Y-122127738D01*
X137030923Y-122152592D01*
X137040277Y-122170906D01*
X137059383Y-122183637D01*
X137091118Y-122191741D01*
X137138359Y-122196176D01*
X137203983Y-122197899D01*
X137239801Y-122198045D01*
X137400978Y-122198045D01*
X137400978Y-122356089D01*
X137152622Y-122356089D01*
X137071213Y-122356202D01*
X137009342Y-122356712D01*
X136963968Y-122357870D01*
X136932054Y-122359930D01*
X136910559Y-122363146D01*
X136896443Y-122367772D01*
X136886668Y-122374059D01*
X136881689Y-122378667D01*
X136864610Y-122405560D01*
X136859111Y-122429467D01*
X136866963Y-122458667D01*
X136881689Y-122480267D01*
X136889546Y-122487066D01*
X136899688Y-122492346D01*
X136914844Y-122496298D01*
X136937741Y-122499113D01*
X136971109Y-122500982D01*
X137017675Y-122502098D01*
X137080167Y-122502651D01*
X137161314Y-122502833D01*
X137203422Y-122502845D01*
X137293598Y-122502765D01*
X137363924Y-122502398D01*
X137417129Y-122501552D01*
X137455940Y-122500036D01*
X137483087Y-122497659D01*
X137501298Y-122494229D01*
X137513300Y-122489554D01*
X137521822Y-122483444D01*
X137525156Y-122480267D01*
X137531755Y-122472670D01*
X137536927Y-122462870D01*
X137540846Y-122448239D01*
X137543684Y-122426152D01*
X137545615Y-122393982D01*
X137546812Y-122349103D01*
X137547448Y-122288889D01*
X137547697Y-122210713D01*
X137547734Y-122137923D01*
X137547700Y-122044707D01*
X137547465Y-121971431D01*
X137546830Y-121915458D01*
X137545594Y-121874151D01*
X137543556Y-121844872D01*
X137540517Y-121824984D01*
X137536277Y-121811850D01*
X137530635Y-121802832D01*
X137523391Y-121795293D01*
X137521606Y-121793612D01*
X137512945Y-121786172D01*
X137502882Y-121780409D01*
X137488625Y-121776112D01*
X137467383Y-121773064D01*
X137436364Y-121771051D01*
X137392777Y-121769860D01*
X137333831Y-121769275D01*
X137256734Y-121769083D01*
X137202001Y-121769067D01*
X137112794Y-121769146D01*
X137112794Y-121769146D01*
G37*
X137112794Y-121769146D02*
X137043386Y-121769518D01*
X136990997Y-121770385D01*
X136952847Y-121771946D01*
X136926159Y-121774403D01*
X136908153Y-121777957D01*
X136896049Y-121782810D01*
X136887069Y-121789161D01*
X136883818Y-121792084D01*
X136864043Y-121823142D01*
X136860482Y-121858828D01*
X136873491Y-121890510D01*
X136879506Y-121896913D01*
X136889235Y-121903121D01*
X136904901Y-121907910D01*
X136929408Y-121911514D01*
X136965661Y-121914164D01*
X137016565Y-121916095D01*
X137085026Y-121917539D01*
X137147617Y-121918418D01*
X137395334Y-121921467D01*
X137398719Y-121986378D01*
X137402105Y-122051289D01*
X137233958Y-122051289D01*
X137160959Y-122051919D01*
X137107517Y-122054553D01*
X137070628Y-122060309D01*
X137047288Y-122070304D01*
X137034494Y-122085656D01*
X137029242Y-122107482D01*
X137028445Y-122127738D01*
X137030923Y-122152592D01*
X137040277Y-122170906D01*
X137059383Y-122183637D01*
X137091118Y-122191741D01*
X137138359Y-122196176D01*
X137203983Y-122197899D01*
X137239801Y-122198045D01*
X137400978Y-122198045D01*
X137400978Y-122356089D01*
X137152622Y-122356089D01*
X137071213Y-122356202D01*
X137009342Y-122356712D01*
X136963968Y-122357870D01*
X136932054Y-122359930D01*
X136910559Y-122363146D01*
X136896443Y-122367772D01*
X136886668Y-122374059D01*
X136881689Y-122378667D01*
X136864610Y-122405560D01*
X136859111Y-122429467D01*
X136866963Y-122458667D01*
X136881689Y-122480267D01*
X136889546Y-122487066D01*
X136899688Y-122492346D01*
X136914844Y-122496298D01*
X136937741Y-122499113D01*
X136971109Y-122500982D01*
X137017675Y-122502098D01*
X137080167Y-122502651D01*
X137161314Y-122502833D01*
X137203422Y-122502845D01*
X137293598Y-122502765D01*
X137363924Y-122502398D01*
X137417129Y-122501552D01*
X137455940Y-122500036D01*
X137483087Y-122497659D01*
X137501298Y-122494229D01*
X137513300Y-122489554D01*
X137521822Y-122483444D01*
X137525156Y-122480267D01*
X137531755Y-122472670D01*
X137536927Y-122462870D01*
X137540846Y-122448239D01*
X137543684Y-122426152D01*
X137545615Y-122393982D01*
X137546812Y-122349103D01*
X137547448Y-122288889D01*
X137547697Y-122210713D01*
X137547734Y-122137923D01*
X137547700Y-122044707D01*
X137547465Y-121971431D01*
X137546830Y-121915458D01*
X137545594Y-121874151D01*
X137543556Y-121844872D01*
X137540517Y-121824984D01*
X137536277Y-121811850D01*
X137530635Y-121802832D01*
X137523391Y-121795293D01*
X137521606Y-121793612D01*
X137512945Y-121786172D01*
X137502882Y-121780409D01*
X137488625Y-121776112D01*
X137467383Y-121773064D01*
X137436364Y-121771051D01*
X137392777Y-121769860D01*
X137333831Y-121769275D01*
X137256734Y-121769083D01*
X137202001Y-121769067D01*
X137112794Y-121769146D01*
G36*
X136091703Y-121770351D02*
X136016888Y-121775581D01*
X135947306Y-121783750D01*
X135887002Y-121794550D01*
X135840020Y-121807673D01*
X135810406Y-121822813D01*
X135805860Y-121827269D01*
X135790054Y-121861850D01*
X135794847Y-121897351D01*
X135819364Y-121927725D01*
X135820534Y-121928596D01*
X135834954Y-121937954D01*
X135850008Y-121942876D01*
X135871005Y-121943473D01*
X135903257Y-121939861D01*
X135952073Y-121932154D01*
X135956000Y-121931505D01*
X136028739Y-121922569D01*
X136107217Y-121918161D01*
X136185927Y-121918119D01*
X136259361Y-121922279D01*
X136322011Y-121930479D01*
X136368370Y-121942557D01*
X136371416Y-121943771D01*
X136405048Y-121962615D01*
X136416864Y-121981685D01*
X136407614Y-122000439D01*
X136378047Y-122018337D01*
X136328911Y-122034837D01*
X136260957Y-122049396D01*
X136215645Y-122056406D01*
X136121456Y-122069889D01*
X136046544Y-122082214D01*
X135987717Y-122094449D01*
X135941785Y-122107661D01*
X135905555Y-122122917D01*
X135875838Y-122141285D01*
X135849442Y-122163831D01*
X135828230Y-122185971D01*
X135803065Y-122216819D01*
X135790681Y-122243345D01*
X135786808Y-122276026D01*
X135786667Y-122287995D01*
X135789576Y-122327712D01*
X135801202Y-122357259D01*
X135821323Y-122383486D01*
X135862216Y-122423576D01*
X135907817Y-122454149D01*
X135961513Y-122476203D01*
X136026692Y-122490735D01*
X136106744Y-122498741D01*
X136205057Y-122501218D01*
X136221289Y-122501177D01*
X136286849Y-122499818D01*
X136351866Y-122496730D01*
X136409252Y-122492356D01*
X136451922Y-122487140D01*
X136455372Y-122486541D01*
X136497796Y-122476491D01*
X136533780Y-122463796D01*
X136554150Y-122452190D01*
X136573107Y-122421572D01*
X136574427Y-122385918D01*
X136558085Y-122354144D01*
X136554429Y-122350551D01*
X136539315Y-122339876D01*
X136520415Y-122335276D01*
X136491162Y-122336059D01*
X136455651Y-122340127D01*
X136415970Y-122343762D01*
X136360345Y-122346828D01*
X136295406Y-122349053D01*
X136227785Y-122350164D01*
X136210000Y-122350237D01*
X136142128Y-122349964D01*
X136092454Y-122348646D01*
X136056610Y-122345827D01*
X136030224Y-122341050D01*
X136008926Y-122333857D01*
X135996126Y-122327867D01*
X135968000Y-122311233D01*
X135950068Y-122296168D01*
X135947447Y-122291897D01*
X135952976Y-122274263D01*
X135979260Y-122257192D01*
X136024478Y-122241458D01*
X136086808Y-122227838D01*
X136105171Y-122224804D01*
X136201090Y-122209738D01*
X136277641Y-122197146D01*
X136337780Y-122186111D01*
X136384460Y-122175720D01*
X136420637Y-122165056D01*
X136449265Y-122153205D01*
X136473298Y-122139251D01*
X136495692Y-122122281D01*
X136519402Y-122101378D01*
X136527380Y-122094049D01*
X136555353Y-122066699D01*
X136570160Y-122045029D01*
X136575952Y-122020232D01*
X136576889Y-121988983D01*
X136566575Y-121927705D01*
X136535752Y-121875640D01*
X136484595Y-121832958D01*
X136413283Y-121799825D01*
X136362400Y-121784964D01*
X136307100Y-121775366D01*
X136240853Y-121769936D01*
X136167706Y-121768367D01*
X136091703Y-121770351D01*
X136091703Y-121770351D01*
G37*
X136091703Y-121770351D02*
X136016888Y-121775581D01*
X135947306Y-121783750D01*
X135887002Y-121794550D01*
X135840020Y-121807673D01*
X135810406Y-121822813D01*
X135805860Y-121827269D01*
X135790054Y-121861850D01*
X135794847Y-121897351D01*
X135819364Y-121927725D01*
X135820534Y-121928596D01*
X135834954Y-121937954D01*
X135850008Y-121942876D01*
X135871005Y-121943473D01*
X135903257Y-121939861D01*
X135952073Y-121932154D01*
X135956000Y-121931505D01*
X136028739Y-121922569D01*
X136107217Y-121918161D01*
X136185927Y-121918119D01*
X136259361Y-121922279D01*
X136322011Y-121930479D01*
X136368370Y-121942557D01*
X136371416Y-121943771D01*
X136405048Y-121962615D01*
X136416864Y-121981685D01*
X136407614Y-122000439D01*
X136378047Y-122018337D01*
X136328911Y-122034837D01*
X136260957Y-122049396D01*
X136215645Y-122056406D01*
X136121456Y-122069889D01*
X136046544Y-122082214D01*
X135987717Y-122094449D01*
X135941785Y-122107661D01*
X135905555Y-122122917D01*
X135875838Y-122141285D01*
X135849442Y-122163831D01*
X135828230Y-122185971D01*
X135803065Y-122216819D01*
X135790681Y-122243345D01*
X135786808Y-122276026D01*
X135786667Y-122287995D01*
X135789576Y-122327712D01*
X135801202Y-122357259D01*
X135821323Y-122383486D01*
X135862216Y-122423576D01*
X135907817Y-122454149D01*
X135961513Y-122476203D01*
X136026692Y-122490735D01*
X136106744Y-122498741D01*
X136205057Y-122501218D01*
X136221289Y-122501177D01*
X136286849Y-122499818D01*
X136351866Y-122496730D01*
X136409252Y-122492356D01*
X136451922Y-122487140D01*
X136455372Y-122486541D01*
X136497796Y-122476491D01*
X136533780Y-122463796D01*
X136554150Y-122452190D01*
X136573107Y-122421572D01*
X136574427Y-122385918D01*
X136558085Y-122354144D01*
X136554429Y-122350551D01*
X136539315Y-122339876D01*
X136520415Y-122335276D01*
X136491162Y-122336059D01*
X136455651Y-122340127D01*
X136415970Y-122343762D01*
X136360345Y-122346828D01*
X136295406Y-122349053D01*
X136227785Y-122350164D01*
X136210000Y-122350237D01*
X136142128Y-122349964D01*
X136092454Y-122348646D01*
X136056610Y-122345827D01*
X136030224Y-122341050D01*
X136008926Y-122333857D01*
X135996126Y-122327867D01*
X135968000Y-122311233D01*
X135950068Y-122296168D01*
X135947447Y-122291897D01*
X135952976Y-122274263D01*
X135979260Y-122257192D01*
X136024478Y-122241458D01*
X136086808Y-122227838D01*
X136105171Y-122224804D01*
X136201090Y-122209738D01*
X136277641Y-122197146D01*
X136337780Y-122186111D01*
X136384460Y-122175720D01*
X136420637Y-122165056D01*
X136449265Y-122153205D01*
X136473298Y-122139251D01*
X136495692Y-122122281D01*
X136519402Y-122101378D01*
X136527380Y-122094049D01*
X136555353Y-122066699D01*
X136570160Y-122045029D01*
X136575952Y-122020232D01*
X136576889Y-121988983D01*
X136566575Y-121927705D01*
X136535752Y-121875640D01*
X136484595Y-121832958D01*
X136413283Y-121799825D01*
X136362400Y-121784964D01*
X136307100Y-121775366D01*
X136240853Y-121769936D01*
X136167706Y-121768367D01*
X136091703Y-121770351D01*
G36*
X135323822Y-121791645D02*
X135317242Y-121799218D01*
X135312079Y-121808987D01*
X135308164Y-121823571D01*
X135305324Y-121845585D01*
X135303387Y-121877648D01*
X135302183Y-121922375D01*
X135301539Y-121982385D01*
X135301284Y-122060294D01*
X135301245Y-122135956D01*
X135301314Y-122229802D01*
X135301638Y-122303689D01*
X135302386Y-122360232D01*
X135303732Y-122402049D01*
X135305846Y-122431757D01*
X135308900Y-122451973D01*
X135313066Y-122465314D01*
X135318516Y-122474398D01*
X135323822Y-122480267D01*
X135356826Y-122499947D01*
X135391991Y-122498181D01*
X135423455Y-122476717D01*
X135430684Y-122468337D01*
X135436334Y-122458614D01*
X135440599Y-122444861D01*
X135443673Y-122424389D01*
X135445752Y-122394512D01*
X135447030Y-122352541D01*
X135447701Y-122295789D01*
X135447959Y-122221567D01*
X135448000Y-122137537D01*
X135448000Y-121824485D01*
X135420291Y-121796776D01*
X135386137Y-121773463D01*
X135353006Y-121772623D01*
X135323822Y-121791645D01*
X135323822Y-121791645D01*
G37*
X135323822Y-121791645D02*
X135317242Y-121799218D01*
X135312079Y-121808987D01*
X135308164Y-121823571D01*
X135305324Y-121845585D01*
X135303387Y-121877648D01*
X135302183Y-121922375D01*
X135301539Y-121982385D01*
X135301284Y-122060294D01*
X135301245Y-122135956D01*
X135301314Y-122229802D01*
X135301638Y-122303689D01*
X135302386Y-122360232D01*
X135303732Y-122402049D01*
X135305846Y-122431757D01*
X135308900Y-122451973D01*
X135313066Y-122465314D01*
X135318516Y-122474398D01*
X135323822Y-122480267D01*
X135356826Y-122499947D01*
X135391991Y-122498181D01*
X135423455Y-122476717D01*
X135430684Y-122468337D01*
X135436334Y-122458614D01*
X135440599Y-122444861D01*
X135443673Y-122424389D01*
X135445752Y-122394512D01*
X135447030Y-122352541D01*
X135447701Y-122295789D01*
X135447959Y-122221567D01*
X135448000Y-122137537D01*
X135448000Y-121824485D01*
X135420291Y-121796776D01*
X135386137Y-121773463D01*
X135353006Y-121772623D01*
X135323822Y-121791645D01*
G36*
X134350081Y-121774599D02*
X134281565Y-121786095D01*
X134228943Y-121803967D01*
X134194708Y-121827499D01*
X134185379Y-121840924D01*
X134175893Y-121872148D01*
X134182277Y-121900395D01*
X134202430Y-121927182D01*
X134233745Y-121939713D01*
X134279183Y-121938696D01*
X134314326Y-121931906D01*
X134392419Y-121918971D01*
X134472226Y-121917742D01*
X134561555Y-121928241D01*
X134586229Y-121932690D01*
X134669291Y-121956108D01*
X134734273Y-121990945D01*
X134780461Y-122036604D01*
X134807145Y-122092494D01*
X134812663Y-122121388D01*
X134809051Y-122180012D01*
X134785729Y-122231879D01*
X134744824Y-122275978D01*
X134688459Y-122311299D01*
X134618760Y-122336829D01*
X134537852Y-122351559D01*
X134447860Y-122354478D01*
X134350910Y-122344575D01*
X134345436Y-122343641D01*
X134306875Y-122336459D01*
X134285494Y-122329521D01*
X134276227Y-122319227D01*
X134274006Y-122301976D01*
X134273956Y-122292841D01*
X134273956Y-122254489D01*
X134342431Y-122254489D01*
X134402900Y-122250347D01*
X134444165Y-122237147D01*
X134468175Y-122213730D01*
X134476877Y-122178936D01*
X134476983Y-122174394D01*
X134471892Y-122144654D01*
X134454433Y-122123419D01*
X134421939Y-122109366D01*
X134371743Y-122101173D01*
X134323123Y-122098161D01*
X134252456Y-122096433D01*
X134201198Y-122099070D01*
X134166239Y-122108800D01*
X134144470Y-122128353D01*
X134132780Y-122160456D01*
X134128060Y-122207838D01*
X134127200Y-122270071D01*
X134128609Y-122339535D01*
X134132848Y-122386786D01*
X134139936Y-122412012D01*
X134141311Y-122413988D01*
X134180228Y-122445508D01*
X134237286Y-122470470D01*
X134308869Y-122488340D01*
X134391358Y-122498586D01*
X134481139Y-122500673D01*
X134574592Y-122494068D01*
X134629556Y-122485956D01*
X134715766Y-122461554D01*
X134795892Y-122421662D01*
X134862977Y-122369887D01*
X134873173Y-122359539D01*
X134906302Y-122316035D01*
X134936194Y-122262118D01*
X134959357Y-122205592D01*
X134972298Y-122154259D01*
X134973858Y-122134544D01*
X134967218Y-122093419D01*
X134949568Y-122042252D01*
X134924297Y-121988394D01*
X134894789Y-121939195D01*
X134868719Y-121906334D01*
X134807765Y-121857452D01*
X134728969Y-121818545D01*
X134635157Y-121790494D01*
X134529150Y-121774179D01*
X134432000Y-121770192D01*
X134350081Y-121774599D01*
X134350081Y-121774599D01*
G37*
X134350081Y-121774599D02*
X134281565Y-121786095D01*
X134228943Y-121803967D01*
X134194708Y-121827499D01*
X134185379Y-121840924D01*
X134175893Y-121872148D01*
X134182277Y-121900395D01*
X134202430Y-121927182D01*
X134233745Y-121939713D01*
X134279183Y-121938696D01*
X134314326Y-121931906D01*
X134392419Y-121918971D01*
X134472226Y-121917742D01*
X134561555Y-121928241D01*
X134586229Y-121932690D01*
X134669291Y-121956108D01*
X134734273Y-121990945D01*
X134780461Y-122036604D01*
X134807145Y-122092494D01*
X134812663Y-122121388D01*
X134809051Y-122180012D01*
X134785729Y-122231879D01*
X134744824Y-122275978D01*
X134688459Y-122311299D01*
X134618760Y-122336829D01*
X134537852Y-122351559D01*
X134447860Y-122354478D01*
X134350910Y-122344575D01*
X134345436Y-122343641D01*
X134306875Y-122336459D01*
X134285494Y-122329521D01*
X134276227Y-122319227D01*
X134274006Y-122301976D01*
X134273956Y-122292841D01*
X134273956Y-122254489D01*
X134342431Y-122254489D01*
X134402900Y-122250347D01*
X134444165Y-122237147D01*
X134468175Y-122213730D01*
X134476877Y-122178936D01*
X134476983Y-122174394D01*
X134471892Y-122144654D01*
X134454433Y-122123419D01*
X134421939Y-122109366D01*
X134371743Y-122101173D01*
X134323123Y-122098161D01*
X134252456Y-122096433D01*
X134201198Y-122099070D01*
X134166239Y-122108800D01*
X134144470Y-122128353D01*
X134132780Y-122160456D01*
X134128060Y-122207838D01*
X134127200Y-122270071D01*
X134128609Y-122339535D01*
X134132848Y-122386786D01*
X134139936Y-122412012D01*
X134141311Y-122413988D01*
X134180228Y-122445508D01*
X134237286Y-122470470D01*
X134308869Y-122488340D01*
X134391358Y-122498586D01*
X134481139Y-122500673D01*
X134574592Y-122494068D01*
X134629556Y-122485956D01*
X134715766Y-122461554D01*
X134795892Y-122421662D01*
X134862977Y-122369887D01*
X134873173Y-122359539D01*
X134906302Y-122316035D01*
X134936194Y-122262118D01*
X134959357Y-122205592D01*
X134972298Y-122154259D01*
X134973858Y-122134544D01*
X134967218Y-122093419D01*
X134949568Y-122042252D01*
X134924297Y-121988394D01*
X134894789Y-121939195D01*
X134868719Y-121906334D01*
X134807765Y-121857452D01*
X134728969Y-121818545D01*
X134635157Y-121790494D01*
X134529150Y-121774179D01*
X134432000Y-121770192D01*
X134350081Y-121774599D01*
G36*
X133700114Y-121773448D02*
X133676548Y-121787273D01*
X133645735Y-121809881D01*
X133606078Y-121842338D01*
X133555980Y-121885708D01*
X133493843Y-121941058D01*
X133418072Y-122009451D01*
X133331334Y-122088084D01*
X133150711Y-122251878D01*
X133145067Y-122032029D01*
X133143029Y-121956351D01*
X133141063Y-121899994D01*
X133138734Y-121859706D01*
X133135606Y-121832235D01*
X133131245Y-121814329D01*
X133125216Y-121802737D01*
X133117084Y-121794208D01*
X133112772Y-121790623D01*
X133078241Y-121771670D01*
X133045383Y-121774441D01*
X133019318Y-121790633D01*
X132992667Y-121812199D01*
X132989352Y-122127151D01*
X132988435Y-122219779D01*
X132987968Y-122292544D01*
X132988113Y-122348161D01*
X132989032Y-122389342D01*
X132990887Y-122418803D01*
X132993839Y-122439255D01*
X132998050Y-122453413D01*
X133003682Y-122463991D01*
X133009927Y-122472474D01*
X133023439Y-122488207D01*
X133036883Y-122498636D01*
X133052124Y-122502639D01*
X133071026Y-122499094D01*
X133095455Y-122486879D01*
X133127273Y-122464871D01*
X133168348Y-122431949D01*
X133220542Y-122386991D01*
X133285722Y-122328875D01*
X133359556Y-122262099D01*
X133624845Y-122021458D01*
X133630489Y-122240589D01*
X133632531Y-122316128D01*
X133634502Y-122372354D01*
X133636839Y-122412524D01*
X133639981Y-122439896D01*
X133644364Y-122457728D01*
X133650424Y-122469279D01*
X133658600Y-122477807D01*
X133662784Y-122481282D01*
X133699765Y-122500372D01*
X133734708Y-122497493D01*
X133765136Y-122473100D01*
X133772097Y-122463286D01*
X133777523Y-122451826D01*
X133781603Y-122435968D01*
X133784529Y-122412963D01*
X133786492Y-122380062D01*
X133787683Y-122334516D01*
X133788292Y-122273573D01*
X133788511Y-122194486D01*
X133788534Y-122135956D01*
X133788460Y-122044407D01*
X133788113Y-121972687D01*
X133787301Y-121918045D01*
X133785833Y-121877732D01*
X133783519Y-121848998D01*
X133780167Y-121829093D01*
X133775588Y-121815268D01*
X133769589Y-121804772D01*
X133765136Y-121798811D01*
X133753850Y-121784691D01*
X133743301Y-121774029D01*
X133731893Y-121767892D01*
X133718030Y-121767343D01*
X133700114Y-121773448D01*
X133700114Y-121773448D01*
G37*
X133700114Y-121773448D02*
X133676548Y-121787273D01*
X133645735Y-121809881D01*
X133606078Y-121842338D01*
X133555980Y-121885708D01*
X133493843Y-121941058D01*
X133418072Y-122009451D01*
X133331334Y-122088084D01*
X133150711Y-122251878D01*
X133145067Y-122032029D01*
X133143029Y-121956351D01*
X133141063Y-121899994D01*
X133138734Y-121859706D01*
X133135606Y-121832235D01*
X133131245Y-121814329D01*
X133125216Y-121802737D01*
X133117084Y-121794208D01*
X133112772Y-121790623D01*
X133078241Y-121771670D01*
X133045383Y-121774441D01*
X133019318Y-121790633D01*
X132992667Y-121812199D01*
X132989352Y-122127151D01*
X132988435Y-122219779D01*
X132987968Y-122292544D01*
X132988113Y-122348161D01*
X132989032Y-122389342D01*
X132990887Y-122418803D01*
X132993839Y-122439255D01*
X132998050Y-122453413D01*
X133003682Y-122463991D01*
X133009927Y-122472474D01*
X133023439Y-122488207D01*
X133036883Y-122498636D01*
X133052124Y-122502639D01*
X133071026Y-122499094D01*
X133095455Y-122486879D01*
X133127273Y-122464871D01*
X133168348Y-122431949D01*
X133220542Y-122386991D01*
X133285722Y-122328875D01*
X133359556Y-122262099D01*
X133624845Y-122021458D01*
X133630489Y-122240589D01*
X133632531Y-122316128D01*
X133634502Y-122372354D01*
X133636839Y-122412524D01*
X133639981Y-122439896D01*
X133644364Y-122457728D01*
X133650424Y-122469279D01*
X133658600Y-122477807D01*
X133662784Y-122481282D01*
X133699765Y-122500372D01*
X133734708Y-122497493D01*
X133765136Y-122473100D01*
X133772097Y-122463286D01*
X133777523Y-122451826D01*
X133781603Y-122435968D01*
X133784529Y-122412963D01*
X133786492Y-122380062D01*
X133787683Y-122334516D01*
X133788292Y-122273573D01*
X133788511Y-122194486D01*
X133788534Y-122135956D01*
X133788460Y-122044407D01*
X133788113Y-121972687D01*
X133787301Y-121918045D01*
X133785833Y-121877732D01*
X133783519Y-121848998D01*
X133780167Y-121829093D01*
X133775588Y-121815268D01*
X133769589Y-121804772D01*
X133765136Y-121798811D01*
X133753850Y-121784691D01*
X133743301Y-121774029D01*
X133731893Y-121767892D01*
X133718030Y-121767343D01*
X133700114Y-121773448D01*
G36*
X132169657Y-121769260D02*
X132093299Y-121770174D01*
X132034783Y-121772311D01*
X131991745Y-121776175D01*
X131961817Y-121782267D01*
X131942632Y-121791090D01*
X131931824Y-121803146D01*
X131927027Y-121818939D01*
X131925873Y-121838970D01*
X131925867Y-121841335D01*
X131926869Y-121863992D01*
X131931604Y-121881503D01*
X131942667Y-121894574D01*
X131962652Y-121903913D01*
X131994154Y-121910227D01*
X132039768Y-121914222D01*
X132102087Y-121916606D01*
X132183707Y-121918086D01*
X132208723Y-121918414D01*
X132450800Y-121921467D01*
X132454186Y-121986378D01*
X132457571Y-122051289D01*
X132289424Y-122051289D01*
X132223734Y-122051531D01*
X132176828Y-122052556D01*
X132144917Y-122054811D01*
X132124209Y-122058742D01*
X132110916Y-122064798D01*
X132101245Y-122073424D01*
X132101183Y-122073493D01*
X132083644Y-122107112D01*
X132084278Y-122143448D01*
X132102686Y-122174423D01*
X132106329Y-122177607D01*
X132119259Y-122185812D01*
X132136976Y-122191521D01*
X132163430Y-122195162D01*
X132202568Y-122197167D01*
X132258338Y-122197964D01*
X132294006Y-122198045D01*
X132456445Y-122198045D01*
X132456445Y-122356089D01*
X132209839Y-122356089D01*
X132128420Y-122356231D01*
X132066590Y-122356814D01*
X132021363Y-122358068D01*
X131989752Y-122360227D01*
X131968769Y-122363523D01*
X131955427Y-122368189D01*
X131946739Y-122374457D01*
X131944550Y-122376733D01*
X131928386Y-122408280D01*
X131927203Y-122444168D01*
X131940464Y-122475285D01*
X131950957Y-122485271D01*
X131961871Y-122490769D01*
X131978783Y-122495022D01*
X132004367Y-122498180D01*
X132041299Y-122500392D01*
X132092254Y-122501806D01*
X132159906Y-122502572D01*
X132246931Y-122502838D01*
X132266606Y-122502845D01*
X132355089Y-122502787D01*
X132423773Y-122502467D01*
X132475436Y-122501667D01*
X132512855Y-122500167D01*
X132538810Y-122497749D01*
X132556078Y-122494194D01*
X132567438Y-122489282D01*
X132575668Y-122482795D01*
X132580183Y-122478138D01*
X132586979Y-122469889D01*
X132592288Y-122459669D01*
X132596294Y-122444800D01*
X132599179Y-122422602D01*
X132601126Y-122390393D01*
X132602319Y-122345496D01*
X132602939Y-122285228D01*
X132603171Y-122206911D01*
X132603200Y-122140994D01*
X132603129Y-122048628D01*
X132602792Y-121976117D01*
X132602002Y-121920737D01*
X132600574Y-121879765D01*
X132598321Y-121850478D01*
X132595057Y-121830153D01*
X132590596Y-121816066D01*
X132584752Y-121805495D01*
X132579803Y-121798811D01*
X132556406Y-121769067D01*
X132266226Y-121769067D01*
X132169657Y-121769260D01*
X132169657Y-121769260D01*
G37*
X132169657Y-121769260D02*
X132093299Y-121770174D01*
X132034783Y-121772311D01*
X131991745Y-121776175D01*
X131961817Y-121782267D01*
X131942632Y-121791090D01*
X131931824Y-121803146D01*
X131927027Y-121818939D01*
X131925873Y-121838970D01*
X131925867Y-121841335D01*
X131926869Y-121863992D01*
X131931604Y-121881503D01*
X131942667Y-121894574D01*
X131962652Y-121903913D01*
X131994154Y-121910227D01*
X132039768Y-121914222D01*
X132102087Y-121916606D01*
X132183707Y-121918086D01*
X132208723Y-121918414D01*
X132450800Y-121921467D01*
X132454186Y-121986378D01*
X132457571Y-122051289D01*
X132289424Y-122051289D01*
X132223734Y-122051531D01*
X132176828Y-122052556D01*
X132144917Y-122054811D01*
X132124209Y-122058742D01*
X132110916Y-122064798D01*
X132101245Y-122073424D01*
X132101183Y-122073493D01*
X132083644Y-122107112D01*
X132084278Y-122143448D01*
X132102686Y-122174423D01*
X132106329Y-122177607D01*
X132119259Y-122185812D01*
X132136976Y-122191521D01*
X132163430Y-122195162D01*
X132202568Y-122197167D01*
X132258338Y-122197964D01*
X132294006Y-122198045D01*
X132456445Y-122198045D01*
X132456445Y-122356089D01*
X132209839Y-122356089D01*
X132128420Y-122356231D01*
X132066590Y-122356814D01*
X132021363Y-122358068D01*
X131989752Y-122360227D01*
X131968769Y-122363523D01*
X131955427Y-122368189D01*
X131946739Y-122374457D01*
X131944550Y-122376733D01*
X131928386Y-122408280D01*
X131927203Y-122444168D01*
X131940464Y-122475285D01*
X131950957Y-122485271D01*
X131961871Y-122490769D01*
X131978783Y-122495022D01*
X132004367Y-122498180D01*
X132041299Y-122500392D01*
X132092254Y-122501806D01*
X132159906Y-122502572D01*
X132246931Y-122502838D01*
X132266606Y-122502845D01*
X132355089Y-122502787D01*
X132423773Y-122502467D01*
X132475436Y-122501667D01*
X132512855Y-122500167D01*
X132538810Y-122497749D01*
X132556078Y-122494194D01*
X132567438Y-122489282D01*
X132575668Y-122482795D01*
X132580183Y-122478138D01*
X132586979Y-122469889D01*
X132592288Y-122459669D01*
X132596294Y-122444800D01*
X132599179Y-122422602D01*
X132601126Y-122390393D01*
X132602319Y-122345496D01*
X132602939Y-122285228D01*
X132603171Y-122206911D01*
X132603200Y-122140994D01*
X132603129Y-122048628D01*
X132602792Y-121976117D01*
X132602002Y-121920737D01*
X132600574Y-121879765D01*
X132598321Y-121850478D01*
X132595057Y-121830153D01*
X132590596Y-121816066D01*
X132584752Y-121805495D01*
X132579803Y-121798811D01*
X132556406Y-121769067D01*
X132266226Y-121769067D01*
X132169657Y-121769260D01*
G36*
X131381691Y-121769275D02*
X131252712Y-121773636D01*
X131143009Y-121786861D01*
X131050774Y-121809741D01*
X130974198Y-121843070D01*
X130911473Y-121887638D01*
X130860788Y-121944236D01*
X130820337Y-122013658D01*
X130819541Y-122015351D01*
X130795399Y-122077483D01*
X130786797Y-122132509D01*
X130793769Y-122187887D01*
X130816346Y-122251073D01*
X130820628Y-122260689D01*
X130849828Y-122316966D01*
X130882644Y-122360451D01*
X130924998Y-122397417D01*
X130982810Y-122434135D01*
X130986169Y-122436052D01*
X131036496Y-122460227D01*
X131093379Y-122478282D01*
X131160473Y-122490839D01*
X131241435Y-122498522D01*
X131339918Y-122501953D01*
X131374714Y-122502251D01*
X131540406Y-122502845D01*
X131563803Y-122473100D01*
X131570743Y-122463319D01*
X131576158Y-122451897D01*
X131580235Y-122436095D01*
X131583163Y-122413175D01*
X131585133Y-122380396D01*
X131585775Y-122356089D01*
X131429156Y-122356089D01*
X131335274Y-122356089D01*
X131280336Y-122354483D01*
X131223940Y-122350255D01*
X131177655Y-122344292D01*
X131174861Y-122343790D01*
X131092652Y-122321736D01*
X131028886Y-122288600D01*
X130981548Y-122242847D01*
X130948618Y-122182939D01*
X130942892Y-122167061D01*
X130937279Y-122142333D01*
X130939709Y-122117902D01*
X130951533Y-122085400D01*
X130958660Y-122069434D01*
X130982000Y-122027006D01*
X131010120Y-121997240D01*
X131041060Y-121976511D01*
X131103034Y-121949537D01*
X131182349Y-121929998D01*
X131274747Y-121918746D01*
X131341667Y-121916270D01*
X131429156Y-121915822D01*
X131429156Y-122356089D01*
X131585775Y-122356089D01*
X131586332Y-122335021D01*
X131586950Y-122274311D01*
X131587175Y-122195526D01*
X131587200Y-122133920D01*
X131587200Y-121824485D01*
X131559491Y-121796776D01*
X131547194Y-121785544D01*
X131533897Y-121777853D01*
X131515328Y-121773040D01*
X131487214Y-121770446D01*
X131445283Y-121769410D01*
X131385263Y-121769270D01*
X131381691Y-121769275D01*
X131381691Y-121769275D01*
G37*
X131381691Y-121769275D02*
X131252712Y-121773636D01*
X131143009Y-121786861D01*
X131050774Y-121809741D01*
X130974198Y-121843070D01*
X130911473Y-121887638D01*
X130860788Y-121944236D01*
X130820337Y-122013658D01*
X130819541Y-122015351D01*
X130795399Y-122077483D01*
X130786797Y-122132509D01*
X130793769Y-122187887D01*
X130816346Y-122251073D01*
X130820628Y-122260689D01*
X130849828Y-122316966D01*
X130882644Y-122360451D01*
X130924998Y-122397417D01*
X130982810Y-122434135D01*
X130986169Y-122436052D01*
X131036496Y-122460227D01*
X131093379Y-122478282D01*
X131160473Y-122490839D01*
X131241435Y-122498522D01*
X131339918Y-122501953D01*
X131374714Y-122502251D01*
X131540406Y-122502845D01*
X131563803Y-122473100D01*
X131570743Y-122463319D01*
X131576158Y-122451897D01*
X131580235Y-122436095D01*
X131583163Y-122413175D01*
X131585133Y-122380396D01*
X131585775Y-122356089D01*
X131429156Y-122356089D01*
X131335274Y-122356089D01*
X131280336Y-122354483D01*
X131223940Y-122350255D01*
X131177655Y-122344292D01*
X131174861Y-122343790D01*
X131092652Y-122321736D01*
X131028886Y-122288600D01*
X130981548Y-122242847D01*
X130948618Y-122182939D01*
X130942892Y-122167061D01*
X130937279Y-122142333D01*
X130939709Y-122117902D01*
X130951533Y-122085400D01*
X130958660Y-122069434D01*
X130982000Y-122027006D01*
X131010120Y-121997240D01*
X131041060Y-121976511D01*
X131103034Y-121949537D01*
X131182349Y-121929998D01*
X131274747Y-121918746D01*
X131341667Y-121916270D01*
X131429156Y-121915822D01*
X131429156Y-122356089D01*
X131585775Y-122356089D01*
X131586332Y-122335021D01*
X131586950Y-122274311D01*
X131587175Y-122195526D01*
X131587200Y-122133920D01*
X131587200Y-121824485D01*
X131559491Y-121796776D01*
X131547194Y-121785544D01*
X131533897Y-121777853D01*
X131515328Y-121773040D01*
X131487214Y-121770446D01*
X131445283Y-121769410D01*
X131385263Y-121769270D01*
X131381691Y-121769275D01*
G36*
X128655335Y-121771034D02*
X128635745Y-121778035D01*
X128634990Y-121778377D01*
X128608387Y-121798678D01*
X128593730Y-121819561D01*
X128590862Y-121829352D01*
X128591004Y-121842361D01*
X128595039Y-121860895D01*
X128603854Y-121887257D01*
X128618331Y-121923752D01*
X128639355Y-121972687D01*
X128667812Y-122036365D01*
X128704585Y-122117093D01*
X128724825Y-122161216D01*
X128761375Y-122239985D01*
X128795685Y-122312423D01*
X128826448Y-122375880D01*
X128852352Y-122427708D01*
X128872090Y-122465259D01*
X128884350Y-122485884D01*
X128886776Y-122488733D01*
X128917817Y-122501302D01*
X128952879Y-122499619D01*
X128981000Y-122484332D01*
X128982146Y-122483089D01*
X128993332Y-122466154D01*
X129012096Y-122433170D01*
X129036125Y-122388380D01*
X129063103Y-122336032D01*
X129072799Y-122316742D01*
X129145986Y-122170150D01*
X129225760Y-122329393D01*
X129254233Y-122384415D01*
X129280650Y-122432132D01*
X129302852Y-122468893D01*
X129318681Y-122491044D01*
X129324046Y-122495741D01*
X129365743Y-122502102D01*
X129400151Y-122488733D01*
X129410272Y-122474446D01*
X129427786Y-122442692D01*
X129451265Y-122396597D01*
X129479280Y-122339285D01*
X129510401Y-122273880D01*
X129543201Y-122203507D01*
X129576250Y-122131291D01*
X129608119Y-122060355D01*
X129637381Y-121993825D01*
X129662605Y-121934826D01*
X129682364Y-121886481D01*
X129695228Y-121851915D01*
X129699769Y-121834253D01*
X129699723Y-121833613D01*
X129688674Y-121811388D01*
X129666590Y-121788753D01*
X129665290Y-121787768D01*
X129638147Y-121772425D01*
X129613042Y-121772574D01*
X129603632Y-121775466D01*
X129592166Y-121781718D01*
X129579990Y-121794014D01*
X129565643Y-121814908D01*
X129547664Y-121846949D01*
X129524593Y-121892688D01*
X129494970Y-121954677D01*
X129468255Y-122011898D01*
X129437520Y-122078226D01*
X129409979Y-122137874D01*
X129387062Y-122187725D01*
X129370202Y-122224664D01*
X129360827Y-122245573D01*
X129359460Y-122248845D01*
X129353311Y-122243497D01*
X129339178Y-122221109D01*
X129318943Y-122184946D01*
X129294485Y-122138277D01*
X129284752Y-122119022D01*
X129251783Y-122054004D01*
X129226357Y-122006654D01*
X129206388Y-121974219D01*
X129189790Y-121953946D01*
X129174476Y-121943082D01*
X129158360Y-121938875D01*
X129147857Y-121938400D01*
X129129330Y-121940042D01*
X129113096Y-121946831D01*
X129096965Y-121961566D01*
X129078749Y-121987044D01*
X129056261Y-122026061D01*
X129027311Y-122081414D01*
X129011338Y-122112903D01*
X128985430Y-122163087D01*
X128962833Y-122204704D01*
X128945542Y-122234242D01*
X128935550Y-122248189D01*
X128934191Y-122248770D01*
X128927739Y-122237793D01*
X128913292Y-122209290D01*
X128892297Y-122166244D01*
X128866203Y-122111638D01*
X128836454Y-122048454D01*
X128821820Y-122017071D01*
X128783750Y-121936078D01*
X128753095Y-121873756D01*
X128728263Y-121828071D01*
X128707663Y-121796989D01*
X128689702Y-121778478D01*
X128672790Y-121770504D01*
X128655335Y-121771034D01*
X128655335Y-121771034D01*
G37*
X128655335Y-121771034D02*
X128635745Y-121778035D01*
X128634990Y-121778377D01*
X128608387Y-121798678D01*
X128593730Y-121819561D01*
X128590862Y-121829352D01*
X128591004Y-121842361D01*
X128595039Y-121860895D01*
X128603854Y-121887257D01*
X128618331Y-121923752D01*
X128639355Y-121972687D01*
X128667812Y-122036365D01*
X128704585Y-122117093D01*
X128724825Y-122161216D01*
X128761375Y-122239985D01*
X128795685Y-122312423D01*
X128826448Y-122375880D01*
X128852352Y-122427708D01*
X128872090Y-122465259D01*
X128884350Y-122485884D01*
X128886776Y-122488733D01*
X128917817Y-122501302D01*
X128952879Y-122499619D01*
X128981000Y-122484332D01*
X128982146Y-122483089D01*
X128993332Y-122466154D01*
X129012096Y-122433170D01*
X129036125Y-122388380D01*
X129063103Y-122336032D01*
X129072799Y-122316742D01*
X129145986Y-122170150D01*
X129225760Y-122329393D01*
X129254233Y-122384415D01*
X129280650Y-122432132D01*
X129302852Y-122468893D01*
X129318681Y-122491044D01*
X129324046Y-122495741D01*
X129365743Y-122502102D01*
X129400151Y-122488733D01*
X129410272Y-122474446D01*
X129427786Y-122442692D01*
X129451265Y-122396597D01*
X129479280Y-122339285D01*
X129510401Y-122273880D01*
X129543201Y-122203507D01*
X129576250Y-122131291D01*
X129608119Y-122060355D01*
X129637381Y-121993825D01*
X129662605Y-121934826D01*
X129682364Y-121886481D01*
X129695228Y-121851915D01*
X129699769Y-121834253D01*
X129699723Y-121833613D01*
X129688674Y-121811388D01*
X129666590Y-121788753D01*
X129665290Y-121787768D01*
X129638147Y-121772425D01*
X129613042Y-121772574D01*
X129603632Y-121775466D01*
X129592166Y-121781718D01*
X129579990Y-121794014D01*
X129565643Y-121814908D01*
X129547664Y-121846949D01*
X129524593Y-121892688D01*
X129494970Y-121954677D01*
X129468255Y-122011898D01*
X129437520Y-122078226D01*
X129409979Y-122137874D01*
X129387062Y-122187725D01*
X129370202Y-122224664D01*
X129360827Y-122245573D01*
X129359460Y-122248845D01*
X129353311Y-122243497D01*
X129339178Y-122221109D01*
X129318943Y-122184946D01*
X129294485Y-122138277D01*
X129284752Y-122119022D01*
X129251783Y-122054004D01*
X129226357Y-122006654D01*
X129206388Y-121974219D01*
X129189790Y-121953946D01*
X129174476Y-121943082D01*
X129158360Y-121938875D01*
X129147857Y-121938400D01*
X129129330Y-121940042D01*
X129113096Y-121946831D01*
X129096965Y-121961566D01*
X129078749Y-121987044D01*
X129056261Y-122026061D01*
X129027311Y-122081414D01*
X129011338Y-122112903D01*
X128985430Y-122163087D01*
X128962833Y-122204704D01*
X128945542Y-122234242D01*
X128935550Y-122248189D01*
X128934191Y-122248770D01*
X128927739Y-122237793D01*
X128913292Y-122209290D01*
X128892297Y-122166244D01*
X128866203Y-122111638D01*
X128836454Y-122048454D01*
X128821820Y-122017071D01*
X128783750Y-121936078D01*
X128753095Y-121873756D01*
X128728263Y-121828071D01*
X128707663Y-121796989D01*
X128689702Y-121778478D01*
X128672790Y-121770504D01*
X128655335Y-121771034D01*
G36*
X128211386Y-121775877D02*
X128187673Y-121790647D01*
X128161022Y-121812227D01*
X128161022Y-122133773D01*
X128161107Y-122227830D01*
X128161471Y-122301932D01*
X128162276Y-122358704D01*
X128163687Y-122400768D01*
X128165867Y-122430748D01*
X128168979Y-122451267D01*
X128173186Y-122464949D01*
X128178652Y-122474416D01*
X128182528Y-122479082D01*
X128213966Y-122499575D01*
X128249767Y-122498739D01*
X128281127Y-122481264D01*
X128307778Y-122459684D01*
X128307778Y-121812227D01*
X128281127Y-121790647D01*
X128255406Y-121774949D01*
X128234400Y-121769067D01*
X128211386Y-121775877D01*
X128211386Y-121775877D01*
G37*
X128211386Y-121775877D02*
X128187673Y-121790647D01*
X128161022Y-121812227D01*
X128161022Y-122133773D01*
X128161107Y-122227830D01*
X128161471Y-122301932D01*
X128162276Y-122358704D01*
X128163687Y-122400768D01*
X128165867Y-122430748D01*
X128168979Y-122451267D01*
X128173186Y-122464949D01*
X128178652Y-122474416D01*
X128182528Y-122479082D01*
X128213966Y-122499575D01*
X128249767Y-122498739D01*
X128281127Y-122481264D01*
X128307778Y-122459684D01*
X128307778Y-121812227D01*
X128281127Y-121790647D01*
X128255406Y-121774949D01*
X128234400Y-121769067D01*
X128211386Y-121775877D01*
G36*
X127436935Y-121769163D02*
X127358228Y-121769542D01*
X127297137Y-121770333D01*
X127251183Y-121771670D01*
X127217886Y-121773683D01*
X127194764Y-121776506D01*
X127179338Y-121780269D01*
X127169129Y-121785105D01*
X127164187Y-121788822D01*
X127138543Y-121821358D01*
X127135441Y-121855138D01*
X127151289Y-121885826D01*
X127161652Y-121898089D01*
X127172804Y-121906450D01*
X127188965Y-121911657D01*
X127214358Y-121914457D01*
X127253202Y-121915596D01*
X127309720Y-121915821D01*
X127320820Y-121915822D01*
X127466756Y-121915822D01*
X127466756Y-122186756D01*
X127466852Y-122272154D01*
X127467289Y-122337864D01*
X127468288Y-122386774D01*
X127470072Y-122421773D01*
X127472863Y-122445749D01*
X127476883Y-122461593D01*
X127482355Y-122472191D01*
X127489334Y-122480267D01*
X127522266Y-122500112D01*
X127556646Y-122498548D01*
X127587824Y-122475906D01*
X127590114Y-122473100D01*
X127597571Y-122462492D01*
X127603253Y-122450081D01*
X127607399Y-122432850D01*
X127610250Y-122407784D01*
X127612046Y-122371867D01*
X127613028Y-122322083D01*
X127613436Y-122255417D01*
X127613511Y-122179589D01*
X127613511Y-121915822D01*
X127752873Y-121915822D01*
X127812678Y-121915418D01*
X127854082Y-121913840D01*
X127881252Y-121910547D01*
X127898354Y-121904992D01*
X127909557Y-121896631D01*
X127910917Y-121895178D01*
X127927275Y-121861939D01*
X127925828Y-121824362D01*
X127907022Y-121791645D01*
X127899750Y-121785298D01*
X127890373Y-121780266D01*
X127876391Y-121776396D01*
X127855304Y-121773537D01*
X127824611Y-121771535D01*
X127781811Y-121770239D01*
X127724405Y-121769498D01*
X127649890Y-121769158D01*
X127555767Y-121769068D01*
X127535740Y-121769067D01*
X127436935Y-121769163D01*
X127436935Y-121769163D01*
G37*
X127436935Y-121769163D02*
X127358228Y-121769542D01*
X127297137Y-121770333D01*
X127251183Y-121771670D01*
X127217886Y-121773683D01*
X127194764Y-121776506D01*
X127179338Y-121780269D01*
X127169129Y-121785105D01*
X127164187Y-121788822D01*
X127138543Y-121821358D01*
X127135441Y-121855138D01*
X127151289Y-121885826D01*
X127161652Y-121898089D01*
X127172804Y-121906450D01*
X127188965Y-121911657D01*
X127214358Y-121914457D01*
X127253202Y-121915596D01*
X127309720Y-121915821D01*
X127320820Y-121915822D01*
X127466756Y-121915822D01*
X127466756Y-122186756D01*
X127466852Y-122272154D01*
X127467289Y-122337864D01*
X127468288Y-122386774D01*
X127470072Y-122421773D01*
X127472863Y-122445749D01*
X127476883Y-122461593D01*
X127482355Y-122472191D01*
X127489334Y-122480267D01*
X127522266Y-122500112D01*
X127556646Y-122498548D01*
X127587824Y-122475906D01*
X127590114Y-122473100D01*
X127597571Y-122462492D01*
X127603253Y-122450081D01*
X127607399Y-122432850D01*
X127610250Y-122407784D01*
X127612046Y-122371867D01*
X127613028Y-122322083D01*
X127613436Y-122255417D01*
X127613511Y-122179589D01*
X127613511Y-121915822D01*
X127752873Y-121915822D01*
X127812678Y-121915418D01*
X127854082Y-121913840D01*
X127881252Y-121910547D01*
X127898354Y-121904992D01*
X127909557Y-121896631D01*
X127910917Y-121895178D01*
X127927275Y-121861939D01*
X127925828Y-121824362D01*
X127907022Y-121791645D01*
X127899750Y-121785298D01*
X127890373Y-121780266D01*
X127876391Y-121776396D01*
X127855304Y-121773537D01*
X127824611Y-121771535D01*
X127781811Y-121770239D01*
X127724405Y-121769498D01*
X127649890Y-121769158D01*
X127555767Y-121769068D01*
X127535740Y-121769067D01*
X127436935Y-121769163D01*
G36*
X126171177Y-121774533D02*
X126139798Y-121796776D01*
X126112089Y-121824485D01*
X126112089Y-122133920D01*
X126112162Y-122225799D01*
X126112505Y-122297840D01*
X126113308Y-122352780D01*
X126114759Y-122393360D01*
X126117048Y-122422317D01*
X126120364Y-122442391D01*
X126124895Y-122456321D01*
X126130831Y-122466845D01*
X126135486Y-122473100D01*
X126166217Y-122497673D01*
X126201504Y-122500341D01*
X126233755Y-122485271D01*
X126244412Y-122476374D01*
X126251536Y-122464557D01*
X126255833Y-122445526D01*
X126258009Y-122414992D01*
X126258772Y-122368662D01*
X126258845Y-122332871D01*
X126258845Y-122198045D01*
X126755556Y-122198045D01*
X126755556Y-122320700D01*
X126756069Y-122376787D01*
X126758124Y-122415333D01*
X126762492Y-122441361D01*
X126769944Y-122459897D01*
X126778953Y-122473100D01*
X126809856Y-122497604D01*
X126844804Y-122500506D01*
X126878262Y-122483089D01*
X126887396Y-122473959D01*
X126893848Y-122461855D01*
X126898103Y-122443001D01*
X126900648Y-122413620D01*
X126901971Y-122369937D01*
X126902557Y-122308175D01*
X126902625Y-122294000D01*
X126903109Y-122177631D01*
X126903359Y-122081727D01*
X126903277Y-122004177D01*
X126902769Y-121942869D01*
X126901738Y-121895690D01*
X126900087Y-121860530D01*
X126897721Y-121835276D01*
X126894543Y-121817817D01*
X126890456Y-121806041D01*
X126885366Y-121797835D01*
X126879734Y-121791645D01*
X126847872Y-121771844D01*
X126814643Y-121774533D01*
X126783265Y-121796776D01*
X126770567Y-121811126D01*
X126762474Y-121826978D01*
X126757958Y-121849554D01*
X126755994Y-121884078D01*
X126755556Y-121935776D01*
X126755556Y-122051289D01*
X126258845Y-122051289D01*
X126258845Y-121932756D01*
X126258338Y-121878148D01*
X126256302Y-121841275D01*
X126251965Y-121817307D01*
X126244553Y-121801415D01*
X126236267Y-121791645D01*
X126204406Y-121771844D01*
X126171177Y-121774533D01*
X126171177Y-121774533D01*
G37*
X126171177Y-121774533D02*
X126139798Y-121796776D01*
X126112089Y-121824485D01*
X126112089Y-122133920D01*
X126112162Y-122225799D01*
X126112505Y-122297840D01*
X126113308Y-122352780D01*
X126114759Y-122393360D01*
X126117048Y-122422317D01*
X126120364Y-122442391D01*
X126124895Y-122456321D01*
X126130831Y-122466845D01*
X126135486Y-122473100D01*
X126166217Y-122497673D01*
X126201504Y-122500341D01*
X126233755Y-122485271D01*
X126244412Y-122476374D01*
X126251536Y-122464557D01*
X126255833Y-122445526D01*
X126258009Y-122414992D01*
X126258772Y-122368662D01*
X126258845Y-122332871D01*
X126258845Y-122198045D01*
X126755556Y-122198045D01*
X126755556Y-122320700D01*
X126756069Y-122376787D01*
X126758124Y-122415333D01*
X126762492Y-122441361D01*
X126769944Y-122459897D01*
X126778953Y-122473100D01*
X126809856Y-122497604D01*
X126844804Y-122500506D01*
X126878262Y-122483089D01*
X126887396Y-122473959D01*
X126893848Y-122461855D01*
X126898103Y-122443001D01*
X126900648Y-122413620D01*
X126901971Y-122369937D01*
X126902557Y-122308175D01*
X126902625Y-122294000D01*
X126903109Y-122177631D01*
X126903359Y-122081727D01*
X126903277Y-122004177D01*
X126902769Y-121942869D01*
X126901738Y-121895690D01*
X126900087Y-121860530D01*
X126897721Y-121835276D01*
X126894543Y-121817817D01*
X126890456Y-121806041D01*
X126885366Y-121797835D01*
X126879734Y-121791645D01*
X126847872Y-121771844D01*
X126814643Y-121774533D01*
X126783265Y-121796776D01*
X126770567Y-121811126D01*
X126762474Y-121826978D01*
X126757958Y-121849554D01*
X126755994Y-121884078D01*
X126755556Y-121935776D01*
X126755556Y-122051289D01*
X126258845Y-122051289D01*
X126258845Y-121932756D01*
X126258338Y-121878148D01*
X126256302Y-121841275D01*
X126251965Y-121817307D01*
X126244553Y-121801415D01*
X126236267Y-121791645D01*
X126204406Y-121771844D01*
X126171177Y-121774533D01*
G36*
X135346400Y-116989054D02*
X135335535Y-117102993D01*
X135303918Y-117210616D01*
X135253015Y-117309615D01*
X135184293Y-117397684D01*
X135099219Y-117472516D01*
X135002232Y-117530384D01*
X134895964Y-117570005D01*
X134788950Y-117588573D01*
X134683300Y-117587434D01*
X134581125Y-117567930D01*
X134484534Y-117531406D01*
X134395638Y-117479205D01*
X134316546Y-117412673D01*
X134249369Y-117333152D01*
X134196217Y-117241987D01*
X134159199Y-117140523D01*
X134140427Y-117030102D01*
X134138489Y-116980206D01*
X134138489Y-116892267D01*
X134086560Y-116892267D01*
X134050253Y-116895111D01*
X134023355Y-116906911D01*
X133996249Y-116930649D01*
X133957867Y-116969031D01*
X133957867Y-119160602D01*
X133957876Y-119422739D01*
X133957908Y-119663241D01*
X133957972Y-119883048D01*
X133958076Y-120083101D01*
X133958227Y-120264344D01*
X133958434Y-120427716D01*
X133958706Y-120574160D01*
X133959050Y-120704617D01*
X133959474Y-120820029D01*
X133959987Y-120921338D01*
X133960597Y-121009484D01*
X133961312Y-121085410D01*
X133962140Y-121150057D01*
X133963089Y-121204367D01*
X133964167Y-121249280D01*
X133965383Y-121285740D01*
X133966745Y-121314687D01*
X133968261Y-121337063D01*
X133969938Y-121353809D01*
X133971786Y-121365868D01*
X133973813Y-121374180D01*
X133976025Y-121379687D01*
X133977108Y-121381537D01*
X133981271Y-121388549D01*
X133984805Y-121394996D01*
X133988635Y-121400900D01*
X133993682Y-121406286D01*
X134000871Y-121411178D01*
X134011123Y-121415598D01*
X134025364Y-121419572D01*
X134044514Y-121423121D01*
X134069499Y-121426270D01*
X134101240Y-121429042D01*
X134140662Y-121431461D01*
X134188686Y-121433551D01*
X134246237Y-121435335D01*
X134314237Y-121436837D01*
X134393610Y-121438080D01*
X134485279Y-121439089D01*
X134590166Y-121439885D01*
X134709196Y-121440494D01*
X134843290Y-121440939D01*
X134993373Y-121441243D01*
X135160367Y-121441430D01*
X135345196Y-121441524D01*
X135548783Y-121441548D01*
X135772050Y-121441525D01*
X136015922Y-121441480D01*
X136281321Y-121441437D01*
X136319704Y-121441432D01*
X136586682Y-121441389D01*
X136832002Y-121441318D01*
X137056583Y-121441213D01*
X137261345Y-121441066D01*
X137447206Y-121440869D01*
X137615088Y-121440616D01*
X137765908Y-121440300D01*
X137900587Y-121439913D01*
X138020044Y-121439447D01*
X138125199Y-121438897D01*
X138216971Y-121438253D01*
X138296279Y-121437511D01*
X138364043Y-121436661D01*
X138421182Y-121435697D01*
X138468617Y-121434611D01*
X138507266Y-121433397D01*
X138538049Y-121432047D01*
X138561885Y-121430555D01*
X138579694Y-121428911D01*
X138592395Y-121427111D01*
X138600908Y-121425145D01*
X138605266Y-121423477D01*
X138613728Y-121419906D01*
X138621497Y-121417270D01*
X138628602Y-121414634D01*
X138635073Y-121411062D01*
X138640939Y-121405621D01*
X138646229Y-121397375D01*
X138650974Y-121385390D01*
X138655202Y-121368731D01*
X138658943Y-121346463D01*
X138662227Y-121317652D01*
X138665083Y-121281363D01*
X138667540Y-121236661D01*
X138669629Y-121182611D01*
X138671378Y-121118279D01*
X138672817Y-121042730D01*
X138673976Y-120955030D01*
X138674883Y-120854243D01*
X138675569Y-120739434D01*
X138676063Y-120609670D01*
X138676395Y-120464015D01*
X138676593Y-120301535D01*
X138676687Y-120121295D01*
X138676708Y-119922360D01*
X138676685Y-119703796D01*
X138676646Y-119464668D01*
X138676622Y-119204040D01*
X138676622Y-119161889D01*
X138676636Y-118898992D01*
X138676661Y-118657732D01*
X138676671Y-118437165D01*
X138676642Y-118236352D01*
X138676548Y-118054349D01*
X138676362Y-117890216D01*
X138676059Y-117743011D01*
X138675614Y-117611792D01*
X138675034Y-117501867D01*
X138372197Y-117501867D01*
X138332407Y-117559711D01*
X138321236Y-117575479D01*
X138311166Y-117589441D01*
X138302138Y-117602784D01*
X138294097Y-117616693D01*
X138286986Y-117632356D01*
X138280747Y-117650958D01*
X138275325Y-117673686D01*
X138270662Y-117701727D01*
X138266701Y-117736267D01*
X138263385Y-117778492D01*
X138260659Y-117829589D01*
X138258464Y-117890744D01*
X138256745Y-117963144D01*
X138255444Y-118047975D01*
X138254505Y-118146422D01*
X138253870Y-118259674D01*
X138253484Y-118388916D01*
X138253288Y-118535334D01*
X138253227Y-118700116D01*
X138253243Y-118884447D01*
X138253280Y-119089513D01*
X138253289Y-119212133D01*
X138253265Y-119429082D01*
X138253231Y-119624642D01*
X138253243Y-119799999D01*
X138253358Y-119956341D01*
X138253630Y-120094857D01*
X138254118Y-120216734D01*
X138254876Y-120323160D01*
X138255962Y-120415322D01*
X138257431Y-120494409D01*
X138259340Y-120561608D01*
X138261744Y-120618107D01*
X138264701Y-120665093D01*
X138268266Y-120703755D01*
X138272495Y-120735280D01*
X138277446Y-120760855D01*
X138283173Y-120781670D01*
X138289733Y-120798911D01*
X138297183Y-120813765D01*
X138305579Y-120827422D01*
X138314976Y-120841069D01*
X138325432Y-120855893D01*
X138331523Y-120864783D01*
X138370296Y-120922400D01*
X137838732Y-120922400D01*
X137715483Y-120922365D01*
X137612987Y-120922215D01*
X137529420Y-120921878D01*
X137462956Y-120921286D01*
X137411771Y-120920367D01*
X137374041Y-120919051D01*
X137347940Y-120917269D01*
X137331644Y-120914951D01*
X137323328Y-120912026D01*
X137321168Y-120908424D01*
X137323339Y-120904075D01*
X137324535Y-120902645D01*
X137349685Y-120865573D01*
X137375583Y-120812772D01*
X137399192Y-120750770D01*
X137407461Y-120724357D01*
X137412078Y-120706416D01*
X137415979Y-120685355D01*
X137419248Y-120659089D01*
X137421966Y-120625532D01*
X137424215Y-120582599D01*
X137426077Y-120528204D01*
X137427636Y-120460262D01*
X137428972Y-120376688D01*
X137430169Y-120275395D01*
X137431308Y-120154300D01*
X137431685Y-120109600D01*
X137432702Y-119984449D01*
X137433460Y-119880082D01*
X137433903Y-119794707D01*
X137433970Y-119726533D01*
X137433605Y-119673765D01*
X137432748Y-119634614D01*
X137431341Y-119607285D01*
X137429325Y-119589986D01*
X137426643Y-119580926D01*
X137423236Y-119578312D01*
X137419044Y-119580351D01*
X137414571Y-119584667D01*
X137404216Y-119597602D01*
X137382158Y-119626676D01*
X137349957Y-119669759D01*
X137309174Y-119724718D01*
X137261370Y-119789423D01*
X137208105Y-119861742D01*
X137150940Y-119939544D01*
X137091437Y-120020698D01*
X137031155Y-120103072D01*
X136971655Y-120184536D01*
X136914498Y-120262957D01*
X136861245Y-120336204D01*
X136813457Y-120402147D01*
X136772693Y-120458654D01*
X136740516Y-120503593D01*
X136718485Y-120534834D01*
X136713917Y-120541466D01*
X136690996Y-120578369D01*
X136664188Y-120626359D01*
X136638789Y-120675897D01*
X136635568Y-120682577D01*
X136613890Y-120730772D01*
X136601304Y-120768334D01*
X136595574Y-120804160D01*
X136594456Y-120846200D01*
X136595090Y-120922400D01*
X135440651Y-120922400D01*
X135531815Y-120828669D01*
X135578612Y-120778775D01*
X135628899Y-120722295D01*
X135674944Y-120668026D01*
X135695369Y-120642673D01*
X135725807Y-120603128D01*
X135765862Y-120549916D01*
X135814361Y-120484667D01*
X135870135Y-120409011D01*
X135932011Y-120324577D01*
X135998819Y-120232994D01*
X136069387Y-120135892D01*
X136142545Y-120034901D01*
X136217121Y-119931650D01*
X136291944Y-119827768D01*
X136365843Y-119724885D01*
X136437646Y-119624631D01*
X136506184Y-119528636D01*
X136570284Y-119438527D01*
X136628775Y-119355936D01*
X136680486Y-119282492D01*
X136724247Y-119219824D01*
X136758885Y-119169561D01*
X136783230Y-119133334D01*
X136796111Y-119112771D01*
X136797869Y-119108668D01*
X136789910Y-119097342D01*
X136769115Y-119070162D01*
X136736847Y-119028829D01*
X136694470Y-118975044D01*
X136643347Y-118910506D01*
X136584841Y-118836918D01*
X136520314Y-118755978D01*
X136451131Y-118669388D01*
X136378653Y-118578848D01*
X136304246Y-118486060D01*
X136244517Y-118411702D01*
X135233511Y-118411702D01*
X135227602Y-118424659D01*
X135213272Y-118446908D01*
X135212225Y-118448391D01*
X135193438Y-118478544D01*
X135173791Y-118515375D01*
X135169892Y-118523511D01*
X135166356Y-118531940D01*
X135163230Y-118542059D01*
X135160486Y-118555260D01*
X135158092Y-118572938D01*
X135156019Y-118596484D01*
X135154235Y-118627293D01*
X135152712Y-118666757D01*
X135151419Y-118716269D01*
X135150326Y-118777223D01*
X135149403Y-118851011D01*
X135148619Y-118939028D01*
X135147945Y-119042665D01*
X135147350Y-119163316D01*
X135146805Y-119302374D01*
X135146279Y-119461232D01*
X135145745Y-119640089D01*
X135145206Y-119825207D01*
X135144772Y-119989145D01*
X135144509Y-120133303D01*
X135144484Y-120259079D01*
X135144765Y-120367871D01*
X135145419Y-120461077D01*
X135146514Y-120540097D01*
X135148118Y-120606328D01*
X135150297Y-120661170D01*
X135153119Y-120706021D01*
X135156651Y-120742278D01*
X135160961Y-120771341D01*
X135166117Y-120794609D01*
X135172185Y-120813479D01*
X135179233Y-120829351D01*
X135187329Y-120843622D01*
X135196540Y-120857691D01*
X135205040Y-120870158D01*
X135222176Y-120896452D01*
X135232322Y-120914037D01*
X135233511Y-120917257D01*
X135222604Y-120918334D01*
X135191411Y-120919335D01*
X135142223Y-120920235D01*
X135077333Y-120921010D01*
X134999030Y-120921637D01*
X134909607Y-120922091D01*
X134811356Y-120922349D01*
X134742445Y-120922400D01*
X134637452Y-120922180D01*
X134540610Y-120921548D01*
X134454107Y-120920549D01*
X134380132Y-120919227D01*
X134320874Y-120917626D01*
X134278520Y-120915791D01*
X134255260Y-120913765D01*
X134251378Y-120912493D01*
X134259076Y-120897591D01*
X134267074Y-120889560D01*
X134280246Y-120872434D01*
X134297485Y-120842183D01*
X134309407Y-120817622D01*
X134336045Y-120758711D01*
X134339120Y-119581845D01*
X134342195Y-118404978D01*
X134787853Y-118404978D01*
X134885670Y-118405142D01*
X134976064Y-118405611D01*
X135056630Y-118406347D01*
X135124962Y-118407316D01*
X135178656Y-118408480D01*
X135215305Y-118409803D01*
X135232504Y-118411249D01*
X135233511Y-118411702D01*
X136244517Y-118411702D01*
X136229270Y-118392722D01*
X136155090Y-118300537D01*
X136083069Y-118211204D01*
X136014569Y-118126424D01*
X135950955Y-118047898D01*
X135893588Y-117977326D01*
X135843833Y-117916409D01*
X135803052Y-117866847D01*
X135785888Y-117846178D01*
X135699596Y-117745516D01*
X135622997Y-117662259D01*
X135554183Y-117594438D01*
X135491248Y-117540089D01*
X135481867Y-117532722D01*
X135442356Y-117502117D01*
X136574116Y-117501867D01*
X136568827Y-117549844D01*
X136572130Y-117607188D01*
X136593661Y-117675463D01*
X136633635Y-117755212D01*
X136678943Y-117827495D01*
X136695161Y-117850140D01*
X136723214Y-117887696D01*
X136761430Y-117938021D01*
X136808137Y-117998973D01*
X136861661Y-118068411D01*
X136920331Y-118144194D01*
X136982475Y-118224180D01*
X137046421Y-118306228D01*
X137110495Y-118388196D01*
X137173027Y-118467943D01*
X137232343Y-118543327D01*
X137286771Y-118612207D01*
X137334639Y-118672442D01*
X137374275Y-118721889D01*
X137404006Y-118758408D01*
X137422161Y-118779858D01*
X137425220Y-118783156D01*
X137428079Y-118775149D01*
X137430293Y-118744855D01*
X137431857Y-118692556D01*
X137432767Y-118618531D01*
X137433020Y-118523063D01*
X137432613Y-118406434D01*
X137431704Y-118286445D01*
X137430382Y-118154333D01*
X137428857Y-118042594D01*
X137426881Y-117949025D01*
X137424206Y-117871419D01*
X137420582Y-117807574D01*
X137415761Y-117755283D01*
X137409494Y-117712344D01*
X137401532Y-117676551D01*
X137391627Y-117645700D01*
X137379531Y-117617586D01*
X137364993Y-117590005D01*
X137350311Y-117564966D01*
X137312314Y-117501867D01*
X138372197Y-117501867D01*
X138675034Y-117501867D01*
X138675001Y-117495617D01*
X138674195Y-117393544D01*
X138673170Y-117304633D01*
X138671900Y-117227941D01*
X138670360Y-117162527D01*
X138668524Y-117107449D01*
X138666367Y-117061765D01*
X138663863Y-117024534D01*
X138660987Y-116994813D01*
X138657713Y-116971662D01*
X138654015Y-116954139D01*
X138649869Y-116941301D01*
X138645247Y-116932208D01*
X138640126Y-116925918D01*
X138634478Y-116921488D01*
X138628279Y-116917978D01*
X138621504Y-116914445D01*
X138615508Y-116910876D01*
X138610275Y-116908300D01*
X138602099Y-116905972D01*
X138589886Y-116903878D01*
X138572541Y-116902007D01*
X138548969Y-116900347D01*
X138518077Y-116898884D01*
X138478768Y-116897608D01*
X138429950Y-116896504D01*
X138370527Y-116895561D01*
X138299404Y-116894767D01*
X138215488Y-116894109D01*
X138117683Y-116893575D01*
X138004894Y-116893153D01*
X137876029Y-116892829D01*
X137729991Y-116892592D01*
X137565686Y-116892430D01*
X137382020Y-116892330D01*
X137177897Y-116892280D01*
X136966753Y-116892267D01*
X135346400Y-116892267D01*
X135346400Y-116989054D01*
X135346400Y-116989054D01*
G37*
X135346400Y-116989054D02*
X135335535Y-117102993D01*
X135303918Y-117210616D01*
X135253015Y-117309615D01*
X135184293Y-117397684D01*
X135099219Y-117472516D01*
X135002232Y-117530384D01*
X134895964Y-117570005D01*
X134788950Y-117588573D01*
X134683300Y-117587434D01*
X134581125Y-117567930D01*
X134484534Y-117531406D01*
X134395638Y-117479205D01*
X134316546Y-117412673D01*
X134249369Y-117333152D01*
X134196217Y-117241987D01*
X134159199Y-117140523D01*
X134140427Y-117030102D01*
X134138489Y-116980206D01*
X134138489Y-116892267D01*
X134086560Y-116892267D01*
X134050253Y-116895111D01*
X134023355Y-116906911D01*
X133996249Y-116930649D01*
X133957867Y-116969031D01*
X133957867Y-119160602D01*
X133957876Y-119422739D01*
X133957908Y-119663241D01*
X133957972Y-119883048D01*
X133958076Y-120083101D01*
X133958227Y-120264344D01*
X133958434Y-120427716D01*
X133958706Y-120574160D01*
X133959050Y-120704617D01*
X133959474Y-120820029D01*
X133959987Y-120921338D01*
X133960597Y-121009484D01*
X133961312Y-121085410D01*
X133962140Y-121150057D01*
X133963089Y-121204367D01*
X133964167Y-121249280D01*
X133965383Y-121285740D01*
X133966745Y-121314687D01*
X133968261Y-121337063D01*
X133969938Y-121353809D01*
X133971786Y-121365868D01*
X133973813Y-121374180D01*
X133976025Y-121379687D01*
X133977108Y-121381537D01*
X133981271Y-121388549D01*
X133984805Y-121394996D01*
X133988635Y-121400900D01*
X133993682Y-121406286D01*
X134000871Y-121411178D01*
X134011123Y-121415598D01*
X134025364Y-121419572D01*
X134044514Y-121423121D01*
X134069499Y-121426270D01*
X134101240Y-121429042D01*
X134140662Y-121431461D01*
X134188686Y-121433551D01*
X134246237Y-121435335D01*
X134314237Y-121436837D01*
X134393610Y-121438080D01*
X134485279Y-121439089D01*
X134590166Y-121439885D01*
X134709196Y-121440494D01*
X134843290Y-121440939D01*
X134993373Y-121441243D01*
X135160367Y-121441430D01*
X135345196Y-121441524D01*
X135548783Y-121441548D01*
X135772050Y-121441525D01*
X136015922Y-121441480D01*
X136281321Y-121441437D01*
X136319704Y-121441432D01*
X136586682Y-121441389D01*
X136832002Y-121441318D01*
X137056583Y-121441213D01*
X137261345Y-121441066D01*
X137447206Y-121440869D01*
X137615088Y-121440616D01*
X137765908Y-121440300D01*
X137900587Y-121439913D01*
X138020044Y-121439447D01*
X138125199Y-121438897D01*
X138216971Y-121438253D01*
X138296279Y-121437511D01*
X138364043Y-121436661D01*
X138421182Y-121435697D01*
X138468617Y-121434611D01*
X138507266Y-121433397D01*
X138538049Y-121432047D01*
X138561885Y-121430555D01*
X138579694Y-121428911D01*
X138592395Y-121427111D01*
X138600908Y-121425145D01*
X138605266Y-121423477D01*
X138613728Y-121419906D01*
X138621497Y-121417270D01*
X138628602Y-121414634D01*
X138635073Y-121411062D01*
X138640939Y-121405621D01*
X138646229Y-121397375D01*
X138650974Y-121385390D01*
X138655202Y-121368731D01*
X138658943Y-121346463D01*
X138662227Y-121317652D01*
X138665083Y-121281363D01*
X138667540Y-121236661D01*
X138669629Y-121182611D01*
X138671378Y-121118279D01*
X138672817Y-121042730D01*
X138673976Y-120955030D01*
X138674883Y-120854243D01*
X138675569Y-120739434D01*
X138676063Y-120609670D01*
X138676395Y-120464015D01*
X138676593Y-120301535D01*
X138676687Y-120121295D01*
X138676708Y-119922360D01*
X138676685Y-119703796D01*
X138676646Y-119464668D01*
X138676622Y-119204040D01*
X138676622Y-119161889D01*
X138676636Y-118898992D01*
X138676661Y-118657732D01*
X138676671Y-118437165D01*
X138676642Y-118236352D01*
X138676548Y-118054349D01*
X138676362Y-117890216D01*
X138676059Y-117743011D01*
X138675614Y-117611792D01*
X138675034Y-117501867D01*
X138372197Y-117501867D01*
X138332407Y-117559711D01*
X138321236Y-117575479D01*
X138311166Y-117589441D01*
X138302138Y-117602784D01*
X138294097Y-117616693D01*
X138286986Y-117632356D01*
X138280747Y-117650958D01*
X138275325Y-117673686D01*
X138270662Y-117701727D01*
X138266701Y-117736267D01*
X138263385Y-117778492D01*
X138260659Y-117829589D01*
X138258464Y-117890744D01*
X138256745Y-117963144D01*
X138255444Y-118047975D01*
X138254505Y-118146422D01*
X138253870Y-118259674D01*
X138253484Y-118388916D01*
X138253288Y-118535334D01*
X138253227Y-118700116D01*
X138253243Y-118884447D01*
X138253280Y-119089513D01*
X138253289Y-119212133D01*
X138253265Y-119429082D01*
X138253231Y-119624642D01*
X138253243Y-119799999D01*
X138253358Y-119956341D01*
X138253630Y-120094857D01*
X138254118Y-120216734D01*
X138254876Y-120323160D01*
X138255962Y-120415322D01*
X138257431Y-120494409D01*
X138259340Y-120561608D01*
X138261744Y-120618107D01*
X138264701Y-120665093D01*
X138268266Y-120703755D01*
X138272495Y-120735280D01*
X138277446Y-120760855D01*
X138283173Y-120781670D01*
X138289733Y-120798911D01*
X138297183Y-120813765D01*
X138305579Y-120827422D01*
X138314976Y-120841069D01*
X138325432Y-120855893D01*
X138331523Y-120864783D01*
X138370296Y-120922400D01*
X137838732Y-120922400D01*
X137715483Y-120922365D01*
X137612987Y-120922215D01*
X137529420Y-120921878D01*
X137462956Y-120921286D01*
X137411771Y-120920367D01*
X137374041Y-120919051D01*
X137347940Y-120917269D01*
X137331644Y-120914951D01*
X137323328Y-120912026D01*
X137321168Y-120908424D01*
X137323339Y-120904075D01*
X137324535Y-120902645D01*
X137349685Y-120865573D01*
X137375583Y-120812772D01*
X137399192Y-120750770D01*
X137407461Y-120724357D01*
X137412078Y-120706416D01*
X137415979Y-120685355D01*
X137419248Y-120659089D01*
X137421966Y-120625532D01*
X137424215Y-120582599D01*
X137426077Y-120528204D01*
X137427636Y-120460262D01*
X137428972Y-120376688D01*
X137430169Y-120275395D01*
X137431308Y-120154300D01*
X137431685Y-120109600D01*
X137432702Y-119984449D01*
X137433460Y-119880082D01*
X137433903Y-119794707D01*
X137433970Y-119726533D01*
X137433605Y-119673765D01*
X137432748Y-119634614D01*
X137431341Y-119607285D01*
X137429325Y-119589986D01*
X137426643Y-119580926D01*
X137423236Y-119578312D01*
X137419044Y-119580351D01*
X137414571Y-119584667D01*
X137404216Y-119597602D01*
X137382158Y-119626676D01*
X137349957Y-119669759D01*
X137309174Y-119724718D01*
X137261370Y-119789423D01*
X137208105Y-119861742D01*
X137150940Y-119939544D01*
X137091437Y-120020698D01*
X137031155Y-120103072D01*
X136971655Y-120184536D01*
X136914498Y-120262957D01*
X136861245Y-120336204D01*
X136813457Y-120402147D01*
X136772693Y-120458654D01*
X136740516Y-120503593D01*
X136718485Y-120534834D01*
X136713917Y-120541466D01*
X136690996Y-120578369D01*
X136664188Y-120626359D01*
X136638789Y-120675897D01*
X136635568Y-120682577D01*
X136613890Y-120730772D01*
X136601304Y-120768334D01*
X136595574Y-120804160D01*
X136594456Y-120846200D01*
X136595090Y-120922400D01*
X135440651Y-120922400D01*
X135531815Y-120828669D01*
X135578612Y-120778775D01*
X135628899Y-120722295D01*
X135674944Y-120668026D01*
X135695369Y-120642673D01*
X135725807Y-120603128D01*
X135765862Y-120549916D01*
X135814361Y-120484667D01*
X135870135Y-120409011D01*
X135932011Y-120324577D01*
X135998819Y-120232994D01*
X136069387Y-120135892D01*
X136142545Y-120034901D01*
X136217121Y-119931650D01*
X136291944Y-119827768D01*
X136365843Y-119724885D01*
X136437646Y-119624631D01*
X136506184Y-119528636D01*
X136570284Y-119438527D01*
X136628775Y-119355936D01*
X136680486Y-119282492D01*
X136724247Y-119219824D01*
X136758885Y-119169561D01*
X136783230Y-119133334D01*
X136796111Y-119112771D01*
X136797869Y-119108668D01*
X136789910Y-119097342D01*
X136769115Y-119070162D01*
X136736847Y-119028829D01*
X136694470Y-118975044D01*
X136643347Y-118910506D01*
X136584841Y-118836918D01*
X136520314Y-118755978D01*
X136451131Y-118669388D01*
X136378653Y-118578848D01*
X136304246Y-118486060D01*
X136244517Y-118411702D01*
X135233511Y-118411702D01*
X135227602Y-118424659D01*
X135213272Y-118446908D01*
X135212225Y-118448391D01*
X135193438Y-118478544D01*
X135173791Y-118515375D01*
X135169892Y-118523511D01*
X135166356Y-118531940D01*
X135163230Y-118542059D01*
X135160486Y-118555260D01*
X135158092Y-118572938D01*
X135156019Y-118596484D01*
X135154235Y-118627293D01*
X135152712Y-118666757D01*
X135151419Y-118716269D01*
X135150326Y-118777223D01*
X135149403Y-118851011D01*
X135148619Y-118939028D01*
X135147945Y-119042665D01*
X135147350Y-119163316D01*
X135146805Y-119302374D01*
X135146279Y-119461232D01*
X135145745Y-119640089D01*
X135145206Y-119825207D01*
X135144772Y-119989145D01*
X135144509Y-120133303D01*
X135144484Y-120259079D01*
X135144765Y-120367871D01*
X135145419Y-120461077D01*
X135146514Y-120540097D01*
X135148118Y-120606328D01*
X135150297Y-120661170D01*
X135153119Y-120706021D01*
X135156651Y-120742278D01*
X135160961Y-120771341D01*
X135166117Y-120794609D01*
X135172185Y-120813479D01*
X135179233Y-120829351D01*
X135187329Y-120843622D01*
X135196540Y-120857691D01*
X135205040Y-120870158D01*
X135222176Y-120896452D01*
X135232322Y-120914037D01*
X135233511Y-120917257D01*
X135222604Y-120918334D01*
X135191411Y-120919335D01*
X135142223Y-120920235D01*
X135077333Y-120921010D01*
X134999030Y-120921637D01*
X134909607Y-120922091D01*
X134811356Y-120922349D01*
X134742445Y-120922400D01*
X134637452Y-120922180D01*
X134540610Y-120921548D01*
X134454107Y-120920549D01*
X134380132Y-120919227D01*
X134320874Y-120917626D01*
X134278520Y-120915791D01*
X134255260Y-120913765D01*
X134251378Y-120912493D01*
X134259076Y-120897591D01*
X134267074Y-120889560D01*
X134280246Y-120872434D01*
X134297485Y-120842183D01*
X134309407Y-120817622D01*
X134336045Y-120758711D01*
X134339120Y-119581845D01*
X134342195Y-118404978D01*
X134787853Y-118404978D01*
X134885670Y-118405142D01*
X134976064Y-118405611D01*
X135056630Y-118406347D01*
X135124962Y-118407316D01*
X135178656Y-118408480D01*
X135215305Y-118409803D01*
X135232504Y-118411249D01*
X135233511Y-118411702D01*
X136244517Y-118411702D01*
X136229270Y-118392722D01*
X136155090Y-118300537D01*
X136083069Y-118211204D01*
X136014569Y-118126424D01*
X135950955Y-118047898D01*
X135893588Y-117977326D01*
X135843833Y-117916409D01*
X135803052Y-117866847D01*
X135785888Y-117846178D01*
X135699596Y-117745516D01*
X135622997Y-117662259D01*
X135554183Y-117594438D01*
X135491248Y-117540089D01*
X135481867Y-117532722D01*
X135442356Y-117502117D01*
X136574116Y-117501867D01*
X136568827Y-117549844D01*
X136572130Y-117607188D01*
X136593661Y-117675463D01*
X136633635Y-117755212D01*
X136678943Y-117827495D01*
X136695161Y-117850140D01*
X136723214Y-117887696D01*
X136761430Y-117938021D01*
X136808137Y-117998973D01*
X136861661Y-118068411D01*
X136920331Y-118144194D01*
X136982475Y-118224180D01*
X137046421Y-118306228D01*
X137110495Y-118388196D01*
X137173027Y-118467943D01*
X137232343Y-118543327D01*
X137286771Y-118612207D01*
X137334639Y-118672442D01*
X137374275Y-118721889D01*
X137404006Y-118758408D01*
X137422161Y-118779858D01*
X137425220Y-118783156D01*
X137428079Y-118775149D01*
X137430293Y-118744855D01*
X137431857Y-118692556D01*
X137432767Y-118618531D01*
X137433020Y-118523063D01*
X137432613Y-118406434D01*
X137431704Y-118286445D01*
X137430382Y-118154333D01*
X137428857Y-118042594D01*
X137426881Y-117949025D01*
X137424206Y-117871419D01*
X137420582Y-117807574D01*
X137415761Y-117755283D01*
X137409494Y-117712344D01*
X137401532Y-117676551D01*
X137391627Y-117645700D01*
X137379531Y-117617586D01*
X137364993Y-117590005D01*
X137350311Y-117564966D01*
X137312314Y-117501867D01*
X138372197Y-117501867D01*
X138675034Y-117501867D01*
X138675001Y-117495617D01*
X138674195Y-117393544D01*
X138673170Y-117304633D01*
X138671900Y-117227941D01*
X138670360Y-117162527D01*
X138668524Y-117107449D01*
X138666367Y-117061765D01*
X138663863Y-117024534D01*
X138660987Y-116994813D01*
X138657713Y-116971662D01*
X138654015Y-116954139D01*
X138649869Y-116941301D01*
X138645247Y-116932208D01*
X138640126Y-116925918D01*
X138634478Y-116921488D01*
X138628279Y-116917978D01*
X138621504Y-116914445D01*
X138615508Y-116910876D01*
X138610275Y-116908300D01*
X138602099Y-116905972D01*
X138589886Y-116903878D01*
X138572541Y-116902007D01*
X138548969Y-116900347D01*
X138518077Y-116898884D01*
X138478768Y-116897608D01*
X138429950Y-116896504D01*
X138370527Y-116895561D01*
X138299404Y-116894767D01*
X138215488Y-116894109D01*
X138117683Y-116893575D01*
X138004894Y-116893153D01*
X137876029Y-116892829D01*
X137729991Y-116892592D01*
X137565686Y-116892430D01*
X137382020Y-116892330D01*
X137177897Y-116892280D01*
X136966753Y-116892267D01*
X135346400Y-116892267D01*
X135346400Y-116989054D01*
G36*
X132071571Y-117449071D02*
X131911430Y-117470245D01*
X131747490Y-117510385D01*
X131577687Y-117569889D01*
X131399957Y-117649154D01*
X131388690Y-117654699D01*
X131330995Y-117682725D01*
X131279448Y-117706802D01*
X131237809Y-117725249D01*
X131209838Y-117736386D01*
X131200267Y-117738933D01*
X131181050Y-117743941D01*
X131176439Y-117748147D01*
X131181542Y-117758580D01*
X131197582Y-117784868D01*
X131222712Y-117824257D01*
X131255086Y-117873991D01*
X131292857Y-117931315D01*
X131334178Y-117993476D01*
X131377202Y-118057718D01*
X131420083Y-118121285D01*
X131460974Y-118181425D01*
X131498029Y-118235380D01*
X131529400Y-118280397D01*
X131553241Y-118313721D01*
X131567706Y-118332597D01*
X131569691Y-118334787D01*
X131579809Y-118330138D01*
X131602150Y-118312962D01*
X131632720Y-118286440D01*
X131648464Y-118271964D01*
X131744953Y-118196682D01*
X131851664Y-118141241D01*
X131967168Y-118106141D01*
X132090038Y-118091880D01*
X132159439Y-118093051D01*
X132280577Y-118110212D01*
X132389795Y-118146094D01*
X132487418Y-118200959D01*
X132573772Y-118275070D01*
X132649185Y-118368688D01*
X132713982Y-118482076D01*
X132751399Y-118568667D01*
X132795252Y-118704366D01*
X132827572Y-118851850D01*
X132848443Y-119007314D01*
X132857949Y-119166956D01*
X132856173Y-119326973D01*
X132843197Y-119483561D01*
X132819106Y-119632918D01*
X132783982Y-119771240D01*
X132737908Y-119894724D01*
X132721627Y-119928978D01*
X132653380Y-120043064D01*
X132572921Y-120139557D01*
X132481430Y-120217670D01*
X132380089Y-120276617D01*
X132270080Y-120315612D01*
X132152585Y-120333868D01*
X132111117Y-120335211D01*
X131989559Y-120324290D01*
X131869122Y-120291474D01*
X131751334Y-120237439D01*
X131637723Y-120162865D01*
X131546315Y-120084539D01*
X131499785Y-120040008D01*
X131318517Y-120337271D01*
X131273420Y-120411433D01*
X131232181Y-120479646D01*
X131196265Y-120539459D01*
X131167134Y-120588420D01*
X131146250Y-120624079D01*
X131135076Y-120643984D01*
X131133625Y-120647079D01*
X131141854Y-120656718D01*
X131167433Y-120673999D01*
X131207127Y-120697283D01*
X131257703Y-120724934D01*
X131315926Y-120755315D01*
X131378563Y-120786790D01*
X131442379Y-120817722D01*
X131504140Y-120846473D01*
X131560612Y-120871408D01*
X131608562Y-120890889D01*
X131632014Y-120899318D01*
X131765779Y-120937133D01*
X131903673Y-120962136D01*
X132051378Y-120975140D01*
X132178167Y-120977468D01*
X132246122Y-120976373D01*
X132311723Y-120974275D01*
X132369153Y-120971434D01*
X132412597Y-120968106D01*
X132426702Y-120966422D01*
X132565716Y-120937587D01*
X132707243Y-120892468D01*
X132844725Y-120833750D01*
X132971606Y-120764120D01*
X133049111Y-120711441D01*
X133176519Y-120603239D01*
X133294822Y-120476671D01*
X133401828Y-120334866D01*
X133495348Y-120180951D01*
X133573190Y-120018053D01*
X133617044Y-119900756D01*
X133667292Y-119717128D01*
X133700791Y-119522581D01*
X133717551Y-119321325D01*
X133717584Y-119117568D01*
X133700899Y-118915521D01*
X133667507Y-118719392D01*
X133617420Y-118533391D01*
X133613603Y-118521803D01*
X133550719Y-118359750D01*
X133473972Y-118211832D01*
X133380758Y-118073865D01*
X133268473Y-117941661D01*
X133224608Y-117896399D01*
X133088466Y-117772457D01*
X132948509Y-117669915D01*
X132802589Y-117587656D01*
X132648558Y-117524564D01*
X132484268Y-117479523D01*
X132388711Y-117462033D01*
X132229977Y-117446466D01*
X132071571Y-117449071D01*
X132071571Y-117449071D01*
G37*
X132071571Y-117449071D02*
X131911430Y-117470245D01*
X131747490Y-117510385D01*
X131577687Y-117569889D01*
X131399957Y-117649154D01*
X131388690Y-117654699D01*
X131330995Y-117682725D01*
X131279448Y-117706802D01*
X131237809Y-117725249D01*
X131209838Y-117736386D01*
X131200267Y-117738933D01*
X131181050Y-117743941D01*
X131176439Y-117748147D01*
X131181542Y-117758580D01*
X131197582Y-117784868D01*
X131222712Y-117824257D01*
X131255086Y-117873991D01*
X131292857Y-117931315D01*
X131334178Y-117993476D01*
X131377202Y-118057718D01*
X131420083Y-118121285D01*
X131460974Y-118181425D01*
X131498029Y-118235380D01*
X131529400Y-118280397D01*
X131553241Y-118313721D01*
X131567706Y-118332597D01*
X131569691Y-118334787D01*
X131579809Y-118330138D01*
X131602150Y-118312962D01*
X131632720Y-118286440D01*
X131648464Y-118271964D01*
X131744953Y-118196682D01*
X131851664Y-118141241D01*
X131967168Y-118106141D01*
X132090038Y-118091880D01*
X132159439Y-118093051D01*
X132280577Y-118110212D01*
X132389795Y-118146094D01*
X132487418Y-118200959D01*
X132573772Y-118275070D01*
X132649185Y-118368688D01*
X132713982Y-118482076D01*
X132751399Y-118568667D01*
X132795252Y-118704366D01*
X132827572Y-118851850D01*
X132848443Y-119007314D01*
X132857949Y-119166956D01*
X132856173Y-119326973D01*
X132843197Y-119483561D01*
X132819106Y-119632918D01*
X132783982Y-119771240D01*
X132737908Y-119894724D01*
X132721627Y-119928978D01*
X132653380Y-120043064D01*
X132572921Y-120139557D01*
X132481430Y-120217670D01*
X132380089Y-120276617D01*
X132270080Y-120315612D01*
X132152585Y-120333868D01*
X132111117Y-120335211D01*
X131989559Y-120324290D01*
X131869122Y-120291474D01*
X131751334Y-120237439D01*
X131637723Y-120162865D01*
X131546315Y-120084539D01*
X131499785Y-120040008D01*
X131318517Y-120337271D01*
X131273420Y-120411433D01*
X131232181Y-120479646D01*
X131196265Y-120539459D01*
X131167134Y-120588420D01*
X131146250Y-120624079D01*
X131135076Y-120643984D01*
X131133625Y-120647079D01*
X131141854Y-120656718D01*
X131167433Y-120673999D01*
X131207127Y-120697283D01*
X131257703Y-120724934D01*
X131315926Y-120755315D01*
X131378563Y-120786790D01*
X131442379Y-120817722D01*
X131504140Y-120846473D01*
X131560612Y-120871408D01*
X131608562Y-120890889D01*
X131632014Y-120899318D01*
X131765779Y-120937133D01*
X131903673Y-120962136D01*
X132051378Y-120975140D01*
X132178167Y-120977468D01*
X132246122Y-120976373D01*
X132311723Y-120974275D01*
X132369153Y-120971434D01*
X132412597Y-120968106D01*
X132426702Y-120966422D01*
X132565716Y-120937587D01*
X132707243Y-120892468D01*
X132844725Y-120833750D01*
X132971606Y-120764120D01*
X133049111Y-120711441D01*
X133176519Y-120603239D01*
X133294822Y-120476671D01*
X133401828Y-120334866D01*
X133495348Y-120180951D01*
X133573190Y-120018053D01*
X133617044Y-119900756D01*
X133667292Y-119717128D01*
X133700791Y-119522581D01*
X133717551Y-119321325D01*
X133717584Y-119117568D01*
X133700899Y-118915521D01*
X133667507Y-118719392D01*
X133617420Y-118533391D01*
X133613603Y-118521803D01*
X133550719Y-118359750D01*
X133473972Y-118211832D01*
X133380758Y-118073865D01*
X133268473Y-117941661D01*
X133224608Y-117896399D01*
X133088466Y-117772457D01*
X132948509Y-117669915D01*
X132802589Y-117587656D01*
X132648558Y-117524564D01*
X132484268Y-117479523D01*
X132388711Y-117462033D01*
X132229977Y-117446466D01*
X132071571Y-117449071D01*
G36*
X129726426Y-118366552D02*
X129574508Y-118386567D01*
X129439244Y-118420202D01*
X129319761Y-118467725D01*
X129215185Y-118529405D01*
X129137576Y-118592965D01*
X129068735Y-118667099D01*
X129014994Y-118746871D01*
X128972090Y-118839091D01*
X128956616Y-118882161D01*
X128943756Y-118921142D01*
X128932554Y-118957289D01*
X128922880Y-118992434D01*
X128914604Y-119028410D01*
X128907597Y-119067050D01*
X128901728Y-119110185D01*
X128896869Y-119159649D01*
X128892890Y-119217273D01*
X128889660Y-119284891D01*
X128887051Y-119364334D01*
X128884933Y-119457436D01*
X128883176Y-119566027D01*
X128881651Y-119691942D01*
X128880228Y-119837012D01*
X128878975Y-119979778D01*
X128877649Y-120135968D01*
X128876444Y-120271239D01*
X128875234Y-120387246D01*
X128873894Y-120485645D01*
X128872300Y-120568093D01*
X128870325Y-120636246D01*
X128867844Y-120691760D01*
X128864731Y-120736292D01*
X128860862Y-120771498D01*
X128856111Y-120799034D01*
X128850352Y-120820556D01*
X128843461Y-120837722D01*
X128835311Y-120852186D01*
X128825777Y-120865606D01*
X128814734Y-120879638D01*
X128810434Y-120885071D01*
X128794614Y-120907910D01*
X128787578Y-120923463D01*
X128787556Y-120923922D01*
X128798433Y-120926121D01*
X128829418Y-120928147D01*
X128878043Y-120929942D01*
X128941837Y-120931451D01*
X129018331Y-120932616D01*
X129105056Y-120933380D01*
X129199543Y-120933686D01*
X129210450Y-120933689D01*
X129633343Y-120933689D01*
X129636605Y-120837622D01*
X129639867Y-120741556D01*
X129701956Y-120792543D01*
X129799286Y-120860057D01*
X129909187Y-120914749D01*
X129995651Y-120944978D01*
X130064722Y-120959666D01*
X130148075Y-120969659D01*
X130237841Y-120974646D01*
X130326155Y-120974313D01*
X130405149Y-120968351D01*
X130441378Y-120962638D01*
X130581397Y-120924776D01*
X130707822Y-120869932D01*
X130819740Y-120798924D01*
X130916238Y-120712568D01*
X130996400Y-120611679D01*
X131059313Y-120497076D01*
X131103688Y-120370984D01*
X131116022Y-120314401D01*
X131123632Y-120252202D01*
X131127261Y-120177363D01*
X131127755Y-120143467D01*
X131127690Y-120140282D01*
X130367752Y-120140282D01*
X130358459Y-120215333D01*
X130330272Y-120279160D01*
X130281803Y-120334798D01*
X130276746Y-120339211D01*
X130228452Y-120374037D01*
X130176743Y-120396620D01*
X130116011Y-120408540D01*
X130040648Y-120411383D01*
X130022541Y-120410978D01*
X129968722Y-120408325D01*
X129928692Y-120402909D01*
X129893676Y-120392745D01*
X129854897Y-120375850D01*
X129844255Y-120370672D01*
X129783604Y-120334844D01*
X129736785Y-120292212D01*
X129724048Y-120276973D01*
X129679378Y-120220462D01*
X129679378Y-120024586D01*
X129679914Y-119945939D01*
X129681604Y-119887988D01*
X129684572Y-119848875D01*
X129688943Y-119826741D01*
X129693028Y-119820274D01*
X129708953Y-119817111D01*
X129742736Y-119814488D01*
X129789660Y-119812655D01*
X129845007Y-119811857D01*
X129853894Y-119811842D01*
X129974670Y-119817096D01*
X130077340Y-119833263D01*
X130163894Y-119860961D01*
X130236319Y-119900808D01*
X130291249Y-119947758D01*
X130335796Y-120005645D01*
X130360520Y-120068693D01*
X130367752Y-120140282D01*
X131127690Y-120140282D01*
X131125822Y-120049712D01*
X131117478Y-119970812D01*
X131101232Y-119899590D01*
X131075595Y-119828864D01*
X131051599Y-119776493D01*
X130992980Y-119681196D01*
X130914883Y-119593170D01*
X130819685Y-119514017D01*
X130709762Y-119445340D01*
X130587490Y-119388741D01*
X130455245Y-119345821D01*
X130390578Y-119330882D01*
X130254396Y-119308777D01*
X130105951Y-119294194D01*
X129954495Y-119287813D01*
X129827936Y-119289445D01*
X129666050Y-119296224D01*
X129673470Y-119237245D01*
X129692762Y-119138092D01*
X129723896Y-119057372D01*
X129767731Y-118994466D01*
X129825129Y-118948756D01*
X129896952Y-118919622D01*
X129984059Y-118906447D01*
X130087314Y-118908611D01*
X130125289Y-118912612D01*
X130266480Y-118937780D01*
X130403293Y-118978814D01*
X130497822Y-119016815D01*
X130542982Y-119036190D01*
X130581415Y-119051760D01*
X130607766Y-119061405D01*
X130615454Y-119063452D01*
X130625198Y-119054374D01*
X130641917Y-119025405D01*
X130665768Y-118976217D01*
X130696907Y-118906484D01*
X130735493Y-118815879D01*
X130742090Y-118800089D01*
X130772147Y-118727772D01*
X130799126Y-118662425D01*
X130821864Y-118606906D01*
X130839194Y-118564072D01*
X130849952Y-118536781D01*
X130853059Y-118527942D01*
X130843060Y-118523187D01*
X130816783Y-118517910D01*
X130788511Y-118514231D01*
X130758354Y-118509474D01*
X130710567Y-118500028D01*
X130649388Y-118486820D01*
X130579054Y-118470776D01*
X130503806Y-118452820D01*
X130475245Y-118445797D01*
X130370184Y-118420209D01*
X130282520Y-118400147D01*
X130207932Y-118384969D01*
X130142097Y-118374035D01*
X130080693Y-118366704D01*
X130019398Y-118362335D01*
X129953890Y-118360287D01*
X129895872Y-118359889D01*
X129726426Y-118366552D01*
X129726426Y-118366552D01*
G37*
X129726426Y-118366552D02*
X129574508Y-118386567D01*
X129439244Y-118420202D01*
X129319761Y-118467725D01*
X129215185Y-118529405D01*
X129137576Y-118592965D01*
X129068735Y-118667099D01*
X129014994Y-118746871D01*
X128972090Y-118839091D01*
X128956616Y-118882161D01*
X128943756Y-118921142D01*
X128932554Y-118957289D01*
X128922880Y-118992434D01*
X128914604Y-119028410D01*
X128907597Y-119067050D01*
X128901728Y-119110185D01*
X128896869Y-119159649D01*
X128892890Y-119217273D01*
X128889660Y-119284891D01*
X128887051Y-119364334D01*
X128884933Y-119457436D01*
X128883176Y-119566027D01*
X128881651Y-119691942D01*
X128880228Y-119837012D01*
X128878975Y-119979778D01*
X128877649Y-120135968D01*
X128876444Y-120271239D01*
X128875234Y-120387246D01*
X128873894Y-120485645D01*
X128872300Y-120568093D01*
X128870325Y-120636246D01*
X128867844Y-120691760D01*
X128864731Y-120736292D01*
X128860862Y-120771498D01*
X128856111Y-120799034D01*
X128850352Y-120820556D01*
X128843461Y-120837722D01*
X128835311Y-120852186D01*
X128825777Y-120865606D01*
X128814734Y-120879638D01*
X128810434Y-120885071D01*
X128794614Y-120907910D01*
X128787578Y-120923463D01*
X128787556Y-120923922D01*
X128798433Y-120926121D01*
X128829418Y-120928147D01*
X128878043Y-120929942D01*
X128941837Y-120931451D01*
X129018331Y-120932616D01*
X129105056Y-120933380D01*
X129199543Y-120933686D01*
X129210450Y-120933689D01*
X129633343Y-120933689D01*
X129636605Y-120837622D01*
X129639867Y-120741556D01*
X129701956Y-120792543D01*
X129799286Y-120860057D01*
X129909187Y-120914749D01*
X129995651Y-120944978D01*
X130064722Y-120959666D01*
X130148075Y-120969659D01*
X130237841Y-120974646D01*
X130326155Y-120974313D01*
X130405149Y-120968351D01*
X130441378Y-120962638D01*
X130581397Y-120924776D01*
X130707822Y-120869932D01*
X130819740Y-120798924D01*
X130916238Y-120712568D01*
X130996400Y-120611679D01*
X131059313Y-120497076D01*
X131103688Y-120370984D01*
X131116022Y-120314401D01*
X131123632Y-120252202D01*
X131127261Y-120177363D01*
X131127755Y-120143467D01*
X131127690Y-120140282D01*
X130367752Y-120140282D01*
X130358459Y-120215333D01*
X130330272Y-120279160D01*
X130281803Y-120334798D01*
X130276746Y-120339211D01*
X130228452Y-120374037D01*
X130176743Y-120396620D01*
X130116011Y-120408540D01*
X130040648Y-120411383D01*
X130022541Y-120410978D01*
X129968722Y-120408325D01*
X129928692Y-120402909D01*
X129893676Y-120392745D01*
X129854897Y-120375850D01*
X129844255Y-120370672D01*
X129783604Y-120334844D01*
X129736785Y-120292212D01*
X129724048Y-120276973D01*
X129679378Y-120220462D01*
X129679378Y-120024586D01*
X129679914Y-119945939D01*
X129681604Y-119887988D01*
X129684572Y-119848875D01*
X129688943Y-119826741D01*
X129693028Y-119820274D01*
X129708953Y-119817111D01*
X129742736Y-119814488D01*
X129789660Y-119812655D01*
X129845007Y-119811857D01*
X129853894Y-119811842D01*
X129974670Y-119817096D01*
X130077340Y-119833263D01*
X130163894Y-119860961D01*
X130236319Y-119900808D01*
X130291249Y-119947758D01*
X130335796Y-120005645D01*
X130360520Y-120068693D01*
X130367752Y-120140282D01*
X131127690Y-120140282D01*
X131125822Y-120049712D01*
X131117478Y-119970812D01*
X131101232Y-119899590D01*
X131075595Y-119828864D01*
X131051599Y-119776493D01*
X130992980Y-119681196D01*
X130914883Y-119593170D01*
X130819685Y-119514017D01*
X130709762Y-119445340D01*
X130587490Y-119388741D01*
X130455245Y-119345821D01*
X130390578Y-119330882D01*
X130254396Y-119308777D01*
X130105951Y-119294194D01*
X129954495Y-119287813D01*
X129827936Y-119289445D01*
X129666050Y-119296224D01*
X129673470Y-119237245D01*
X129692762Y-119138092D01*
X129723896Y-119057372D01*
X129767731Y-118994466D01*
X129825129Y-118948756D01*
X129896952Y-118919622D01*
X129984059Y-118906447D01*
X130087314Y-118908611D01*
X130125289Y-118912612D01*
X130266480Y-118937780D01*
X130403293Y-118978814D01*
X130497822Y-119016815D01*
X130542982Y-119036190D01*
X130581415Y-119051760D01*
X130607766Y-119061405D01*
X130615454Y-119063452D01*
X130625198Y-119054374D01*
X130641917Y-119025405D01*
X130665768Y-118976217D01*
X130696907Y-118906484D01*
X130735493Y-118815879D01*
X130742090Y-118800089D01*
X130772147Y-118727772D01*
X130799126Y-118662425D01*
X130821864Y-118606906D01*
X130839194Y-118564072D01*
X130849952Y-118536781D01*
X130853059Y-118527942D01*
X130843060Y-118523187D01*
X130816783Y-118517910D01*
X130788511Y-118514231D01*
X130758354Y-118509474D01*
X130710567Y-118500028D01*
X130649388Y-118486820D01*
X130579054Y-118470776D01*
X130503806Y-118452820D01*
X130475245Y-118445797D01*
X130370184Y-118420209D01*
X130282520Y-118400147D01*
X130207932Y-118384969D01*
X130142097Y-118374035D01*
X130080693Y-118366704D01*
X130019398Y-118362335D01*
X129953890Y-118360287D01*
X129895872Y-118359889D01*
X129726426Y-118366552D01*
G36*
X126213493Y-118972245D02*
X126213474Y-119206662D01*
X126213448Y-119419603D01*
X126213375Y-119612168D01*
X126213218Y-119785459D01*
X126212936Y-119940576D01*
X126212491Y-120078620D01*
X126211844Y-120200692D01*
X126210955Y-120307894D01*
X126209787Y-120401326D01*
X126208299Y-120482090D01*
X126206454Y-120551286D01*
X126204211Y-120610015D01*
X126201531Y-120659379D01*
X126198377Y-120700478D01*
X126194708Y-120734413D01*
X126190487Y-120762286D01*
X126185673Y-120785198D01*
X126180227Y-120804249D01*
X126174112Y-120820540D01*
X126167288Y-120835173D01*
X126159715Y-120849249D01*
X126151355Y-120863868D01*
X126146161Y-120872974D01*
X126111896Y-120933689D01*
X126970045Y-120933689D01*
X126970045Y-120837733D01*
X126970776Y-120794370D01*
X126972728Y-120761205D01*
X126975537Y-120743424D01*
X126976779Y-120741778D01*
X126988201Y-120748662D01*
X127010916Y-120766505D01*
X127033615Y-120785879D01*
X127088200Y-120826614D01*
X127157679Y-120867617D01*
X127234730Y-120905123D01*
X127312035Y-120935364D01*
X127342887Y-120945012D01*
X127411384Y-120959578D01*
X127494236Y-120969539D01*
X127583629Y-120974583D01*
X127671752Y-120974396D01*
X127750793Y-120968666D01*
X127788489Y-120962858D01*
X127926586Y-120924797D01*
X128053887Y-120867073D01*
X128169708Y-120790211D01*
X128273363Y-120694739D01*
X128364167Y-120581179D01*
X128430969Y-120470381D01*
X128485836Y-120353625D01*
X128527837Y-120234276D01*
X128557833Y-120108283D01*
X128576689Y-119971594D01*
X128585268Y-119820158D01*
X128585994Y-119742711D01*
X128583900Y-119685934D01*
X127754783Y-119685934D01*
X127754576Y-119779002D01*
X127751663Y-119866692D01*
X127746000Y-119943772D01*
X127737545Y-120005009D01*
X127734962Y-120017350D01*
X127703160Y-120124633D01*
X127661502Y-120211658D01*
X127609637Y-120278642D01*
X127547219Y-120325805D01*
X127473900Y-120353365D01*
X127389331Y-120361541D01*
X127293165Y-120350551D01*
X127229689Y-120334829D01*
X127180546Y-120316639D01*
X127126417Y-120290791D01*
X127085756Y-120267089D01*
X127015200Y-120220721D01*
X127015200Y-119070530D01*
X127082608Y-119026962D01*
X127161133Y-118986040D01*
X127245319Y-118959389D01*
X127330443Y-118947465D01*
X127411784Y-118950722D01*
X127484620Y-118969615D01*
X127516574Y-118985184D01*
X127574499Y-119028181D01*
X127623456Y-119084953D01*
X127664610Y-119157575D01*
X127699126Y-119248121D01*
X127728167Y-119358666D01*
X127729448Y-119364533D01*
X127739619Y-119426788D01*
X127747261Y-119504594D01*
X127752330Y-119592720D01*
X127754783Y-119685934D01*
X128583900Y-119685934D01*
X128578143Y-119529895D01*
X128556198Y-119334059D01*
X128520214Y-119155332D01*
X128470241Y-118993845D01*
X128406332Y-118849726D01*
X128328538Y-118723106D01*
X128236911Y-118614115D01*
X128131503Y-118522883D01*
X128086338Y-118491932D01*
X127985389Y-118435785D01*
X127882099Y-118396174D01*
X127772011Y-118372014D01*
X127650670Y-118362219D01*
X127558164Y-118363265D01*
X127428510Y-118374231D01*
X127315916Y-118396046D01*
X127217125Y-118429714D01*
X127128879Y-118476236D01*
X127080014Y-118510448D01*
X127050647Y-118532362D01*
X127028957Y-118547333D01*
X127020747Y-118551733D01*
X127019132Y-118540904D01*
X127017841Y-118510251D01*
X127016862Y-118462526D01*
X127016183Y-118400479D01*
X127015790Y-118326862D01*
X127015670Y-118244427D01*
X127015812Y-118155925D01*
X127016203Y-118064107D01*
X127016829Y-117971724D01*
X127017680Y-117881528D01*
X127018740Y-117796271D01*
X127019999Y-117718703D01*
X127021444Y-117651576D01*
X127023062Y-117597641D01*
X127024839Y-117559650D01*
X127025331Y-117552667D01*
X127032908Y-117482251D01*
X127044469Y-117427102D01*
X127062208Y-117379981D01*
X127088318Y-117333647D01*
X127094585Y-117324067D01*
X127119017Y-117287378D01*
X126213689Y-117287378D01*
X126213493Y-118972245D01*
X126213493Y-118972245D01*
G37*
X126213493Y-118972245D02*
X126213474Y-119206662D01*
X126213448Y-119419603D01*
X126213375Y-119612168D01*
X126213218Y-119785459D01*
X126212936Y-119940576D01*
X126212491Y-120078620D01*
X126211844Y-120200692D01*
X126210955Y-120307894D01*
X126209787Y-120401326D01*
X126208299Y-120482090D01*
X126206454Y-120551286D01*
X126204211Y-120610015D01*
X126201531Y-120659379D01*
X126198377Y-120700478D01*
X126194708Y-120734413D01*
X126190487Y-120762286D01*
X126185673Y-120785198D01*
X126180227Y-120804249D01*
X126174112Y-120820540D01*
X126167288Y-120835173D01*
X126159715Y-120849249D01*
X126151355Y-120863868D01*
X126146161Y-120872974D01*
X126111896Y-120933689D01*
X126970045Y-120933689D01*
X126970045Y-120837733D01*
X126970776Y-120794370D01*
X126972728Y-120761205D01*
X126975537Y-120743424D01*
X126976779Y-120741778D01*
X126988201Y-120748662D01*
X127010916Y-120766505D01*
X127033615Y-120785879D01*
X127088200Y-120826614D01*
X127157679Y-120867617D01*
X127234730Y-120905123D01*
X127312035Y-120935364D01*
X127342887Y-120945012D01*
X127411384Y-120959578D01*
X127494236Y-120969539D01*
X127583629Y-120974583D01*
X127671752Y-120974396D01*
X127750793Y-120968666D01*
X127788489Y-120962858D01*
X127926586Y-120924797D01*
X128053887Y-120867073D01*
X128169708Y-120790211D01*
X128273363Y-120694739D01*
X128364167Y-120581179D01*
X128430969Y-120470381D01*
X128485836Y-120353625D01*
X128527837Y-120234276D01*
X128557833Y-120108283D01*
X128576689Y-119971594D01*
X128585268Y-119820158D01*
X128585994Y-119742711D01*
X128583900Y-119685934D01*
X127754783Y-119685934D01*
X127754576Y-119779002D01*
X127751663Y-119866692D01*
X127746000Y-119943772D01*
X127737545Y-120005009D01*
X127734962Y-120017350D01*
X127703160Y-120124633D01*
X127661502Y-120211658D01*
X127609637Y-120278642D01*
X127547219Y-120325805D01*
X127473900Y-120353365D01*
X127389331Y-120361541D01*
X127293165Y-120350551D01*
X127229689Y-120334829D01*
X127180546Y-120316639D01*
X127126417Y-120290791D01*
X127085756Y-120267089D01*
X127015200Y-120220721D01*
X127015200Y-119070530D01*
X127082608Y-119026962D01*
X127161133Y-118986040D01*
X127245319Y-118959389D01*
X127330443Y-118947465D01*
X127411784Y-118950722D01*
X127484620Y-118969615D01*
X127516574Y-118985184D01*
X127574499Y-119028181D01*
X127623456Y-119084953D01*
X127664610Y-119157575D01*
X127699126Y-119248121D01*
X127728167Y-119358666D01*
X127729448Y-119364533D01*
X127739619Y-119426788D01*
X127747261Y-119504594D01*
X127752330Y-119592720D01*
X127754783Y-119685934D01*
X128583900Y-119685934D01*
X128578143Y-119529895D01*
X128556198Y-119334059D01*
X128520214Y-119155332D01*
X128470241Y-118993845D01*
X128406332Y-118849726D01*
X128328538Y-118723106D01*
X128236911Y-118614115D01*
X128131503Y-118522883D01*
X128086338Y-118491932D01*
X127985389Y-118435785D01*
X127882099Y-118396174D01*
X127772011Y-118372014D01*
X127650670Y-118362219D01*
X127558164Y-118363265D01*
X127428510Y-118374231D01*
X127315916Y-118396046D01*
X127217125Y-118429714D01*
X127128879Y-118476236D01*
X127080014Y-118510448D01*
X127050647Y-118532362D01*
X127028957Y-118547333D01*
X127020747Y-118551733D01*
X127019132Y-118540904D01*
X127017841Y-118510251D01*
X127016862Y-118462526D01*
X127016183Y-118400479D01*
X127015790Y-118326862D01*
X127015670Y-118244427D01*
X127015812Y-118155925D01*
X127016203Y-118064107D01*
X127016829Y-117971724D01*
X127017680Y-117881528D01*
X127018740Y-117796271D01*
X127019999Y-117718703D01*
X127021444Y-117651576D01*
X127023062Y-117597641D01*
X127024839Y-117559650D01*
X127025331Y-117552667D01*
X127032908Y-117482251D01*
X127044469Y-117427102D01*
X127062208Y-117379981D01*
X127088318Y-117333647D01*
X127094585Y-117324067D01*
X127119017Y-117287378D01*
X126213689Y-117287378D01*
X126213493Y-118972245D01*
G36*
X134673043Y-116526571D02*
X134576768Y-116550809D01*
X134490184Y-116593641D01*
X134415373Y-116653419D01*
X134354418Y-116728494D01*
X134309399Y-116817220D01*
X134283136Y-116913530D01*
X134277286Y-117010795D01*
X134292140Y-117104654D01*
X134325840Y-117192511D01*
X134376528Y-117271770D01*
X134442345Y-117339836D01*
X134521434Y-117394112D01*
X134611934Y-117432002D01*
X134663200Y-117444426D01*
X134707698Y-117451947D01*
X134741999Y-117454919D01*
X134774960Y-117453094D01*
X134815434Y-117446225D01*
X134848531Y-117439250D01*
X134941947Y-117407741D01*
X135025619Y-117356617D01*
X135097665Y-117287429D01*
X135156200Y-117201728D01*
X135170148Y-117174489D01*
X135186586Y-117138122D01*
X135196894Y-117107582D01*
X135202460Y-117075450D01*
X135204669Y-117034307D01*
X135204948Y-116988222D01*
X135200861Y-116903865D01*
X135187446Y-116834586D01*
X135162256Y-116773961D01*
X135122846Y-116715567D01*
X135084298Y-116671302D01*
X135012406Y-116605484D01*
X134937313Y-116560053D01*
X134854562Y-116532850D01*
X134776928Y-116522576D01*
X134673043Y-116526571D01*
X134673043Y-116526571D01*
G37*
X134673043Y-116526571D02*
X134576768Y-116550809D01*
X134490184Y-116593641D01*
X134415373Y-116653419D01*
X134354418Y-116728494D01*
X134309399Y-116817220D01*
X134283136Y-116913530D01*
X134277286Y-117010795D01*
X134292140Y-117104654D01*
X134325840Y-117192511D01*
X134376528Y-117271770D01*
X134442345Y-117339836D01*
X134521434Y-117394112D01*
X134611934Y-117432002D01*
X134663200Y-117444426D01*
X134707698Y-117451947D01*
X134741999Y-117454919D01*
X134774960Y-117453094D01*
X134815434Y-117446225D01*
X134848531Y-117439250D01*
X134941947Y-117407741D01*
X135025619Y-117356617D01*
X135097665Y-117287429D01*
X135156200Y-117201728D01*
X135170148Y-117174489D01*
X135186586Y-117138122D01*
X135196894Y-117107582D01*
X135202460Y-117075450D01*
X135204669Y-117034307D01*
X135204948Y-116988222D01*
X135200861Y-116903865D01*
X135187446Y-116834586D01*
X135162256Y-116773961D01*
X135122846Y-116715567D01*
X135084298Y-116671302D01*
X135012406Y-116605484D01*
X134937313Y-116560053D01*
X134854562Y-116532850D01*
X134776928Y-116522576D01*
X134673043Y-116526571D01*
G36*
X138108759Y-113569184D02*
X138082247Y-113582282D01*
X138049553Y-113605106D01*
X138025725Y-113629996D01*
X138009406Y-113661249D01*
X137999240Y-113703166D01*
X137993872Y-113760044D01*
X137991944Y-113836184D01*
X137991831Y-113868917D01*
X137992161Y-113940656D01*
X137993527Y-113991927D01*
X137996500Y-114027404D01*
X138001649Y-114051763D01*
X138009543Y-114069680D01*
X138017757Y-114081902D01*
X138070187Y-114133905D01*
X138131930Y-114165184D01*
X138198536Y-114174592D01*
X138265558Y-114160980D01*
X138286792Y-114151354D01*
X138337624Y-114124859D01*
X138337624Y-114540052D01*
X138300525Y-114520868D01*
X138251643Y-114506025D01*
X138191561Y-114502222D01*
X138131564Y-114509243D01*
X138086256Y-114525013D01*
X138048675Y-114555047D01*
X138016564Y-114598024D01*
X138014150Y-114602436D01*
X138003967Y-114623221D01*
X137996530Y-114644170D01*
X137991411Y-114669548D01*
X137988181Y-114703618D01*
X137986413Y-114750641D01*
X137985677Y-114814882D01*
X137985544Y-114887176D01*
X137985544Y-115117822D01*
X138123861Y-115117822D01*
X138123861Y-114692533D01*
X138162549Y-114659979D01*
X138202738Y-114633940D01*
X138240797Y-114629205D01*
X138279066Y-114641389D01*
X138299462Y-114653320D01*
X138314642Y-114670313D01*
X138325438Y-114695995D01*
X138332683Y-114733991D01*
X138337208Y-114787926D01*
X138339844Y-114861425D01*
X138340772Y-114910347D01*
X138343911Y-115111535D01*
X138409926Y-115115336D01*
X138475940Y-115119136D01*
X138475940Y-113870650D01*
X138337624Y-113870650D01*
X138334097Y-113940254D01*
X138322215Y-113988569D01*
X138300020Y-114018631D01*
X138265559Y-114033471D01*
X138230742Y-114036436D01*
X138191329Y-114033028D01*
X138165171Y-114019617D01*
X138148814Y-114001896D01*
X138135937Y-113982835D01*
X138128272Y-113961601D01*
X138124861Y-113931849D01*
X138124749Y-113887236D01*
X138125897Y-113849880D01*
X138128532Y-113793604D01*
X138132456Y-113756658D01*
X138139063Y-113733223D01*
X138149749Y-113717480D01*
X138159833Y-113708380D01*
X138201970Y-113688537D01*
X138251840Y-113685332D01*
X138280476Y-113692168D01*
X138308828Y-113716464D01*
X138327609Y-113763728D01*
X138336712Y-113833624D01*
X138337624Y-113870650D01*
X138475940Y-113870650D01*
X138475940Y-113558614D01*
X138406782Y-113558614D01*
X138365260Y-113560256D01*
X138343838Y-113566087D01*
X138337626Y-113577461D01*
X138337624Y-113577798D01*
X138334742Y-113588938D01*
X138322030Y-113587673D01*
X138296757Y-113575433D01*
X138237869Y-113556707D01*
X138171615Y-113554739D01*
X138108759Y-113569184D01*
X138108759Y-113569184D01*
G37*
X138108759Y-113569184D02*
X138082247Y-113582282D01*
X138049553Y-113605106D01*
X138025725Y-113629996D01*
X138009406Y-113661249D01*
X137999240Y-113703166D01*
X137993872Y-113760044D01*
X137991944Y-113836184D01*
X137991831Y-113868917D01*
X137992161Y-113940656D01*
X137993527Y-113991927D01*
X137996500Y-114027404D01*
X138001649Y-114051763D01*
X138009543Y-114069680D01*
X138017757Y-114081902D01*
X138070187Y-114133905D01*
X138131930Y-114165184D01*
X138198536Y-114174592D01*
X138265558Y-114160980D01*
X138286792Y-114151354D01*
X138337624Y-114124859D01*
X138337624Y-114540052D01*
X138300525Y-114520868D01*
X138251643Y-114506025D01*
X138191561Y-114502222D01*
X138131564Y-114509243D01*
X138086256Y-114525013D01*
X138048675Y-114555047D01*
X138016564Y-114598024D01*
X138014150Y-114602436D01*
X138003967Y-114623221D01*
X137996530Y-114644170D01*
X137991411Y-114669548D01*
X137988181Y-114703618D01*
X137986413Y-114750641D01*
X137985677Y-114814882D01*
X137985544Y-114887176D01*
X137985544Y-115117822D01*
X138123861Y-115117822D01*
X138123861Y-114692533D01*
X138162549Y-114659979D01*
X138202738Y-114633940D01*
X138240797Y-114629205D01*
X138279066Y-114641389D01*
X138299462Y-114653320D01*
X138314642Y-114670313D01*
X138325438Y-114695995D01*
X138332683Y-114733991D01*
X138337208Y-114787926D01*
X138339844Y-114861425D01*
X138340772Y-114910347D01*
X138343911Y-115111535D01*
X138409926Y-115115336D01*
X138475940Y-115119136D01*
X138475940Y-113870650D01*
X138337624Y-113870650D01*
X138334097Y-113940254D01*
X138322215Y-113988569D01*
X138300020Y-114018631D01*
X138265559Y-114033471D01*
X138230742Y-114036436D01*
X138191329Y-114033028D01*
X138165171Y-114019617D01*
X138148814Y-114001896D01*
X138135937Y-113982835D01*
X138128272Y-113961601D01*
X138124861Y-113931849D01*
X138124749Y-113887236D01*
X138125897Y-113849880D01*
X138128532Y-113793604D01*
X138132456Y-113756658D01*
X138139063Y-113733223D01*
X138149749Y-113717480D01*
X138159833Y-113708380D01*
X138201970Y-113688537D01*
X138251840Y-113685332D01*
X138280476Y-113692168D01*
X138308828Y-113716464D01*
X138327609Y-113763728D01*
X138336712Y-113833624D01*
X138337624Y-113870650D01*
X138475940Y-113870650D01*
X138475940Y-113558614D01*
X138406782Y-113558614D01*
X138365260Y-113560256D01*
X138343838Y-113566087D01*
X138337626Y-113577461D01*
X138337624Y-113577798D01*
X138334742Y-113588938D01*
X138322030Y-113587673D01*
X138296757Y-113575433D01*
X138237869Y-113556707D01*
X138171615Y-113554739D01*
X138108759Y-113569184D01*
G36*
X137584210Y-114506555D02*
X137525055Y-114522339D01*
X137480023Y-114550948D01*
X137448246Y-114588419D01*
X137438366Y-114604411D01*
X137431073Y-114621163D01*
X137425974Y-114642592D01*
X137422679Y-114672616D01*
X137420797Y-114715154D01*
X137419937Y-114774122D01*
X137419707Y-114853440D01*
X137419703Y-114874484D01*
X137419703Y-115117822D01*
X137480059Y-115117822D01*
X137518557Y-115115126D01*
X137547023Y-115108295D01*
X137554155Y-115104083D01*
X137573652Y-115096813D01*
X137593566Y-115104083D01*
X137626353Y-115113160D01*
X137673978Y-115116813D01*
X137726764Y-115115228D01*
X137775036Y-115108589D01*
X137803218Y-115100072D01*
X137857753Y-115065063D01*
X137891835Y-115016479D01*
X137907157Y-114951882D01*
X137907299Y-114950223D01*
X137905955Y-114921566D01*
X137784356Y-114921566D01*
X137773726Y-114954161D01*
X137756410Y-114972505D01*
X137721652Y-114986379D01*
X137675773Y-114991917D01*
X137628988Y-114989191D01*
X137591514Y-114978274D01*
X137581015Y-114971269D01*
X137562668Y-114938904D01*
X137558020Y-114902111D01*
X137558020Y-114853763D01*
X137627582Y-114853763D01*
X137693667Y-114858850D01*
X137743764Y-114873263D01*
X137774929Y-114895729D01*
X137784356Y-114921566D01*
X137905955Y-114921566D01*
X137903987Y-114879647D01*
X137880710Y-114823845D01*
X137836948Y-114781647D01*
X137830899Y-114777808D01*
X137804907Y-114765309D01*
X137772735Y-114757740D01*
X137727760Y-114754061D01*
X137674331Y-114753216D01*
X137558020Y-114753169D01*
X137558020Y-114704411D01*
X137562953Y-114666581D01*
X137575543Y-114641236D01*
X137577017Y-114639887D01*
X137605034Y-114628800D01*
X137647326Y-114624503D01*
X137694064Y-114626615D01*
X137735418Y-114634756D01*
X137759957Y-114646965D01*
X137773253Y-114656746D01*
X137787294Y-114658613D01*
X137806671Y-114650600D01*
X137835976Y-114630739D01*
X137879803Y-114597063D01*
X137883825Y-114593909D01*
X137881764Y-114582236D01*
X137864568Y-114562822D01*
X137838433Y-114541248D01*
X137809552Y-114523096D01*
X137800478Y-114518809D01*
X137767380Y-114510256D01*
X137718880Y-114504155D01*
X137664695Y-114501708D01*
X137662161Y-114501703D01*
X137584210Y-114506555D01*
X137584210Y-114506555D01*
G37*
X137584210Y-114506555D02*
X137525055Y-114522339D01*
X137480023Y-114550948D01*
X137448246Y-114588419D01*
X137438366Y-114604411D01*
X137431073Y-114621163D01*
X137425974Y-114642592D01*
X137422679Y-114672616D01*
X137420797Y-114715154D01*
X137419937Y-114774122D01*
X137419707Y-114853440D01*
X137419703Y-114874484D01*
X137419703Y-115117822D01*
X137480059Y-115117822D01*
X137518557Y-115115126D01*
X137547023Y-115108295D01*
X137554155Y-115104083D01*
X137573652Y-115096813D01*
X137593566Y-115104083D01*
X137626353Y-115113160D01*
X137673978Y-115116813D01*
X137726764Y-115115228D01*
X137775036Y-115108589D01*
X137803218Y-115100072D01*
X137857753Y-115065063D01*
X137891835Y-115016479D01*
X137907157Y-114951882D01*
X137907299Y-114950223D01*
X137905955Y-114921566D01*
X137784356Y-114921566D01*
X137773726Y-114954161D01*
X137756410Y-114972505D01*
X137721652Y-114986379D01*
X137675773Y-114991917D01*
X137628988Y-114989191D01*
X137591514Y-114978274D01*
X137581015Y-114971269D01*
X137562668Y-114938904D01*
X137558020Y-114902111D01*
X137558020Y-114853763D01*
X137627582Y-114853763D01*
X137693667Y-114858850D01*
X137743764Y-114873263D01*
X137774929Y-114895729D01*
X137784356Y-114921566D01*
X137905955Y-114921566D01*
X137903987Y-114879647D01*
X137880710Y-114823845D01*
X137836948Y-114781647D01*
X137830899Y-114777808D01*
X137804907Y-114765309D01*
X137772735Y-114757740D01*
X137727760Y-114754061D01*
X137674331Y-114753216D01*
X137558020Y-114753169D01*
X137558020Y-114704411D01*
X137562953Y-114666581D01*
X137575543Y-114641236D01*
X137577017Y-114639887D01*
X137605034Y-114628800D01*
X137647326Y-114624503D01*
X137694064Y-114626615D01*
X137735418Y-114634756D01*
X137759957Y-114646965D01*
X137773253Y-114656746D01*
X137787294Y-114658613D01*
X137806671Y-114650600D01*
X137835976Y-114630739D01*
X137879803Y-114597063D01*
X137883825Y-114593909D01*
X137881764Y-114582236D01*
X137864568Y-114562822D01*
X137838433Y-114541248D01*
X137809552Y-114523096D01*
X137800478Y-114518809D01*
X137767380Y-114510256D01*
X137718880Y-114504155D01*
X137664695Y-114501708D01*
X137662161Y-114501703D01*
X137584210Y-114506555D01*
G36*
X137193356Y-114503020D02*
X137174539Y-114508660D01*
X137168473Y-114521053D01*
X137168218Y-114526647D01*
X137167129Y-114542230D01*
X137159632Y-114544676D01*
X137139381Y-114533993D01*
X137127351Y-114526694D01*
X137089400Y-114511063D01*
X137044072Y-114503334D01*
X136996544Y-114502740D01*
X136951995Y-114508513D01*
X136915602Y-114519884D01*
X136892543Y-114536088D01*
X136887996Y-114556355D01*
X136890291Y-114561843D01*
X136907020Y-114584626D01*
X136932963Y-114612647D01*
X136937655Y-114617177D01*
X136962383Y-114638005D01*
X136983718Y-114644735D01*
X137013555Y-114640038D01*
X137025508Y-114636917D01*
X137062705Y-114629421D01*
X137088859Y-114632792D01*
X137110946Y-114644681D01*
X137131178Y-114660635D01*
X137146079Y-114680700D01*
X137156434Y-114708702D01*
X137163029Y-114748467D01*
X137166649Y-114803823D01*
X137168078Y-114878594D01*
X137168218Y-114923740D01*
X137168218Y-115117822D01*
X137293960Y-115117822D01*
X137293960Y-114501683D01*
X137231089Y-114501683D01*
X137193356Y-114503020D01*
X137193356Y-114503020D01*
G37*
X137193356Y-114503020D02*
X137174539Y-114508660D01*
X137168473Y-114521053D01*
X137168218Y-114526647D01*
X137167129Y-114542230D01*
X137159632Y-114544676D01*
X137139381Y-114533993D01*
X137127351Y-114526694D01*
X137089400Y-114511063D01*
X137044072Y-114503334D01*
X136996544Y-114502740D01*
X136951995Y-114508513D01*
X136915602Y-114519884D01*
X136892543Y-114536088D01*
X136887996Y-114556355D01*
X136890291Y-114561843D01*
X136907020Y-114584626D01*
X136932963Y-114612647D01*
X136937655Y-114617177D01*
X136962383Y-114638005D01*
X136983718Y-114644735D01*
X137013555Y-114640038D01*
X137025508Y-114636917D01*
X137062705Y-114629421D01*
X137088859Y-114632792D01*
X137110946Y-114644681D01*
X137131178Y-114660635D01*
X137146079Y-114680700D01*
X137156434Y-114708702D01*
X137163029Y-114748467D01*
X137166649Y-114803823D01*
X137168078Y-114878594D01*
X137168218Y-114923740D01*
X137168218Y-115117822D01*
X137293960Y-115117822D01*
X137293960Y-114501683D01*
X137231089Y-114501683D01*
X137193356Y-114503020D01*
G36*
X136401188Y-115117822D02*
X136470346Y-115117822D01*
X136510488Y-115116645D01*
X136531394Y-115111772D01*
X136538922Y-115101186D01*
X136539505Y-115094029D01*
X136540774Y-115079676D01*
X136548779Y-115076923D01*
X136569815Y-115085771D01*
X136586173Y-115094029D01*
X136648977Y-115113597D01*
X136717248Y-115114729D01*
X136772752Y-115100135D01*
X136824438Y-115064877D01*
X136863838Y-115012835D01*
X136885413Y-114951450D01*
X136885962Y-114948018D01*
X136889167Y-114910571D01*
X136890761Y-114856813D01*
X136890633Y-114816155D01*
X136753279Y-114816155D01*
X136750097Y-114870194D01*
X136742859Y-114914735D01*
X136733060Y-114939888D01*
X136695989Y-114974260D01*
X136651974Y-114986582D01*
X136606584Y-114976618D01*
X136567797Y-114946895D01*
X136553108Y-114926905D01*
X136544519Y-114903050D01*
X136540496Y-114868230D01*
X136539505Y-114815930D01*
X136541278Y-114764139D01*
X136545963Y-114718634D01*
X136552603Y-114688181D01*
X136553710Y-114685452D01*
X136580491Y-114653000D01*
X136619579Y-114635183D01*
X136663315Y-114632306D01*
X136704038Y-114644674D01*
X136734087Y-114672593D01*
X136737204Y-114678148D01*
X136746961Y-114712022D01*
X136752277Y-114760728D01*
X136753279Y-114816155D01*
X136890633Y-114816155D01*
X136890568Y-114795540D01*
X136889664Y-114762563D01*
X136883514Y-114680981D01*
X136870733Y-114619730D01*
X136849471Y-114574449D01*
X136817878Y-114540779D01*
X136787207Y-114521014D01*
X136744354Y-114507120D01*
X136691056Y-114502354D01*
X136636480Y-114506236D01*
X136589792Y-114518282D01*
X136565124Y-114532693D01*
X136539505Y-114555878D01*
X136539505Y-114262773D01*
X136401188Y-114262773D01*
X136401188Y-115117822D01*
X136401188Y-115117822D01*
G37*
X136401188Y-115117822D02*
X136470346Y-115117822D01*
X136510488Y-115116645D01*
X136531394Y-115111772D01*
X136538922Y-115101186D01*
X136539505Y-115094029D01*
X136540774Y-115079676D01*
X136548779Y-115076923D01*
X136569815Y-115085771D01*
X136586173Y-115094029D01*
X136648977Y-115113597D01*
X136717248Y-115114729D01*
X136772752Y-115100135D01*
X136824438Y-115064877D01*
X136863838Y-115012835D01*
X136885413Y-114951450D01*
X136885962Y-114948018D01*
X136889167Y-114910571D01*
X136890761Y-114856813D01*
X136890633Y-114816155D01*
X136753279Y-114816155D01*
X136750097Y-114870194D01*
X136742859Y-114914735D01*
X136733060Y-114939888D01*
X136695989Y-114974260D01*
X136651974Y-114986582D01*
X136606584Y-114976618D01*
X136567797Y-114946895D01*
X136553108Y-114926905D01*
X136544519Y-114903050D01*
X136540496Y-114868230D01*
X136539505Y-114815930D01*
X136541278Y-114764139D01*
X136545963Y-114718634D01*
X136552603Y-114688181D01*
X136553710Y-114685452D01*
X136580491Y-114653000D01*
X136619579Y-114635183D01*
X136663315Y-114632306D01*
X136704038Y-114644674D01*
X136734087Y-114672593D01*
X136737204Y-114678148D01*
X136746961Y-114712022D01*
X136752277Y-114760728D01*
X136753279Y-114816155D01*
X136890633Y-114816155D01*
X136890568Y-114795540D01*
X136889664Y-114762563D01*
X136883514Y-114680981D01*
X136870733Y-114619730D01*
X136849471Y-114574449D01*
X136817878Y-114540779D01*
X136787207Y-114521014D01*
X136744354Y-114507120D01*
X136691056Y-114502354D01*
X136636480Y-114506236D01*
X136589792Y-114518282D01*
X136565124Y-114532693D01*
X136539505Y-114555878D01*
X136539505Y-114262773D01*
X136401188Y-114262773D01*
X136401188Y-115117822D01*
G36*
X135918476Y-114504237D02*
X135868745Y-114507971D01*
X135738709Y-114897773D01*
X135718322Y-114828614D01*
X135706054Y-114785874D01*
X135689915Y-114728115D01*
X135672488Y-114664625D01*
X135663274Y-114630570D01*
X135628612Y-114501683D01*
X135485609Y-114501683D01*
X135528354Y-114636857D01*
X135549404Y-114703342D01*
X135574833Y-114783539D01*
X135601390Y-114867193D01*
X135625098Y-114941782D01*
X135679098Y-115111535D01*
X135737402Y-115115328D01*
X135795705Y-115119122D01*
X135827321Y-115014734D01*
X135846818Y-114949889D01*
X135868096Y-114878400D01*
X135886692Y-114815263D01*
X135887426Y-114812750D01*
X135901316Y-114769969D01*
X135913571Y-114740779D01*
X135922154Y-114729741D01*
X135923918Y-114731018D01*
X135930109Y-114748130D01*
X135941872Y-114784787D01*
X135957775Y-114836378D01*
X135976386Y-114898294D01*
X135986457Y-114932352D01*
X136040993Y-115117822D01*
X136156736Y-115117822D01*
X136249263Y-114825471D01*
X136275256Y-114743462D01*
X136298934Y-114668987D01*
X136319180Y-114605544D01*
X136334874Y-114556632D01*
X136344898Y-114525749D01*
X136347945Y-114516726D01*
X136345533Y-114507487D01*
X136326592Y-114503441D01*
X136287177Y-114503846D01*
X136281007Y-114504152D01*
X136207914Y-114507971D01*
X136160043Y-114684010D01*
X136142447Y-114748211D01*
X136126723Y-114804649D01*
X136114254Y-114848422D01*
X136106426Y-114874630D01*
X136104980Y-114878903D01*
X136098986Y-114873990D01*
X136086899Y-114848532D01*
X136070107Y-114805997D01*
X136049997Y-114749850D01*
X136032997Y-114699130D01*
X135968206Y-114500504D01*
X135918476Y-114504237D01*
X135918476Y-114504237D01*
G37*
X135918476Y-114504237D02*
X135868745Y-114507971D01*
X135738709Y-114897773D01*
X135718322Y-114828614D01*
X135706054Y-114785874D01*
X135689915Y-114728115D01*
X135672488Y-114664625D01*
X135663274Y-114630570D01*
X135628612Y-114501683D01*
X135485609Y-114501683D01*
X135528354Y-114636857D01*
X135549404Y-114703342D01*
X135574833Y-114783539D01*
X135601390Y-114867193D01*
X135625098Y-114941782D01*
X135679098Y-115111535D01*
X135737402Y-115115328D01*
X135795705Y-115119122D01*
X135827321Y-115014734D01*
X135846818Y-114949889D01*
X135868096Y-114878400D01*
X135886692Y-114815263D01*
X135887426Y-114812750D01*
X135901316Y-114769969D01*
X135913571Y-114740779D01*
X135922154Y-114729741D01*
X135923918Y-114731018D01*
X135930109Y-114748130D01*
X135941872Y-114784787D01*
X135957775Y-114836378D01*
X135976386Y-114898294D01*
X135986457Y-114932352D01*
X136040993Y-115117822D01*
X136156736Y-115117822D01*
X136249263Y-114825471D01*
X136275256Y-114743462D01*
X136298934Y-114668987D01*
X136319180Y-114605544D01*
X136334874Y-114556632D01*
X136344898Y-114525749D01*
X136347945Y-114516726D01*
X136345533Y-114507487D01*
X136326592Y-114503441D01*
X136287177Y-114503846D01*
X136281007Y-114504152D01*
X136207914Y-114507971D01*
X136160043Y-114684010D01*
X136142447Y-114748211D01*
X136126723Y-114804649D01*
X136114254Y-114848422D01*
X136106426Y-114874630D01*
X136104980Y-114878903D01*
X136098986Y-114873990D01*
X136086899Y-114848532D01*
X136070107Y-114805997D01*
X136049997Y-114749850D01*
X136032997Y-114699130D01*
X135968206Y-114500504D01*
X135918476Y-114504237D01*
G36*
X135161589Y-114505417D02*
X135108589Y-114518290D01*
X135093269Y-114525110D01*
X135063572Y-114542974D01*
X135040780Y-114563093D01*
X135023917Y-114588962D01*
X135012002Y-114624073D01*
X135004058Y-114671920D01*
X134999106Y-114735996D01*
X134996169Y-114819794D01*
X134995053Y-114875768D01*
X134990948Y-115117822D01*
X135061068Y-115117822D01*
X135103607Y-115116038D01*
X135125524Y-115109942D01*
X135131188Y-115099706D01*
X135134179Y-115088637D01*
X135147549Y-115090754D01*
X135165767Y-115099629D01*
X135211376Y-115113233D01*
X135269993Y-115116899D01*
X135331646Y-115110903D01*
X135386362Y-115095521D01*
X135391270Y-115093386D01*
X135441277Y-115058255D01*
X135474244Y-115009419D01*
X135489413Y-114952333D01*
X135488254Y-114931824D01*
X135364492Y-114931824D01*
X135353587Y-114959425D01*
X135321255Y-114979204D01*
X135269090Y-114989819D01*
X135241213Y-114991228D01*
X135194753Y-114987620D01*
X135163871Y-114973597D01*
X135156336Y-114966931D01*
X135135924Y-114930666D01*
X135131188Y-114897773D01*
X135131188Y-114853763D01*
X135192487Y-114853763D01*
X135263744Y-114857395D01*
X135313724Y-114868818D01*
X135345304Y-114888824D01*
X135352374Y-114897743D01*
X135364492Y-114931824D01*
X135488254Y-114931824D01*
X135486029Y-114892456D01*
X135463337Y-114835244D01*
X135432376Y-114796580D01*
X135413624Y-114779864D01*
X135395267Y-114768878D01*
X135371381Y-114762180D01*
X135336043Y-114758326D01*
X135283331Y-114755873D01*
X135262423Y-114755168D01*
X135131188Y-114750879D01*
X135131380Y-114711158D01*
X135136463Y-114669405D01*
X135154838Y-114644158D01*
X135191961Y-114628030D01*
X135192957Y-114627742D01*
X135245590Y-114621400D01*
X135297094Y-114629684D01*
X135335370Y-114649827D01*
X135350728Y-114659773D01*
X135367270Y-114658397D01*
X135392725Y-114643987D01*
X135407672Y-114633817D01*
X135436909Y-114612088D01*
X135455020Y-114595800D01*
X135457926Y-114591137D01*
X135445960Y-114567005D01*
X135410604Y-114538185D01*
X135395247Y-114528461D01*
X135351099Y-114511714D01*
X135291602Y-114502227D01*
X135225513Y-114500095D01*
X135161589Y-114505417D01*
X135161589Y-114505417D01*
G37*
X135161589Y-114505417D02*
X135108589Y-114518290D01*
X135093269Y-114525110D01*
X135063572Y-114542974D01*
X135040780Y-114563093D01*
X135023917Y-114588962D01*
X135012002Y-114624073D01*
X135004058Y-114671920D01*
X134999106Y-114735996D01*
X134996169Y-114819794D01*
X134995053Y-114875768D01*
X134990948Y-115117822D01*
X135061068Y-115117822D01*
X135103607Y-115116038D01*
X135125524Y-115109942D01*
X135131188Y-115099706D01*
X135134179Y-115088637D01*
X135147549Y-115090754D01*
X135165767Y-115099629D01*
X135211376Y-115113233D01*
X135269993Y-115116899D01*
X135331646Y-115110903D01*
X135386362Y-115095521D01*
X135391270Y-115093386D01*
X135441277Y-115058255D01*
X135474244Y-115009419D01*
X135489413Y-114952333D01*
X135488254Y-114931824D01*
X135364492Y-114931824D01*
X135353587Y-114959425D01*
X135321255Y-114979204D01*
X135269090Y-114989819D01*
X135241213Y-114991228D01*
X135194753Y-114987620D01*
X135163871Y-114973597D01*
X135156336Y-114966931D01*
X135135924Y-114930666D01*
X135131188Y-114897773D01*
X135131188Y-114853763D01*
X135192487Y-114853763D01*
X135263744Y-114857395D01*
X135313724Y-114868818D01*
X135345304Y-114888824D01*
X135352374Y-114897743D01*
X135364492Y-114931824D01*
X135488254Y-114931824D01*
X135486029Y-114892456D01*
X135463337Y-114835244D01*
X135432376Y-114796580D01*
X135413624Y-114779864D01*
X135395267Y-114768878D01*
X135371381Y-114762180D01*
X135336043Y-114758326D01*
X135283331Y-114755873D01*
X135262423Y-114755168D01*
X135131188Y-114750879D01*
X135131380Y-114711158D01*
X135136463Y-114669405D01*
X135154838Y-114644158D01*
X135191961Y-114628030D01*
X135192957Y-114627742D01*
X135245590Y-114621400D01*
X135297094Y-114629684D01*
X135335370Y-114649827D01*
X135350728Y-114659773D01*
X135367270Y-114658397D01*
X135392725Y-114643987D01*
X135407672Y-114633817D01*
X135436909Y-114612088D01*
X135455020Y-114595800D01*
X135457926Y-114591137D01*
X135445960Y-114567005D01*
X135410604Y-114538185D01*
X135395247Y-114528461D01*
X135351099Y-114511714D01*
X135291602Y-114502227D01*
X135225513Y-114500095D01*
X135161589Y-114505417D01*
G36*
X134564745Y-114501486D02*
X134516405Y-114511015D01*
X134488886Y-114525125D01*
X134459936Y-114548568D01*
X134501124Y-114600571D01*
X134526518Y-114632064D01*
X134543762Y-114647428D01*
X134560898Y-114649776D01*
X134585973Y-114642217D01*
X134597743Y-114637941D01*
X134645730Y-114631631D01*
X134689676Y-114645156D01*
X134721940Y-114675710D01*
X134727181Y-114685452D01*
X134732888Y-114711258D01*
X134737294Y-114758817D01*
X134740189Y-114824758D01*
X134741369Y-114905710D01*
X134741386Y-114917226D01*
X134741386Y-115117822D01*
X134879703Y-115117822D01*
X134879703Y-114501683D01*
X134810544Y-114501683D01*
X134770667Y-114502725D01*
X134749893Y-114507358D01*
X134742211Y-114517849D01*
X134741386Y-114527745D01*
X134741386Y-114553806D01*
X134708255Y-114527745D01*
X134670265Y-114509965D01*
X134619230Y-114501174D01*
X134564745Y-114501486D01*
X134564745Y-114501486D01*
G37*
X134564745Y-114501486D02*
X134516405Y-114511015D01*
X134488886Y-114525125D01*
X134459936Y-114548568D01*
X134501124Y-114600571D01*
X134526518Y-114632064D01*
X134543762Y-114647428D01*
X134560898Y-114649776D01*
X134585973Y-114642217D01*
X134597743Y-114637941D01*
X134645730Y-114631631D01*
X134689676Y-114645156D01*
X134721940Y-114675710D01*
X134727181Y-114685452D01*
X134732888Y-114711258D01*
X134737294Y-114758817D01*
X134740189Y-114824758D01*
X134741369Y-114905710D01*
X134741386Y-114917226D01*
X134741386Y-115117822D01*
X134879703Y-115117822D01*
X134879703Y-114501683D01*
X134810544Y-114501683D01*
X134770667Y-114502725D01*
X134749893Y-114507358D01*
X134742211Y-114517849D01*
X134741386Y-114527745D01*
X134741386Y-114553806D01*
X134708255Y-114527745D01*
X134670265Y-114509965D01*
X134619230Y-114501174D01*
X134564745Y-114501486D01*
G36*
X134167419Y-114504970D02*
X134107315Y-114520597D01*
X134056979Y-114552848D01*
X134032607Y-114576940D01*
X133992655Y-114633895D01*
X133969758Y-114699965D01*
X133961892Y-114781182D01*
X133961852Y-114787748D01*
X133961782Y-114853763D01*
X134341736Y-114853763D01*
X134333637Y-114888342D01*
X134319013Y-114919659D01*
X134293419Y-114952291D01*
X134288065Y-114957500D01*
X134242057Y-114985694D01*
X134189590Y-114990475D01*
X134129197Y-114971926D01*
X134118960Y-114966931D01*
X134087561Y-114951745D01*
X134066530Y-114943094D01*
X134062861Y-114942293D01*
X134050052Y-114950063D01*
X134025622Y-114969072D01*
X134013221Y-114979460D01*
X133987524Y-115003321D01*
X133979085Y-115019077D01*
X133984942Y-115033571D01*
X133988072Y-115037534D01*
X134009275Y-115054879D01*
X134044262Y-115075959D01*
X134068663Y-115088265D01*
X134137928Y-115109946D01*
X134214612Y-115116971D01*
X134287235Y-115108647D01*
X134307574Y-115102686D01*
X134370524Y-115068952D01*
X134417185Y-115017045D01*
X134447827Y-114946459D01*
X134462718Y-114856692D01*
X134464353Y-114809753D01*
X134459579Y-114741413D01*
X134339010Y-114741413D01*
X134327348Y-114746465D01*
X134296002Y-114750429D01*
X134250429Y-114752768D01*
X134219554Y-114753169D01*
X134164019Y-114752783D01*
X134128967Y-114750975D01*
X134109738Y-114746773D01*
X134101670Y-114739203D01*
X134100099Y-114728218D01*
X134110879Y-114694381D01*
X134138020Y-114660940D01*
X134173723Y-114635272D01*
X134209440Y-114624772D01*
X134257952Y-114634086D01*
X134299947Y-114661013D01*
X134329064Y-114699827D01*
X134339010Y-114741413D01*
X134459579Y-114741413D01*
X134457401Y-114710236D01*
X134435945Y-114630949D01*
X134399530Y-114571263D01*
X134347703Y-114530549D01*
X134280010Y-114508179D01*
X134243338Y-114503871D01*
X134167419Y-114504970D01*
X134167419Y-114504970D01*
G37*
X134167419Y-114504970D02*
X134107315Y-114520597D01*
X134056979Y-114552848D01*
X134032607Y-114576940D01*
X133992655Y-114633895D01*
X133969758Y-114699965D01*
X133961892Y-114781182D01*
X133961852Y-114787748D01*
X133961782Y-114853763D01*
X134341736Y-114853763D01*
X134333637Y-114888342D01*
X134319013Y-114919659D01*
X134293419Y-114952291D01*
X134288065Y-114957500D01*
X134242057Y-114985694D01*
X134189590Y-114990475D01*
X134129197Y-114971926D01*
X134118960Y-114966931D01*
X134087561Y-114951745D01*
X134066530Y-114943094D01*
X134062861Y-114942293D01*
X134050052Y-114950063D01*
X134025622Y-114969072D01*
X134013221Y-114979460D01*
X133987524Y-115003321D01*
X133979085Y-115019077D01*
X133984942Y-115033571D01*
X133988072Y-115037534D01*
X134009275Y-115054879D01*
X134044262Y-115075959D01*
X134068663Y-115088265D01*
X134137928Y-115109946D01*
X134214612Y-115116971D01*
X134287235Y-115108647D01*
X134307574Y-115102686D01*
X134370524Y-115068952D01*
X134417185Y-115017045D01*
X134447827Y-114946459D01*
X134462718Y-114856692D01*
X134464353Y-114809753D01*
X134459579Y-114741413D01*
X134339010Y-114741413D01*
X134327348Y-114746465D01*
X134296002Y-114750429D01*
X134250429Y-114752768D01*
X134219554Y-114753169D01*
X134164019Y-114752783D01*
X134128967Y-114750975D01*
X134109738Y-114746773D01*
X134101670Y-114739203D01*
X134100099Y-114728218D01*
X134110879Y-114694381D01*
X134138020Y-114660940D01*
X134173723Y-114635272D01*
X134209440Y-114624772D01*
X134257952Y-114634086D01*
X134299947Y-114661013D01*
X134329064Y-114699827D01*
X134339010Y-114741413D01*
X134459579Y-114741413D01*
X134457401Y-114710236D01*
X134435945Y-114630949D01*
X134399530Y-114571263D01*
X134347703Y-114530549D01*
X134280010Y-114508179D01*
X134243338Y-114503871D01*
X134167419Y-114504970D01*
G36*
X138738261Y-113565148D02*
X138672479Y-113594231D01*
X138622540Y-113642793D01*
X138588374Y-113710908D01*
X138569907Y-113798651D01*
X138568583Y-113812351D01*
X138567546Y-113908939D01*
X138580993Y-113993602D01*
X138608108Y-114062221D01*
X138622627Y-114084294D01*
X138673201Y-114131011D01*
X138737609Y-114161268D01*
X138809666Y-114173824D01*
X138883185Y-114167439D01*
X138939072Y-114147772D01*
X138987132Y-114114629D01*
X139026412Y-114071175D01*
X139027092Y-114070158D01*
X139043044Y-114043338D01*
X139053410Y-114016368D01*
X139059688Y-113982332D01*
X139063373Y-113934310D01*
X139064997Y-113894931D01*
X139065672Y-113859219D01*
X138939955Y-113859219D01*
X138938726Y-113894770D01*
X138934266Y-113942094D01*
X138926397Y-113972465D01*
X138912207Y-113994072D01*
X138898917Y-114006694D01*
X138851802Y-114033122D01*
X138802505Y-114036653D01*
X138756593Y-114017639D01*
X138733638Y-113996331D01*
X138717096Y-113974859D01*
X138707421Y-113954313D01*
X138703174Y-113927574D01*
X138702920Y-113887523D01*
X138704228Y-113850638D01*
X138707043Y-113797947D01*
X138711505Y-113763772D01*
X138719548Y-113741480D01*
X138733103Y-113724442D01*
X138743845Y-113714703D01*
X138788777Y-113689123D01*
X138837249Y-113687847D01*
X138877894Y-113702999D01*
X138912567Y-113734642D01*
X138933224Y-113786620D01*
X138939955Y-113859219D01*
X139065672Y-113859219D01*
X139066479Y-113816621D01*
X139063948Y-113758056D01*
X139056362Y-113714007D01*
X139042681Y-113679248D01*
X139021865Y-113648551D01*
X139014147Y-113639436D01*
X138965889Y-113594021D01*
X138914128Y-113567493D01*
X138850828Y-113556379D01*
X138819961Y-113555471D01*
X138738261Y-113565148D01*
X138738261Y-113565148D01*
G37*
X138738261Y-113565148D02*
X138672479Y-113594231D01*
X138622540Y-113642793D01*
X138588374Y-113710908D01*
X138569907Y-113798651D01*
X138568583Y-113812351D01*
X138567546Y-113908939D01*
X138580993Y-113993602D01*
X138608108Y-114062221D01*
X138622627Y-114084294D01*
X138673201Y-114131011D01*
X138737609Y-114161268D01*
X138809666Y-114173824D01*
X138883185Y-114167439D01*
X138939072Y-114147772D01*
X138987132Y-114114629D01*
X139026412Y-114071175D01*
X139027092Y-114070158D01*
X139043044Y-114043338D01*
X139053410Y-114016368D01*
X139059688Y-113982332D01*
X139063373Y-113934310D01*
X139064997Y-113894931D01*
X139065672Y-113859219D01*
X138939955Y-113859219D01*
X138938726Y-113894770D01*
X138934266Y-113942094D01*
X138926397Y-113972465D01*
X138912207Y-113994072D01*
X138898917Y-114006694D01*
X138851802Y-114033122D01*
X138802505Y-114036653D01*
X138756593Y-114017639D01*
X138733638Y-113996331D01*
X138717096Y-113974859D01*
X138707421Y-113954313D01*
X138703174Y-113927574D01*
X138702920Y-113887523D01*
X138704228Y-113850638D01*
X138707043Y-113797947D01*
X138711505Y-113763772D01*
X138719548Y-113741480D01*
X138733103Y-113724442D01*
X138743845Y-113714703D01*
X138788777Y-113689123D01*
X138837249Y-113687847D01*
X138877894Y-113702999D01*
X138912567Y-113734642D01*
X138933224Y-113786620D01*
X138939955Y-113859219D01*
X139065672Y-113859219D01*
X139066479Y-113816621D01*
X139063948Y-113758056D01*
X139056362Y-113714007D01*
X139042681Y-113679248D01*
X139021865Y-113648551D01*
X139014147Y-113639436D01*
X138965889Y-113594021D01*
X138914128Y-113567493D01*
X138850828Y-113556379D01*
X138819961Y-113555471D01*
X138738261Y-113565148D01*
G36*
X137556699Y-113572614D02*
X137544168Y-113578514D01*
X137500799Y-113610283D01*
X137459790Y-113656646D01*
X137429168Y-113707696D01*
X137420459Y-113731166D01*
X137412512Y-113773091D01*
X137407774Y-113823757D01*
X137407199Y-113844679D01*
X137407129Y-113910693D01*
X137787083Y-113910693D01*
X137778983Y-113945273D01*
X137759104Y-113986170D01*
X137724347Y-114021514D01*
X137682998Y-114044282D01*
X137656649Y-114049010D01*
X137620916Y-114043273D01*
X137578282Y-114028882D01*
X137563799Y-114022262D01*
X137510240Y-113995513D01*
X137464533Y-114030376D01*
X137438158Y-114053955D01*
X137424124Y-114073417D01*
X137423414Y-114079129D01*
X137435951Y-114092973D01*
X137463428Y-114114012D01*
X137488366Y-114130425D01*
X137555664Y-114159930D01*
X137631110Y-114173284D01*
X137705888Y-114169812D01*
X137765495Y-114151663D01*
X137826941Y-114112784D01*
X137870608Y-114061595D01*
X137897926Y-113995367D01*
X137910322Y-113911371D01*
X137911421Y-113872936D01*
X137907022Y-113784861D01*
X137906482Y-113782299D01*
X137780582Y-113782299D01*
X137777115Y-113790558D01*
X137762863Y-113795113D01*
X137733470Y-113797065D01*
X137684575Y-113797517D01*
X137665748Y-113797525D01*
X137608467Y-113796843D01*
X137572141Y-113794364D01*
X137552604Y-113789443D01*
X137545690Y-113781434D01*
X137545445Y-113778862D01*
X137553336Y-113758423D01*
X137573085Y-113729789D01*
X137581575Y-113719763D01*
X137613094Y-113691408D01*
X137645949Y-113680259D01*
X137663651Y-113679327D01*
X137711539Y-113690981D01*
X137751699Y-113722285D01*
X137777173Y-113767752D01*
X137777625Y-113769233D01*
X137780582Y-113782299D01*
X137906482Y-113782299D01*
X137892392Y-113715510D01*
X137866038Y-113660025D01*
X137833807Y-113620639D01*
X137774217Y-113577931D01*
X137704168Y-113555109D01*
X137629661Y-113553046D01*
X137556699Y-113572614D01*
X137556699Y-113572614D01*
G37*
X137556699Y-113572614D02*
X137544168Y-113578514D01*
X137500799Y-113610283D01*
X137459790Y-113656646D01*
X137429168Y-113707696D01*
X137420459Y-113731166D01*
X137412512Y-113773091D01*
X137407774Y-113823757D01*
X137407199Y-113844679D01*
X137407129Y-113910693D01*
X137787083Y-113910693D01*
X137778983Y-113945273D01*
X137759104Y-113986170D01*
X137724347Y-114021514D01*
X137682998Y-114044282D01*
X137656649Y-114049010D01*
X137620916Y-114043273D01*
X137578282Y-114028882D01*
X137563799Y-114022262D01*
X137510240Y-113995513D01*
X137464533Y-114030376D01*
X137438158Y-114053955D01*
X137424124Y-114073417D01*
X137423414Y-114079129D01*
X137435951Y-114092973D01*
X137463428Y-114114012D01*
X137488366Y-114130425D01*
X137555664Y-114159930D01*
X137631110Y-114173284D01*
X137705888Y-114169812D01*
X137765495Y-114151663D01*
X137826941Y-114112784D01*
X137870608Y-114061595D01*
X137897926Y-113995367D01*
X137910322Y-113911371D01*
X137911421Y-113872936D01*
X137907022Y-113784861D01*
X137906482Y-113782299D01*
X137780582Y-113782299D01*
X137777115Y-113790558D01*
X137762863Y-113795113D01*
X137733470Y-113797065D01*
X137684575Y-113797517D01*
X137665748Y-113797525D01*
X137608467Y-113796843D01*
X137572141Y-113794364D01*
X137552604Y-113789443D01*
X137545690Y-113781434D01*
X137545445Y-113778862D01*
X137553336Y-113758423D01*
X137573085Y-113729789D01*
X137581575Y-113719763D01*
X137613094Y-113691408D01*
X137645949Y-113680259D01*
X137663651Y-113679327D01*
X137711539Y-113690981D01*
X137751699Y-113722285D01*
X137777173Y-113767752D01*
X137777625Y-113769233D01*
X137780582Y-113782299D01*
X137906482Y-113782299D01*
X137892392Y-113715510D01*
X137866038Y-113660025D01*
X137833807Y-113620639D01*
X137774217Y-113577931D01*
X137704168Y-113555109D01*
X137629661Y-113553046D01*
X137556699Y-113572614D01*
G36*
X136185983Y-113556452D02*
X136138366Y-113565482D01*
X136088966Y-113584370D01*
X136083688Y-113586777D01*
X136046226Y-113606476D01*
X136020283Y-113624781D01*
X136011897Y-113636508D01*
X136019883Y-113655632D01*
X136039280Y-113683850D01*
X136047890Y-113694384D01*
X136083372Y-113735847D01*
X136129115Y-113708858D01*
X136172650Y-113690878D01*
X136222950Y-113681267D01*
X136271188Y-113680660D01*
X136308533Y-113689691D01*
X136317495Y-113695327D01*
X136334563Y-113721171D01*
X136336637Y-113750941D01*
X136323866Y-113774197D01*
X136316312Y-113778708D01*
X136293675Y-113784309D01*
X136253885Y-113790892D01*
X136204834Y-113797183D01*
X136195785Y-113798170D01*
X136117004Y-113811798D01*
X136059864Y-113834946D01*
X136021970Y-113869752D01*
X136000921Y-113918354D01*
X135994365Y-113977718D01*
X136003423Y-114045198D01*
X136032836Y-114098188D01*
X136082722Y-114136783D01*
X136153200Y-114161081D01*
X136231435Y-114170667D01*
X136295234Y-114170552D01*
X136346984Y-114161845D01*
X136382327Y-114149825D01*
X136426983Y-114128880D01*
X136468253Y-114104574D01*
X136482921Y-114093876D01*
X136520643Y-114063084D01*
X136475148Y-114017049D01*
X136429653Y-113971013D01*
X136377928Y-114005243D01*
X136326048Y-114030952D01*
X136270649Y-114044399D01*
X136217395Y-114045818D01*
X136171951Y-114035443D01*
X136139984Y-114013507D01*
X136129662Y-113994998D01*
X136131211Y-113965314D01*
X136156860Y-113942615D01*
X136206540Y-113926940D01*
X136260969Y-113919695D01*
X136344736Y-113905873D01*
X136406967Y-113879796D01*
X136448493Y-113840699D01*
X136470147Y-113787820D01*
X136473147Y-113725126D01*
X136458329Y-113659642D01*
X136424546Y-113610144D01*
X136371495Y-113576408D01*
X136298874Y-113558207D01*
X136245072Y-113554639D01*
X136185983Y-113556452D01*
X136185983Y-113556452D01*
G37*
X136185983Y-113556452D02*
X136138366Y-113565482D01*
X136088966Y-113584370D01*
X136083688Y-113586777D01*
X136046226Y-113606476D01*
X136020283Y-113624781D01*
X136011897Y-113636508D01*
X136019883Y-113655632D01*
X136039280Y-113683850D01*
X136047890Y-113694384D01*
X136083372Y-113735847D01*
X136129115Y-113708858D01*
X136172650Y-113690878D01*
X136222950Y-113681267D01*
X136271188Y-113680660D01*
X136308533Y-113689691D01*
X136317495Y-113695327D01*
X136334563Y-113721171D01*
X136336637Y-113750941D01*
X136323866Y-113774197D01*
X136316312Y-113778708D01*
X136293675Y-113784309D01*
X136253885Y-113790892D01*
X136204834Y-113797183D01*
X136195785Y-113798170D01*
X136117004Y-113811798D01*
X136059864Y-113834946D01*
X136021970Y-113869752D01*
X136000921Y-113918354D01*
X135994365Y-113977718D01*
X136003423Y-114045198D01*
X136032836Y-114098188D01*
X136082722Y-114136783D01*
X136153200Y-114161081D01*
X136231435Y-114170667D01*
X136295234Y-114170552D01*
X136346984Y-114161845D01*
X136382327Y-114149825D01*
X136426983Y-114128880D01*
X136468253Y-114104574D01*
X136482921Y-114093876D01*
X136520643Y-114063084D01*
X136475148Y-114017049D01*
X136429653Y-113971013D01*
X136377928Y-114005243D01*
X136326048Y-114030952D01*
X136270649Y-114044399D01*
X136217395Y-114045818D01*
X136171951Y-114035443D01*
X136139984Y-114013507D01*
X136129662Y-113994998D01*
X136131211Y-113965314D01*
X136156860Y-113942615D01*
X136206540Y-113926940D01*
X136260969Y-113919695D01*
X136344736Y-113905873D01*
X136406967Y-113879796D01*
X136448493Y-113840699D01*
X136470147Y-113787820D01*
X136473147Y-113725126D01*
X136458329Y-113659642D01*
X136424546Y-113610144D01*
X136371495Y-113576408D01*
X136298874Y-113558207D01*
X136245072Y-113554639D01*
X136185983Y-113556452D01*
G36*
X135589238Y-113566055D02*
X135525637Y-113600692D01*
X135475877Y-113655372D01*
X135452432Y-113699842D01*
X135442366Y-113739121D01*
X135435844Y-113795116D01*
X135433049Y-113859621D01*
X135434164Y-113924429D01*
X135439374Y-113981334D01*
X135445459Y-114011727D01*
X135465986Y-114053306D01*
X135501537Y-114097468D01*
X135544381Y-114136087D01*
X135586789Y-114161034D01*
X135587823Y-114161430D01*
X135640447Y-114172331D01*
X135702812Y-114172601D01*
X135762076Y-114162676D01*
X135784960Y-114154722D01*
X135843898Y-114121300D01*
X135886110Y-114077511D01*
X135913844Y-114019538D01*
X135929349Y-113943565D01*
X135932857Y-113903771D01*
X135932410Y-113853766D01*
X135797624Y-113853766D01*
X135793083Y-113926732D01*
X135780014Y-113982334D01*
X135759244Y-114017861D01*
X135744448Y-114028020D01*
X135706536Y-114035104D01*
X135661473Y-114033007D01*
X135622513Y-114022812D01*
X135612296Y-114017204D01*
X135585341Y-113984538D01*
X135567549Y-113934545D01*
X135559976Y-113873705D01*
X135563675Y-113808497D01*
X135571943Y-113769253D01*
X135595680Y-113723805D01*
X135633151Y-113695396D01*
X135678280Y-113685573D01*
X135724989Y-113695887D01*
X135760868Y-113721112D01*
X135779723Y-113741925D01*
X135790728Y-113762439D01*
X135795974Y-113790203D01*
X135797551Y-113832762D01*
X135797624Y-113853766D01*
X135932410Y-113853766D01*
X135931906Y-113797580D01*
X135914612Y-113710501D01*
X135880971Y-113642530D01*
X135830982Y-113593664D01*
X135764644Y-113563899D01*
X135750399Y-113560448D01*
X135664790Y-113552345D01*
X135589238Y-113566055D01*
X135589238Y-113566055D01*
G37*
X135589238Y-113566055D02*
X135525637Y-113600692D01*
X135475877Y-113655372D01*
X135452432Y-113699842D01*
X135442366Y-113739121D01*
X135435844Y-113795116D01*
X135433049Y-113859621D01*
X135434164Y-113924429D01*
X135439374Y-113981334D01*
X135445459Y-114011727D01*
X135465986Y-114053306D01*
X135501537Y-114097468D01*
X135544381Y-114136087D01*
X135586789Y-114161034D01*
X135587823Y-114161430D01*
X135640447Y-114172331D01*
X135702812Y-114172601D01*
X135762076Y-114162676D01*
X135784960Y-114154722D01*
X135843898Y-114121300D01*
X135886110Y-114077511D01*
X135913844Y-114019538D01*
X135929349Y-113943565D01*
X135932857Y-113903771D01*
X135932410Y-113853766D01*
X135797624Y-113853766D01*
X135793083Y-113926732D01*
X135780014Y-113982334D01*
X135759244Y-114017861D01*
X135744448Y-114028020D01*
X135706536Y-114035104D01*
X135661473Y-114033007D01*
X135622513Y-114022812D01*
X135612296Y-114017204D01*
X135585341Y-113984538D01*
X135567549Y-113934545D01*
X135559976Y-113873705D01*
X135563675Y-113808497D01*
X135571943Y-113769253D01*
X135595680Y-113723805D01*
X135633151Y-113695396D01*
X135678280Y-113685573D01*
X135724989Y-113695887D01*
X135760868Y-113721112D01*
X135779723Y-113741925D01*
X135790728Y-113762439D01*
X135795974Y-113790203D01*
X135797551Y-113832762D01*
X135797624Y-113853766D01*
X135932410Y-113853766D01*
X135931906Y-113797580D01*
X135914612Y-113710501D01*
X135880971Y-113642530D01*
X135830982Y-113593664D01*
X135764644Y-113563899D01*
X135750399Y-113560448D01*
X135664790Y-113552345D01*
X135589238Y-113566055D01*
G36*
X135206633Y-113754342D02*
X135205445Y-113846563D01*
X135201103Y-113916610D01*
X135192442Y-113967381D01*
X135178296Y-114001772D01*
X135157500Y-114022679D01*
X135128890Y-114033000D01*
X135093465Y-114035636D01*
X135056364Y-114032682D01*
X135028182Y-114021889D01*
X135007757Y-114000360D01*
X134993921Y-113965199D01*
X134985509Y-113913510D01*
X134981357Y-113842394D01*
X134980297Y-113754342D01*
X134980297Y-113558614D01*
X134841980Y-113558614D01*
X134841980Y-114162179D01*
X134911138Y-114162179D01*
X134952830Y-114160489D01*
X134974299Y-114154556D01*
X134980297Y-114143293D01*
X134983909Y-114133261D01*
X134998286Y-114135383D01*
X135027264Y-114149580D01*
X135093681Y-114171480D01*
X135164125Y-114169928D01*
X135231623Y-114146147D01*
X135263767Y-114127362D01*
X135288285Y-114107022D01*
X135306196Y-114081573D01*
X135318521Y-114047458D01*
X135326277Y-114001121D01*
X135330484Y-113939007D01*
X135332160Y-113857561D01*
X135332376Y-113794578D01*
X135332376Y-113558614D01*
X135206633Y-113558614D01*
X135206633Y-113754342D01*
X135206633Y-113754342D01*
G37*
X135206633Y-113754342D02*
X135205445Y-113846563D01*
X135201103Y-113916610D01*
X135192442Y-113967381D01*
X135178296Y-114001772D01*
X135157500Y-114022679D01*
X135128890Y-114033000D01*
X135093465Y-114035636D01*
X135056364Y-114032682D01*
X135028182Y-114021889D01*
X135007757Y-114000360D01*
X134993921Y-113965199D01*
X134985509Y-113913510D01*
X134981357Y-113842394D01*
X134980297Y-113754342D01*
X134980297Y-113558614D01*
X134841980Y-113558614D01*
X134841980Y-114162179D01*
X134911138Y-114162179D01*
X134952830Y-114160489D01*
X134974299Y-114154556D01*
X134980297Y-114143293D01*
X134983909Y-114133261D01*
X134998286Y-114135383D01*
X135027264Y-114149580D01*
X135093681Y-114171480D01*
X135164125Y-114169928D01*
X135231623Y-114146147D01*
X135263767Y-114127362D01*
X135288285Y-114107022D01*
X135306196Y-114081573D01*
X135318521Y-114047458D01*
X135326277Y-114001121D01*
X135330484Y-113939007D01*
X135332160Y-113857561D01*
X135332376Y-113794578D01*
X135332376Y-113558614D01*
X135206633Y-113558614D01*
X135206633Y-113754342D01*
G36*
X133982774Y-113563880D02*
X133909920Y-113594830D01*
X133886973Y-113609895D01*
X133857646Y-113633048D01*
X133839236Y-113651253D01*
X133836039Y-113657183D01*
X133845065Y-113670340D01*
X133868163Y-113692667D01*
X133886656Y-113708250D01*
X133937272Y-113748926D01*
X133977240Y-113715295D01*
X134008126Y-113693584D01*
X134038241Y-113686090D01*
X134072708Y-113687920D01*
X134127439Y-113701528D01*
X134165114Y-113729772D01*
X134188009Y-113775433D01*
X134198403Y-113841289D01*
X134198405Y-113841331D01*
X134197506Y-113914939D01*
X134183537Y-113968946D01*
X134155672Y-114005716D01*
X134136675Y-114018168D01*
X134086224Y-114033673D01*
X134032337Y-114033683D01*
X133985454Y-114018638D01*
X133974356Y-114011287D01*
X133946524Y-113992511D01*
X133924764Y-113989434D01*
X133901296Y-114003409D01*
X133875351Y-114028510D01*
X133834284Y-114070880D01*
X133879879Y-114108464D01*
X133950326Y-114150882D01*
X134029767Y-114171785D01*
X134112785Y-114170272D01*
X134167306Y-114156411D01*
X134231030Y-114122135D01*
X134281995Y-114068212D01*
X134305149Y-114030149D01*
X134323901Y-113975536D01*
X134333285Y-113906369D01*
X134333357Y-113831407D01*
X134324176Y-113759409D01*
X134305801Y-113699137D01*
X134302907Y-113692958D01*
X134260048Y-113632351D01*
X134202021Y-113588224D01*
X134133409Y-113561493D01*
X134058799Y-113553073D01*
X133982774Y-113563880D01*
X133982774Y-113563880D01*
G37*
X133982774Y-113563880D02*
X133909920Y-113594830D01*
X133886973Y-113609895D01*
X133857646Y-113633048D01*
X133839236Y-113651253D01*
X133836039Y-113657183D01*
X133845065Y-113670340D01*
X133868163Y-113692667D01*
X133886656Y-113708250D01*
X133937272Y-113748926D01*
X133977240Y-113715295D01*
X134008126Y-113693584D01*
X134038241Y-113686090D01*
X134072708Y-113687920D01*
X134127439Y-113701528D01*
X134165114Y-113729772D01*
X134188009Y-113775433D01*
X134198403Y-113841289D01*
X134198405Y-113841331D01*
X134197506Y-113914939D01*
X134183537Y-113968946D01*
X134155672Y-114005716D01*
X134136675Y-114018168D01*
X134086224Y-114033673D01*
X134032337Y-114033683D01*
X133985454Y-114018638D01*
X133974356Y-114011287D01*
X133946524Y-113992511D01*
X133924764Y-113989434D01*
X133901296Y-114003409D01*
X133875351Y-114028510D01*
X133834284Y-114070880D01*
X133879879Y-114108464D01*
X133950326Y-114150882D01*
X134029767Y-114171785D01*
X134112785Y-114170272D01*
X134167306Y-114156411D01*
X134231030Y-114122135D01*
X134281995Y-114068212D01*
X134305149Y-114030149D01*
X134323901Y-113975536D01*
X134333285Y-113906369D01*
X134333357Y-113831407D01*
X134324176Y-113759409D01*
X134305801Y-113699137D01*
X134302907Y-113692958D01*
X134260048Y-113632351D01*
X134202021Y-113588224D01*
X134133409Y-113561493D01*
X134058799Y-113553073D01*
X133982774Y-113563880D01*
G36*
X133522102Y-113556457D02*
X133489904Y-113564279D01*
X133428175Y-113592921D01*
X133375390Y-113636667D01*
X133338859Y-113689117D01*
X133333840Y-113700893D01*
X133326955Y-113731740D01*
X133322136Y-113777371D01*
X133320495Y-113823492D01*
X133320495Y-113910693D01*
X133502822Y-113910693D01*
X133578021Y-113910978D01*
X133630997Y-113912704D01*
X133664675Y-113917181D01*
X133681980Y-113925720D01*
X133685837Y-113939630D01*
X133679171Y-113960222D01*
X133667230Y-113984315D01*
X133633920Y-114024525D01*
X133587632Y-114044558D01*
X133531056Y-114043905D01*
X133466969Y-114022101D01*
X133411583Y-113995193D01*
X133365625Y-114031532D01*
X133319667Y-114067872D01*
X133362904Y-114107819D01*
X133420626Y-114145563D01*
X133491614Y-114168320D01*
X133567971Y-114174688D01*
X133641801Y-114163268D01*
X133653713Y-114159393D01*
X133718601Y-114125506D01*
X133766870Y-114074986D01*
X133799535Y-114006325D01*
X133817615Y-113918014D01*
X133817825Y-113916121D01*
X133819444Y-113819878D01*
X133812900Y-113785542D01*
X133685148Y-113785542D01*
X133673416Y-113790822D01*
X133641562Y-113794867D01*
X133594603Y-113797176D01*
X133564846Y-113797525D01*
X133509352Y-113797306D01*
X133474654Y-113795916D01*
X133456399Y-113792251D01*
X133450234Y-113785210D01*
X133451805Y-113773690D01*
X133453122Y-113769233D01*
X133475618Y-113727355D01*
X133510997Y-113693604D01*
X133542220Y-113678773D01*
X133583699Y-113679668D01*
X133625731Y-113698164D01*
X133660988Y-113728786D01*
X133682146Y-113766062D01*
X133685148Y-113785542D01*
X133812900Y-113785542D01*
X133803310Y-113735229D01*
X133771302Y-113664191D01*
X133725299Y-113608779D01*
X133667179Y-113571009D01*
X133598820Y-113552896D01*
X133522102Y-113556457D01*
X133522102Y-113556457D01*
G37*
X133522102Y-113556457D02*
X133489904Y-113564279D01*
X133428175Y-113592921D01*
X133375390Y-113636667D01*
X133338859Y-113689117D01*
X133333840Y-113700893D01*
X133326955Y-113731740D01*
X133322136Y-113777371D01*
X133320495Y-113823492D01*
X133320495Y-113910693D01*
X133502822Y-113910693D01*
X133578021Y-113910978D01*
X133630997Y-113912704D01*
X133664675Y-113917181D01*
X133681980Y-113925720D01*
X133685837Y-113939630D01*
X133679171Y-113960222D01*
X133667230Y-113984315D01*
X133633920Y-114024525D01*
X133587632Y-114044558D01*
X133531056Y-114043905D01*
X133466969Y-114022101D01*
X133411583Y-113995193D01*
X133365625Y-114031532D01*
X133319667Y-114067872D01*
X133362904Y-114107819D01*
X133420626Y-114145563D01*
X133491614Y-114168320D01*
X133567971Y-114174688D01*
X133641801Y-114163268D01*
X133653713Y-114159393D01*
X133718601Y-114125506D01*
X133766870Y-114074986D01*
X133799535Y-114006325D01*
X133817615Y-113918014D01*
X133817825Y-113916121D01*
X133819444Y-113819878D01*
X133812900Y-113785542D01*
X133685148Y-113785542D01*
X133673416Y-113790822D01*
X133641562Y-113794867D01*
X133594603Y-113797176D01*
X133564846Y-113797525D01*
X133509352Y-113797306D01*
X133474654Y-113795916D01*
X133456399Y-113792251D01*
X133450234Y-113785210D01*
X133451805Y-113773690D01*
X133453122Y-113769233D01*
X133475618Y-113727355D01*
X133510997Y-113693604D01*
X133542220Y-113678773D01*
X133583699Y-113679668D01*
X133625731Y-113698164D01*
X133660988Y-113728786D01*
X133682146Y-113766062D01*
X133685148Y-113785542D01*
X133812900Y-113785542D01*
X133803310Y-113735229D01*
X133771302Y-113664191D01*
X133725299Y-113608779D01*
X133667179Y-113571009D01*
X133598820Y-113552896D01*
X133522102Y-113556457D01*
G36*
X136954012Y-113569002D02*
X136922717Y-113583950D01*
X136892409Y-113605541D01*
X136869318Y-113630391D01*
X136852500Y-113662087D01*
X136841006Y-113704214D01*
X136833891Y-113760358D01*
X136830207Y-113834106D01*
X136829008Y-113929044D01*
X136828989Y-113938985D01*
X136828713Y-114162179D01*
X136967030Y-114162179D01*
X136967030Y-113956418D01*
X136967128Y-113880189D01*
X136967809Y-113824939D01*
X136969651Y-113786501D01*
X136973233Y-113760706D01*
X136979132Y-113743384D01*
X136987927Y-113730368D01*
X137000180Y-113717507D01*
X137043047Y-113689873D01*
X137089843Y-113684745D01*
X137134424Y-113702217D01*
X137149928Y-113715221D01*
X137161310Y-113727447D01*
X137169481Y-113740540D01*
X137174974Y-113758615D01*
X137178320Y-113785787D01*
X137180051Y-113826170D01*
X137180697Y-113883879D01*
X137180792Y-113954132D01*
X137180792Y-114162179D01*
X137319109Y-114162179D01*
X137319109Y-113558614D01*
X137249950Y-113558614D01*
X137208428Y-113560256D01*
X137187006Y-113566087D01*
X137180795Y-113577461D01*
X137180792Y-113577798D01*
X137177910Y-113588938D01*
X137165199Y-113587674D01*
X137139926Y-113575434D01*
X137082605Y-113557424D01*
X137017037Y-113555421D01*
X136954012Y-113569002D01*
X136954012Y-113569002D01*
G37*
X136954012Y-113569002D02*
X136922717Y-113583950D01*
X136892409Y-113605541D01*
X136869318Y-113630391D01*
X136852500Y-113662087D01*
X136841006Y-113704214D01*
X136833891Y-113760358D01*
X136830207Y-113834106D01*
X136829008Y-113929044D01*
X136828989Y-113938985D01*
X136828713Y-114162179D01*
X136967030Y-114162179D01*
X136967030Y-113956418D01*
X136967128Y-113880189D01*
X136967809Y-113824939D01*
X136969651Y-113786501D01*
X136973233Y-113760706D01*
X136979132Y-113743384D01*
X136987927Y-113730368D01*
X137000180Y-113717507D01*
X137043047Y-113689873D01*
X137089843Y-113684745D01*
X137134424Y-113702217D01*
X137149928Y-113715221D01*
X137161310Y-113727447D01*
X137169481Y-113740540D01*
X137174974Y-113758615D01*
X137178320Y-113785787D01*
X137180051Y-113826170D01*
X137180697Y-113883879D01*
X137180792Y-113954132D01*
X137180792Y-114162179D01*
X137319109Y-114162179D01*
X137319109Y-113558614D01*
X137249950Y-113558614D01*
X137208428Y-113560256D01*
X137187006Y-113566087D01*
X137180795Y-113577461D01*
X137180792Y-113577798D01*
X137177910Y-113588938D01*
X137165199Y-113587674D01*
X137139926Y-113575434D01*
X137082605Y-113557424D01*
X137017037Y-113555421D01*
X136954012Y-113569002D01*
G36*
X134400540Y-113558030D02*
X134357289Y-113571245D01*
X134329442Y-113587941D01*
X134320371Y-113601145D01*
X134322868Y-113616797D01*
X134339069Y-113641385D01*
X134352768Y-113658800D01*
X134381008Y-113690283D01*
X134402225Y-113703529D01*
X134420312Y-113702664D01*
X134473965Y-113689010D01*
X134513370Y-113689630D01*
X134545368Y-113705104D01*
X134556110Y-113714161D01*
X134590495Y-113746027D01*
X134590495Y-114162179D01*
X134728812Y-114162179D01*
X134728812Y-113558614D01*
X134659653Y-113558614D01*
X134618131Y-113560256D01*
X134596709Y-113566087D01*
X134590498Y-113577461D01*
X134590495Y-113577798D01*
X134587561Y-113589713D01*
X134574296Y-113588159D01*
X134555916Y-113579563D01*
X134517954Y-113563568D01*
X134487128Y-113553945D01*
X134447464Y-113551478D01*
X134400540Y-113558030D01*
X134400540Y-113558030D01*
G37*
X134400540Y-113558030D02*
X134357289Y-113571245D01*
X134329442Y-113587941D01*
X134320371Y-113601145D01*
X134322868Y-113616797D01*
X134339069Y-113641385D01*
X134352768Y-113658800D01*
X134381008Y-113690283D01*
X134402225Y-113703529D01*
X134420312Y-113702664D01*
X134473965Y-113689010D01*
X134513370Y-113689630D01*
X134545368Y-113705104D01*
X134556110Y-113714161D01*
X134590495Y-113746027D01*
X134590495Y-114162179D01*
X134728812Y-114162179D01*
X134728812Y-113558614D01*
X134659653Y-113558614D01*
X134618131Y-113560256D01*
X134596709Y-113566087D01*
X134590498Y-113577461D01*
X134590495Y-113577798D01*
X134587561Y-113589713D01*
X134574296Y-113588159D01*
X134555916Y-113579563D01*
X134517954Y-113563568D01*
X134487128Y-113553945D01*
X134447464Y-113551478D01*
X134400540Y-113558030D01*
G36*
X135823036Y-109390018D02*
X135766188Y-109691570D01*
X135346662Y-109864512D01*
X135095016Y-109693395D01*
X135024542Y-109645750D01*
X134960837Y-109603210D01*
X134906874Y-109567715D01*
X134865627Y-109541210D01*
X134840066Y-109525636D01*
X134833105Y-109522278D01*
X134820565Y-109530914D01*
X134793769Y-109554792D01*
X134755720Y-109590859D01*
X134709421Y-109636067D01*
X134657877Y-109687364D01*
X134604091Y-109741701D01*
X134551065Y-109796028D01*
X134501805Y-109847295D01*
X134459313Y-109892451D01*
X134426593Y-109928446D01*
X134406649Y-109952230D01*
X134401881Y-109960190D01*
X134408743Y-109974865D01*
X134427980Y-110007014D01*
X134457570Y-110053492D01*
X134495490Y-110111156D01*
X134539718Y-110176860D01*
X134565346Y-110214336D01*
X134612059Y-110282768D01*
X134653568Y-110344520D01*
X134687860Y-110396519D01*
X134712920Y-110435692D01*
X134726736Y-110458965D01*
X134728812Y-110463855D01*
X134724105Y-110477755D01*
X134711277Y-110510150D01*
X134692262Y-110556485D01*
X134668997Y-110612206D01*
X134643416Y-110672758D01*
X134617455Y-110733586D01*
X134593050Y-110790136D01*
X134572137Y-110837852D01*
X134556651Y-110872181D01*
X134548528Y-110888568D01*
X134548048Y-110889212D01*
X134535293Y-110892341D01*
X134501323Y-110899321D01*
X134449660Y-110909467D01*
X134383824Y-110922092D01*
X134307336Y-110936509D01*
X134262710Y-110944823D01*
X134180979Y-110960384D01*
X134107157Y-110975192D01*
X134044979Y-110988436D01*
X133998178Y-110999305D01*
X133970491Y-111006989D01*
X133964926Y-111009427D01*
X133959474Y-111025930D01*
X133955076Y-111063200D01*
X133951728Y-111116880D01*
X133949426Y-111182612D01*
X133948168Y-111256037D01*
X133947952Y-111332796D01*
X133948773Y-111408532D01*
X133950629Y-111478886D01*
X133953518Y-111539500D01*
X133957435Y-111586016D01*
X133962378Y-111614075D01*
X133965343Y-111619916D01*
X133983066Y-111626917D01*
X134020619Y-111636927D01*
X134073036Y-111648769D01*
X134135348Y-111661267D01*
X134157100Y-111665310D01*
X134261976Y-111684520D01*
X134344820Y-111699991D01*
X134408370Y-111712337D01*
X134455363Y-111722173D01*
X134488537Y-111730114D01*
X134510629Y-111736776D01*
X134524376Y-111742773D01*
X134532516Y-111748719D01*
X134533655Y-111749894D01*
X134545023Y-111768826D01*
X134562365Y-111805669D01*
X134583950Y-111855913D01*
X134608046Y-111915046D01*
X134632921Y-111978556D01*
X134656843Y-112041932D01*
X134678081Y-112100662D01*
X134694903Y-112150235D01*
X134705578Y-112186139D01*
X134708373Y-112203862D01*
X134708140Y-112204483D01*
X134698669Y-112218970D01*
X134677182Y-112250844D01*
X134645937Y-112296789D01*
X134607193Y-112353485D01*
X134563207Y-112417617D01*
X134550681Y-112435842D01*
X134506016Y-112501914D01*
X134466712Y-112562200D01*
X134434912Y-112613235D01*
X134412755Y-112651560D01*
X134402383Y-112673711D01*
X134401881Y-112676432D01*
X134410595Y-112690736D01*
X134434675Y-112719072D01*
X134471024Y-112758396D01*
X134516547Y-112805661D01*
X134568148Y-112857823D01*
X134622733Y-112911835D01*
X134677206Y-112964653D01*
X134728471Y-113013231D01*
X134773433Y-113054523D01*
X134808996Y-113085485D01*
X134832065Y-113103070D01*
X134838446Y-113105941D01*
X134853301Y-113099178D01*
X134883714Y-113080939D01*
X134924732Y-113054297D01*
X134956291Y-113032852D01*
X135013475Y-112993503D01*
X135081194Y-112947171D01*
X135149120Y-112900913D01*
X135185639Y-112876155D01*
X135309248Y-112792547D01*
X135413009Y-112848650D01*
X135460280Y-112873228D01*
X135500477Y-112892331D01*
X135527674Y-112903227D01*
X135534598Y-112904743D01*
X135542923Y-112893549D01*
X135559346Y-112861917D01*
X135582643Y-112812765D01*
X135611586Y-112749010D01*
X135644950Y-112673571D01*
X135681509Y-112589364D01*
X135720036Y-112499308D01*
X135759306Y-112406321D01*
X135798092Y-112313320D01*
X135835170Y-112223223D01*
X135869311Y-112138948D01*
X135899292Y-112063413D01*
X135923884Y-111999534D01*
X135941864Y-111950231D01*
X135952003Y-111918421D01*
X135953634Y-111907496D01*
X135940709Y-111893561D01*
X135912411Y-111870940D01*
X135874654Y-111844333D01*
X135871485Y-111842228D01*
X135773900Y-111764114D01*
X135695214Y-111672982D01*
X135636109Y-111571745D01*
X135597268Y-111463318D01*
X135579372Y-111350614D01*
X135583103Y-111236548D01*
X135609143Y-111124034D01*
X135658175Y-111015985D01*
X135672600Y-110992345D01*
X135747631Y-110896887D01*
X135836270Y-110820232D01*
X135935451Y-110762780D01*
X136042105Y-110724929D01*
X136153164Y-110707078D01*
X136265561Y-110709625D01*
X136376227Y-110732970D01*
X136482094Y-110777510D01*
X136580095Y-110843645D01*
X136610410Y-110870487D01*
X136687562Y-110954512D01*
X136743782Y-111042966D01*
X136782347Y-111142115D01*
X136803826Y-111240303D01*
X136809128Y-111350697D01*
X136791448Y-111461640D01*
X136752581Y-111569381D01*
X136694323Y-111670169D01*
X136618469Y-111760256D01*
X136526817Y-111835892D01*
X136514772Y-111843864D01*
X136476611Y-111869974D01*
X136447601Y-111892595D01*
X136433732Y-111907039D01*
X136433531Y-111907496D01*
X136436508Y-111923121D01*
X136448311Y-111958582D01*
X136467714Y-112010962D01*
X136493488Y-112077345D01*
X136524409Y-112154814D01*
X136559249Y-112240450D01*
X136596783Y-112331337D01*
X136635783Y-112424559D01*
X136675023Y-112517197D01*
X136713276Y-112606335D01*
X136749317Y-112689055D01*
X136781917Y-112762441D01*
X136809852Y-112823575D01*
X136831895Y-112869541D01*
X136846818Y-112897421D01*
X136852828Y-112904743D01*
X136871191Y-112899041D01*
X136905552Y-112883749D01*
X136949984Y-112861599D01*
X136974417Y-112848650D01*
X137078178Y-112792547D01*
X137201787Y-112876155D01*
X137264886Y-112918987D01*
X137333970Y-112966122D01*
X137398707Y-113010503D01*
X137431134Y-113032852D01*
X137476741Y-113063477D01*
X137515360Y-113087747D01*
X137541952Y-113102587D01*
X137550590Y-113105724D01*
X137563161Y-113097261D01*
X137590984Y-113073636D01*
X137631361Y-113037302D01*
X137681595Y-112990711D01*
X137738988Y-112936317D01*
X137775286Y-112901392D01*
X137838790Y-112838996D01*
X137893673Y-112783188D01*
X137937714Y-112736354D01*
X137968695Y-112700882D01*
X137984398Y-112679161D01*
X137985905Y-112674752D01*
X137978914Y-112657985D01*
X137959594Y-112624082D01*
X137930091Y-112576476D01*
X137892545Y-112518599D01*
X137849100Y-112453884D01*
X137836745Y-112435842D01*
X137791727Y-112370267D01*
X137751340Y-112311228D01*
X137717840Y-112262042D01*
X137693486Y-112226028D01*
X137680536Y-112206502D01*
X137679285Y-112204483D01*
X137681156Y-112188922D01*
X137691087Y-112154709D01*
X137707347Y-112106355D01*
X137728205Y-112048371D01*
X137751927Y-111985270D01*
X137776784Y-111921563D01*
X137801042Y-111861761D01*
X137822971Y-111810376D01*
X137840838Y-111771919D01*
X137852913Y-111750902D01*
X137853771Y-111749894D01*
X137861154Y-111743888D01*
X137873625Y-111737948D01*
X137893920Y-111731460D01*
X137924778Y-111723809D01*
X137968934Y-111714380D01*
X138029126Y-111702559D01*
X138108093Y-111687729D01*
X138208570Y-111669277D01*
X138230325Y-111665310D01*
X138294802Y-111652853D01*
X138351011Y-111640666D01*
X138393987Y-111629926D01*
X138418760Y-111621809D01*
X138422082Y-111619916D01*
X138427556Y-111603138D01*
X138432006Y-111565645D01*
X138435428Y-111511794D01*
X138437819Y-111445944D01*
X138439177Y-111372453D01*
X138439499Y-111295680D01*
X138438781Y-111219983D01*
X138437021Y-111149720D01*
X138434216Y-111089250D01*
X138430362Y-111042930D01*
X138425457Y-111015119D01*
X138422500Y-111009427D01*
X138406037Y-111003686D01*
X138368551Y-110994345D01*
X138313775Y-110982215D01*
X138245445Y-110968107D01*
X138167294Y-110952830D01*
X138124716Y-110944823D01*
X138043929Y-110929721D01*
X137971887Y-110916040D01*
X137912111Y-110904467D01*
X137868121Y-110895687D01*
X137843439Y-110890387D01*
X137839377Y-110889212D01*
X137832511Y-110875965D01*
X137817998Y-110844057D01*
X137797771Y-110798047D01*
X137773766Y-110742492D01*
X137747918Y-110681953D01*
X137722160Y-110620986D01*
X137698427Y-110564151D01*
X137678654Y-110516006D01*
X137664776Y-110481110D01*
X137658726Y-110464021D01*
X137658614Y-110463274D01*
X137665472Y-110449793D01*
X137684698Y-110418770D01*
X137714272Y-110373289D01*
X137752173Y-110316432D01*
X137796380Y-110251283D01*
X137822079Y-110213862D01*
X137868907Y-110145247D01*
X137910499Y-110082952D01*
X137944825Y-110030129D01*
X137969857Y-109989927D01*
X137983565Y-109965500D01*
X137985544Y-109960024D01*
X137977034Y-109947278D01*
X137953507Y-109920063D01*
X137917968Y-109881428D01*
X137873423Y-109834423D01*
X137822877Y-109782095D01*
X137769336Y-109727495D01*
X137715805Y-109673670D01*
X137665289Y-109623670D01*
X137620794Y-109580543D01*
X137585325Y-109547339D01*
X137561887Y-109527106D01*
X137554046Y-109522278D01*
X137541280Y-109529067D01*
X137510744Y-109548142D01*
X137465410Y-109577561D01*
X137408244Y-109615381D01*
X137342216Y-109659661D01*
X137292410Y-109693395D01*
X137040764Y-109864512D01*
X136831001Y-109778041D01*
X136621237Y-109691570D01*
X136564389Y-109390018D01*
X136507540Y-109088466D01*
X135879885Y-109088466D01*
X135823036Y-109390018D01*
X135823036Y-109390018D01*
G37*
X135823036Y-109390018D02*
X135766188Y-109691570D01*
X135346662Y-109864512D01*
X135095016Y-109693395D01*
X135024542Y-109645750D01*
X134960837Y-109603210D01*
X134906874Y-109567715D01*
X134865627Y-109541210D01*
X134840066Y-109525636D01*
X134833105Y-109522278D01*
X134820565Y-109530914D01*
X134793769Y-109554792D01*
X134755720Y-109590859D01*
X134709421Y-109636067D01*
X134657877Y-109687364D01*
X134604091Y-109741701D01*
X134551065Y-109796028D01*
X134501805Y-109847295D01*
X134459313Y-109892451D01*
X134426593Y-109928446D01*
X134406649Y-109952230D01*
X134401881Y-109960190D01*
X134408743Y-109974865D01*
X134427980Y-110007014D01*
X134457570Y-110053492D01*
X134495490Y-110111156D01*
X134539718Y-110176860D01*
X134565346Y-110214336D01*
X134612059Y-110282768D01*
X134653568Y-110344520D01*
X134687860Y-110396519D01*
X134712920Y-110435692D01*
X134726736Y-110458965D01*
X134728812Y-110463855D01*
X134724105Y-110477755D01*
X134711277Y-110510150D01*
X134692262Y-110556485D01*
X134668997Y-110612206D01*
X134643416Y-110672758D01*
X134617455Y-110733586D01*
X134593050Y-110790136D01*
X134572137Y-110837852D01*
X134556651Y-110872181D01*
X134548528Y-110888568D01*
X134548048Y-110889212D01*
X134535293Y-110892341D01*
X134501323Y-110899321D01*
X134449660Y-110909467D01*
X134383824Y-110922092D01*
X134307336Y-110936509D01*
X134262710Y-110944823D01*
X134180979Y-110960384D01*
X134107157Y-110975192D01*
X134044979Y-110988436D01*
X133998178Y-110999305D01*
X133970491Y-111006989D01*
X133964926Y-111009427D01*
X133959474Y-111025930D01*
X133955076Y-111063200D01*
X133951728Y-111116880D01*
X133949426Y-111182612D01*
X133948168Y-111256037D01*
X133947952Y-111332796D01*
X133948773Y-111408532D01*
X133950629Y-111478886D01*
X133953518Y-111539500D01*
X133957435Y-111586016D01*
X133962378Y-111614075D01*
X133965343Y-111619916D01*
X133983066Y-111626917D01*
X134020619Y-111636927D01*
X134073036Y-111648769D01*
X134135348Y-111661267D01*
X134157100Y-111665310D01*
X134261976Y-111684520D01*
X134344820Y-111699991D01*
X134408370Y-111712337D01*
X134455363Y-111722173D01*
X134488537Y-111730114D01*
X134510629Y-111736776D01*
X134524376Y-111742773D01*
X134532516Y-111748719D01*
X134533655Y-111749894D01*
X134545023Y-111768826D01*
X134562365Y-111805669D01*
X134583950Y-111855913D01*
X134608046Y-111915046D01*
X134632921Y-111978556D01*
X134656843Y-112041932D01*
X134678081Y-112100662D01*
X134694903Y-112150235D01*
X134705578Y-112186139D01*
X134708373Y-112203862D01*
X134708140Y-112204483D01*
X134698669Y-112218970D01*
X134677182Y-112250844D01*
X134645937Y-112296789D01*
X134607193Y-112353485D01*
X134563207Y-112417617D01*
X134550681Y-112435842D01*
X134506016Y-112501914D01*
X134466712Y-112562200D01*
X134434912Y-112613235D01*
X134412755Y-112651560D01*
X134402383Y-112673711D01*
X134401881Y-112676432D01*
X134410595Y-112690736D01*
X134434675Y-112719072D01*
X134471024Y-112758396D01*
X134516547Y-112805661D01*
X134568148Y-112857823D01*
X134622733Y-112911835D01*
X134677206Y-112964653D01*
X134728471Y-113013231D01*
X134773433Y-113054523D01*
X134808996Y-113085485D01*
X134832065Y-113103070D01*
X134838446Y-113105941D01*
X134853301Y-113099178D01*
X134883714Y-113080939D01*
X134924732Y-113054297D01*
X134956291Y-113032852D01*
X135013475Y-112993503D01*
X135081194Y-112947171D01*
X135149120Y-112900913D01*
X135185639Y-112876155D01*
X135309248Y-112792547D01*
X135413009Y-112848650D01*
X135460280Y-112873228D01*
X135500477Y-112892331D01*
X135527674Y-112903227D01*
X135534598Y-112904743D01*
X135542923Y-112893549D01*
X135559346Y-112861917D01*
X135582643Y-112812765D01*
X135611586Y-112749010D01*
X135644950Y-112673571D01*
X135681509Y-112589364D01*
X135720036Y-112499308D01*
X135759306Y-112406321D01*
X135798092Y-112313320D01*
X135835170Y-112223223D01*
X135869311Y-112138948D01*
X135899292Y-112063413D01*
X135923884Y-111999534D01*
X135941864Y-111950231D01*
X135952003Y-111918421D01*
X135953634Y-111907496D01*
X135940709Y-111893561D01*
X135912411Y-111870940D01*
X135874654Y-111844333D01*
X135871485Y-111842228D01*
X135773900Y-111764114D01*
X135695214Y-111672982D01*
X135636109Y-111571745D01*
X135597268Y-111463318D01*
X135579372Y-111350614D01*
X135583103Y-111236548D01*
X135609143Y-111124034D01*
X135658175Y-111015985D01*
X135672600Y-110992345D01*
X135747631Y-110896887D01*
X135836270Y-110820232D01*
X135935451Y-110762780D01*
X136042105Y-110724929D01*
X136153164Y-110707078D01*
X136265561Y-110709625D01*
X136376227Y-110732970D01*
X136482094Y-110777510D01*
X136580095Y-110843645D01*
X136610410Y-110870487D01*
X136687562Y-110954512D01*
X136743782Y-111042966D01*
X136782347Y-111142115D01*
X136803826Y-111240303D01*
X136809128Y-111350697D01*
X136791448Y-111461640D01*
X136752581Y-111569381D01*
X136694323Y-111670169D01*
X136618469Y-111760256D01*
X136526817Y-111835892D01*
X136514772Y-111843864D01*
X136476611Y-111869974D01*
X136447601Y-111892595D01*
X136433732Y-111907039D01*
X136433531Y-111907496D01*
X136436508Y-111923121D01*
X136448311Y-111958582D01*
X136467714Y-112010962D01*
X136493488Y-112077345D01*
X136524409Y-112154814D01*
X136559249Y-112240450D01*
X136596783Y-112331337D01*
X136635783Y-112424559D01*
X136675023Y-112517197D01*
X136713276Y-112606335D01*
X136749317Y-112689055D01*
X136781917Y-112762441D01*
X136809852Y-112823575D01*
X136831895Y-112869541D01*
X136846818Y-112897421D01*
X136852828Y-112904743D01*
X136871191Y-112899041D01*
X136905552Y-112883749D01*
X136949984Y-112861599D01*
X136974417Y-112848650D01*
X137078178Y-112792547D01*
X137201787Y-112876155D01*
X137264886Y-112918987D01*
X137333970Y-112966122D01*
X137398707Y-113010503D01*
X137431134Y-113032852D01*
X137476741Y-113063477D01*
X137515360Y-113087747D01*
X137541952Y-113102587D01*
X137550590Y-113105724D01*
X137563161Y-113097261D01*
X137590984Y-113073636D01*
X137631361Y-113037302D01*
X137681595Y-112990711D01*
X137738988Y-112936317D01*
X137775286Y-112901392D01*
X137838790Y-112838996D01*
X137893673Y-112783188D01*
X137937714Y-112736354D01*
X137968695Y-112700882D01*
X137984398Y-112679161D01*
X137985905Y-112674752D01*
X137978914Y-112657985D01*
X137959594Y-112624082D01*
X137930091Y-112576476D01*
X137892545Y-112518599D01*
X137849100Y-112453884D01*
X137836745Y-112435842D01*
X137791727Y-112370267D01*
X137751340Y-112311228D01*
X137717840Y-112262042D01*
X137693486Y-112226028D01*
X137680536Y-112206502D01*
X137679285Y-112204483D01*
X137681156Y-112188922D01*
X137691087Y-112154709D01*
X137707347Y-112106355D01*
X137728205Y-112048371D01*
X137751927Y-111985270D01*
X137776784Y-111921563D01*
X137801042Y-111861761D01*
X137822971Y-111810376D01*
X137840838Y-111771919D01*
X137852913Y-111750902D01*
X137853771Y-111749894D01*
X137861154Y-111743888D01*
X137873625Y-111737948D01*
X137893920Y-111731460D01*
X137924778Y-111723809D01*
X137968934Y-111714380D01*
X138029126Y-111702559D01*
X138108093Y-111687729D01*
X138208570Y-111669277D01*
X138230325Y-111665310D01*
X138294802Y-111652853D01*
X138351011Y-111640666D01*
X138393987Y-111629926D01*
X138418760Y-111621809D01*
X138422082Y-111619916D01*
X138427556Y-111603138D01*
X138432006Y-111565645D01*
X138435428Y-111511794D01*
X138437819Y-111445944D01*
X138439177Y-111372453D01*
X138439499Y-111295680D01*
X138438781Y-111219983D01*
X138437021Y-111149720D01*
X138434216Y-111089250D01*
X138430362Y-111042930D01*
X138425457Y-111015119D01*
X138422500Y-111009427D01*
X138406037Y-111003686D01*
X138368551Y-110994345D01*
X138313775Y-110982215D01*
X138245445Y-110968107D01*
X138167294Y-110952830D01*
X138124716Y-110944823D01*
X138043929Y-110929721D01*
X137971887Y-110916040D01*
X137912111Y-110904467D01*
X137868121Y-110895687D01*
X137843439Y-110890387D01*
X137839377Y-110889212D01*
X137832511Y-110875965D01*
X137817998Y-110844057D01*
X137797771Y-110798047D01*
X137773766Y-110742492D01*
X137747918Y-110681953D01*
X137722160Y-110620986D01*
X137698427Y-110564151D01*
X137678654Y-110516006D01*
X137664776Y-110481110D01*
X137658726Y-110464021D01*
X137658614Y-110463274D01*
X137665472Y-110449793D01*
X137684698Y-110418770D01*
X137714272Y-110373289D01*
X137752173Y-110316432D01*
X137796380Y-110251283D01*
X137822079Y-110213862D01*
X137868907Y-110145247D01*
X137910499Y-110082952D01*
X137944825Y-110030129D01*
X137969857Y-109989927D01*
X137983565Y-109965500D01*
X137985544Y-109960024D01*
X137977034Y-109947278D01*
X137953507Y-109920063D01*
X137917968Y-109881428D01*
X137873423Y-109834423D01*
X137822877Y-109782095D01*
X137769336Y-109727495D01*
X137715805Y-109673670D01*
X137665289Y-109623670D01*
X137620794Y-109580543D01*
X137585325Y-109547339D01*
X137561887Y-109527106D01*
X137554046Y-109522278D01*
X137541280Y-109529067D01*
X137510744Y-109548142D01*
X137465410Y-109577561D01*
X137408244Y-109615381D01*
X137342216Y-109659661D01*
X137292410Y-109693395D01*
X137040764Y-109864512D01*
X136831001Y-109778041D01*
X136621237Y-109691570D01*
X136564389Y-109390018D01*
X136507540Y-109088466D01*
X135879885Y-109088466D01*
X135823036Y-109390018D01*
M02*
